<?xml version="1.0" standalone="no"?>
<!DOCTYPE svg PUBLIC "-//W3C//DTD SVG 1.1//EN" "http://www.w3.org/Graphics/SVG/1.1/DTD/svg11.dtd" >
<svg xmlns="http://www.w3.org/2000/svg">
<metadata>
Created by FontPrep 20130207 at Wed Aug 27 20:43:45 2014
 By Mark Quirvien
Copyright (c) 1981, 1982, 1983, 1989 and 1993, Linotype Library GmbH or its affiliated Linotype-Hell companies. All rights reserved.

The digitally encoded machine readable software for producing the Typefaces licensed to you is now the property of Heidelberger Druckmaschinen AG and its licensors, and may not be reproduced, used, displayed, modified, disclosed or transferred without the express written approval of Heidelberger Druckmaschinen AG.

Copyright (c) 1988, 1990, 1993 Adobe Systems Incorporated. All Rights Reserved.
</metadata>
<defs>
<font id="742171b431310a8283213206fd340c77" horiz-adv-x='1024' >
  <font-face 
    font-family="HelveticaNeue-Italic"
    font-weight="400"
    font-style="italic"
    font-stretch="normal"
    units-per-em="2048"
    panose-1="2 0 5 3 0 0 0 9 0 4"
    ascent="1638"
    descent="-410"
    x-height="1059"
    cap-height="1462"
    bbox="-2034 -985 3095 2206"
    underline-thickness="102"
    underline-position="-153"
    slope="-12"
    unicode-range="U+0008-FFA7"
  />
<missing-glyph horiz-adv-x="1024" 
d="M946 1458v-1458h-844v1458h844zM883 1389h-717v-1313h717v1313z" />
    <glyph glyph-name="uniFB00" unicode="ff" horiz-adv-x="1181" 
d="M1239 1325q-59 0 -99 -24.5t-55 -94.5l-32 -147h204l-32 -154h-205l-191 -905h-174l191 905h-402l-190 -905h-174l190 905h-178l33 154h178l35 158q59 262 348 262q60 0 109 -17l-31 -151q-40 14 -100 14q-59 0 -99.5 -24.5t-54.5 -94.5l-33 -147h402l34 158
q59 262 349 262q61 0 108 -17l-31 -151q-41 14 -100 14z" />
    <glyph glyph-name="fi" unicode="fi" horiz-adv-x="1062" 
d="M819 1059h174l-221 -1059h-174zM1034 1249h-176l45 213h176zM632 1325q-44 0 -79 -23.5t-54.5 -61.5t-28.5 -85t-24 -96h203l-28 -154h-205l-195 -905h-174l197 905h-181l31 154h180q20 80 38 155.5t70.5 170t233.5 94.5q92 0 146 -17l-29 -147q-57 10 -101 10z" />
    <glyph glyph-name="fl" unicode="fl" horiz-adv-x="1062" 
d="M632 1325q-44 0 -79 -23.5t-54.5 -61.5t-28.5 -85t-24 -96h203l-28 -154h-205l-195 -905h-174l197 905h-181l31 154h180q20 80 38 155.5t70.5 170t233.5 94.5q92 0 146 -17l-29 -147q-57 10 -101 10zM905 1462h174l-307 -1462h-174z" />
    <glyph glyph-name="uniFB03" unicode="ffi" horiz-adv-x="1636" 
d="M1423 1059h174l-223 -1059h-174zM1638 1249h-174l45 213h174zM1239 1325q-59 0 -99 -24.5t-55 -94.5l-32 -147h204l-32 -154h-205l-191 -905h-174l191 905h-402l-190 -905h-174l190 905h-178l33 154h178l35 158q59 262 348 262q60 0 109 -17l-31 -151q-40 14 -100 14
q-59 0 -99.5 -24.5t-54.5 -94.5l-33 -147h402l34 158q59 262 349 262q61 0 108 -17l-31 -151q-41 14 -100 14z" />
    <glyph glyph-name="uniFB04" unicode="ffl" horiz-adv-x="1636" 
d="M1509 1462h174l-309 -1462h-174zM1239 1325q-59 0 -99 -24.5t-55 -94.5l-32 -147h204l-32 -154h-205l-191 -905h-174l191 905h-402l-190 -905h-174l190 905h-178l33 154h178l35 158q59 262 348 262q60 0 109 -17l-31 -151q-40 14 -100 14q-59 0 -99.5 -24.5t-54.5 -94.5
l-33 -147h402l34 158q59 262 349 262q61 0 108 -17l-31 -151q-41 14 -100 14z" />
    <glyph glyph-name=".notdef" horiz-adv-x="1024" 
d="M946 1458v-1458h-844v1458h844zM883 1389h-717v-1313h717v1313z" />
    <glyph glyph-name=".null" horiz-adv-x="0" 
 />
    <glyph glyph-name=".null" horiz-adv-x="0" 
 />
    <glyph glyph-name="nonmarkingreturn" horiz-adv-x="681" 
 />
    <glyph glyph-name="controlBS" horiz-adv-x="0" 
 />
    <glyph glyph-name="controlHT" unicode="&#x9;" horiz-adv-x="569" 
 />
    <glyph glyph-name="space" unicode="&#xa;" horiz-adv-x="569" 
 />
    <glyph glyph-name="space" unicode=" " horiz-adv-x="569" 
 />
    <glyph glyph-name="controlCR" unicode="&#xd;" horiz-adv-x="569" 
 />
    <glyph glyph-name="controlGS" horiz-adv-x="0" 
 />
    <glyph glyph-name="exclam" unicode="!" horiz-adv-x="530" 
d="M49 227h227l-49 -227h-227zM420 1006l-184 -631h-95l88 631l97 456h190z" />
    <glyph glyph-name="quotedbl" unicode="&#x22;" horiz-adv-x="872" 
d="M299 1462h139v-528h-139v528zM586 1462h139v-528h-139v528z" />
    <glyph glyph-name="numbersign" unicode="#" 
d="M268 422h-198l18 139h199l43 307h-207l18 140h209l60 419h141l-59 -419h249l60 419h141l-59 -419h186l-18 -140h-187l-43 -307h191l-19 -139h-190l-60 -422h-141l60 422h-252l-60 -422h-141zM473 868l-43 -307h250l43 307h-250z" />
    <glyph glyph-name="dollar" unicode="$" 
d="M317 1078q0 -81 56.5 -133t130.5 -77l26 -12l99 487q-195 0 -253.5 -92t-58.5 -173zM872 397q0 80 -22.5 122t-60 66.5t-87 40t-102.5 33.5l-111 -540q41 -10 105.5 0t126 45t106.5 94t45 139zM133 1071q0 96 44 181t160 175.5t322 69.5l27 129h109l-29 -141
q248 -69 293 -215t39 -240h-185q7 244 -178 303l-100 -504l110 -38q311 -88 312 -369q0 -123 -55.5 -215t-142.5 -150.5t-192.5 -81t-207.5 -8.5l-35 -164h-109l37 174q-197 31 -289 161t-81 341h182q-14 -297 221 -346l111 551q-175 54 -240.5 110t-94 118.5t-28.5 158.5z
" />
    <glyph glyph-name="percent" unicode="%" horiz-adv-x="1896" 
d="M301 918q0 -74 35 -123.5t115 -49.5t125 41t84.5 132t39.5 256t-149 165q-121 0 -185.5 -136t-64.5 -285zM1319 1485h131l-891 -1540h-131zM1051 272q0 191 98.5 357t280.5 166q299 0 299 -297q0 -203 -98 -362t-285 -159q-137 0 -216 77t-79 218zM1190 260
q0 -74 35 -123t115 -49t164.5 78t84.5 351q0 165 -149 165q-121 0 -185.5 -136.5t-64.5 -285.5zM162 930q0 190 98 356t281 166q299 0 299 -297q0 -201 -97 -361.5t-286 -160.5q-137 0 -216 78t-79 219z" />
    <glyph glyph-name="ampersand" unicode="&#x26;" horiz-adv-x="1290" 
d="M293 189q76 -60 175 -60t170 36t148 101l-260 426q-143 -76 -226 -150.5t-83 -183.5t76 -169zM451 -23q-174 0 -291 101t-117 276q0 231 168 327.5t240 133.5q-43 68 -82 146.5t-39 164.5q0 156 102.5 246t251.5 90t246.5 -73.5t97.5 -204.5q0 -193 -149.5 -287
t-210.5 -127l229 -377q110 151 129 297h168q-33 -145 -85 -241.5t-126 -182.5l174 -266h-199l-90 152q-188 -175 -417 -175zM504 1136q0 -78 28.5 -134t63.5 -113q39 23 148.5 87.5t109.5 173.5q0 77 -47 118t-121 41t-128 -47.5t-54 -125.5z" />
    <glyph glyph-name="quotesingle" unicode="'" horiz-adv-x="569" 
d="M291 1462h139v-528h-139v528z" />
    <glyph glyph-name="parenleft" unicode="(" horiz-adv-x="530" 
d="M238 -403q-166 359 -166 794q0 131 40 284.5t134.5 342t353.5 479.5h143q-497 -596 -497 -1223q0 -370 106 -677h-114z" />
    <glyph glyph-name="parenright" unicode=")" horiz-adv-x="530" 
d="M258 815q0 373 -106 682h114q67 -149 116.5 -360.5t49.5 -391.5q0 -325 -131.5 -582.5t-394.5 -565.5h-144q496 576 496 1218z" />
    <glyph glyph-name="asterisk" unicode="*" horiz-adv-x="720" 
d="M506 1231l225 22l10 -98l-219 -29l101 -204l-101 -48l-96 211l-160 -178l-76 76l158 172l-194 98l51 95l196 -101l45 215h111z" />
    <glyph glyph-name="plus" unicode="+" horiz-adv-x="1228" 
d="M684 588h446v-139h-446v-449h-139v449h-447v139h447v448h139v-448z" />
    <glyph glyph-name="comma" unicode="," horiz-adv-x="569" 
d="M80 227h227q-20 -84 -35.5 -174t-47 -164.5t-90 -127t-165.5 -60.5l21 98q98 14 121.5 90t33.5 111h-114z" />
    <glyph glyph-name="hyphen" unicode="-" horiz-adv-x="796" 
d="M86 651h594l-33 -164h-594z" />
    <glyph glyph-name="period" unicode="." horiz-adv-x="569" 
d="M80 227h227l-49 -227h-227z" />
    <glyph glyph-name="slash" unicode="/" horiz-adv-x="681" 
d="M569 1497h150l-606 -1530h-148z" />
    <glyph glyph-name="zero" unicode="0" 
d="M51 539q0 183 90 464.5t261 365t284 83.5q190 0 290.5 -129t100.5 -420q0 -163 -42 -313t-90 -251t-161.5 -231.5t-330.5 -130.5q-402 0 -402 562zM289 232.5q53 -103.5 191 -103.5t249.5 165.5t137.5 347t26 217.5t1 84t-4 131t-54 153.5t-164 70.5q-145 0 -243 -144
t-145.5 -329.5t-47.5 -337.5q0 -151 53 -254.5z" />
    <glyph glyph-name="one" unicode="1" 
d="M578 0h-185l236 1104q-175 -41 -375 -41l29 139q227 0 331.5 94.5t137.5 155.5h135z" />
    <glyph glyph-name="two" unicode="2" 
d="M648 1452q194 0 307.5 -105.5t113.5 -281.5q0 -229 -166.5 -357.5t-290 -197t-171.5 -99.5q-202 -131 -251 -257h756l-33 -154h-923q21 285 194 412.5t307 204.5t189 119q111 85 158 151t47 176q0 109 -65.5 172t-159.5 63q-160 0 -243.5 -96.5t-92.5 -243.5h-185
q38 355 222.5 424.5t286.5 69.5z" />
    <glyph glyph-name="three" unicode="3" 
d="M795 758q188 -83 188 -290q0 -188 -138.5 -339.5t-369.5 -151.5t-353 114t-120 358h184q-8 -222 91.5 -271t179.5 -49q153 0 247.5 87t94.5 234t-95.5 192.5t-265.5 45.5l31 139q274 -16 337.5 80.5t63.5 176.5t-21.5 118.5t-67 67t-156.5 28.5q-260 0 -295 -294h-185
q26 193 149.5 320.5t328.5 127.5t318.5 -89t113.5 -273q0 -118 -76 -209.5t-184 -122.5z" />
    <glyph glyph-name="four" unicode="4" 
d="M193 494h466l138 657h-4zM629 340h-635l33 172l860 940h147l-200 -958h192l-31 -154h-192l-74 -340h-174z" />
    <glyph glyph-name="five" unicode="5" 
d="M590 956q190 0 298.5 -122t108.5 -316q0 -259 -163 -405q-158 -136 -370 -136t-331 106.5t-119 305.5h185q0 -260 262 -260q168 0 260 110t92 261q0 303 -289 303q-78 0 -149.5 -38t-108.5 -103h-155l225 765h735l-31 -153h-596l-114 -393l4 -4q102 79 256 79z" />
    <glyph glyph-name="six" unicode="6" 
d="M760.5 702.5q-68.5 77.5 -207.5 77.5t-224 -102t-85 -244t65.5 -223.5t210.5 -81.5t227 108t82 248t-68.5 217.5zM603 934q182 0 296.5 -123t114.5 -303q0 -230 -141 -380.5t-368 -150.5t-336.5 133t-109.5 355t80 483.5t230.5 382.5t348.5 121t296 -99.5t102 -277.5
h-184q-4 223 -218 223q-262 0 -335.5 -215t-95.5 -295h4q51 76 138 111t178 35z" />
    <glyph glyph-name="seven" unicode="7" 
d="M1155 1282q-236 -221 -441 -577t-317 -705h-198q221 700 766 1274h-756l35 153h936z" />
    <glyph glyph-name="eight" unicode="8" 
d="M397 1055q0 -113 71 -163t175.5 -50t170 65t65.5 173t-60.5 163t-171 55t-180.5 -65t-70 -178zM517 129q130 0 218 78t88 207t-69.5 201.5t-205.5 72.5t-227.5 -75t-91.5 -215t79 -204.5t209 -64.5zM213 1067q0 178 128 281.5t305 103.5t297 -98.5t120 -261.5
q0 -123 -71.5 -211t-188.5 -115v-4q106 -45 155.5 -137.5t49.5 -198.5q0 -201 -143.5 -325t-344.5 -124t-338 105t-137 305q0 166 94 270.5t254 133.5v4q-78 35 -129 108.5t-51 163.5z" />
    <glyph glyph-name="nine" unicode="9" 
d="M879 993q0 143 -70 224t-211 81t-222 -116t-81 -249q0 -134 67.5 -212t208.5 -78t224.5 103.5t83.5 246.5zM193 346q0 -217 210 -217q182 0 265.5 122t116 210t57.5 168l-4 4q-51 -76 -139.5 -110t-179.5 -34q-176 0 -292 122.5t-116 303.5q0 228 140 382.5t364 154.5
t336 -130.5t112 -356.5q0 -143 -32 -300t-81 -269t-148 -265.5t-393 -153.5t-348.5 137.5t-52.5 231.5h185z" />
    <glyph glyph-name="colon" unicode=":" horiz-adv-x="569" 
d="M76 227h231l-47 -227h-229zM432 831h-229l47 228h229z" />
    <glyph glyph-name="semicolon" unicode=";" horiz-adv-x="569" 
d="M80 227h227q-20 -84 -35.5 -174t-47 -164.5t-90 -127t-165.5 -60.5l21 98q98 14 121.5 90t33.5 111h-114zM430 831h-227l49 228h227z" />
    <glyph glyph-name="less" unicode="&#x3c;" horiz-adv-x="1228" 
d="M1135 913l-871 -395l871 -395v-137l-1041 469v127l1041 471v-140z" />
    <glyph glyph-name="equal" unicode="=" horiz-adv-x="1228" 
d="M1130 655h-1032v140h1032v-140zM98 381h1032v-139h-1032v139z" />
    <glyph glyph-name="greater" unicode="&#x3e;" horiz-adv-x="1228" 
d="M94 123l871 395l-871 395v140l1041 -471v-127l-1041 -469v137z" />
    <glyph glyph-name="question" unicode="?" 
d="M658 1479q183 0 310.5 -87.5t127.5 -259.5q0 -232 -195 -368t-250 -201t-71 -143l-9 -45h-170q28 170 103 264q61 80 213 184q194 131 194 287q0 111 -65.5 163t-154.5 52q-157 0 -243 -93t-98 -233h-174q12 208 113.5 308t189 136t179.5 36zM346 227h227l-49 -227h-227z
" />
    <glyph glyph-name="at" unicode="@" horiz-adv-x="1638" 
d="M840 1034q-52 0 -112 -42t-128 -142.5t-68 -243.5q0 -86 49.5 -142t122.5 -56q130 0 226 148.5t96 275.5t-67 164.5t-119 37.5zM860 1174q166 0 230 -168l47 129h129l-172 -582q-23 -78 -23 -104q0 -63 48 -63t98.5 42.5t118 153.5t67.5 253q0 258 -165.5 403.5
t-389.5 145.5q-131 0 -245 -52t-246 -194.5t-132 -410.5q0 -137 50.5 -256t187.5 -256t395 -137q147 0 283.5 67.5t224.5 180.5h129q-96 -169 -267.5 -264t-353.5 -95t-322 59.5t-243.5 163t-163 243.5t-59.5 301t60.5 299t164 241.5t241.5 163t286 59.5q294 0 499 -178
t205 -453q0 -133 -48 -242.5t-119.5 -187.5t-156 -121t-146.5 -43q-133 0 -140 134h-6q-122 -138 -253 -138t-212.5 93.5t-81.5 215.5q0 121 35 225.5t97 186.5t151.5 133.5t197.5 51.5z" />
    <glyph glyph-name="A" unicode="A" horiz-adv-x="1366" 
d="M449 604h503l-108 686h-4zM768 1462h213l264 -1462h-201l-67 440h-617l-256 -440h-215z" />
    <glyph glyph-name="B" unicode="B" horiz-adv-x="1402" 
d="M707 164q128 0 199 37t113 94t42 143t-24.5 128t-82.5 73t-194 31h-418l-106 -506h471zM907 1462q408 0 408 -350q0 -126 -77.5 -229.5t-201.5 -122.5v-4q100 -29 159.5 -108t59.5 -189q0 -214 -148.5 -336.5t-369.5 -122.5h-723l305 1462h588zM809 834q311 0 311 278
q0 162 -120.5 174t-165.5 12h-361l-98 -464h434z" />
    <glyph glyph-name="C" unicode="C" horiz-adv-x="1478" 
d="M690 -33q-286 0 -449 167t-163 472q0 178 55 339t158.5 284t253 195.5t336.5 72.5q245 0 401 -130t156 -376h-195q0 172 -101.5 257t-257.5 85q-288 0 -450 -218.5t-162 -508.5q0 -218 109.5 -347.5t306.5 -129.5t309.5 95t159.5 270h195q-55 -246 -215.5 -386.5
t-446.5 -140.5z" />
    <glyph glyph-name="D" unicode="D" horiz-adv-x="1441" 
d="M836 1462q272 0 412.5 -149.5t140.5 -409.5q0 -410 -223.5 -656.5t-590.5 -246.5h-561l310 1462h512zM1194 883q0 415 -403 415h-312l-239 -1134h338q293 0 454.5 214.5t161.5 504.5z" />
    <glyph glyph-name="E" unicode="E" horiz-adv-x="1251" 
d="M324 1462h1007l-33 -164h-813l-98 -464h758l-33 -164h-760l-106 -506h823l-37 -164h-1018z" />
    <glyph glyph-name="F" unicode="F" horiz-adv-x="1175" 
d="M319 1462h963l-35 -164h-768l-96 -464h676l-35 -164h-676l-139 -670h-195z" />
    <glyph glyph-name="G" unicode="G" horiz-adv-x="1554" 
d="M705 -33q-301 0 -464 167t-163 472q0 178 55 339t158.5 284t253 195.5t336.5 72.5q406 0 496.5 -181t90.5 -308h-194q0 158 -111 241.5t-273 83.5q-294 0 -456 -218.5t-162 -508.5q0 -218 109.5 -347.5t323.5 -129.5q324 0 412.5 185.5t115.5 291.5h-467l33 164h637
l-160 -770h-123l-12 145q-86 -92 -202 -135t-234 -43z" />
    <glyph glyph-name="H" unicode="H" horiz-adv-x="1478" 
d="M322 1462h196l-133 -628h766l131 628h195l-308 -1462h-194l141 670h-766l-141 -670h-195z" />
    <glyph glyph-name="I" unicode="I" horiz-adv-x="530" 
d="M322 1462h194l-307 -1462h-195z" />
    <glyph glyph-name="J" unicode="J" horiz-adv-x="1062" 
d="M391 129q188 0 227 136t52 196l213 1001h192l-231 -1102q-43 -200 -145 -296.5t-312 -96.5q-285 0 -344 117t-59 197t16 198h197q-17 -80 -21 -151q0 -199 215 -199z" />
    <glyph glyph-name="K" unicode="K" horiz-adv-x="1366" 
d="M324 1462h194l-153 -721l4 -4l827 725h260l-704 -602l469 -860h-215l-400 741l-293 -247l-104 -494h-195z" />
    <glyph glyph-name="L" unicode="L" 
d="M322 1462h194l-270 -1298h772l-35 -164h-969z" />
    <glyph glyph-name="M" unicode="M" horiz-adv-x="1781" 
d="M322 1462h270l194 -1257h5l722 1257h271l-309 -1462h-187l299 1280h-4l-745 -1280h-187l-190 1280h-4l-256 -1280h-187z" />
    <glyph glyph-name="N" unicode="N" horiz-adv-x="1478" 
d="M324 1462h208l523 -1210h4l244 1210h188l-309 -1462h-209l-518 1202h-4l-248 -1202h-189z" />
    <glyph glyph-name="O" unicode="O" horiz-adv-x="1554" 
d="M78 606q0 178 55 339t158.5 284t253 195.5t313.5 72.5q300 0 466.5 -183.5t166.5 -463.5q0 -172 -54.5 -332t-155.5 -282.5t-247.5 -195.5t-328.5 -73q-301 0 -464 167t-163 472zM272 620q0 -232 109.5 -361.5t323.5 -129.5q145 0 255.5 63.5t223 217.5t112.5 440
q0 214 -110.5 348.5t-304.5 134.5q-285 0 -409 -167t-162 -296.5t-38 -249.5z" />
    <glyph glyph-name="P" unicode="P" horiz-adv-x="1327" 
d="M895 1462q434 0 434 -403q0 -68 -26.5 -149t-133.5 -196.5t-399 -115.5h-434l-127 -598h-195l305 1462h576zM811 762q160 0 242 83t82 214q0 239 -240 239h-412l-112 -536h440z" />
    <glyph glyph-name="Q" unicode="Q" horiz-adv-x="1554" 
d="M705 -33q-301 0 -464 167t-163 472q0 178 55 339t158.5 284t253 195.5t313.5 72.5q300 0 466.5 -183.5t166.5 -463.5q0 -211 -81 -400.5t-230 -314.5l178 -170l-111 -115l-203 195q-150 -78 -339 -78zM1296 860q0 204 -110.5 338.5t-304.5 134.5q-285 0 -447 -218.5
t-162 -508.5q0 -218 109.5 -347.5t323.5 -129.5q117 0 208 43l-133 127l111 117l162 -158q179 149 211 329.5t32 272.5z" />
    <glyph glyph-name="R" unicode="R" horiz-adv-x="1402" 
d="M1174 1077q0 221 -287 221h-404l-108 -510h438q201 0 281 90t80 199zM887 1462q333 0 407 -132t74 -223q0 -163 -91 -276t-239 -135v-4q134 -40 146.5 -166t-2.5 -211.5t-21.5 -166t29.5 -148.5h-203q-36 107 4 313q41 253 -33.5 281.5t-107.5 30.5h-510l-131 -625h-195
l310 1462h563z" />
    <glyph glyph-name="S" unicode="S" horiz-adv-x="1327" 
d="M225 479q-14 -350 379 -350q160 0 268.5 70.5t108.5 213.5t-103.5 183.5t-156.5 54.5l-199 54q-327 89 -327 368q0 196 158.5 310t381.5 114t377 -118t145 -349h-194q6 244 -127.5 273.5t-197.5 29.5q-139 0 -244 -61t-105 -178q0 -143 94.5 -182.5t143.5 -53.5l196 -53
q160 -42 256.5 -129t96.5 -266q0 -211 -174.5 -327t-395.5 -116q-431 0 -508.5 188.5t-66.5 323.5h194z" />
    <glyph glyph-name="T" unicode="T" horiz-adv-x="1175" 
d="M1300 1298h-491l-274 -1298h-195l274 1298h-491l35 164h1179z" />
    <glyph glyph-name="U" unicode="U" horiz-adv-x="1478" 
d="M360.5 233.5q90.5 -104.5 307.5 -104.5t291.5 93t102.5 177t50 187l184 876h195l-182 -876q-44 -208 -77 -290q-68 -165 -217.5 -247t-348.5 -82q-326 0 -460 163t-71 472l182 860h195l-193 -909q-49 -215 41.5 -319.5z" />
    <glyph glyph-name="V" unicode="V" horiz-adv-x="1251" 
d="M590 0h-219l-209 1462h198l150 -1272h4l694 1272h207z" />
    <glyph glyph-name="W" unicode="W" horiz-adv-x="1896" 
d="M1341 0h-202l-92 1262h-5l-577 -1262h-209l-92 1462h192l52 -1231h4l561 1231h221l82 -1235h4l532 1235h201z" />
    <glyph glyph-name="X" unicode="X" horiz-adv-x="1251" 
d="M545 764l-352 698h208l271 -577l469 577h219l-602 -725l370 -737h-200l-295 618l-500 -618h-221z" />
    <glyph glyph-name="Y" unicode="Y" horiz-adv-x="1251" 
d="M520 588l-385 874h207l299 -708l555 708h225l-708 -874l-127 -588h-191z" />
    <glyph glyph-name="Z" unicode="Z" horiz-adv-x="1251" 
d="M-41 162l1096 1136h-838l41 164h1067l-35 -166l-1106 -1132h934l-35 -164h-1159z" />
    <glyph glyph-name="bracketleft" unicode="[" horiz-adv-x="530" 
d="M334 1497h387l-29 -133h-221l-336 -1634h221l-28 -133h-385z" />
    <glyph glyph-name="backslash" unicode="\" horiz-adv-x="681" 
d="M719 -33h-150l-604 1530h148z" />
    <glyph glyph-name="bracketright" unicode="]" horiz-adv-x="530" 
d="M125 -403h-385l29 133h221l334 1634h-222l29 133h387z" />
    <glyph glyph-name="asciicircum" unicode="^" horiz-adv-x="1228" 
d="M549 1427h131l446 -886h-143l-371 737l-364 -737h-146z" />
    <glyph glyph-name="underscore" unicode="_" horiz-adv-x="1024" 
d="M0 -152h1024v-102h-1024v102z" />
    <glyph glyph-name="grave" unicode="`" horiz-adv-x="454" 
d="M500 1204h-138l-206 293h206z" />
    <glyph glyph-name="a" unicode="a" horiz-adv-x="1062" 
d="M344 129q207 0 297 139q43 59 58.5 129t33.5 144h-4q-54 -39 -221.5 -56.5t-227 -41t-92 -61.5t-33.5 -109t57 -107.5t132 -36.5zM657 129q-113 -152 -321 -152q-102 0 -159.5 15.5t-126 73t-68.5 191.5t50 199.5t128 99.5t172 46t173 20q168 16 221.5 42.5t53.5 114.5
t-63 119.5t-131 31.5q-129 0 -208.5 -48t-94.5 -143h-174q23 166 150.5 255t307.5 89q387 0 387 -270q0 -54 -32 -192l-68 -289q-6 -33 -17.5 -74t-11.5 -92t52 -51q13 0 55 14l-27 -129q-58 -23 -118 -23t-97 39t-28 109z" />
    <glyph glyph-name="b" unicode="b" horiz-adv-x="1214" 
d="M930 620q0 137 -62 223.5t-178 86.5q-210 0 -322 -169t-112 -368q0 -125 80 -194.5t192 -69.5t183 49t120.5 123t74 161.5t24.5 157.5zM365 924q123 159 325 159t308 -122.5t106 -333.5q0 -266 -152.5 -458t-406.5 -192q-139 0 -238.5 67t-118.5 153h-4l-39 -197h-153
l307 1462h174l-113 -534z" />
    <glyph glyph-name="c" unicode="c" horiz-adv-x="1099" 
d="M963 346q-96 -369 -499 -369q-202 0 -311.5 119t-109.5 336q0 268 156.5 459.5t429.5 191.5q180 0 285.5 -87t111.5 -273h-174q0 98 -59.5 152.5t-161.5 54.5q-190 0 -302 -153.5t-112 -354.5t94.5 -247t187.5 -46t173 59.5t116 157.5h175z" />
    <glyph glyph-name="d" unicode="d" horiz-adv-x="1214" 
d="M209 390q0 -108 64.5 -184.5t207.5 -76.5q98 0 176 51t130.5 129t80 171.5t27.5 193.5t-68.5 178t-184.5 78t-194.5 -48t-132 -124t-80 -168t-26.5 -200zM454 -23q-198 0 -308.5 116.5t-110.5 316.5q0 256 114.5 404.5t224 208.5t249.5 60q184 0 248.5 -66.5t80.5 -119.5
h4l113 565h172l-309 -1462h-164l37 152h-4q-78 -102 -161 -138.5t-186 -36.5z" />
    <glyph glyph-name="e" unicode="e" horiz-adv-x="1099" 
d="M357 848.5q-90 -81.5 -132 -217.5h615q9 124 -52.5 211.5t-201.5 87.5q-139 0 -229 -81.5zM1014 614q0 -39 -17 -137h-796q-6 -45 -6 -99q0 -114 82.5 -181.5t191.5 -67.5q229 0 305 203h174q-39 -172 -171 -263.5t-286 -91.5q-153 0 -240 40t-159 127.5t-72 247.5
q0 161 44.5 287t119 216t174 139t207.5 49q449 0 449 -469z" />
    <glyph glyph-name="f" unicode="f" horiz-adv-x="606" 
d="M632 1325q-44 0 -79 -23.5t-54.5 -61.5t-28.5 -85t-24 -96h203l-28 -154h-205l-195 -905h-174l197 905h-181l31 154h180q20 80 38 155.5t70.5 170t233.5 94.5q92 0 146 -17l-29 -147q-57 10 -101 10z" />
    <glyph glyph-name="g" unicode="g" horiz-adv-x="1175" 
d="M217 438q0 -128 67.5 -210.5t179.5 -82.5q196 0 297 162.5t101 345.5q0 125 -66.5 201t-203.5 76q-92 0 -162 -51.5t-117 -126t-71.5 -161.5t-24.5 -153zM43 430q0 249 108.5 393t211 202t226.5 58t221 -59t120 -156v-4h4l33 195h163l-190 -905q-42 -191 -82 -287
q-68 -160 -188.5 -227.5t-292.5 -67.5q-280 0 -349 120t-71 208h172q13 -174 266 -174t306 173t73 251l-4 4q-106 -160 -315 -160t-310.5 120t-101.5 316z" />
    <glyph glyph-name="h" unicode="h" 
d="M748 1083q276 0 276 -272q0 -79 -31 -207l-129 -604h-174l135 618q2 16 13.5 72t11.5 92q0 76 -54 112t-128 36t-144.5 -35t-120.5 -88q-77 -67 -116 -221l-123 -586h-172l307 1462h174l-125 -559l4 -4q132 184 396 184z" />
    <glyph glyph-name="i" unicode="i" horiz-adv-x="454" 
d="M211 1059h174l-221 -1059h-172zM426 1249h-176l45 213h176z" />
    <glyph glyph-name="j" unicode="j" horiz-adv-x="454" 
d="M-71.5 -215q22.5 35 53.5 164l229 1110h174l-266 -1256q-48 -206 -248 -206q-72 0 -115 12l31 153q48 -12 84 -12q35 0 57.5 35zM426 1249h-176l45 213h176z" />
    <glyph glyph-name="k" unicode="k" horiz-adv-x="985" 
d="M299 1462h172l-182 -860l4 -4l532 461h228l-461 -391l262 -668h-195l-206 563l-209 -186l-80 -377h-172z" />
    <glyph glyph-name="l" unicode="l" horiz-adv-x="454" 
d="M297 1462h174l-307 -1462h-172z" />
    <glyph glyph-name="m" unicode="m" horiz-adv-x="1744" 
d="M711 1083q224 0 266 -190q61 86 159 138t212 52t200 -57.5t86 -179.5q0 -76 -30 -211l-134 -635h-174l148 672q16 67 16 121t-46 95.5t-100 41.5q-84 0 -158 -41.5t-124 -104.5q-43 -47 -63.5 -108.5t-34.5 -128.5l-117 -547h-174l127 604q33 144 33 198q0 55 -38 91.5
t-109.5 36.5t-142.5 -41t-118 -94q-55 -53 -75.5 -107.5t-36.5 -132.5l-119 -555h-172l223 1059h162l-39 -158l4 -4q68 86 163 136t206 50z" />
    <glyph glyph-name="n" unicode="n" 
d="M748 1083q276 0 276 -272q0 -79 -31 -207l-129 -604h-174l135 618q2 16 13.5 72t11.5 92q0 76 -54 112t-128 36t-144.5 -35t-120.5 -88q-77 -67 -116 -221l-123 -586h-172l221 1059h168l-33 -160h4q132 184 396 184z" />
    <glyph glyph-name="o" unicode="o" horiz-adv-x="1175" 
d="M209 420q0 -131 73.5 -211t217.5 -80q175 0 284 162t109 340q0 206 -103.5 252.5t-189.5 46.5t-162 -49.5t-152.5 -161t-76.5 -299.5zM35 434q0 112 40 233t162 268.5t390 147.5q215 0 327.5 -111.5t112.5 -326.5q0 -275 -159.5 -471.5t-426.5 -196.5
q-205 0 -325.5 122.5t-120.5 334.5z" />
    <glyph glyph-name="p" unicode="p" horiz-adv-x="1214" 
d="M932 670q0 108 -64.5 184t-208.5 76q-98 0 -175.5 -51.5t-157.5 -169.5t-80 -306q0 -119 69 -196.5t185 -77.5t194 48t131.5 124t80 168.5t26.5 200.5zM688 1083q199 0 308.5 -117.5t109.5 -316.5q0 -256 -114.5 -404.5t-224.5 -208t-249 -59.5q-185 0 -250 66t-80 119
h-4l-112 -565h-170l307 1462h164l-37 -152h4q78 102 161 139t187 37z" />
    <glyph glyph-name="q" unicode="q" horiz-adv-x="1214" 
d="M35 434q0 260 152.5 454.5t404.5 194.5q117 0 208 -42t134 -150h4l35 168h176l-309 -1462h-176l114 538h-4q-127 -158 -331 -158t-306 125.5t-102 331.5zM209 444q0 -145 67.5 -230t186.5 -85q120 0 196 53.5t150 170t74 317.5q0 123 -72.5 191.5t-184.5 68.5t-186.5 -47
t-126 -119t-78 -160t-26.5 -160z" />
    <glyph glyph-name="r" unicode="r" horiz-adv-x="681" 
d="M713 1083q16 0 30.5 2t30.5 -2l-41 -186q-8 2 -26 2h-25q-67 0 -121 -14q-55 -14 -111.5 -59.5t-103.5 -116.5t-82 -240l-100 -469h-172l219 1059h164l-51 -228h4q61 109 156.5 180.5t228.5 71.5z" />
    <glyph glyph-name="s" unicode="s" horiz-adv-x="985" 
d="M508 930q-149 0 -187 -47t-38 -86t23.5 -65.5t63.5 -49.5t90 -42t102 -41q129 -55 204.5 -119.5t75.5 -164.5q0 -175 -128 -256.5t-304 -81.5q-305 0 -365.5 127t-60.5 230h172q-8 -108 70 -156.5t200 -48.5q161 0 201.5 58.5t40.5 100.5t-25 69.5t-63.5 50t-89 41.5
t-102.5 41q-134 56 -206.5 117.5t-72.5 170.5q0 144 119.5 224.5t330 80.5t276.5 -121.5t66 -213.5h-174q4 90 -61.5 136t-157.5 46z" />
    <glyph glyph-name="t" unicode="t" horiz-adv-x="645" 
d="M334 -10q-238 0 -238 170q0 26 10 88l140 657h-178l32 154h179l65 313h174l-65 -313h211l-33 -154h-211l-131 -622q-2 -18 -4 -35t-2 -35q0 -72 104 -72q43 0 100 19l-30 -160q-77 -10 -123 -10z" />
    <glyph glyph-name="u" unicode="u" 
d="M31 248q0 74 30 207l129 604h175l-136 -619q-24 -84 -24 -162t53 -113.5t129 -35.5q143 0 247 103t134 241l123 586h174l-223 -1059h-168l33 160h-5q-131 -183 -396 -183q-275 0 -275 271z" />
    <glyph glyph-name="v" unicode="v" horiz-adv-x="985" 
d="M424 0h-186l-152 1059h184l90 -881h5l458 881h189z" />
    <glyph glyph-name="w" unicode="w" horiz-adv-x="1554" 
d="M1014 0h-185l-53 823h-4l-379 -823h-184l-125 1059h184l66 -842h4l381 842h196l52 -842h4l401 842h189z" />
    <glyph glyph-name="x" unicode="x" horiz-adv-x="985" 
d="M360 561l-235 498h201l159 -385l316 385h211l-455 -512l270 -547h-198l-193 434l-360 -434h-209z" />
    <glyph glyph-name="y" unicode="y" horiz-adv-x="985" 
d="M7 -289q54 0 91 32t68 83l106 174l-186 1059h186l123 -842h4l445 842h190l-700 -1237q-33 -51 -102.5 -150.5t-237.5 -99.5q-69 0 -121 27l31 141q49 -29 103 -29z" />
    <glyph glyph-name="z" unicode="z" horiz-adv-x="909" 
d="M-82 131l735 774h-569l31 154h805l-27 -125l-743 -780h632l-28 -154h-860z" />
    <glyph glyph-name="braceleft" unicode="{" horiz-adv-x="681" 
d="M680 1374q-57 0 -90 -56t-45 -124l-76 -371q-28 -125 -104 -193.5t-132 -80.5l-2 -6q78 -11 106 -77t28 -102t-4.5 -54.5t-8.5 -41.5l-76 -368q-6 -35 -6 -76t12.5 -73t55.5 -32h102l-26 -122h-144q-68 0 -121 48.5t-53 135.5q0 38 8 84l78 371q8 46 8 100t-37.5 96.5
t-91.5 42.5l31 139q68 0 132 67t87 175l78 373q22 121 107.5 194.5t169.5 73.5h143l-27 -123h-102z" />
    <glyph glyph-name="bar" unicode="|" horiz-adv-x="454" 
d="M158 1610h139v-2046h-139v2046z" />
    <glyph glyph-name="braceright" unicode="}" horiz-adv-x="681" 
d="M-55 -281q75 0 101 73t32 108l76 368q24 125 101 193.5t134 81.5l2 6q-77 11 -105 76t-28 101t4 55.5t8 41.5l76 371q6 35 6 76t-12 72.5t-55 31.5h-103l27 123h143q68 0 121 -49t53 -135q0 -40 -8 -84l-78 -373q-8 -46 -8 -102t38 -98t91 -42l-31 -139q-67 0 -130 -67.5
t-89 -171.5l-78 -371q-22 -122 -106 -195t-168 -73h-143l26 122h103z" />
    <glyph glyph-name="asciitilde" unicode="~" horiz-adv-x="1228" 
d="M397 645q110 0 253 -73.5t179 -73.5t61 14t46.5 36.5t40 50.5t37.5 54l73 -102q-62 -89 -117 -132.5t-126 -43.5q-70 0 -120 19.5t-100 47.5t-108 54t-110 26t-78.5 -14t-53 -41.5t-59.5 -99.5l-74 102q85 176 256 176z" />
    <glyph glyph-name="nonbreakingspace" unicode="&#xa0;" horiz-adv-x="569" 
 />
    <glyph glyph-name="exclamdown" unicode="&#xa1;" horiz-adv-x="530" 
d="M412 831h-228l49 228h228zM41 51l184 631h94l-88 -631l-96 -454h-188z" />
    <glyph glyph-name="cent" unicode="&#xa2;" 
d="M238 446q0 -291 208 -321l172 815q-177 -12 -254 -129t-101.5 -205t-24.5 -160zM63 432q0 264 163.5 457.5t422.5 193.5l39 187h80l-41 -191q147 -18 233.5 -104t86.5 -252h-175q0 92 -47 146.5t-129 66.5l-172 -817q104 8 177 68.5t108 158.5h174q-47 -180 -173 -274.5
t-316 -94.5l-45 -213h-80l47 220q-178 20 -265.5 138t-87.5 310z" />
    <glyph glyph-name="sterling" unicode="&#xa3;" 
d="M434 546q0 -112 -83 -223.5t-191 -177.5v-4q45 23 110.5 39.5t121.5 16.5q56 1 133 -23t119 -39.5t93 -15.5t100.5 32.5t90.5 61.5l65 -147q-55 -39 -133 -69t-139 -30t-114.5 15.5t-105.5 32.5t-102.5 32.5t-110.5 15.5t-118.5 -27.5t-116.5 -58.5l-57 152
q135 110 194.5 189t59.5 178t-21 174h-176l21 92h127q-16 63 -31.5 128.5t-15.5 149.5t41 171t148.5 186.5t318.5 99.5t329.5 -143.5t106.5 -360.5h-185q13 140 -54 245t-203 105t-227 -97.5t-91 -232.5t47 -251h315l-20 -92h-266q20 -58 20 -124z" />
    <glyph glyph-name="currency" unicode="&#xa4;" 
d="M575 1227q82 0 160 -28t133 -75l117 115l102 -104l-112 -113q106 -114 106 -299t-106 -311l112 -115l-96 -96l-114 118q-120 -112 -306 -112q-185 0 -309 110l-112 -118l-99 98l113 119q-107 128 -107 309.5t111 292.5l-117 119l101 100l114 -115q126 105 309 105z
M330.5 969.5q-99.5 -103.5 -99.5 -254.5q0 -150 100.5 -252.5t242 -102.5t237.5 105t96 252t-95.5 251.5t-238.5 104.5t-242.5 -103.5z" />
    <glyph glyph-name="yen" unicode="&#xa5;" 
d="M422 356h-297l29 123h295l16 107l-16 47h-267l29 123h199l-226 706h201l207 -704l489 704h222l-510 -706h196l-26 -123h-265l-49 -68l-18 -86h301l-29 -123h-299l-74 -356h-182z" />
    <glyph glyph-name="brokenbar" unicode="&#xa6;" horiz-adv-x="454" 
d="M158 330h139v-510h-139v510zM297 842h-139v512h139v-512z" />
    <glyph glyph-name="section" unicode="&#xa7;" 
d="M842 418q0 57 -50.5 123.5t-116 133t-132 128t-97.5 108.5q-36 0 -78 -28.5t-49 -34.5q-61 -50 -61 -120t40 -127.5t81 -100.5l143 -154q20 -20 46 -49t44.5 -49.5t30.5 -34.5q199 42 199 205zM713 109q59 -63 59 -203q0 -64 -62 -183t-335 -126q-169 4 -265 109.5
t-96 277.5h164q0 -106 56.5 -170t152.5 -64t153.5 43t57.5 125t-100 201l-275 297q-47 53 -88 127.5t-41 150.5q0 258 285 322q-45 62 -45 152q0 161 110 245t269 84t261.5 -96.5t90.5 -263.5h-164q2 92 -46 149t-164 57t-149.5 -61t-33.5 -108q0 -78 91 -173
q91 -94 177 -180.5t140 -158.5t72 -117t18 -105q0 -135 -79 -225t-214 -106z" />
    <glyph glyph-name="dieresis" unicode="&#xa8;" horiz-adv-x="454" 
d="M494 1425h182l-43 -213h-182zM160 1425h182l-43 -213h-182z" />
    <glyph glyph-name="copyright" unicode="&#xa9;" horiz-adv-x="1638" 
d="M49 733q0 164 61.5 303.5t167 241.5t246 160.5t298 58.5t296.5 -58.5t243.5 -160.5t166 -241.5t61.5 -303.5t-61.5 -304t-166 -243.5t-243.5 -161t-296.5 -57.5t-298 57.5t-246 161t-167 243.5t-61.5 304zM370 266q182 -188 450 -188t449 187.5t181 467.5q0 279 -182 465
t-448 186q-267 0 -449.5 -186.5t-182.5 -464.5q0 -279 182 -467zM864 262q-224 0 -348.5 132.5t-124.5 338.5t120.5 335.5t328.5 129.5q147 0 253.5 -79t131.5 -232h-129q-16 86 -83 142t-157 56q-164 0 -245 -99.5t-81 -251.5q0 -151 87 -255t229 -104q104 0 169.5 58.5
t80.5 150.5h131q-33 -150 -137 -236t-226 -86z" />
    <glyph glyph-name="ordfeminine" unicode="&#xaa;" horiz-adv-x="636" 
d="M510 872q-72 -94 -224 -94q-84 0 -151 41t-67 143t76 146t158 52q165 15 227.5 35.5t62.5 82.5q0 45 -44 58.5t-93 13.5q-155 0 -179 -109h-122q14 106 101 158.5t189 52.5t186.5 -37t84.5 -112q0 -23 -8.5 -53.5t-12.5 -55.5l-41 -170q-6 -27 -16 -61.5t-10 -58.5
q-1 -24 25 -23q26 0 40 6l-16 -94q-33 -15 -75 -15t-65.5 26.5t-19.5 67.5h-6zM190 957q0 -40 36 -58t85 -18q113 6 160 39.5t66 101.5l24 92h-4q-31 -25 -102.5 -32t-113.5 -11t-76 -16.5t-54.5 -35t-20.5 -62.5z" />
    <glyph glyph-name="guillemotleft" unicode="&#xab;" horiz-adv-x="948" 
d="M61 512l45 188l357 205l-43 -174l-246 -139l178 -184l-39 -175zM463 512l45 188l356 205l-43 -174l-246 -139l179 -184l-39 -175z" />
    <glyph glyph-name="logicalnot" unicode="&#xac;" horiz-adv-x="1228" 
d="M1130 223h-139v432h-893v140h1032v-572z" />
    <glyph glyph-name="uni00AD" unicode="&#xad;" horiz-adv-x="796" 
d="M117 651h592l-35 -164h-592z" />
    <glyph glyph-name="registered" unicode="&#xae;" horiz-adv-x="1638" 
d="M49 733q0 164 61.5 303.5t167 241.5t246 160.5t298 58.5t296.5 -58.5t243.5 -160.5t166 -241.5t61.5 -303.5t-61.5 -304t-166 -243.5t-243.5 -161t-296.5 -57.5t-298 57.5t-246 161t-167 243.5t-61.5 304zM370 266q182 -188 450 -188t449 187.5t181 467.5q0 279 -182 465
t-448 186q-267 0 -449.5 -186.5t-182.5 -464.5q0 -279 182 -467zM868 1180q314 0 314 -256q0 -121 -67.5 -177.5t-168.5 -66.5l256 -395h-149l-244 385h-147v-385h-140v895h346zM662 782h145q117 0 176 26t59 122q0 114 -80.5 125.5t-115.5 11.5h-184v-285z" />
    <glyph glyph-name="macron" unicode="&#xaf;" horiz-adv-x="454" 
d="M133 1382h551l-22 -112h-553z" />
    <glyph glyph-name="degree" unicode="&#xb0;" horiz-adv-x="819" 
d="M158 1148.5q0 63.5 23.5 119t64.5 96.5t96 64.5t118.5 23.5t119 -23.5t96.5 -64.5t64.5 -96.5t23.5 -119t-23.5 -118.5t-64.5 -96t-96.5 -64.5t-119 -23.5t-118.5 23.5t-96 64.5t-64.5 96t-23.5 118.5zM260 1149q0 -86 57.5 -143.5t143.5 -57.5t143.5 57.5t57.5 143.5
t-57.5 143.5t-143.5 57.5t-143.5 -57.5t-57.5 -143.5z" />
    <glyph glyph-name="plusminus" unicode="&#xb1;" horiz-adv-x="1228" 
d="M98 694h447v340h139v-340h446v-139h-446v-342h-139v342h-447v139zM98 139h1032v-139h-1032v139z" />
    <glyph glyph-name="twosuperior" unicode="&#xb2;" horiz-adv-x="681" 
d="M598 1208q0 133 -158 129q-80 -2 -132 -52t-56 -136h-139q14 137 102 220t227 83t217 -65t78 -167q0 -174 -219 -294l-129 -74q-143 -78 -175 -111.5t-36 -54.5h473l-20 -113h-606q0 118 55.5 188t198.5 161l131 82q85 50 136.5 95.5t51.5 108.5z" />
    <glyph glyph-name="threesuperior" unicode="&#xb3;" horiz-adv-x="681" 
d="M692 844q0 -111 -95.5 -198t-257.5 -87q-161 0 -235.5 76t-68.5 211h139q-5 -85 30 -129.5t134 -44.5q98 0 156.5 44t58.5 130q0 129 -92 131t-133 0l18 102q167 -16 210.5 41.5t43.5 115.5q0 102 -151 103q-80 0 -129.5 -44t-53.5 -115h-139q6 119 93 195.5t235 76.5
q195 0 239.5 -83t44.5 -147t-51 -118.5t-129 -73.5v-4q133 -45 133 -182z" />
    <glyph glyph-name="acute" unicode="&#xb4;" horiz-adv-x="454" 
d="M471 1497h231l-278 -293h-143z" />
    <glyph glyph-name="mu" unicode="&#xb5;" 
d="M359 -23q-81 0 -132 26t-67 50h-4l-97 -456h-172l303 1462h175l-136 -619q-24 -84 -24 -162t53 -113.5t129 -35.5q143 0 247 103t134 241l123 586h174l-223 -1059h-168l33 160h-5q-66 -90 -164 -136.5t-179 -46.5z" />
    <glyph glyph-name="paragraph" unicode="&#xb6;" horiz-adv-x="1228" 
d="M696 1462h488l-371 -1777h-131l346 1665h-258l-346 -1665h-133l209 1003q-186 0 -285 110t-65 271q41 199 186 296t360 97z" />
    <glyph glyph-name="periodcentered" unicode="&#xb7;" horiz-adv-x="569" 
d="M137 520q0 55 40 92t93 37t91 -38t38 -94t-37.5 -93t-91.5 -37t-93.5 39t-39.5 94z" />
    <glyph glyph-name="cedilla" unicode="&#xb8;" horiz-adv-x="454" 
d="M306 -136.5q54 -38.5 54 -119.5t-74.5 -126.5t-172.5 -45.5t-195 45l37 88q33 -10 63.5 -20.5t71.5 -10.5t79 10.5t38 48.5q0 66 -94 66q-54 0 -86 -16l-37 61l149 183h97l-119 -133h4q20 8 76 8q55 0 109 -38.5z" />
    <glyph glyph-name="onesuperior" unicode="&#xb9;" horiz-adv-x="681" 
d="M438 573h-135l135 666q-103 -35 -239 -35l18 103q111 0 193 43t116 102h97z" />
    <glyph glyph-name="ordmasculine" unicode="&#xba;" horiz-adv-x="704" 
d="M213 1040q0 -60 42.5 -109.5t116.5 -49.5q128 0 200.5 90.5t72.5 206.5q0 72 -40.5 122t-118.5 50t-126.5 -28t-81 -72t-49 -97t-16.5 -113zM768 1186q0 -165 -106.5 -286.5t-274.5 -121.5q-135 0 -217 67t-81 218t108.5 270t265.5 119q305 0 305 -266z" />
    <glyph glyph-name="guillemotright" unicode="&#xbb;" horiz-adv-x="948" 
d="M457 627l-45 -189l-357 -205l43 175l246 139l-178 184l39 174zM858 627l-45 -189l-356 -205l43 175l245 139l-178 184l39 174z" />
    <glyph glyph-name="onequarter" unicode="&#xbc;" horiz-adv-x="1708" 
d="M1251 197h-407l22 118l551 564h119l-131 -570h125l-27 -112h-123l-45 -197h-129zM1272 309l84 371h-4l-365 -371h285zM401 573h-135l135 666q-103 -35 -239 -35l18 103q111 0 193 43t116 102h97zM1145 1485h131l-891 -1540h-131z" />
    <glyph glyph-name="onehalf" unicode="&#xbd;" horiz-adv-x="1708" 
d="M401 573h-135l135 666q-103 -35 -239 -35l18 103q111 0 193 43t116 102h97zM1456 635q0 131 -158 131q-80 0 -132 -52t-56 -139h-139q14 137 102 220.5t228 83.5t217 -66t77 -168q0 -174 -219 -293l-129 -73q-141 -77 -174 -111.5t-37 -54.5h473l-20 -113h-606
q0 118 55 186.5t199 161.5l131 82q86 50 137 96t51 109zM1145 1485h131l-891 -1540h-131z" />
    <glyph glyph-name="threequarters" unicode="&#xbe;" horiz-adv-x="1708" 
d="M1329 197h-407l22 118l551 564h119l-131 -570h125l-27 -112h-123l-45 -197h-129zM1434 680h-4l-365 -371h285zM692 844q0 -111 -95.5 -198t-257.5 -87q-161 0 -235.5 76t-68.5 211h139q-5 -85 30 -129.5t134 -44.5q98 0 156.5 44t58.5 130q0 129 -92 131t-133 0l18 102
q167 -16 210.5 41.5t43.5 115.5q0 102 -151 103q-80 0 -129.5 -44t-53.5 -115h-139q6 119 93 195.5t235 76.5q195 0 239.5 -83t44.5 -147t-51 -118.5t-129 -73.5v-4q133 -45 133 -182zM1298 1485h132l-891 -1540h-131z" />
    <glyph glyph-name="questiondown" unicode="&#xbf;" 
d="M371 -274q278 0 338 325h174q-24 -220 -161 -349.5t-357 -129.5q-169 0 -285.5 97.5t-116.5 267.5q0 123 62.5 212t138.5 143t126 91t116 105t77 192h170q-25 -168 -95.5 -258.5t-233.5 -202.5q-68 -49 -123.5 -114.5t-55.5 -156.5t63 -156.5t163 -65.5zM713 831h-226
l45 228h232z" />
    <glyph glyph-name="Agrave" unicode="&#xc0;" horiz-adv-x="1366" 
d="M449 604h503l-108 686h-4zM768 1462h213l264 -1462h-201l-67 440h-617l-256 -440h-215zM997 1546h-137l-207 293h207z" />
    <glyph glyph-name="Aacute" unicode="&#xc1;" horiz-adv-x="1366" 
d="M449 604h503l-108 686h-4zM768 1462h213l264 -1462h-201l-67 440h-617l-256 -440h-215zM969 1839h231l-278 -293h-144z" />
    <glyph glyph-name="Acircumflex" unicode="&#xc2;" horiz-adv-x="1366" 
d="M449 604h503l-108 686h-4zM768 1462h213l264 -1462h-201l-67 440h-617l-256 -440h-215zM831 1839h177l153 -293h-151l-105 191l-178 -191h-168z" />
    <glyph glyph-name="Atilde" unicode="&#xc3;" horiz-adv-x="1366" 
d="M449 604h503l-108 686h-4zM768 1462h213l264 -1462h-201l-67 440h-617l-256 -440h-215zM746 1788q44 0 82 -16.5t77 -33.5t72 -32.5t59 -11.5q47 0 66.5 24.5t38.5 59.5h104q-31 -101 -78 -162.5t-131 -61.5q-45 0 -120.5 35t-110.5 49.5t-57 10.5q-41 0 -62.5 -25
t-34.5 -59h-106q49 152 103 187.5t98 35.5z" />
    <glyph glyph-name="Adieresis" unicode="&#xc4;" horiz-adv-x="1366" 
d="M449 604h503l-108 686h-4zM768 1462h213l264 -1462h-201l-67 440h-617l-256 -440h-215zM991 1767h183l-44 -213h-182zM657 1767h183l-43 -213h-183z" />
    <glyph glyph-name="Aring.low" unicode="&#xc5;" horiz-adv-x="1327" 
d="M958 1462l263 -1462h-215l-68 440h-619l-256 -440h-198l878 1462h215zM911 604l-98 682h-4l-393 -682h495zM870.5 1559q59.5 0 108.5 39.5t61.5 99t-19.5 99.5t-91.5 40t-107.5 -40t-60 -99.5t18.5 -99t90 -39.5zM950 1929q47 0 85 -18.5t62.5 -50t35 -73.5t0 -89
t-38 -89t-65.5 -74t-84 -50.5t-93 -18.5t-85 18.5t-63.5 50.5t-35 74t1 89t37 89t65.5 73.5t85 50t93 18.5z" />
    <glyph glyph-name="AE" unicode="&#xc6;" horiz-adv-x="1896" 
d="M481 590h393l154 708h-45zM903 1462h1073l-34 -164h-719l-97 -464h676l-37 -164h-673l-109 -506h731l-33 -164h-931l88 426h-471l-306 -426h-221z" />
    <glyph glyph-name="Ccedilla" unicode="&#xc7;" horiz-adv-x="1478" 
d="M719 -264q0 63 -104 63q-44 0 -76 -16l-39 61l108 131q-258 25 -394 188t-136 443q0 178 55 339t158.5 284t253 195.5t336.5 72.5q245 0 401 -130t156 -376h-195q0 172 -101.5 257t-257.5 85q-288 0 -450 -218.5t-162 -508.5q0 -218 109.5 -347.5t306.5 -129.5t309.5 95
t159.5 270h195q-55 -246 -216 -386.5t-431 -140.5h-11l-65 -73h4q46 19 100.5 5t96.5 -44t42 -111t-74.5 -126.5t-172.5 -45.5t-197 45l37 88q33 -10 64.5 -20.5t72.5 -10.5t79 10.5t38 51.5z" />
    <glyph glyph-name="Egrave" unicode="&#xc8;" horiz-adv-x="1251" 
d="M324 1462h1007l-33 -164h-813l-98 -464h758l-33 -164h-760l-106 -506h823l-37 -164h-1018zM961 1546h-138l-207 293h207z" />
    <glyph glyph-name="Eacute" unicode="&#xc9;" horiz-adv-x="1251" 
d="M324 1462h1007l-33 -164h-813l-98 -464h758l-33 -164h-760l-106 -506h823l-37 -164h-1018zM932 1839h231l-278 -293h-144z" />
    <glyph glyph-name="Ecircumflex" unicode="&#xca;" horiz-adv-x="1251" 
d="M324 1462h1007l-33 -164h-813l-98 -464h758l-33 -164h-760l-106 -506h823l-37 -164h-1018zM795 1839h176l153 -293h-151l-105 191l-178 -191h-168z" />
    <glyph glyph-name="Edieresis" unicode="&#xcb;" horiz-adv-x="1251" 
d="M324 1462h1007l-33 -164h-813l-98 -464h758l-33 -164h-760l-106 -506h823l-37 -164h-1018zM954 1767h183l-43 -213h-183zM621 1767h182l-43 -213h-182z" />
    <glyph glyph-name="Igrave" unicode="&#xcc;" horiz-adv-x="530" 
d="M322 1462h194l-307 -1462h-195zM559 1546h-137l-207 293h207z" />
    <glyph glyph-name="Iacute" unicode="&#xcd;" horiz-adv-x="530" 
d="M322 1462h194l-307 -1462h-195zM530 1839h232l-279 -293h-143z" />
    <glyph glyph-name="Icircumflex" unicode="&#xce;" horiz-adv-x="530" 
d="M322 1462h194l-307 -1462h-195zM393 1839h176l154 -293h-152l-104 191l-178 -191h-168z" />
    <glyph glyph-name="Idieresis" unicode="&#xcf;" horiz-adv-x="530" 
d="M322 1462h194l-307 -1462h-195zM553 1767h182l-43 -213h-182zM219 1767h182l-43 -213h-182z" />
    <glyph glyph-name="Eth" unicode="&#xd0;" horiz-adv-x="1441" 
d="M836 1462q272 0 412.5 -149.5t140.5 -409.5q0 -410 -223.5 -656.5t-590.5 -246.5h-561l148 694h-135l28 140h135l134 628h512zM1194 883q0 415 -403 415h-312l-98 -464h410l-29 -140h-410l-112 -530h338q293 0 454.5 214.5t161.5 504.5z" />
    <glyph glyph-name="Ntilde" unicode="&#xd1;" horiz-adv-x="1478" 
d="M324 1462h208l523 -1210h4l244 1210h188l-309 -1462h-209l-518 1202h-4l-248 -1202h-189zM600 1565q72 223 201 223q43 0 82 -16.5t78 -33.5t71.5 -32.5t59.5 -11.5q47 0 66.5 24.5t37.5 59.5h104q-31 -101 -78 -162.5t-130 -61.5q-46 0 -121.5 35t-110.5 49.5t-57 10.5
q-66 0 -96 -84h-107z" />
    <glyph glyph-name="Ograve" unicode="&#xd2;" horiz-adv-x="1554" 
d="M78 606q0 178 55 339t158.5 284t253 195.5t313.5 72.5q300 0 466.5 -183.5t166.5 -463.5q0 -172 -54.5 -332t-155.5 -282.5t-247.5 -195.5t-328.5 -73q-301 0 -464 167t-163 472zM272 620q0 -232 109.5 -361.5t323.5 -129.5q145 0 255.5 63.5t223 217.5t112.5 440
q0 214 -110.5 348.5t-304.5 134.5q-285 0 -409 -167t-162 -296.5t-38 -249.5zM1051 1546h-138l-206 293h206z" />
    <glyph glyph-name="Oacute" unicode="&#xd3;" horiz-adv-x="1554" 
d="M78 606q0 178 55 339t158.5 284t253 195.5t313.5 72.5q300 0 466.5 -183.5t166.5 -463.5q0 -172 -54.5 -332t-155.5 -282.5t-247.5 -195.5t-328.5 -73q-301 0 -464 167t-163 472zM272 620q0 -232 109.5 -361.5t323.5 -129.5q145 0 255.5 63.5t223 217.5t112.5 440
q0 214 -110.5 348.5t-304.5 134.5q-285 0 -409 -167t-162 -296.5t-38 -249.5zM1022 1839h231l-278 -293h-144z" />
    <glyph glyph-name="Ocircumflex" unicode="&#xd4;" horiz-adv-x="1554" 
d="M78 606q0 178 55 339t158.5 284t253 195.5t313.5 72.5q300 0 466.5 -183.5t166.5 -463.5q0 -172 -54.5 -332t-155.5 -282.5t-247.5 -195.5t-328.5 -73q-301 0 -464 167t-163 472zM272 620q0 -232 109.5 -361.5t323.5 -129.5q145 0 255.5 63.5t223 217.5t112.5 440
q0 214 -110.5 348.5t-304.5 134.5q-285 0 -409 -167t-162 -296.5t-38 -249.5zM885 1839h176l153 -293h-151l-105 191l-178 -191h-168z" />
    <glyph glyph-name="Otilde" unicode="&#xd5;" horiz-adv-x="1554" 
d="M78 606q0 178 55 339t158.5 284t253 195.5t313.5 72.5q300 0 466.5 -183.5t166.5 -463.5q0 -172 -54.5 -332t-155.5 -282.5t-247.5 -195.5t-328.5 -73q-301 0 -464 167t-163 472zM272 620q0 -232 109.5 -361.5t323.5 -129.5q145 0 255.5 63.5t223 217.5t112.5 440
q0 214 -110.5 348.5t-304.5 134.5q-285 0 -409 -167t-162 -296.5t-38 -249.5zM598 1565q72 223 201 223q43 0 82 -16.5t77 -33.5t71.5 -32.5t60.5 -11.5q47 0 66.5 24.5t37.5 59.5h104q-31 -101 -78 -162.5t-130 -61.5q-46 0 -121.5 35t-110.5 49.5t-57 10.5q-66 0 -96 -84
h-107z" />
    <glyph glyph-name="Odieresis" unicode="&#xd6;" horiz-adv-x="1554" 
d="M78 606q0 178 55 339t158.5 284t253 195.5t313.5 72.5q300 0 466.5 -183.5t166.5 -463.5q0 -172 -54.5 -332t-155.5 -282.5t-247.5 -195.5t-328.5 -73q-301 0 -464 167t-163 472zM272 620q0 -232 109.5 -361.5t323.5 -129.5q145 0 255.5 63.5t223 217.5t112.5 440
q0 214 -110.5 348.5t-304.5 134.5q-285 0 -409 -167t-162 -296.5t-38 -249.5zM1044 1767h183l-43 -213h-183zM711 1767h182l-43 -213h-182z" />
    <glyph glyph-name="multiply" unicode="&#xd7;" horiz-adv-x="1228" 
d="M145 147l373 373l-371 369l99 98l370 -369l369 369l98 -98l-368 -369l370 -373l-98 -98l-371 373l-372 -373z" />
    <glyph glyph-name="Oslash" unicode="&#xd8;" horiz-adv-x="1554" 
d="M78 580q0 204 55 365t158.5 284t253 195.5t336.5 72.5q275 0 444 -186l201 190l59 -65l-205 -195q111 -172 111 -367q0 -196 -54.5 -356t-155.5 -282.5t-247.5 -195.5t-328.5 -73q-305 0 -469 178h-7l-194 -188l-58 63l203 197q-102 159 -102 363zM881 1333
q-285 0 -447 -218.5t-162 -508.5q0 -147 52 -252l870 832q-111 147 -313 147zM705 129q145 0 255.5 63.5t223 217.5t112.5 440q0 147 -55 258l-870 -832q111 -147 334 -147z" />
    <glyph glyph-name="Ugrave" unicode="&#xd9;" horiz-adv-x="1478" 
d="M360.5 233.5q90.5 -104.5 307.5 -104.5t291.5 93t102.5 177t50 187l184 876h195l-182 -876q-44 -208 -77 -290q-68 -165 -217.5 -247t-348.5 -82q-326 0 -460 163t-71 472l182 860h195l-193 -909q-49 -215 41.5 -319.5zM1032 1546h-137l-207 293h207z" />
    <glyph glyph-name="Uacute" unicode="&#xda;" horiz-adv-x="1478" 
d="M360.5 233.5q90.5 -104.5 307.5 -104.5t291.5 93t102.5 177t50 187l184 876h195l-182 -876q-44 -208 -77 -290q-68 -165 -217.5 -247t-348.5 -82q-326 0 -460 163t-71 472l182 860h195l-193 -909q-49 -215 41.5 -319.5zM1004 1839h231l-279 -293h-143z" />
    <glyph glyph-name="Ucircumflex" unicode="&#xdb;" horiz-adv-x="1478" 
d="M360.5 233.5q90.5 -104.5 307.5 -104.5t291.5 93t102.5 177t50 187l184 876h195l-182 -876q-44 -208 -77 -290q-68 -165 -217.5 -247t-348.5 -82q-326 0 -460 163t-71 472l182 860h195l-193 -909q-49 -215 41.5 -319.5zM866 1839h176l154 -293h-152l-104 191l-178 -191
h-168z" />
    <glyph glyph-name="Udieresis" unicode="&#xdc;" horiz-adv-x="1478" 
d="M360.5 233.5q90.5 -104.5 307.5 -104.5t291.5 93t102.5 177t50 187l184 876h195l-182 -876q-44 -208 -77 -290q-68 -165 -217.5 -247t-348.5 -82q-326 0 -460 163t-71 472l182 860h195l-193 -909q-49 -215 41.5 -319.5zM1026 1767h182l-43 -213h-182zM692 1767h182
l-43 -213h-182z" />
    <glyph glyph-name="Yacute" unicode="&#xdd;" horiz-adv-x="1251" 
d="M520 588l-385 874h207l299 -708l555 708h225l-708 -874l-127 -588h-191zM870 1839h232l-279 -293h-143z" />
    <glyph glyph-name="Thorn" unicode="&#xde;" horiz-adv-x="1327" 
d="M844 1229q211 0 322.5 -100.5t111.5 -287.5t-133.5 -331.5t-425.5 -144.5h-434l-76 -365h-195l305 1462h195l-47 -233h377zM760 528q160 0 241.5 83t81.5 214q0 185 -95 212.5t-144 27.5h-412l-113 -537h441z" />
    <glyph glyph-name="germandbls" unicode="&#xdf;" horiz-adv-x="1099" 
d="M944 1422q109 -75 109 -228t-87.5 -259t-217.5 -122v-4q106 -15 168.5 -98.5t62.5 -197.5q0 -222 -145.5 -379t-364.5 -157q-82 0 -150 11l29 145q20 -4 31 -4h31q167 0 281 97t114 268q0 208 -131 223.5t-199 13.5l31 143q152 -9 262.5 63.5t110.5 217.5
q0 87 -62.5 137.5t-139.5 50.5q-137 0 -201 -87t-95 -238l-215 -1018h-174l217 1032q43 226 151 345.5t292 119.5q183 0 292 -75z" />
    <glyph glyph-name="agrave" unicode="&#xe0;" horiz-adv-x="1062" 
d="M344 129q207 0 297 139q43 59 58.5 129t33.5 144h-4q-54 -39 -221.5 -56.5t-227 -41t-92 -61.5t-33.5 -109t57 -107.5t132 -36.5zM657 129q-113 -152 -321 -152q-102 0 -159.5 15.5t-126 73t-68.5 191.5t50 199.5t128 99.5t172 46t173 20q168 16 221.5 42.5t53.5 114.5
t-63 119.5t-131 31.5q-129 0 -208.5 -48t-94.5 -143h-174q23 166 150.5 255t307.5 89q387 0 387 -270q0 -54 -32 -192l-68 -289q-6 -33 -17.5 -74t-11.5 -92t52 -51q13 0 55 14l-27 -129q-58 -23 -118 -23t-97 39t-28 109zM754 1204h-138l-206 293h206z" />
    <glyph glyph-name="aacute" unicode="&#xe1;" horiz-adv-x="1062" 
d="M344 129q207 0 297 139q43 59 58.5 129t33.5 144h-4q-54 -39 -221.5 -56.5t-227 -41t-92 -61.5t-33.5 -109t57 -107.5t132 -36.5zM657 129q-113 -152 -321 -152q-102 0 -159.5 15.5t-126 73t-68.5 191.5t50 199.5t128 99.5t172 46t173 20q168 16 221.5 42.5t53.5 114.5
t-63 119.5t-131 31.5q-129 0 -208.5 -48t-94.5 -143h-174q23 166 150.5 255t307.5 89q387 0 387 -270q0 -54 -32 -192l-68 -289q-6 -33 -17.5 -74t-11.5 -92t52 -51q13 0 55 14l-27 -129q-58 -23 -118 -23t-97 39t-28 109zM725 1497h231l-278 -293h-143z" />
    <glyph glyph-name="acircumflex" unicode="&#xe2;" horiz-adv-x="1062" 
d="M344 129q207 0 297 139q43 59 58.5 129t33.5 144h-4q-54 -39 -221.5 -56.5t-227 -41t-92 -61.5t-33.5 -109t57 -107.5t132 -36.5zM657 129q-113 -152 -321 -152q-102 0 -159.5 15.5t-126 73t-68.5 191.5t50 199.5t128 99.5t172 46t173 20q168 16 221.5 42.5t53.5 114.5
t-63 119.5t-131 31.5q-129 0 -208.5 -48t-94.5 -143h-174q23 166 150.5 255t307.5 89q387 0 387 -270q0 -54 -32 -192l-68 -289q-6 -33 -17.5 -74t-11.5 -92t52 -51q13 0 55 14l-27 -129q-58 -23 -118 -23t-97 39t-28 109zM588 1497h176l154 -293h-152l-104 191l-179 -191
h-168z" />
    <glyph glyph-name="atilde" unicode="&#xe3;" horiz-adv-x="1062" 
d="M344 129q207 0 297 139q43 59 58.5 129t33.5 144h-4q-54 -39 -221.5 -56.5t-227 -41t-92 -61.5t-33.5 -109t57 -107.5t132 -36.5zM657 129q-113 -152 -321 -152q-102 0 -159.5 15.5t-126 73t-68.5 191.5t50 199.5t128 99.5t172 46t173 20q168 16 221.5 42.5t53.5 114.5
t-63 119.5t-131 31.5q-129 0 -208.5 -48t-94.5 -143h-174q23 166 150.5 255t307.5 89q387 0 387 -270q0 -54 -32 -192l-68 -289q-6 -33 -17.5 -74t-11.5 -92t52 -51q13 0 55 14l-27 -129q-58 -23 -118 -23t-97 39t-28 109zM301 1223q72 223 201 223q43 0 82 -16.5t78 -33.5
t71.5 -32.5t59.5 -11.5q47 0 66.5 24.5t37.5 59.5h104q-31 -101 -78 -162.5t-130 -61.5q-46 0 -121.5 35t-110.5 49.5t-57 10.5q-66 0 -96 -84h-107z" />
    <glyph glyph-name="adieresis" unicode="&#xe4;" horiz-adv-x="1062" 
d="M344 129q207 0 297 139q43 59 58.5 129t33.5 144h-4q-54 -39 -221.5 -56.5t-227 -41t-92 -61.5t-33.5 -109t57 -107.5t132 -36.5zM657 129q-113 -152 -321 -152q-102 0 -159.5 15.5t-126 73t-68.5 191.5t50 199.5t128 99.5t172 46t173 20q168 16 221.5 42.5t53.5 114.5
t-63 119.5t-131 31.5q-129 0 -208.5 -48t-94.5 -143h-174q23 166 150.5 255t307.5 89q387 0 387 -270q0 -54 -32 -192l-68 -289q-6 -33 -17.5 -74t-11.5 -92t52 -51q13 0 55 14l-27 -129q-58 -23 -118 -23t-97 39t-28 109zM748 1425h182l-43 -213h-182zM414 1425h182
l-43 -213h-182z" />
    <glyph glyph-name="aring" unicode="&#xe5;" horiz-adv-x="1062" 
d="M344 129q207 0 297 139q43 59 58.5 129t33.5 144h-4q-54 -39 -221.5 -56.5t-227 -41t-92 -61.5t-33.5 -109t57 -107.5t132 -36.5zM657 129q-113 -152 -321 -152q-102 0 -159.5 15.5t-126 73t-68.5 191.5t50 199.5t128 99.5t172 46t173 20q168 16 221.5 42.5t53.5 114.5
t-63 119.5t-131 31.5q-129 0 -208.5 -48t-94.5 -143h-174q23 166 150.5 255t307.5 89q387 0 387 -270q0 -54 -32 -192l-68 -289q-6 -33 -17.5 -74t-11.5 -92t52 -51q13 0 55 14l-27 -129q-58 -23 -118 -23t-97 39t-28 109zM502 1355.5q0 -59.5 40 -99t99 -39.5t99 39.5
t40 99t-40 99.5t-99 40t-99 -40t-40 -99.5zM410 1356q0 47 18 89t50 73.5t74 50t89 18.5t89 -18.5t74 -50t50 -73.5t18 -89t-18 -89t-50 -74t-74 -50.5t-89 -18.5t-89 18.5t-74 50.5t-50 74t-18 89z" />
    <glyph glyph-name="ae" unicode="&#xe6;" horiz-adv-x="1781" 
d="M1041.5 841.5q-92.5 -88.5 -121.5 -210.5h593q17 126 -41.5 212.5t-197.5 86.5q-140 0 -232.5 -88.5zM795 788q0 142 -232 142q-98 0 -168.5 -48t-93.5 -141h-170q26 176 154.5 259t318.5 83q257 0 338 -165q57 80 148.5 122.5t189.5 42.5q205 0 306.5 -108.5
t101.5 -306.5q0 -77 -29 -191h-768q-10 -62 -10 -108q0 -100 64 -170t190 -70q229 0 313 203h178q-23 -63 -57 -119q-82 -123 -190.5 -179.5t-258.5 -56.5q-298 0 -372 228q-136 -228 -416 -228q-239 0 -289.5 102.5t-50.5 189.5t33.5 145.5t90 95.5t129 56.5t148.5 27.5
t239 24t163 170zM219 164q55 -35 134 -35q229 0 297 132.5t91 283.5q-71 -35 -188 -50.5t-177.5 -26.5t-136 -47t-75.5 -129t55 -128z" />
    <glyph glyph-name="ccedilla" unicode="&#xe7;" horiz-adv-x="1099" 
d="M436 -201q-52 0 -86 -16l-39 61l113 138q-193 16 -287 133.5t-94 316.5q0 268 156.5 459.5t429.5 191.5q180 0 285.5 -87t111.5 -273h-174q0 98 -59.5 152.5t-161.5 54.5q-190 0 -302 -153.5t-112 -354.5t94.5 -247t187.5 -46t173 59.5t116 157.5h175q-43 -168 -159 -262
t-288 -104l-76 -86h4q47 19 101.5 5t96.5 -44.5t42 -90.5q0 -102 -75 -147t-173 -45t-196 45l36 88q33 -10 65 -20.5t73 -10.5t78.5 10.5t37.5 51.5q0 63 -94 63z" />
    <glyph glyph-name="egrave" unicode="&#xe8;" horiz-adv-x="1099" 
d="M357 848.5q-90 -81.5 -132 -217.5h615q9 124 -52.5 211.5t-201.5 87.5q-139 0 -229 -81.5zM1014 614q0 -39 -17 -137h-796q-6 -45 -6 -99q0 -114 82.5 -181.5t191.5 -67.5q229 0 305 203h174q-39 -172 -171 -263.5t-286 -91.5q-153 0 -240 40t-159 127.5t-72 247.5
q0 161 44.5 287t119 216t174 139t207.5 49q449 0 449 -469zM772 1204h-137l-207 293h207z" />
    <glyph glyph-name="eacute" unicode="&#xe9;" horiz-adv-x="1099" 
d="M357 848.5q-90 -81.5 -132 -217.5h615q9 124 -52.5 211.5t-201.5 87.5q-139 0 -229 -81.5zM1014 614q0 -39 -17 -137h-796q-6 -45 -6 -99q0 -114 82.5 -181.5t191.5 -67.5q229 0 305 203h174q-39 -172 -171 -263.5t-286 -91.5q-153 0 -240 40t-159 127.5t-72 247.5
q0 161 44.5 287t119 216t174 139t207.5 49q449 0 449 -469zM743 1497h232l-279 -293h-143z" />
    <glyph glyph-name="ecircumflex" unicode="&#xea;" horiz-adv-x="1099" 
d="M357 848.5q-90 -81.5 -132 -217.5h615q9 124 -52.5 211.5t-201.5 87.5q-139 0 -229 -81.5zM1014 614q0 -39 -17 -137h-796q-6 -45 -6 -99q0 -114 82.5 -181.5t191.5 -67.5q229 0 305 203h174q-39 -172 -171 -263.5t-286 -91.5q-153 0 -240 40t-159 127.5t-72 247.5
q0 161 44.5 287t119 216t174 139t207.5 49q449 0 449 -469zM606 1497h176l154 -293h-152l-104 191l-178 -191h-168z" />
    <glyph glyph-name="edieresis" unicode="&#xeb;" horiz-adv-x="1099" 
d="M357 848.5q-90 -81.5 -132 -217.5h615q9 124 -52.5 211.5t-201.5 87.5q-139 0 -229 -81.5zM1014 614q0 -39 -17 -137h-796q-6 -45 -6 -99q0 -114 82.5 -181.5t191.5 -67.5q229 0 305 203h174q-39 -172 -171 -263.5t-286 -91.5q-153 0 -240 40t-159 127.5t-72 247.5
q0 161 44.5 287t119 216t174 139t207.5 49q449 0 449 -469zM766 1425h182l-43 -213h-182zM432 1425h182l-43 -213h-182z" />
    <glyph glyph-name="igrave" unicode="&#xec;" horiz-adv-x="454" 
d="M-8 0l219 1059h174l-221 -1059h-172zM500 1204h-138l-206 293h206z" />
    <glyph glyph-name="iacute" unicode="&#xed;" horiz-adv-x="454" 
d="M-8 0l219 1059h174l-221 -1059h-172zM471 1497h231l-278 -293h-143z" />
    <glyph glyph-name="icircumflex" unicode="&#xee;" horiz-adv-x="454" 
d="M-8 0l219 1059h174l-221 -1059h-172zM313 1497h176l154 -293h-151l-105 191l-178 -191h-168z" />
    <glyph glyph-name="idieresis" unicode="&#xef;" horiz-adv-x="454" 
d="M-8 0l219 1059h174l-221 -1059h-172zM473 1425h182l-43 -213h-182zM139 1425h183l-43 -213h-183z" />
    <glyph glyph-name="eth" unicode="&#xf0;" horiz-adv-x="1175" 
d="M614 883q-185 0 -295 -151t-110 -322q0 -123 73.5 -202t217.5 -79q177 0 288 157.5t111 325.5q0 117 -71 194t-214 77zM1083 733q0 -349 -157 -552.5t-445 -203.5q-204 0 -325 121t-121 310q0 259 162 443.5t430 184.5q164 0 264 -108h4q-26 87 -94.5 178t-128.5 133
l-234 -117l-86 82l232 115q-48 38 -121 86l131 92q96 -63 141 -102l215 108l90 -78l-221 -112q135 -130 199.5 -263.5t64.5 -316.5z" />
    <glyph glyph-name="ntilde" unicode="&#xf1;" 
d="M748 1083q276 0 276 -272q0 -79 -31 -207l-129 -604h-174l135 618q2 16 13.5 72t11.5 92q0 76 -54 112t-128 36t-144.5 -35t-120.5 -88q-77 -67 -116 -221l-123 -586h-172l221 1059h168l-33 -160h4q132 184 396 184zM389 1223q72 223 201 223q43 0 82 -16.5t78 -33.5
t71.5 -32.5t59.5 -11.5q47 0 66.5 24.5t37.5 59.5h105q-30 -99 -78 -161.5t-131 -62.5q-46 0 -121.5 35t-110.5 49.5t-57 10.5q-66 0 -96 -84h-107z" />
    <glyph glyph-name="ograve" unicode="&#xf2;" horiz-adv-x="1175" 
d="M209 420q0 -131 73.5 -211t217.5 -80q175 0 284 162t109 340q0 206 -103.5 252.5t-189.5 46.5t-162 -49.5t-152.5 -161t-76.5 -299.5zM35 434q0 112 40 233t162 268.5t390 147.5q215 0 327.5 -111.5t112.5 -326.5q0 -275 -159.5 -471.5t-426.5 -196.5
q-205 0 -325.5 122.5t-120.5 334.5zM809 1204h-137l-207 293h207z" />
    <glyph glyph-name="oacute" unicode="&#xf3;" horiz-adv-x="1175" 
d="M209 420q0 -131 73.5 -211t217.5 -80q175 0 284 162t109 340q0 206 -103.5 252.5t-189.5 46.5t-162 -49.5t-152.5 -161t-76.5 -299.5zM35 434q0 112 40 233t162 268.5t390 147.5q215 0 327.5 -111.5t112.5 -326.5q0 -275 -159.5 -471.5t-426.5 -196.5
q-205 0 -325.5 122.5t-120.5 334.5zM780 1497h232l-279 -293h-143z" />
    <glyph glyph-name="ocircumflex" unicode="&#xf4;" horiz-adv-x="1175" 
d="M209 420q0 -131 73.5 -211t217.5 -80q175 0 284 162t109 340q0 206 -103.5 252.5t-189.5 46.5t-162 -49.5t-152.5 -161t-76.5 -299.5zM35 434q0 112 40 233t162 268.5t390 147.5q215 0 327.5 -111.5t112.5 -326.5q0 -275 -159.5 -471.5t-426.5 -196.5
q-205 0 -325.5 122.5t-120.5 334.5zM643 1497h176l154 -293h-152l-104 191l-178 -191h-168z" />
    <glyph glyph-name="otilde" unicode="&#xf5;" horiz-adv-x="1175" 
d="M209 420q0 -131 73.5 -211t217.5 -80q175 0 284 162t109 340q0 206 -103.5 252.5t-189.5 46.5t-162 -49.5t-152.5 -161t-76.5 -299.5zM35 434q0 112 40 233t162 268.5t390 147.5q215 0 327.5 -111.5t112.5 -326.5q0 -275 -159.5 -471.5t-426.5 -196.5
q-205 0 -325.5 122.5t-120.5 334.5zM356 1223q72 223 201 223q43 0 82 -16.5t78 -33.5t71.5 -32.5t59.5 -11.5q47 0 66.5 24.5t37.5 59.5h105q-31 -101 -78 -162.5t-131 -61.5q-46 0 -121.5 35t-110 49.5t-57.5 10.5q-66 0 -96 -84h-107z" />
    <glyph glyph-name="odieresis" unicode="&#xf6;" horiz-adv-x="1175" 
d="M209 420q0 -131 73.5 -211t217.5 -80q175 0 284 162t109 340q0 206 -103.5 252.5t-189.5 46.5t-162 -49.5t-152.5 -161t-76.5 -299.5zM35 434q0 112 40 233t162 268.5t390 147.5q215 0 327.5 -111.5t112.5 -326.5q0 -275 -159.5 -471.5t-426.5 -196.5
q-205 0 -325.5 122.5t-120.5 334.5zM803 1425h182l-43 -213h-182zM469 1425h182l-43 -213h-182z" />
    <glyph glyph-name="divide" unicode="&#xf7;" horiz-adv-x="1228" 
d="M98 588h1032v-139h-1032v139zM483 940q0 53 39 92t92.5 39t92 -39t38.5 -90t-38.5 -92t-90.5 -41t-92.5 39t-40.5 92zM483 96.5q0 53.5 39 92t92.5 38.5t92 -38.5t38.5 -90.5t-38.5 -91.5t-90.5 -39.5t-92.5 38t-40.5 91.5z" />
    <glyph glyph-name="oslash" unicode="&#xf8;" horiz-adv-x="1175" 
d="M893 631q0 74 -23 135l-604 -545q79 -92 244 -92t274 162t109 340zM209 420q0 -80 20 -129h2l605 547q-79 92 -222 92q-184 0 -294.5 -161t-110.5 -349zM35 410q0 282 162 477.5t430 195.5q227 0 338 -129l143 129l51 -57l-149 -135q57 -95 57 -235q0 -285 -159.5 -482
t-426.5 -197q-227 0 -340 132l-151 -138l-49 56l155 143q-61 102 -61 240z" />
    <glyph glyph-name="ugrave" unicode="&#xf9;" 
d="M31 248q0 74 30 207l129 604h175l-136 -619q-24 -84 -24 -162t53 -113.5t129 -35.5q143 0 247 103t134 241l123 586h174l-223 -1059h-168l33 160h-5q-131 -183 -396 -183q-275 0 -275 271zM752 1204h-138l-206 293h206z" />
    <glyph glyph-name="uacute" unicode="&#xfa;" 
d="M31 248q0 74 30 207l129 604h175l-136 -619q-24 -84 -24 -162t53 -113.5t129 -35.5q143 0 247 103t134 241l123 586h174l-223 -1059h-168l33 160h-5q-131 -183 -396 -183q-275 0 -275 271zM702 1497h232l-279 -293h-143z" />
    <glyph glyph-name="ucircumflex" unicode="&#xfb;" 
d="M31 248q0 74 30 207l129 604h175l-136 -619q-24 -84 -24 -162t53 -113.5t129 -35.5q143 0 247 103t134 241l123 586h174l-223 -1059h-168l33 160h-5q-131 -183 -396 -183q-275 0 -275 271zM635 1497h176l154 -293h-152l-104 191l-179 -191h-168z" />
    <glyph glyph-name="udieresis" unicode="&#xfc;" 
d="M31 248q0 74 30 207l129 604h175l-136 -619q-24 -84 -24 -162t53 -113.5t129 -35.5q143 0 247 103t134 241l123 586h174l-223 -1059h-168l33 160h-5q-131 -183 -396 -183q-275 0 -275 271zM725 1425h182l-43 -213h-182zM391 1425h182l-43 -213h-182z" />
    <glyph glyph-name="yacute" unicode="&#xfd;" horiz-adv-x="985" 
d="M7 -289q54 0 91 32t68 83l106 174l-186 1059h186l123 -842h4l445 842h190l-700 -1237q-33 -51 -102.5 -150.5t-237.5 -99.5q-69 0 -121 27l31 141q49 -29 103 -29zM639 1497h231l-278 -293h-143z" />
    <glyph glyph-name="thorn" unicode="&#xfe;" horiz-adv-x="1214" 
d="M932 670q0 108 -64.5 184t-208.5 76q-98 0 -175.5 -51.5t-157.5 -169.5t-80 -306q0 -119 69 -196.5t185 -77.5t194 48t131.5 124t80 168.5t26.5 200.5zM688 1083q199 0 308.5 -117.5t109.5 -316.5q0 -256 -114.5 -404.5t-224.5 -208t-249 -59.5q-185 0 -250 66t-80 119
h-4l-112 -565h-170l389 1865h174l-129 -555h4q78 102 161 139t187 37z" />
    <glyph glyph-name="ydieresis" unicode="&#xff;" horiz-adv-x="985" 
d="M7 -289q54 0 91 32t68 83l106 174l-186 1059h186l123 -842h4l445 842h190l-700 -1237q-33 -51 -102.5 -150.5t-237.5 -99.5q-69 0 -121 27l31 141q49 -29 103 -29zM662 1425h182l-43 -213h-183zM328 1425h182l-43 -213h-182z" />
    <glyph glyph-name="uni0100" unicode="&#x100;" horiz-adv-x="1327" 
d="M573 1786h699l-25 -113h-698zM911 604l-98 682h-4l-393 -682h495zM743 1462h215l263 -1462h-215l-68 440h-619l-256 -440h-200z" />
    <glyph glyph-name="uni0101" unicode="&#x101;" horiz-adv-x="1099" 
d="M381 1397h698l-22 -113h-699zM741 369l37 178q-56 -36 -162 -49t-246.5 -33.5t-174.5 -179.5q-19 -80 31.5 -118t138.5 -38q160 0 258.5 75.5t117.5 164.5zM623 930q-107 0 -190 -42t-114 -159h-174q90 354 525 354q178 0 273.5 -61t62.5 -229l-117 -545q-12 -61 -11 -90
t42 -29q20 0 55 10l-29 -135q-53 -29 -126 -29q-152 0 -118 164q-175 -164 -413 -164q-237 0 -267 109.5t-13 193.5q31 154 141 222t286 98q74 14 140.5 21.5t149 28.5t99.5 106q22 103 -36.5 139.5t-165.5 36.5z" />
    <glyph glyph-name="uni0102" unicode="&#x102;" horiz-adv-x="1327" 
d="M918 1712q88 0 140 46t99 124h105q-51 -131 -149.5 -207t-236.5 -76t-201 73t-52 210h102q12 -170 193 -170zM911 604l-98 682h-4l-393 -682h495zM743 1462h215l263 -1462h-215l-68 440h-619l-256 -440h-200z" />
    <glyph glyph-name="uni0103" unicode="&#x103;" horiz-adv-x="1099" 
d="M727 1323q88 0 139.5 46t98.5 124h104q-51 -131 -149.5 -207t-236.5 -76q-270 0 -253 283h102q16 -170 195 -170zM741 369l37 178q-56 -36 -162 -49t-246.5 -33.5t-174.5 -179.5q-19 -80 31.5 -118t138.5 -38q160 0 258.5 75.5t117.5 164.5zM623 930q-107 0 -190 -42
t-114 -159h-174q90 354 525 354q178 0 273.5 -61t62.5 -229l-117 -545q-12 -61 -11 -90t42 -29q20 0 55 10l-29 -135q-53 -29 -126 -29q-152 0 -118 164q-175 -164 -413 -164q-237 0 -267 109.5t-13 193.5q31 154 141 222t286 98q74 14 140.5 21.5t149 28.5t99.5 106
q22 103 -36.5 139.5t-165.5 36.5z" />
    <glyph glyph-name="Aogonek" unicode="&#x104;" horiz-adv-x="1366" 
d="M952 604l-108 686h-4l-391 -686h503zM1245 -301q-103 -127 -231 -127q-102 0 -153.5 33t-51.5 112q0 134 250 283h-15l-67 440h-617l-256 -440h-215l879 1462h213l264 -1462h-51l-57 -38q-39 -26 -115 -92.5t-76 -119.5q0 -76 78 -76t145 50z" />
    <glyph glyph-name="aogonek" unicode="&#x105;" horiz-adv-x="1062" 
d="M344 129q207 0 297 139q43 59 58.5 129t33.5 144h-4q-54 -39 -221.5 -56.5t-227 -41t-92 -61.5t-33.5 -109t57 -107.5t132 -36.5zM657 129q-113 -152 -321 -152q-102 0 -159.5 15.5t-126 73t-68.5 191.5t50 199.5t128 99.5t172 46t173 20q168 16 221.5 42.5t53.5 114.5
t-63 119.5t-131 31.5q-129 0 -208.5 -48t-94.5 -143h-174q23 166 150.5 255t307.5 89q387 0 387 -270q0 -54 -32 -192l-68 -289q-6 -33 -17.5 -74t-11.5 -92t52 -51q12 0 26 4l29 10l-27 -129q-40 -16 -57 -16q-122 -82 -171.5 -142.5t-49.5 -91.5q0 -76 78 -76t145 50
l76 -25q-104 -127 -232 -127q-103 0 -154 33t-51 112q0 130 236 275q-76 30 -63 133z" />
    <glyph glyph-name="Cacute" unicode="&#x106;" horiz-adv-x="1478" 
d="M1192 1839l-279 -293h-143l191 293h231zM690 -33q-286 0 -449 167t-163 472q0 178 55 339t158.5 284t253 195.5t336.5 72.5q245 0 401 -130t156 -376h-195q0 172 -101.5 257t-257.5 85q-288 0 -450 -218.5t-162 -508.5q0 -218 109.5 -347.5t306.5 -129.5t309.5 95
t159.5 270h195q-55 -246 -215.5 -386.5t-446.5 -140.5z" />
    <glyph glyph-name="cacute" unicode="&#x107;" horiz-adv-x="1099" 
d="M924 1497l-279 -293h-143l190 293h232zM963 346q-96 -369 -499 -369q-202 0 -311.5 119t-109.5 336q0 268 156.5 459.5t429.5 191.5q180 0 285.5 -87t111.5 -273h-174q0 98 -59.5 152.5t-161.5 54.5q-190 0 -302 -153.5t-112 -354.5t94.5 -247t187.5 -46t173 59.5
t116 157.5h175z" />
    <glyph glyph-name="uni0108" unicode="&#x108;" horiz-adv-x="1478" 
d="M961 1888h190l152 -293h-173l-100 197l-184 -197h-158zM948 1497q263 0 403.5 -124t125.5 -351h-195q0 156 -95 233.5t-237 77.5q-259 0 -419.5 -170.5t-217.5 -429.5q-56 -259 33.5 -431.5t337.5 -172.5q185 0 322.5 117.5t189.5 304.5h195q-88 -276 -283 -431
t-475 -155q-324 0 -455.5 215t-58.5 547q69 333 236 491t309 218.5t284 60.5z" />
    <glyph glyph-name="uni0109" unicode="&#x109;" horiz-adv-x="1099" 
d="M682 1499h190l152 -293h-172l-100 197l-185 -197h-157zM670 930q-182 0 -286 -117.5t-140 -296.5q-56 -258 43.5 -322.5t183.5 -64.5q129 0 216 67.5t130 190.5h178q-72 -197 -212 -304.5t-359 -107.5t-317.5 146.5t-47 395t215.5 407.5t405 159q292 0 340.5 -135
t38.5 -229h-180q2 100 -52.5 155.5t-156.5 55.5z" />
    <glyph glyph-name="uni010A" unicode="&#x10a;" horiz-adv-x="1478" 
d="M1092 1624h-185l45 213h185zM948 1497q263 0 403.5 -124t125.5 -351h-195q0 156 -95 233.5t-237 77.5q-259 0 -419.5 -170.5t-217.5 -429.5q-56 -259 33.5 -431.5t337.5 -172.5q185 0 322.5 117.5t189.5 304.5h195q-88 -276 -283 -431t-475 -155q-324 0 -455.5 215
t-58.5 547q69 333 236 491t309 218.5t284 60.5z" />
    <glyph glyph-name="uni010B" unicode="&#x10b;" horiz-adv-x="1099" 
d="M813 1237h-184l45 213h184zM670 930q-182 0 -286 -117.5t-140 -296.5q-56 -258 43.5 -322.5t183.5 -64.5q129 0 216 67.5t130 190.5h178q-72 -197 -212 -304.5t-359 -107.5t-317.5 146.5t-47 395t215.5 407.5t405 159q292 0 340.5 -135t38.5 -229h-180q2 100 -52.5 155.5
t-156.5 55.5z" />
    <glyph glyph-name="uni010C" unicode="&#x10c;" horiz-adv-x="1478" 
d="M1090 1595h-191l-151 293h172l100 -196l184 196h158zM948 1497q263 0 403.5 -124t125.5 -351h-195q0 156 -95 233.5t-237 77.5q-259 0 -419.5 -170.5t-217.5 -429.5q-56 -259 33.5 -431.5t337.5 -172.5q185 0 322.5 117.5t189.5 304.5h195q-88 -276 -283 -431t-475 -155
q-324 0 -455.5 215t-58.5 547q69 333 236 491t309 218.5t284 60.5z" />
    <glyph glyph-name="uni010D" unicode="&#x10d;" horiz-adv-x="1099" 
d="M803 1206h-191l-151 293h172l100 -196l185 196h157zM670 930q-182 0 -286 -117.5t-140 -296.5q-56 -258 43.5 -322.5t183.5 -64.5q129 0 216 67.5t130 190.5h178q-72 -197 -212 -304.5t-359 -107.5t-317.5 146.5t-47 395t215.5 407.5t405 159q292 0 340.5 -135t38.5 -229
h-180q2 100 -52.5 155.5t-156.5 55.5z" />
    <glyph glyph-name="uni010E" unicode="&#x10e;" horiz-adv-x="1441" 
d="M956 1595h-190l-152 293h172l101 -196l184 196h158zM590 164q364 0 474 220t138 353q58 279 -26.5 420t-341.5 141h-328l-240 -1134h324zM848 1462q338 0 484.5 -172t69.5 -532t-288 -559t-575 -199h-502l309 1462h502z" />
    <glyph glyph-name="uni010F" unicode="&#x10f;" horiz-adv-x="1214" 
d="M1419 1462h223l-215 -293h-122zM611.5 930q-127.5 0 -230 -120t-137.5 -285t25.5 -280.5t222.5 -115.5q160 0 264 114.5t141 284.5q56 273 -51 337.5t-234.5 64.5zM664 1083q155 0 221.5 -59t85.5 -106h4l115 544h174l-310 -1462h-174l29 143h-4q-116 -168 -379 -168
q-117 0 -199 45.5t-126 122t-53 177t29 275.5t196 331.5t391 156.5z" />
    <glyph glyph-name="uni0110" unicode="&#x110;" horiz-adv-x="1441" 
d="M590 164q364 0 474 220t138 353q58 279 -26.5 420t-341.5 141h-328l-98 -469h438l-29 -131h-438l-113 -534h324zM848 1462q338 0 484.5 -172t69.5 -532t-288 -559t-575 -199h-502l147 698h-143l29 131h143l133 633h502z" />
    <glyph glyph-name="uni0111" unicode="&#x111;" horiz-adv-x="1224" 
d="M611.5 930q-127.5 0 -230 -120t-137.5 -285t25.5 -280.5t222.5 -115.5q160 0 264 114.5t141 284.5q56 273 -51 337.5t-234.5 64.5zM664 1083q155 0 221.5 -59t85.5 -106h4l57 276h-348l25 109h348l33 159h174l-33 -159h176l-25 -109h-176l-252 -1194h-174l29 143h-4
q-116 -168 -379 -168q-117 0 -199 45.5t-126 122t-53 177t29 275.5t196 331.5t391 156.5z" />
    <glyph glyph-name="uni0112" unicode="&#x112;" horiz-adv-x="1251" 
d="M561 1786h699l-25 -113h-698zM346 1462h1010l-35 -164h-815l-98 -464h759l-34 -164h-760l-107 -506h821l-34 -164h-1016z" />
    <glyph glyph-name="uni0113" unicode="&#x113;" horiz-adv-x="1099" 
d="M399 1397h699l-23 -113h-698zM404.5 845q-100.5 -85 -136.5 -214h609q17 131 -49 215t-195 84q-128 0 -228.5 -85zM492 129q228 0 317 207h172q-72 -178 -210 -269.5t-318 -91.5q-243 0 -340 151t-50 406q50 236 223 393.5t392 157.5q256 0 333 -188.5t17 -417.5h-792
q-54 -237 58 -292.5t198 -55.5z" />
    <glyph glyph-name="uni0114" unicode="&#x114;" horiz-adv-x="1251" 
d="M905 1712q88 0 140.5 46t99.5 124h104q-51 -131 -149.5 -207t-236.5 -76q-274 0 -253 283h103q12 -170 192 -170zM346 1462h1010l-35 -164h-815l-98 -464h759l-34 -164h-760l-107 -506h821l-34 -164h-1016z" />
    <glyph glyph-name="uni0115" unicode="&#x115;" horiz-adv-x="1099" 
d="M745 1323q88 0 139.5 46t98.5 124h104q-51 -131 -149 -207t-236 -76q-272 0 -253 283h102q16 -170 194 -170zM404.5 845q-100.5 -85 -136.5 -214h609q17 131 -49 215t-195 84q-128 0 -228.5 -85zM492 129q228 0 317 207h172q-72 -178 -210 -269.5t-318 -91.5
q-243 0 -340 151t-50 406q50 236 223 393.5t392 157.5q256 0 333 -188.5t17 -417.5h-792q-54 -237 58 -292.5t198 -55.5z" />
    <glyph glyph-name="uni0116" unicode="&#x116;" horiz-adv-x="1251" 
d="M967 1624h-185l45 213h185zM346 1462h1010l-35 -164h-815l-98 -464h759l-34 -164h-760l-107 -506h821l-34 -164h-1016z" />
    <glyph glyph-name="uni0117" unicode="&#x117;" horiz-adv-x="1099" 
d="M807 1237h-184l45 213h184zM404.5 845q-100.5 -85 -136.5 -214h609q17 131 -49 215t-195 84q-128 0 -228.5 -85zM492 129q228 0 317 207h172q-72 -178 -210 -269.5t-318 -91.5q-243 0 -340 151t-50 406q50 236 223 393.5t392 157.5q256 0 333 -188.5t17 -417.5h-792
q-54 -237 58 -292.5t198 -55.5z" />
    <glyph glyph-name="Eogonek" unicode="&#x118;" horiz-adv-x="1251" 
d="M1071 -301q-103 -127 -231 -127q-102 0 -153.5 33t-51.5 112q0 134 250 283h-871l310 1462h1007l-33 -164h-813l-98 -464h758l-33 -164h-760l-106 -506h823l-39 -164q-62 -26 -160 -111.5t-98 -138.5q0 -76 78 -76t145 50z" />
    <glyph glyph-name="eogonek" unicode="&#x119;" horiz-adv-x="1099" 
d="M357 848.5q-90 -81.5 -132 -217.5h615q9 124 -52.5 211.5t-201.5 87.5q-139 0 -229 -81.5zM686 -301q-104 -127 -232 -127q-102 0 -153 33t-51 107t57.5 135.5t155.5 129.5q-236 4 -339.5 129.5t-103.5 285.5q0 161 44.5 287t119 216t174 139t207.5 49q449 0 449 -469
q0 -39 -17 -137h-796q-6 -45 -6 -99q0 -114 82.5 -181.5t191.5 -67.5q229 0 305 203h174q-39 -171 -174 -266q-61 -41 -135 -64q-138 -83 -195 -152t-57 -100q0 -76 78 -76t145 50z" />
    <glyph glyph-name="uni011A" unicode="&#x11a;" horiz-adv-x="1251" 
d="M965 1595h-191l-151 293h172l100 -196l184 196h158zM346 1462h1010l-35 -164h-815l-98 -464h759l-34 -164h-760l-107 -506h821l-34 -164h-1016z" />
    <glyph glyph-name="uni011B" unicode="&#x11b;" horiz-adv-x="1099" 
d="M801 1206h-191l-151 293h172l100 -196l184 196h158zM404.5 845q-100.5 -85 -136.5 -214h609q17 131 -49 215t-195 84q-128 0 -228.5 -85zM492 129q228 0 317 207h172q-72 -178 -210 -269.5t-318 -91.5q-243 0 -340 151t-50 406q50 236 223 393.5t392 157.5
q256 0 333 -188.5t17 -417.5h-792q-54 -237 58 -292.5t198 -55.5z" />
    <glyph glyph-name="uni011C" unicode="&#x11c;" horiz-adv-x="1554" 
d="M973 1888h190l152 -293h-172l-101 197l-184 -197h-158zM1167 182q-209 -217 -531 -217q-146 0 -262 61.5t-184.5 164t-88 235t13.5 284.5t107.5 296.5t185 253t254.5 173t290 64.5q279 0 421.5 -120t131.5 -365h-194q7 321 -393 321q-108 0 -214 -53t-223 -181.5
t-170 -376.5q-54 -247 44.5 -420t326.5 -173t385.5 137t189.5 340h-466l34 164h641l-161 -770h-123z" />
    <glyph glyph-name="uni011D" unicode="&#x11d;" horiz-adv-x="1175" 
d="M686 1499h191l151 -293h-172l-100 197l-185 -197h-157zM644 930q-157 0 -258 -109.5t-137 -273.5q-36 -165 8.5 -285.5t204.5 -120.5t264 121.5t140 288.5q51 254 -44 316.5t-178 62.5zM338 -430q-172 0 -285.5 76t-87.5 235h174q-14 -85 62 -128.5t169 -43.5
q169 0 271 108t139 294l15 69h-4q-66 -98 -167.5 -145t-211.5 -47q-217 0 -308 151t-43 379q47 227 201.5 396t407.5 169q100 0 175 -44t103 -132h2l31 152h164l-205 -969q-55 -262 -201.5 -391t-400.5 -129z" />
    <glyph glyph-name="uni011E" unicode="&#x11e;" horiz-adv-x="1554" 
d="M1042 1712q88 0 140.5 46t99.5 124h104q-51 -131 -149 -207t-236 -76t-201 73t-52 210h102q12 -170 192 -170zM1167 182q-209 -217 -531 -217q-146 0 -262 61.5t-184.5 164t-88 235t13.5 284.5t107.5 296.5t185 253t254.5 173t290 64.5q279 0 421.5 -120t131.5 -365h-194
q7 321 -393 321q-108 0 -214 -53t-223 -181.5t-170 -376.5q-54 -247 44.5 -420t326.5 -173t385.5 137t189.5 340h-466l34 164h641l-161 -770h-123z" />
    <glyph glyph-name="uni011F" unicode="&#x11f;" horiz-adv-x="1175" 
d="M756 1323q88 0 139 46t98 124h105q-51 -131 -149.5 -207t-236.5 -76q-270 0 -253 283h102q16 -170 195 -170zM644 930q-157 0 -258 -109.5t-137 -273.5q-36 -165 8.5 -285.5t204.5 -120.5t264 121.5t140 288.5q51 254 -44 316.5t-178 62.5zM338 -430q-172 0 -285.5 76
t-87.5 235h174q-14 -85 62 -128.5t169 -43.5q169 0 271 108t139 294l15 69h-4q-66 -98 -167.5 -145t-211.5 -47q-217 0 -308 151t-43 379q47 227 201.5 396t407.5 169q100 0 175 -44t103 -132h2l31 152h164l-205 -969q-55 -262 -201.5 -391t-400.5 -129z" />
    <glyph glyph-name="uni0120" unicode="&#x120;" horiz-adv-x="1554" 
d="M1102 1624h-184l45 213h184zM1167 182q-209 -217 -531 -217q-146 0 -262 61.5t-184.5 164t-88 235t13.5 284.5t107.5 296.5t185 253t254.5 173t290 64.5q279 0 421.5 -120t131.5 -365h-194q7 321 -393 321q-108 0 -214 -53t-223 -181.5t-170 -376.5q-54 -247 44.5 -420
t326.5 -173t385.5 137t189.5 340h-466l34 164h641l-161 -770h-123z" />
    <glyph glyph-name="uni0121" unicode="&#x121;" horiz-adv-x="1175" 
d="M817 1237h-184l45 213h184zM644 930q-157 0 -258 -109.5t-137 -273.5q-36 -165 8.5 -285.5t204.5 -120.5t264 121.5t140 288.5q51 254 -44 316.5t-178 62.5zM338 -430q-172 0 -285.5 76t-87.5 235h174q-14 -85 62 -128.5t169 -43.5q169 0 271 108t139 294l15 69h-4
q-66 -98 -167.5 -145t-211.5 -47q-217 0 -308 151t-43 379q47 227 201.5 396t407.5 169q100 0 175 -44t103 -132h2l31 152h164l-205 -969q-55 -262 -201.5 -391t-400.5 -129z" />
    <glyph glyph-name="uni0122" unicode="&#x122;" horiz-adv-x="1554" 
d="M512 -102h227l-32 -158q-39 -170 -240 -170l14 72q63 15 78.5 33.5t20.5 41.5h-107zM1167 182q-209 -217 -531 -217q-146 0 -262 61.5t-184.5 164t-88 235t13.5 284.5t107.5 296.5t185 253t254.5 173t290 64.5q279 0 421.5 -120t131.5 -365h-194q7 321 -393 321
q-108 0 -214 -53t-223 -181.5t-170 -376.5q-54 -247 44.5 -420t326.5 -173t385.5 137t189.5 340h-466l34 164h641l-161 -770h-123z" />
    <glyph glyph-name="uni0123" unicode="&#x123;" horiz-adv-x="1175" 
d="M848 1282h-227l32 158q18 88 83 129t157 41l-16 -72q-66 -16 -80.5 -36.5t-18.5 -39.5h107zM644 930q-157 0 -258 -109.5t-137 -273.5q-36 -165 8.5 -285.5t204.5 -120.5t264 121.5t140 288.5q51 254 -44 316.5t-178 62.5zM338 -430q-172 0 -285.5 76t-87.5 235h174
q-14 -85 62 -128.5t169 -43.5q169 0 271 108t139 294l15 69h-4q-66 -98 -167.5 -145t-211.5 -47q-217 0 -308 151t-43 379q47 227 201.5 396t407.5 169q100 0 175 -44t103 -132h2l31 152h164l-205 -969q-55 -262 -201.5 -391t-400.5 -129z" />
    <glyph glyph-name="uni0124" unicode="&#x124;" horiz-adv-x="1478" 
d="M915 1888h191l151 -293h-172l-100 197l-184 -197h-158zM346 1462h195l-133 -628h770l133 628h194l-309 -1462h-195l142 670h-770l-142 -670h-194z" />
    <glyph glyph-name="uni0125" unicode="&#x125;" 
d="M733 1888h191l151 -293h-172l-100 197l-185 -197h-157zM702 930q-164 0 -263 -91t-130 -241l-127 -598h-174l309 1462h175l-119 -559h4q56 89 162 134.5t210 45.5q197 0 260 -102.5t23 -284.5l-147 -696h-174l151 717q20 98 -25 155.5t-135 57.5z" />
    <glyph glyph-name="uni0126" unicode="&#x126;" horiz-adv-x="1478" 
d="M1167 786l56 263h-770l-56 -263h770zM346 1462h195l-62 -295h770l62 295h194l-309 -1462h-195l134 627h-770l-134 -627h-194z" />
    <glyph glyph-name="uni0127" unicode="&#x127;" horiz-adv-x="1148" 
d="M712 930q-163 0 -262.5 -90.5t-130.5 -241.5l-126 -598h-175l252 1194h-176l25 109h176l33 159h174l-33 -159h348l-24 -109h-349l-61 -291h4q56 89 162 134.5t210 45.5q196 0 260 -101.5t23 -285.5l-147 -696h-174l151 717q20 98 -25 155.5t-135 57.5z" />
    <glyph glyph-name="uni0128" unicode="&#x128;" horiz-adv-x="530" 
d="M674 1767q68 0 112 91h107q-31 -88 -100 -162q-66 -66 -139 -66t-160 41q-98 39 -132 39q-63 0 -114 -86h-107q39 94 103.5 159.5t161.5 65.5q56 0 115 -28.5t89.5 -41t63.5 -12.5zM354 1462h195l-309 -1462h-195z" />
    <glyph glyph-name="uni0129" unicode="&#x129;" horiz-adv-x="454" 
d="M241 1321q-63 0 -114 -86h-107q39 94 103.5 159.5t161.5 65.5q56 0 115 -28.5t89.5 -41t63.5 -12.5q63 0 113 90h106q-30 -88 -98 -158t-158 -69q-58 0 -143 41q-98 39 -132 39zM18 0l224 1059h174l-223 -1059h-175z" />
    <glyph glyph-name="uni012A" unicode="&#x12a;" horiz-adv-x="530" 
d="M174 1786h698l-24 -113h-698zM354 1462h195l-309 -1462h-195z" />
    <glyph glyph-name="uni012B" unicode="&#x12b;" horiz-adv-x="454" 
d="M53 1397h699l-23 -113h-698zM18 0l224 1059h174l-223 -1059h-175z" />
    <glyph glyph-name="uni012C" unicode="&#x12c;" horiz-adv-x="530" 
d="M518 1712q88 0 140.5 46t99.5 124h104q-51 -131 -149.5 -207t-236.5 -76q-274 0 -253 283h103q12 -170 192 -170zM354 1462h195l-309 -1462h-195z" />
    <glyph glyph-name="uni012D" unicode="&#x12d;" horiz-adv-x="454" 
d="M399 1323q88 0 139.5 46t98.5 124h104q-51 -131 -149 -207t-236 -76q-270 0 -254 283h103q16 -170 194 -170zM18 0l224 1059h174l-223 -1059h-175z" />
    <glyph glyph-name="uni012E" unicode="&#x12e;" horiz-adv-x="530" 
d="M49 -430q-74 0 -120 37t-29 123q37 143 266 270h-121l309 1462h195l-309 -1462q-115 -94 -154.5 -141t-49.5 -93q-21 -94 47 -94t130 62l49 -37q-96 -127 -213 -127z" />
    <glyph glyph-name="uni012F" unicode="&#x12f;" horiz-adv-x="454" 
d="M2 -430q-74 0 -128 44.5t-13.5 137.5t112.5 150t146 98h-101l224 1059h174l-223 -1059q-119 -98 -156.5 -143t-48.5 -92q-21 -93 48 -93q68 0 130 62l49 -37q-96 -127 -213 -127zM457 1249h-174l45 213h174z" />
    <glyph glyph-name="uni0130" unicode="&#x130;" horiz-adv-x="530" 
d="M580 1624h-185l45 213h185zM354 1462h195l-309 -1462h-195z" />
    <glyph glyph-name="dotlessi" unicode="&#x131;" horiz-adv-x="454" 
d="M-8 0l219 1059h174l-221 -1059h-172z" />
    <glyph glyph-name="uni0132" unicode="&#x132;" horiz-adv-x="1576" 
d="M893 129q133 0 198.5 71.5t90.5 192.5l227 1069h195l-234 -1097q-58 -270 -225.5 -335t-290.5 -65q-205 0 -293 108.5t-43 317.5l19 90h194l-12 -61q-47 -213 27.5 -252t146.5 -39zM354 1462h195l-309 -1462h-195z" />
    <glyph glyph-name="uni0133" unicode="&#x133;" horiz-adv-x="897" 
d="M270 -252h37q57 0 85 32t44 114l248 1165h174l-254 -1194q-29 -141 -111.5 -206t-199.5 -65q-47 0 -88 9l33 149q20 -4 32 -4zM899 1249h-174l45 213h174zM242 1059h174l-223 -1059h-175zM457 1249h-174l45 213h174z" />
    <glyph glyph-name="uni0134" unicode="&#x134;" horiz-adv-x="1062" 
d="M981 1888h190l152 -293h-172l-100 197l-185 -197h-157zM379 129q133 0 198.5 71.5t90.5 192.5l227 1069h195l-234 -1097q-58 -270 -225.5 -335t-290.5 -65q-205 0 -293 108.5t-43 317.5l19 90h194l-12 -61q-47 -213 27.5 -252t146.5 -39z" />
    <glyph glyph-name="uni0135" unicode="&#x135;" horiz-adv-x="454" 
d="M326 1499h190l152 -293h-172l-101 197l-184 -197h-158zM-133 -252q55 0 82.5 32t44.5 114l248 1165h174l-254 -1194q-29 -141 -111 -206t-198 -65q-47 0 -89 9l33 149q20 -4 33 -4h37z" />
    <glyph glyph-name="uni0136" unicode="&#x136;" horiz-adv-x="1366" 
d="M449 -102h227l-33 -158q-39 -170 -240 -170l15 72q81 20 88.5 42.5t9.5 32.5h-106zM346 1462h195l-154 -729l895 729h252l-741 -590l456 -872h-245l-373 739l-291 -227l-109 -512h-194z" />
    <glyph glyph-name="uni0137" unicode="&#x137;" horiz-adv-x="1062" 
d="M305 -102h227l-32 -158q-39 -170 -240 -170l14 72q82 20 89.5 42.5t9.5 32.5h-107zM328 1462h174l-185 -866l582 463h234l-502 -385l309 -674h-221l-246 553l-197 -152l-83 -401h-175z" />
    <glyph glyph-name="uni0138" unicode="&#x138;" horiz-adv-x="1052" 
d="M231 1059h175l-99 -463l582 463h233l-501 -385l309 -674h-221l-246 553l-197 -152l-84 -401h-174z" />
    <glyph glyph-name="uni0139" unicode="&#x139;" 
d="M643 1888h223l-329 -293h-131zM346 1462h195l-275 -1298h774l-34 -164h-969z" />
    <glyph glyph-name="uni013A" unicode="&#x13a;" horiz-adv-x="454" 
d="M586 1888h223l-330 -293h-131zM328 1462h174l-309 -1462h-175z" />
    <glyph glyph-name="uni013B" unicode="&#x13b;" 
d="M373 -102h227l-33 -158q-39 -170 -239 -170l14 72q63 15 78 33t20 42h-106zM346 1462h195l-275 -1298h774l-34 -164h-969z" />
    <glyph glyph-name="uni013C" unicode="&#x13c;" horiz-adv-x="454" 
d="M-31 -102h228l-33 -158q-39 -170 -240 -170l15 72q81 20 88.5 42.5t9.5 32.5h-107zM328 1462h174l-309 -1462h-175z" />
    <glyph glyph-name="uni013D" unicode="&#x13d;" 
d="M805 1462h223l-215 -293h-123zM346 1462h195l-275 -1298h774l-34 -164h-969z" />
    <glyph glyph-name="uni013E" unicode="&#x13e;" horiz-adv-x="589" 
d="M627 1462h143l-111 -465h-139zM328 1462h174l-309 -1462h-175z" />
    <glyph glyph-name="uni013F" unicode="&#x13f;" 
d="M852 690h-184l45 213h184zM346 1462h195l-275 -1298h774l-34 -164h-969z" />
    <glyph glyph-name="uni0140" unicode="&#x140;" horiz-adv-x="700" 
d="M668 690h-185l45 213h185zM328 1462h174l-309 -1462h-175z" />
    <glyph glyph-name="Lslash" unicode="&#x141;" 
d="M117 481l-158 -98l35 168l158 98l170 813h194l-141 -676l452 279l-34 -170l-453 -277l-94 -454h772l-35 -164h-969z" />
    <glyph glyph-name="lslash" unicode="&#x142;" horiz-adv-x="454" 
d="M471 1462l-109 -475l5 -4l135 107l-21 -160l-151 -117l-166 -813h-172l137 659l-141 -110l18 158l152 116l139 639h174z" />
    <glyph glyph-name="Nacute" unicode="&#x143;" horiz-adv-x="1478" 
d="M1217 1839l-279 -293h-143l190 293h232zM532 1462l523 -1210h4l244 1210h188l-309 -1462h-209l-518 1202h-4l-248 -1202h-189l310 1462h208z" />
    <glyph glyph-name="nacute" unicode="&#x144;" 
d="M965 1497l-279 -293h-143l190 293h232zM748 1083q276 0 276 -272q0 -79 -31 -207l-129 -604h-174l135 618q2 16 13.5 72t11.5 92q0 76 -54 112t-128 36t-144.5 -35t-120.5 -88q-77 -67 -116 -221l-123 -586h-172l221 1059h168l-33 -160h4q132 184 396 184z" />
    <glyph glyph-name="uni0145" unicode="&#x145;" horiz-adv-x="1478" 
d="M475 -102h227l-32 -158q-39 -170 -240 -170l14 72q82 20 89.5 42.5t9.5 32.5h-107zM344 1462h207l518 -1186h4l252 1186h184l-309 -1462h-213l-516 1174h-4l-248 -1174h-184z" />
    <glyph glyph-name="uni0146" unicode="&#x146;" 
d="M307 -102h228l-33 -158q-39 -170 -240 -170l14 72q82 20 89.5 42.5t9.5 32.5h-107zM750 1083q368 0 282 -387l-147 -696h-174l151 717q20 98 -25 155.5t-135 57.5q-164 0 -263 -91t-130 -241l-127 -598h-174l223 1059h164l-35 -168h5q153 192 385 192z" />
    <glyph glyph-name="uni0147" unicode="&#x147;" horiz-adv-x="1478" 
d="M1047 1595h-191l-151 293h172l100 -196l184 196h158zM344 1462h207l518 -1186h4l252 1186h184l-309 -1462h-213l-516 1174h-4l-248 -1174h-184z" />
    <glyph glyph-name="uni0148" unicode="&#x148;" 
d="M801 1206h-191l-151 293h172l100 -196l184 196h158zM750 1083q368 0 282 -387l-147 -696h-174l151 717q20 98 -25 155.5t-135 57.5q-164 0 -263 -91t-130 -241l-127 -598h-174l223 1059h164l-35 -168h5q153 192 385 192z" />
    <glyph glyph-name="uni0149" unicode="&#x149;" horiz-adv-x="1357" 
d="M223 1462h228l-48 -227q-40 -202 -136.5 -251.5t-153.5 -49.5l22 102q117 0 162 199h-121zM969 1083q195 0 259 -101.5t23 -285.5l-147 -696h-174l151 717q20 98 -24.5 155.5t-134.5 57.5q-163 0 -263 -90.5t-131 -241.5l-127 -598h-174l224 1059h163l-34 -168h4
q153 192 385 192z" />
    <glyph glyph-name="uni014A" unicode="&#x14a;" horiz-adv-x="1478" 
d="M934 -204q45 38 70 153l4 16l-537 1209h-4l-248 -1174h-184l309 1462h207l518 -1186h4l252 1186h184l-327 -1544q-39 -180 -141.5 -252t-258.5 -72q-88 0 -151 19l35 160q78 -15 150 -15q73 0 118 38z" />
    <glyph glyph-name="uni014B" unicode="&#x14b;" 
d="M750 1083q368 0 282 -387l-170 -798q-35 -164 -129 -234t-231 -70q-77 0 -129 15l30 149q72 -10 132 -10q59 0 98 37t61 141l168 791q20 98 -25 155.5t-135 57.5q-164 0 -263 -91t-130 -241l-127 -598h-174l223 1059h164l-35 -168h5q153 192 385 192z" />
    <glyph glyph-name="uni014C" unicode="&#x14c;" horiz-adv-x="1556" 
d="M688 1786h698l-24 -113h-698zM1100 309.5q165 180.5 217 421.5t-38 421.5t-341 180.5t-415 -176t-220 -426q-50 -244 39 -423t341 -179t417 180.5zM894.5 1497q252.5 0 370 -63.5t216 -223.5t28.5 -479q-66 -318 -298.5 -542t-485 -224t-370 63.5t-215.5 221.5t-31 481
q71 320 302 543t483.5 223z" />
    <glyph glyph-name="uni014D" unicode="&#x14d;" horiz-adv-x="1175" 
d="M414 1397h698l-22 -113h-699zM491.5 129q67.5 0 134 26.5t122 77t96.5 125t61.5 171t10 171t-44 126t-88 78t-122 26.5t-134 -26.5t-122 -78t-97.5 -126t-62.5 -171t-10 -171t44 -125t89 -77t123 -26.5zM871 131.5q-168 -156.5 -412 -156.5t-346.5 155t-51.5 397.5
t220.5 399t411.5 156.5t345 -154.5t52 -397.5t-219 -399.5z" />
    <glyph glyph-name="uni014E" unicode="&#x14e;" horiz-adv-x="1556" 
d="M1032 1712q88 0 140.5 46t99.5 124h104q-51 -131 -149.5 -207t-236.5 -76q-274 0 -253 283h103q12 -170 192 -170zM1100 309.5q165 180.5 217 421.5t-38 421.5t-341 180.5t-415 -176t-220 -426q-50 -244 39 -423t341 -179t417 180.5zM894.5 1497q252.5 0 370 -63.5
t216 -223.5t28.5 -479q-66 -318 -298.5 -542t-485 -224t-370 63.5t-215.5 221.5t-31 481q71 320 302 543t483.5 223z" />
    <glyph glyph-name="uni014F" unicode="&#x14f;" horiz-adv-x="1175" 
d="M760 1323q88 0 139 46t98 124h105q-51 -131 -149.5 -207t-236.5 -76q-270 0 -253 283h102q16 -170 195 -170zM491.5 129q67.5 0 134 26.5t122 77t96.5 125t61.5 171t10 171t-44 126t-88 78t-122 26.5t-134 -26.5t-122 -78t-97.5 -126t-62.5 -171t-10 -171t44 -125t89 -77
t123 -26.5zM871 131.5q-168 -156.5 -412 -156.5t-346.5 155t-51.5 397.5t220.5 399t411.5 156.5t345 -154.5t52 -397.5t-219 -399.5z" />
    <glyph glyph-name="uni0150" unicode="&#x150;" horiz-adv-x="1556" 
d="M985 1888h215l-307 -293h-135zM1305 1888h215l-308 -293h-135zM1100 309.5q165 180.5 217 421.5t-38 421.5t-341 180.5t-415 -176t-220 -426q-50 -244 39 -423t341 -179t417 180.5zM894.5 1497q252.5 0 370 -63.5t216 -223.5t28.5 -479q-66 -318 -298.5 -542t-485 -224
t-370 63.5t-215.5 221.5t-31 481q71 320 302 543t483.5 223z" />
    <glyph glyph-name="uni0151" unicode="&#x151;" horiz-adv-x="1175" 
d="M713 1499h215l-307 -293h-136zM1032 1499h215l-307 -293h-135zM491.5 129q67.5 0 134 26.5t122 77t96.5 125t61.5 171t10 171t-44 126t-88 78t-122 26.5t-134 -26.5t-122 -78t-97.5 -126t-62.5 -171t-10 -171t44 -125t89 -77t123 -26.5zM871 131.5
q-168 -156.5 -412 -156.5t-346.5 155t-51.5 397.5t220.5 399t411.5 156.5t345 -154.5t52 -397.5t-219 -399.5z" />
    <glyph glyph-name="OE" unicode="&#x152;" horiz-adv-x="2199" 
d="M281 598q0 -195 102.5 -332t288.5 -137t277 89t113.5 157.5t39.5 150.5l115 568q15 86 -103.5 162.5t-252.5 76.5t-245.5 -65.5t-223 -223t-111.5 -446.5zM86 614q0 164 53.5 322t153.5 282.5t242.5 201.5t333.5 77t283.5 -72.5t125.5 -126.5l33 164h954l-33 -164h-776
l-98 -464h710l-32 -164h-711l-106 -506h786l-33 -164h-973l27 117h-4q-118 -150 -382 -150q-122 0 -229.5 50.5t-216 180.5t-108.5 416z" />
    <glyph glyph-name="oe" unicode="&#x153;" horiz-adv-x="1857" 
d="M967 369q0 -123 72.5 -181.5t186.5 -58.5t195.5 56.5t116.5 148.5h178q-59 -180 -192 -268.5t-320 -88.5q-125 0 -221 42t-145 165q-57 -100 -158.5 -153.5t-218.5 -53.5q-199 0 -312.5 99.5t-113.5 314.5q0 125 41 249t116.5 222.5t184.5 159.5t241 61t225 -42t138 -164
q57 106 164.5 156t224.5 50q207 0 308.5 -114.5t101.5 -304.5q0 -78 -23 -187h-776q-14 -58 -14 -108zM209 412q0 -129 68 -206t185 -77q204 0 298 185t94 393q0 111 -70 167t-172 56t-176 -52.5t-125 -131t-76.5 -172.5t-25.5 -162zM1606 700q0 90 -61 160t-189 70
t-223 -82t-125 -217h594q4 32 4 69z" />
    <glyph glyph-name="uni0154" unicode="&#x154;" horiz-adv-x="1402" 
d="M1022 1888h223l-330 -293h-131zM803 788q341 0 393 261q23 111 -23.5 180t-183.5 69h-483l-109 -510h406zM1034 1462q209 0 305.5 -102.5t59.5 -280.5q-29 -135 -111 -234.5t-223 -135.5v-4q156 -31 158.5 -152t-13.5 -217t-22.5 -183.5t33.5 -152.5h-217q-26 37 -12 117
t24 135t10 108q5 136 -28 200.5t-160 64.5h-476l-131 -625h-194l309 1462h688z" />
    <glyph glyph-name="uni0155" unicode="&#x155;" horiz-adv-x="681" 
d="M662 1499h223l-330 -293h-131zM225 1059h164l-47 -223h4q92 129 196.5 190t245.5 57l-38 -184q-211 0 -322 -112.5t-154 -315.5l-98 -471h-174z" />
    <glyph glyph-name="uni0156" unicode="&#x156;" horiz-adv-x="1402" 
d="M459 -102h227l-33 -158q-39 -170 -239 -170l14 72q63 15 78 33t20 42h-106zM803 788q341 0 393 261q23 111 -23.5 180t-183.5 69h-483l-109 -510h406zM1034 1462q209 0 305.5 -102.5t59.5 -280.5q-29 -135 -111 -234.5t-223 -135.5v-4q156 -31 158.5 -152t-13.5 -217
t-22.5 -183.5t33.5 -152.5h-217q-26 37 -12 117t24 135t10 108q5 136 -28 200.5t-160 64.5h-476l-131 -625h-194l309 1462h688z" />
    <glyph glyph-name="uni0157" unicode="&#x157;" horiz-adv-x="681" 
d="M-47 -102h227l-33 -158q-39 -170 -239 -170l14 72q63 15 78 33t20 42h-106zM225 1059h164l-47 -223h4q92 129 196.5 190t245.5 57l-38 -184q-211 0 -322 -112.5t-154 -315.5l-98 -471h-174z" />
    <glyph glyph-name="uni0158" unicode="&#x158;" horiz-adv-x="1402" 
d="M973 1595h-191l-151 293h172l100 -196l184 196h158zM803 788q341 0 393 261q23 111 -23.5 180t-183.5 69h-483l-109 -510h406zM1034 1462q209 0 305.5 -102.5t59.5 -280.5q-29 -135 -111 -234.5t-223 -135.5v-4q156 -31 158.5 -152t-13.5 -217t-22.5 -183.5t33.5 -152.5
h-217q-26 37 -12 117t24 135t10 108q5 136 -28 200.5t-160 64.5h-476l-131 -625h-194l309 1462h688z" />
    <glyph glyph-name="uni0159" unicode="&#x159;" horiz-adv-x="681" 
d="M629 1206h-191l-151 293h172l100 -196l184 196h158zM225 1059h164l-47 -223h4q92 129 196.5 190t245.5 57l-38 -184q-211 0 -322 -112.5t-154 -315.5l-98 -471h-174z" />
    <glyph glyph-name="Sacute" unicode="&#x15a;" horiz-adv-x="1327" 
d="M1038 1839l-278 -293h-144l191 293h231zM225 479q-14 -350 379 -350q160 0 268.5 70.5t108.5 213.5t-103.5 183.5t-156.5 54.5l-199 54q-327 89 -327 368q0 196 158.5 310t381.5 114t377 -118t145 -349h-194q6 244 -127.5 273.5t-197.5 29.5q-139 0 -244 -61t-105 -178
q0 -143 94.5 -182.5t143.5 -53.5l196 -53q160 -42 256.5 -129t96.5 -266q0 -211 -174.5 -327t-395.5 -116q-431 0 -508.5 188.5t-66.5 323.5h194z" />
    <glyph glyph-name="sacute" unicode="&#x15b;" horiz-adv-x="985" 
d="M834 1497l-279 -293h-143l190 293h232zM508 930q-149 0 -187 -47t-38 -86t23.5 -65.5t63.5 -49.5t90 -42t102 -41q129 -55 204.5 -119.5t75.5 -164.5q0 -175 -128 -256.5t-304 -81.5q-305 0 -365.5 127t-60.5 230h172q-8 -108 70 -156.5t200 -48.5q161 0 201.5 58.5
t40.5 100.5t-25 69.5t-63.5 50t-89 41.5t-102.5 41q-134 56 -206.5 117.5t-72.5 170.5q0 144 119.5 224.5t330 80.5t276.5 -121.5t66 -213.5h-174q4 90 -61.5 136t-157.5 46z" />
    <glyph glyph-name="uni015C" unicode="&#x15c;" horiz-adv-x="1327" 
d="M846 1888h190l152 -293h-172l-101 197l-184 -197h-158zM803 1333q-222 0 -294.5 -89t-86.5 -159t17.5 -111.5t91 -68t140.5 -44t164 -38t259.5 -82.5t117.5 -340q-46 -216 -241.5 -326t-440.5 -110q-244 0 -387 132.5t-90 383.5h185q-34 -175 69 -263.5t283 -88.5
q251 0 331.5 93t96.5 171t-14.5 125t-90 77t-139.5 48.5t-226 51.5t-254 111.5t-71 262.5q47 208 225 318t398 110q369 0 415 -171t25 -292h-184q16 160 -65 229.5t-234 69.5z" />
    <glyph glyph-name="uni015D" unicode="&#x15d;" horiz-adv-x="1024" 
d="M612 1499h191l151 -293h-172l-100 197l-184 -197h-158zM420 129q263 0 295 158q18 90 -52.5 122.5t-130 46t-167 39t-187 87.5t-49.5 205t166.5 219.5t312.5 76.5t274 -75.5t70 -255.5h-174q16 135 -75 156.5t-132 21.5q-225 0 -256 -135q-17 -80 57 -112t133 -45.5
t119 -27.5q155 -38 233 -102t48 -199q-36 -173 -185.5 -253.5t-336.5 -80.5q-304 0 -346.5 130.5t-26.5 228.5h174q-27 -158 81 -181.5t155 -23.5z" />
    <glyph glyph-name="uni015E" unicode="&#x15e;" horiz-adv-x="1327" 
d="M440 -201q-40 0 -90 -16l-22 57l129 131q-347 33 -387.5 211t-16.5 299h185q-34 -175 69 -263.5t283 -88.5q251 0 331.5 93t96.5 171t-14.5 125t-90 77t-139.5 48.5t-226 51.5t-254 111.5t-71 262.5q47 208 225 318t398 110q369 0 415 -171t25 -292h-184
q16 160 -65 229.5t-234 69.5q-222 0 -294.5 -89t-86.5 -159t17.5 -111.5t91 -68t140.5 -44t164 -38t259.5 -82.5t117.5 -340q-46 -216 -241.5 -326t-421.5 -110h-12l-74 -74l4 -4q62 28 148 0.5t62 -142.5q-17 -85 -103 -130t-185 -45q-98 0 -184 39l55 90q60 -27 114 -27
q131 0 146 64q6 29 -17 46t-63 17z" />
    <glyph glyph-name="uni015F" unicode="&#x15f;" horiz-adv-x="1024" 
d="M290 -201q-40 0 -89 -16l-23 57l137 140q-254 20 -287.5 142t-17.5 212h174q-27 -158 81 -181.5t155 -23.5q263 0 295 158q18 90 -52.5 122.5t-130 46t-167 39t-187 87.5t-49.5 205t166.5 219.5t312.5 76.5t274 -75.5t70 -255.5h-174q16 135 -75 156.5t-132 21.5
q-225 0 -256 -135q-17 -80 57 -112t133 -45.5t119 -27.5q155 -38 233 -102t48 -199q-37 -170 -181 -249.5t-327 -84.5l-84 -84l4 -4q62 28 148.5 0t62.5 -142q-18 -86 -103.5 -130.5t-184.5 -44.5q-98 0 -185 39l56 90q61 -27 115 -27q129 0 145 64q6 29 -17.5 46t-63.5 17z
" />
    <glyph glyph-name="Scaron" unicode="&#x160;" horiz-adv-x="1327" 
d="M225 479q-14 -350 379 -350q160 0 268.5 70.5t108.5 213.5t-103.5 183.5t-156.5 54.5l-199 54q-327 89 -327 368q0 196 158.5 310t381.5 114t377 -118t145 -349h-194q6 244 -127.5 273.5t-197.5 29.5q-139 0 -244 -61t-105 -178q0 -143 94.5 -182.5t143.5 -53.5l196 -53
q160 -42 256.5 -129t96.5 -266q0 -211 -174.5 -327t-395.5 -116q-431 0 -508.5 188.5t-66.5 323.5h194zM903 1546h-176l-158 293h156l104 -190l191 190h160z" />
    <glyph glyph-name="scaron" unicode="&#x161;" horiz-adv-x="985" 
d="M508 930q-149 0 -187 -47t-38 -86t23.5 -65.5t63.5 -49.5t90 -42t102 -41q129 -55 204.5 -119.5t75.5 -164.5q0 -175 -128 -256.5t-304 -81.5q-305 0 -365.5 127t-60.5 230h172q-8 -108 70 -156.5t200 -48.5q161 0 201.5 58.5t40.5 100.5t-25 69.5t-63.5 50t-89 41.5
t-102.5 41q-134 56 -206.5 117.5t-72.5 170.5q0 144 119.5 224.5t330 80.5t276.5 -121.5t66 -213.5h-174q4 90 -61.5 136t-157.5 46zM684 1204h-176l-158 293h156l104 -190l191 190h160z" />
    <glyph glyph-name="uni0162" unicode="&#x162;" horiz-adv-x="1175" 
d="M328 -102h227l-33 -158q-39 -170 -239 -170l14 72q63 15 78 33t20 42h-106zM643 1298h-487l34 164h1170l-35 -164h-487l-275 -1298h-194z" />
    <glyph glyph-name="uni0163" unicode="&#x163;" horiz-adv-x="645" 
d="M427 -136.5q54 -38.5 54 -119.5t-74.5 -126.5t-172.5 -45.5t-195 45l37 88q33 -10 63.5 -20.5t71.5 -10.5t79 10.5t38 48.5q0 66 -95 66q-52 0 -86 -16l-36 61l131 161q-14 1 -44 7t-67 42t-6 177l141 674h-180l33 154h180l68 317h174l-68 -317h211l-33 -154h-211
l-139 -657q-12 -61 8.5 -77.5t102.5 -16.5h80l-31 -154h-128l-95 -106h4q20 8 76 8q55 0 109 -38.5z" />
    <glyph glyph-name="uni0164" unicode="&#x164;" horiz-adv-x="1175" 
d="M897 1595h-190l-152 293h172l100 -196l185 196h157zM643 1298h-487l34 164h1170l-35 -164h-487l-275 -1298h-194z" />
    <glyph glyph-name="uni0165" unicode="&#x165;" horiz-adv-x="645" 
d="M412 154h80l-31 -154h-133q-142 0 -188 45t-15 186l141 674h-180l33 154h180l68 317h174l-68 -317h211l-33 -154h-211l-139 -657q-12 -61 8.5 -77.5t102.5 -16.5zM745 1462h224l-215 -293h-123z" />
    <glyph glyph-name="uni0166" unicode="&#x166;" horiz-adv-x="1175" 
d="M289 997h291l63 301h-487l34 164h1170l-35 -164h-487l-64 -301h295l-27 -125h-294l-185 -872h-194l184 872h-291z" />
    <glyph glyph-name="uni0167" unicode="&#x167;" horiz-adv-x="645" 
d="M412 154h80l-31 -154h-133q-142 0 -188 45t-15 186l76 365h-170l24 113h170l41 196h-180l33 154h180l68 317h174l-68 -317h211l-33 -154h-211l-41 -196h195l-25 -113h-194l-74 -348q-12 -61 8.5 -77.5t102.5 -16.5z" />
    <glyph glyph-name="uni0168" unicode="&#x168;" horiz-adv-x="1478" 
d="M836 1710q-63 0 -113 -86h-107q39 94 103.5 159.5t161.5 65.5q56 0 115 -28.5t89.5 -41t63.5 -12.5q66 0 113 91h106q-31 -88 -100 -162q-66 -66 -154 -66q-55 0 -118 28q-62 28 -94 40t-66 12zM621 -35q-441 0 -476.5 209t-5.5 354l199 934h194l-198 -934
q-41 -197 42 -298t274 -101t310 101.5t160 297.5l199 934h194l-198 -934q-59 -281 -238.5 -422t-455.5 -141z" />
    <glyph glyph-name="uni0169" unicode="&#x169;" 
d="M581 1321q-63 0 -114 -86h-107q39 94 103.5 159.5t161.5 65.5q56 0 115 -28.5t89.5 -41t63.5 -12.5q63 0 113 90h106q-30 -88 -98 -158t-144 -69q-76 0 -157 41q-98 39 -132 39zM367 -25q-196 0 -259 101.5t-24 285.5l147 697h175l-152 -717q-23 -98 23.5 -155.5
t136.5 -57.5q164 0 264 92t129 240l127 598h174l-223 -1059h-164l35 168h-4q-150 -193 -385 -193z" />
    <glyph glyph-name="uni016A" unicode="&#x16a;" horiz-adv-x="1478" 
d="M651 1786h699l-25 -113h-698zM621 -35q-441 0 -476.5 209t-5.5 354l199 934h194l-198 -934q-41 -197 42 -298t274 -101t310 101.5t160 297.5l199 934h194l-198 -934q-59 -281 -238.5 -422t-455.5 -141z" />
    <glyph glyph-name="uni016B" unicode="&#x16b;" 
d="M393 1397h699l-23 -113h-698zM367 -25q-196 0 -259 101.5t-24 285.5l147 697h175l-152 -717q-23 -98 23.5 -155.5t136.5 -57.5q164 0 264 92t129 240l127 598h174l-223 -1059h-164l35 168h-4q-150 -193 -385 -193z" />
    <glyph glyph-name="uni016C" unicode="&#x16c;" horiz-adv-x="1478" 
d="M995 1712q88 0 140.5 46t99.5 124h104q-51 -131 -149 -207t-236 -76q-274 0 -254 283h103q12 -170 192 -170zM621 -35q-441 0 -476.5 209t-5.5 354l199 934h194l-198 -934q-41 -197 42 -298t274 -101t310 101.5t160 297.5l199 934h194l-198 -934q-59 -281 -238.5 -422
t-455.5 -141z" />
    <glyph glyph-name="uni016D" unicode="&#x16d;" 
d="M739 1323q88 0 139.5 46t98.5 124h104q-51 -131 -149 -207t-236 -76q-270 0 -254 283h103q16 -170 194 -170zM367 -25q-196 0 -259 101.5t-24 285.5l147 697h175l-152 -717q-23 -98 23.5 -155.5t136.5 -57.5q164 0 264 92t129 240l127 598h174l-223 -1059h-164l35 168h-4
q-150 -193 -385 -193z" />
    <glyph glyph-name="uni016E.low" unicode="&#x16e;" horiz-adv-x="1478" 
d="M948.5 1561q59.5 0 107.5 39.5t60 99t-18.5 99.5t-90 40t-106.5 -40t-59.5 -99.5t17.5 -99t89.5 -39.5zM1028 1931q47 0 85 -18.5t62.5 -49t35 -72.5t0 -89t-38 -89t-65.5 -73t-84 -49t-93 -18t-85 18t-62.5 49t-35 73t0 89t38 89t65.5 72.5t84 49t93 18.5zM621 -35
q-441 0 -476.5 209t-5.5 354l199 934h194l-198 -934q-41 -197 42 -298t274 -101t310 101.5t160 297.5l199 934h194l-198 -934q-59 -281 -238.5 -422t-455.5 -141z" />
    <glyph glyph-name="uni016F" unicode="&#x16f;" 
d="M712.5 1253q59.5 0 106.5 40t59.5 99.5t-18.5 99.5t-90 40t-106.5 -40t-59.5 -99.5t18.5 -99.5t90 -40zM790.5 1624q47.5 0 85 -18.5t62.5 -49t35 -72.5t0 -89t-38 -89t-66 -73t-84 -49.5t-93 -18.5t-85 18.5t-62.5 49.5t-34.5 73t0 89t37.5 89t65.5 72.5t84 49
t93.5 18.5zM367 -25q-196 0 -259 101.5t-24 285.5l147 697h175l-152 -717q-23 -98 23.5 -155.5t136.5 -57.5q164 0 264 92t129 240l127 598h174l-223 -1059h-164l35 168h-4q-150 -193 -385 -193z" />
    <glyph glyph-name="uni0170" unicode="&#x170;" horiz-adv-x="1478" 
d="M948 1888h215l-307 -293h-135zM1268 1888h215l-307 -293h-136zM621 -35q-441 0 -476.5 209t-5.5 354l199 934h194l-198 -934q-41 -197 42 -298t274 -101t310 101.5t160 297.5l199 934h194l-198 -934q-59 -281 -238.5 -422t-455.5 -141z" />
    <glyph glyph-name="uni0171" unicode="&#x171;" 
d="M692 1499h215l-307 -293h-135zM1012 1499h215l-307 -293h-136zM367 -25q-196 0 -259 101.5t-24 285.5l147 697h175l-152 -717q-23 -98 23.5 -155.5t136.5 -57.5q164 0 264 92t129 240l127 598h174l-223 -1059h-164l35 168h-4q-150 -193 -385 -193z" />
    <glyph glyph-name="uni0172" unicode="&#x172;" horiz-adv-x="1478" 
d="M650 129q191 0 310 101.5t160 297.5l199 934h194l-198 -934q-53 -260 -213 -400t-406 -159q-163 -122 -180 -211q-8 -39 8.5 -62.5t57.5 -23.5q74 0 135 62l57 -37q-101 -127 -248 -127q-78 0 -125 37t-33 107q29 139 228 251q-270 6 -393 141.5t-64 421.5l199 934h194
l-198 -934q-41 -197 42 -298t274 -101z" />
    <glyph glyph-name="uni0173" unicode="&#x173;" 
d="M367 -25q-196 0 -259 101.5t-24 285.5l147 697h175l-152 -717q-23 -98 23.5 -155.5t136.5 -57.5q164 0 264 92t129 240l127 598h174l-223 -1059h-82q-171 -120 -207 -193.5t-15 -104t62 -30.5q74 0 135 62l58 -37q-101 -127 -248 -127q-78 0 -125 37t-32 111
q30 147 290 282l35 168h-4q-150 -193 -385 -193z" />
    <glyph glyph-name="uni0174" unicode="&#x174;" horiz-adv-x="1896" 
d="M1130 1888h191l152 -293h-173l-100 197l-184 -197h-158zM1358 0h-203l-74 1229h-4l-598 -1229h-203l-65 1462h199l28 -1216h4l586 1216h211l66 -1216h4l555 1216h194z" />
    <glyph glyph-name="uni0175" unicode="&#x175;" horiz-adv-x="1552" 
d="M883 1499h190l152 -293h-172l-101 197l-184 -197h-158zM1057 0h-185l-36 842h-5l-391 -842h-188l-117 1059h193l55 -866h4l397 866h191l37 -866h4l422 866h180z" />
    <glyph glyph-name="uni0176" unicode="&#x176;" horiz-adv-x="1327" 
d="M854 1888h190l152 -293h-172l-100 197l-185 -197h-157zM768 598l-127 -598h-195l127 598l-383 864h232l291 -696l575 696h221z" />
    <glyph glyph-name="uni0177" unicode="&#x177;" horiz-adv-x="1024" 
d="M623 1499h190l152 -293h-172l-101 197l-184 -197h-158zM52 -270q80 0 151 96l110 180l-196 1053h196l125 -866h4l482 866h184l-715 -1200q-96 -159 -175.5 -221t-168.5 -62t-141 18l35 160l46 -16t63 -8z" />
    <glyph glyph-name="Ydieresis" unicode="&#x178;" horiz-adv-x="1251" 
d="M520 588l-385 874h207l299 -708l555 708h225l-708 -874l-127 -588h-191zM893 1767h182l-43 -213h-182zM559 1767h182l-43 -213h-182z" />
    <glyph glyph-name="Zacute" unicode="&#x179;" horiz-adv-x="1251" 
d="M1061 1839l-279 -293h-143l190 293h232zM1055 1298h-838l41 164h1067l-35 -166l-1106 -1132h934l-35 -164h-1159l35 162z" />
    <glyph glyph-name="zacute" unicode="&#x17a;" horiz-adv-x="909" 
d="M809 1497l-279 -293h-143l191 293h231zM653 905h-569l31 154h805l-27 -125l-743 -780h632l-28 -154h-860l24 131z" />
    <glyph glyph-name="Zdotaccent" unicode="&#x17b;" horiz-adv-x="1251" 
d="M901 1767l-43 -213h-182l43 213h182zM1055 1298h-838l41 164h1067l-35 -166l-1106 -1132h934l-35 -164h-1159l35 162z" />
    <glyph glyph-name="zdotaccent" unicode="&#x17c;" horiz-adv-x="909" 
d="M649 1425l-43 -213h-182l43 213h182zM653 905h-569l31 154h805l-27 -125l-743 -780h632l-28 -154h-860l24 131z" />
    <glyph glyph-name="Zcaron" unicode="&#x17d;" horiz-adv-x="1251" 
d="M-41 162l1096 1136h-838l41 164h1067l-35 -166l-1106 -1132h934l-35 -164h-1159zM866 1546h-176l-158 293h156l105 -190l190 190h160z" />
    <glyph glyph-name="zcaron" unicode="&#x17e;" horiz-adv-x="909" 
d="M-82 131l735 774h-569l31 154h805l-27 -125l-743 -780h632l-28 -154h-860zM645 1204h-176l-158 293h156l104 -190l191 190h160z" />
    <glyph glyph-name="uni017F" unicode="&#x17f;" horiz-adv-x="569" 
d="M651 1491q32 0 76 -4l-35 -164l-63 2q-82 0 -107.5 -43t-95.5 -358l-195 -924h-178l195 924h-148l31 143h148l36 168q27 111 74 164q82 92 262 92z" />
    <glyph glyph-name="uni0180" unicode="&#x180;" 
d="M563 -39q-111 0 -186.5 44t-118.5 145l-31 -150h-161l256 1210h-134l25 119h133l33 146h174l-33 -146h334l-25 -119h-333l-60 -276q78 73 131 104q96 51 219 52q221 0 304.5 -171t31.5 -414t-215.5 -393.5t-343.5 -150.5zM543 119q162 0 259 115.5t137 303.5t-23.5 292
t-192.5 104t-232.5 -98t-146.5 -300t15.5 -309.5t183.5 -107.5z" />
    <glyph glyph-name="uni0182" unicode="&#x182;" horiz-adv-x="1366" 
d="M791 680h-396l-108 -510h395q300 0 354 252q31 143 -40.5 200.5t-204.5 57.5zM891 848q223 0 303 -127t40 -313t-182.5 -297t-338.5 -111h-662l311 1468h1076l-39 -180h-875l-94 -440h461z" />
    <glyph glyph-name="uni0183" unicode="&#x183;" 
d="M676 938q-131 0 -244 -91t-158 -300q-86 -422 213 -422q145 0 242.5 116t136.5 296t-10 290.5t-180 110.5zM467 -35q-123 0 -195 60q-41 35 -82 112l-28 -137h-166l313 1475h811l-39 -181h-637l-75 -354q156 160 354 160q199 0 294 -138.5t40 -399.5t-214 -429t-376 -168
z" />
    <glyph glyph-name="uni0186" unicode="&#x186;" horiz-adv-x="1478" 
d="M868 1333q-340 0 -512 -403h-194q76 231 254 389q217 188 514 188q256 0 397 -153q186 -205 94 -633q-68 -326 -284 -535q-236 -225 -564 -225q-279 0 -400 147.5t-101 333.5h194q4 -143 84 -226t258 -83q217 0 384 152.5t235 468.5q55 258 -32 418.5t-327 160.5z" />
    <glyph glyph-name="uni0189" unicode="&#x189;" horiz-adv-x="1478" 
d="M633 170q100 0 170 20q231 73 356 379q31 82 47 154q57 272 -19.5 423.5t-316.5 151.5h-354l-92 -434h420l-37 -178h-420l-111 -516h357zM915 1468q365 0 478 -249q83 -185 27 -445t-189 -450q-223 -324 -596 -324h-592l145 686h-133l37 178h133l129 604h561z" />
    <glyph glyph-name="uni018B" unicode="&#x18b;" horiz-adv-x="1366" 
d="M590 170h395l109 510h-396q-135 0 -230 -58t-128 -210t76 -209q57 -33 174 -33zM487 0q-195 0 -293 111t-58 297t174 313t356 127h462l95 440h-875l39 180h1073l-311 -1468h-662z" />
    <glyph glyph-name="uni018C" unicode="&#x18c;" 
d="M496 125q305 0 391 422q45 209 -28 300t-205 91t-228 -110.5t-135 -290.5t9 -296t196 -116zM676 1100q199 0 287 -160l75 354h-637l39 181h811l-313 -1475h-166l29 137q-74 -78 -131 -112q-96 -59 -219 -60q-217 0 -305 168t-32 429t209.5 399.5t352.5 138.5z" />
    <glyph glyph-name="uni018D" unicode="&#x18d;" horiz-adv-x="1161" 
d="M720 1300q-151 0 -263.5 -107.5t-147.5 -270.5q-45 -209 37 -289t215 -80h31q23 4 92.5 14.5t165.5 119.5t128 259t-37.5 252t-220.5 102zM756 1464q221 0 331.5 -134t67.5 -337q-55 -252 -206.5 -409.5t-403.5 -157.5l321 -283l-35 -163h-784l33 147h573l-358 315
q-212 187 -137 533q43 209 210 349t388 140z" />
    <glyph glyph-name="uni018E" unicode="&#x18e;" horiz-adv-x="1366" 
d="M1139 0h-1088l37 174h893l104 498h-811l37 170h811l95 446h-877l39 180h1071z" />
    <glyph glyph-name="uni018F" unicode="&#x18f;" horiz-adv-x="1509" 
d="M78 606q0 136 14 205h1158q1 25 1 90t-26.5 153.5t-109 185.5t-296.5 97q-162 0 -281.5 -76.5t-185.5 -207.5h-198q120 317 329 381.5t336 64.5q303 0 465 -166t162 -473q0 -371 -152.5 -558t-299 -260t-332.5 -73q-274 0 -429 165t-155 472zM266 649q0 -246 109 -381
t275 -135t330 96t237 368l12 52h-963z" />
    <glyph glyph-name="uni0190" unicode="&#x190;" horiz-adv-x="1095" 
d="M444 102q136 0 240 102t147 238h150q-53 -199 -197 -333q-168 -158 -374 -158t-299 139q-94 139 -54 332q29 133 87 219t180 145q-125 127 -85 313q40 185 174 305q135 120 335 120t288 -140t43 -352l-149 -2q30 127 -30 236q-60 108 -181 108t-204 -68t-113 -208
t49 -199q57 -45 223 -47l-31 -147q-49 4 -72 4q-293 0 -352 -277q-31 -146 29 -238t196 -92z" />
    <glyph glyph-name="uni0191" unicode="&#x191;" horiz-adv-x="1251" 
d="M-137 -432q-28 0 -74 6l33 156q121 4 148.5 21.5t47.5 109.5l256 1206h2l86 401h1020l-39 -180h-819l-94 -444h721l-37 -176h-721l-176 -828q-25 -117 -76 -174q-104 -98 -278 -98z" />
    <glyph glyph-name="florin" unicode="&#x192;" 
d="M928 1309q-94 0 -129 -43.5t-70 -167.5l-49 -178h227l-37 -140h-227l-242 -848q-35 -135 -109.5 -201.5t-215.5 -66.5q-41 0 -113 10l41 152q44 -11 78 -8q74 10 107.5 59t50.5 113l225 790h-195l37 140h195l94 335q33 117 118 162t201 45q46 0 134 -16l-41 -150
q-29 13 -80 13z" />
    <glyph glyph-name="uni0196" unicode="&#x196;" horiz-adv-x="454" 
d="M211 -29q-176 0 -219 99q-27 57 -2 174l260 1224h180l-256 -1206q-20 -92 1.5 -109.5t139.5 -21.5l-32 -156q-31 -2 -45.5 -3t-26.5 -1z" />
    <glyph glyph-name="uni0197" unicode="&#x197;" horiz-adv-x="698" 
d="M106 920h232l117 548h180l-117 -548h230l-25 -117h-229l-170 -803h-181l170 803h-231z" />
    <glyph glyph-name="uni019A" unicode="&#x19a;" horiz-adv-x="698" 
d="M106 920h232l117 548h180l-117 -548h230l-25 -117h-229l-170 -803h-181l170 803h-231z" />
    <glyph glyph-name="uni019B" unicode="&#x19b;" 
d="M487 1483q104 0 146 -53q37 -55 57 -173l307 82l-26 -116l-260 -72l178 -920q16 -84 69 -84h52l-31 -147h-105q-147 0 -172 152l-108 659l-481 -811h-199l637 1030l-12 76l-314 -84l25 119l270 71v15q-18 100 -102 96h-66l31 150q43 10 104 10z" />
    <glyph glyph-name="uni019D" unicode="&#x19d;" horiz-adv-x="1478" 
d="M-154 -432q-28 0 -73 6l32 156q121 4 149 21.5t48 109.5l342 1607h236l487 -1189l254 1189h190l-311 -1468h-223l-502 1190l-252 -1190h-10l-35 -160q-25 -117 -74 -174q-84 -98 -258 -98z" />
    <glyph glyph-name="uni019E" unicode="&#x19e;" 
d="M772 1096q217 0 264 -160q27 -86 -8 -250l-231 -1083h-185l230 1073q54 258 -150 258q-64 0 -124 -18t-124 -78t-89 -116t-48 -161l-119 -561h-180l228 1071h172l-33 -151q180 176 397 176z" />
    <glyph glyph-name="uni019F" unicode="&#x19f;" horiz-adv-x="1593" 
d="M1296 1174q-100 158 -331 158t-408 -156q-150 -131 -217 -365h1016q34 222 -60 363zM708 135q270 0 427 189q127 152 184 340h-1016q-33 -211 51 -370t354 -159zM664 -43q-352 0 -496 223q-126 216 -60 530t259 527q249 273 629 273t513 -250q105 -194 37 -512t-278 -535
q-252 -256 -604 -256z" />
    <glyph glyph-name="uni01A0" unicode="&#x1a0;" horiz-adv-x="1820" 
d="M965 1331q-231 0 -408.5 -155.5t-241.5 -460.5q-53 -246 35 -413t358 -167t428.5 188.5t211.5 440.5t-49.5 409.5t-333.5 157.5zM664 -43q-352 0 -496 223q-126 216 -60 530t259 527q248 272 615 272t509 -221q29 -6 68 2q76 3 116 33l-20 98l219 84l39 -196l-203 -78
q-90 -35 -170 -41q63 -176 8 -430q-70 -330 -280 -547q-252 -256 -604 -256z" />
    <glyph glyph-name="uni01A1" unicode="&#x1a1;" horiz-adv-x="1384" 
d="M645 944q-176 0 -277.5 -126t-138.5 -300t14.5 -287.5t222.5 -113.5t266 135t128 293t6 252q-45 147 -221 147zM684 1102q240 0 344 -187q14 0 33 5q86 7 115 32l-19 101l217 84l41 -199l-205 -78q-78 -31 -149 -39q23 -110 -10 -264q-53 -258 -216 -427t-427 -169
q-221 0 -319.5 149.5t-42.5 410.5t227 421t411 160z" />
    <glyph glyph-name="uni01A2" unicode="&#x1a2;" horiz-adv-x="1658" 
d="M705 129q82 0 124 14l246 1145q-53 23 -114.5 34t-79.5 11q-285 0 -409 -167t-162 -298.5t-38 -249.5q0 -231 109.5 -360t323.5 -129zM850 1497q158 0 254 -35h551l-395 -1865h-195l360 1701h-153l-262 -1269q-130 -62 -305 -62q-303 0 -465 166t-162 473q0 178 55 339
t158.5 284t252 195.5t306.5 72.5z" />
    <glyph glyph-name="uni01A3" unicode="&#x1a3;" horiz-adv-x="1333" 
d="M500 129q53 0 106 18l158 746q-16 12 -58 24.5t-92 12.5q-184 0 -294.5 -161t-110.5 -349q0 -131 74 -211t217 -80zM612 1083q125 0 195 -24h475l-309 -1462h-174l276 1308h-135l-180 -856q-132 -72 -258 -72q-226 0 -346.5 122.5t-120.5 318.5q0 273 116.5 414t226 196
t234.5 55z" />
    <glyph glyph-name="uni01A6" unicode="&#x1a6;" horiz-adv-x="1306" 
d="M713 596q141 0 234 56t126 208t-72 207q-53 31 -155 31h-486l-106 -502h459zM877 1270q168 0 268 -49q186 -94 133 -343t-281 -356q78 -35 109 -92t10 -184l-37 -199q-14 -83 -11 -139t44 -76l-6 -33h-244q-6 20 -6 50t14 116l39 246q25 143 -65 192q-51 27 -172 27h-453
l-90 -430h-201l312 1468h200l-43 -198h480z" />
    <glyph glyph-name="uni01A7" unicode="&#x1a7;" horiz-adv-x="1366" 
d="M572 -43q-256 0 -410 105.5t-103 349.5q41 195 203 299q94 57 252 92l215 47q219 47 283 80q100 51 123 153t-39 176t-258 74t-314 -114q-61 -63 -102 -181h-186q53 244 238 355.5t426 111.5t350.5 -127t69.5 -317t-202 -283q-90 -53 -295 -96l-209 -45
q-170 -37 -256 -87t-110 -171q-35 -160 131 -221q82 -33 194 -33q250 0 383 145q68 78 101 203h188q-49 -238 -233 -377t-440 -139z" />
    <glyph glyph-name="uni01A8" unicode="&#x1a8;" horiz-adv-x="1024" 
d="M380 -41q-230 0 -316.5 104.5t-55.5 250.5t150 212q78 45 280 92l127 29q196 43 219 156q12 63 -31.5 102t-146.5 39q-154 0 -229 -70q-49 -51 -66 -110h-170q18 102 107 192q137 143 379 144q184 0 273 -94.5t59 -234.5t-160 -214q-74 -43 -219 -76l-150 -37
q-121 -29 -166 -51q-68 -35 -84 -104q-18 -90 48.5 -134t166.5 -44q168 0 254 88q47 47 74 137h174q-41 -160 -164 -268.5t-353 -108.5z" />
    <glyph glyph-name="uni01A9" unicode="&#x1a9;" horiz-adv-x="1175" 
d="M-31 164l715 567l-430 569l35 164h991l-35 -164h-760l430 -569l-714 -567h829l-35 -164h-1061z" />
    <glyph glyph-name="uni01AE" unicode="&#x1ae;" horiz-adv-x="1251" 
d="M215 -432q-26 0 -72 6l33 156q123 4 150.5 21.5t48.5 109.5l305 1433h-496l37 174h1192l-37 -174h-495l-310 -1454q-25 -117 -73 -174q-106 -98 -283 -98z" />
    <glyph glyph-name="uni01AF" unicode="&#x1af;" horiz-adv-x="1765" 
d="M637 135q254 0 379 172q70 94 104 254l193 907h203l-27 -127q16 0 37 5q40 3 74 15q34 11 40 17l-20 101l219 84l39 -199l-203 -78q-111 -43 -207 -41l-129 -602q-57 -270 -161 -416q-190 -266 -562 -266t-448 266q-43 145 14 416l176 825h203l-192 -907q-35 -160 2 -266
q55 -160 266 -160z" />
    <glyph glyph-name="uni01B0" unicode="&#x1b0;" horiz-adv-x="1429" 
d="M731 158q-150 -187 -377 -187q-358 0 -278 371l155 729h185l-152 -711q-51 -231 156 -231q188 0 293 170q57 88 90 246l112 526h179l-33 -156q89 0 147 29q6 2 13 8l-19 101l217 84l41 -199l-205 -78q-117 -45 -215 -41l-174 -819h-170z" />
    <glyph glyph-name="uni01B1" unicode="&#x1b1;" horiz-adv-x="1546" 
d="M647 0q-334 0 -470 193.5t-73 498.5q53 246 212 413t296 216h-372l34 164h562l-37 -166q-186 -74 -326.5 -252t-185.5 -388t60 -352.5t339 -142.5t398.5 141.5t208.5 350.5t-19.5 389t-220.5 254l37 166h561l-35 -164h-373q111 -49 201 -216t37 -413
q-63 -303 -281.5 -497.5t-552.5 -194.5z" />
    <glyph glyph-name="uni01B5" unicode="&#x1b5;" horiz-adv-x="1251" 
d="M-41 162l1096 1136h-838l41 164h1067l-35 -166l-1106 -1132h934l-35 -164h-1159z" />
    <glyph glyph-name="uni01B6" unicode="&#x1b6;" horiz-adv-x="909" 
d="M-82 131l735 774h-569l31 154h805l-27 -125l-743 -780h632l-28 -154h-860z" />
    <glyph glyph-name="uni01B7" unicode="&#x1b7;" horiz-adv-x="1124" 
d="M436 -10q-198 0 -327 98t-113 311h174q0 -119 81 -187.5t209 -68.5t237.5 50.5t143.5 210.5t3 299t-203 139l-100 -11h-232l652 474h-762l34 163h994l-35 -163l-426 -312q145 -27 223 -147q104 -158 45 -440q-49 -229 -224.5 -322.5t-373.5 -93.5z" />
    <glyph glyph-name="uni01B8" unicode="&#x1b8;" horiz-adv-x="1124" 
d="M478 143q130 0 239.5 69t159.5 187h176q-76 -213 -247 -311t-370 -98t-334 93t-86 323q59 283 230 440q133 121 289 147l-295 312l34 163h994l-35 -163h-760l451 -474h-232l-96 11q-172 0 -263 -139.5t-125 -299.5t53 -210t217 -50z" />
    <glyph glyph-name="uni01B9" unicode="&#x1b9;" horiz-adv-x="1024" 
d="M375 -281q129 0 196.5 79t116.5 198h176q-153 -430 -520 -430q-209 0 -337 103.5t-79 332.5q59 283 230 440q133 121 288 148l-292 311l34 166h891l-35 -166h-659l451 -473h-232l-96 10q-172 0 -263 -138t-125 -299t46 -221.5t209 -60.5z" />
    <glyph glyph-name="uni01BB" unicode="&#x1bb;" horiz-adv-x="1159" 
d="M731 1272q-186 0 -285 -139q-55 -76 -88 -209h-182q43 186 133 305q164 209 459 209q246 0 331 -134t53 -280t-121 -248h116l-31 -141h-266q-72 -43 -172 -92l-152 -76q-111 -55 -178 -105q-117 -86 -166 -192h783l-35 -170h-983q49 184 144 321.5t312 249.5l124 64h-390
l31 141h612q140 93 167 221q28 127 -31.5 201t-184.5 74z" />
    <glyph glyph-name="uni01C0" unicode="&#x1c0;" horiz-adv-x="532" 
d="M229 0h-170l316 1491h170z" />
    <glyph glyph-name="uni01C1" unicode="&#x1c1;" horiz-adv-x="882" 
d="M580 0h-170l315 1491h170zM229 0h-170l316 1491h170z" />
    <glyph glyph-name="uni01C2" unicode="&#x1c2;" horiz-adv-x="1163" 
d="M1174 1001l-35 -167h-447l-55 -261h446l-36 -172h-447l-84 -401h-170l84 401h-426l37 172h426l55 261h-426l35 167h426l105 490h169l-104 -490h447z" />
    <glyph glyph-name="uni01C3" unicode="&#x1c3;" horiz-adv-x="569" 
d="M115 209h198l-43 -209h-198zM383 1468h203l-103 -483l-184 -635h-100l82 635z" />
    <glyph glyph-name="uni01C4" unicode="&#x1c4;" horiz-adv-x="2529" 
d="M2187 1591h-188l-144 289h164l95 -192l176 192h164zM1219 170l1140 1128h-835l39 177h1091l-37 -172l-1144 -1123h905l-37 -176h-1157zM899 1468q303 0 426 -215q106 -193 41 -495q-49 -236 -178 -424q-223 -334 -602 -334h-592l311 1468h594zM584 170q100 0 170 20
q231 73 356 379q31 82 47 154q57 272 -19.5 423.5t-316.5 151.5h-354l-240 -1128h357z" />
    <glyph glyph-name="uni01C5" unicode="&#x1c5;" horiz-adv-x="2240" 
d="M2007 1196h-190l-142 291h162l94 -193l176 193h164zM1219 141l798 768h-587l34 162h830l-33 -147l-793 -762h650l-33 -162h-895zM862 1468q303 0 426 -215q106 -193 41 -495q-49 -236 -178 -424q-223 -334 -602 -334h-592l311 1468h594zM547 170q100 0 170 20
q231 73 356 379q31 82 47 154q57 272 -19.5 423.5t-316.5 151.5h-354l-240 -1128h357z" />
    <glyph glyph-name="uni01C6" unicode="&#x1c6;" horiz-adv-x="2011" 
d="M1796 1192h-188l-142 289h162l94 -193l176 193h164zM989 141l799 768h-588l35 162h831l-32 -147l-795 -762h651l-32 -162h-897zM752 150q-159 -189 -387 -189q-180 0 -278.5 150.5t-47.5 393.5t207.5 414t378.5 171q122 -1 194 -52q41 -31 86 -104l117 541h174
l-313 -1475h-162zM455 119q125 0 228 107.5t146 309.5t-19 300t-191 98t-236 -104t-147 -292t8.5 -303.5t210.5 -115.5z" />
    <glyph glyph-name="uni01C7" unicode="&#x1c7;" horiz-adv-x="2009" 
d="M1425 127q160 0 232 111q43 66 82 251l209 979h198l-219 -1030q-39 -186 -117 -288q-143 -188 -430 -189q-164 0 -262 89t-49 319l23 104h188l-23 -104q-55 -242 168 -242zM295 1468h199l-275 -1294h746l-37 -174h-944z" />
    <glyph glyph-name="uni01C8" unicode="&#x1c8;" horiz-adv-x="1447" 
d="M905 -432q-26 0 -71 6l32 156q123 4 150.5 21.5t48.5 109.5l256 1206h180l-260 -1227q-25 -117 -76 -174q-84 -98 -260 -98zM1542 1262h-180l45 206h180zM301 1468h199l-275 -1294h746l-37 -174h-944z" />
    <glyph glyph-name="uni01C9" unicode="&#x1c9;" horiz-adv-x="759" 
d="M215 -432q-26 0 -72 6l33 156q123 4 150.5 21.5t48.5 109.5l256 1206h180l-260 -1227q-25 -117 -76 -174q-84 -98 -260 -98zM852 1262h-180l45 206h180zM276 1468h181l-312 -1468h-180z" />
    <glyph glyph-name="uni01CA" unicode="&#x1ca;" horiz-adv-x="2279" 
d="M1620 -12q-166 0 -263 90t-48 317l22 107h189l-23 -107q-54 -239 168 -239q160 0 229 108q45 68 84 252l209 979h197l-219 -1030q-41 -186 -117 -289q-141 -188 -428 -188zM301 1468h236l487 -1189l254 1189h190l-311 -1468h-223l-502 1190l-252 -1190h-190z" />
    <glyph glyph-name="uni01CB" unicode="&#x1cb;" horiz-adv-x="1775" 
d="M1239 -432q-26 0 -72 6l33 156q123 4 150.5 21.5t48.5 109.5l256 1206h180l-260 -1227q-25 -117 -76 -174q-84 -98 -260 -98zM1876 1262h-180l45 206h180zM295 1468h235l488 -1189l254 1189h190l-311 -1468h-223l-502 1190l-252 -1190h-190z" />
    <glyph glyph-name="uni01CC" unicode="&#x1cc;" horiz-adv-x="1441" 
d="M899 -432q-25 0 -72 6l33 156q123 4 150.5 21.5t48.5 109.5l256 1206h180l-260 -1227q-25 -117 -76 -174q-84 -98 -260 -98zM1536 1262h-180l45 206h180zM723 1096q217 0 264 -160q27 -86 -8 -250l-145 -686h-185l144 676q54 258 -150 258q-63 0 -123 -18t-124 -78
t-89.5 -116t-48.5 -161l-119 -561h-178l227 1071h170l-32 -151q180 176 397 176z" />
    <glyph glyph-name="uni01CD" unicode="&#x1cd;" horiz-adv-x="1366" 
d="M1032 1579h-190l-140 291h164l92 -193l177 193h163zM772 1468h225l222 -1468h-220l-55 440h-582l-251 -440h-203zM913 602l-86 649l-372 -649h458z" />
    <glyph glyph-name="uni01CE" unicode="&#x1ce;" 
d="M819 1182h-190l-142 288h164l94 -192l175 192h163zM614 944q-130 0 -204 -76q-43 -41 -70 -125h-168q45 199 185.5 277t316.5 78t278 -73t72 -224l-131 -617q-13 -61 33 -61q34 0 73 4l-28 -131q-71 -19 -129 -19q-92 0 -121 66q-14 35 -10 98q-70 -72 -183.5 -125
t-251.5 -53t-212 91t-44 234t140 224.5t266 99.5l295 37q97 12 119 121q20 92 -38 133t-188 41zM372 117q87 0 183 45q168 72 203 237l30 146q-72 -39 -200 -56l-111 -14q-235 -28 -267 -178q-20 -90 27.5 -135t134.5 -45z" />
    <glyph glyph-name="uni01CF" unicode="&#x1cf;" horiz-adv-x="569" 
d="M612 1585h-190l-141 291h163l93 -193l176 193h164zM389 1468h201l-311 -1468h-201z" />
    <glyph glyph-name="uni01D0" unicode="&#x1d0;" horiz-adv-x="569" 
d="M522 1202h-188l-141 289h161l95 -193l176 193h163zM291 1067h184l-225 -1067h-184z" />
    <glyph glyph-name="uni01D1" unicode="&#x1d1;" horiz-adv-x="1593" 
d="M1135 1614h-191l-141 289h164l94 -193l176 193h164zM965 1331q-231 0 -408.5 -155.5t-241.5 -460.5q-53 -246 35 -413t358 -167t428.5 188.5t211.5 440.5t-49.5 409.5t-333.5 157.5zM664 -43q-352 0 -496 223q-126 216 -60 530t259 527q249 273 629 273t513 -250
q105 -194 37 -512t-278 -535q-252 -256 -604 -256z" />
    <glyph glyph-name="uni01D2" unicode="&#x1d2;" 
d="M819 1200h-188l-142 291h162l94 -193l177 193h163zM408 -39q-221 0 -319.5 149.5t-42.5 410.5t227 421t389 160t332 -138.5t59 -401.5t-218 -432t-427 -169zM645 944q-176 0 -277.5 -126t-138.5 -300t14.5 -287.5t222.5 -113.5t266 135t128 293t6 252q-45 147 -221 147z
" />
    <glyph glyph-name="uni01D3" unicode="&#x1d3;" horiz-adv-x="1478" 
d="M1083 1548h-190l-141 289h163l95 -190l176 190h164zM637 135q254 0 379 172q70 94 104 254l193 907h203l-177 -825q-57 -270 -161 -416q-190 -266 -562 -266t-448 266q-43 145 14 416l176 825h203l-192 -907q-35 -160 2 -266q55 -160 266 -160z" />
    <glyph glyph-name="uni01D4" unicode="&#x1d4;" 
d="M815 1169h-190l-142 289h164l94 -190l174 190h166zM731 158q-150 -187 -377 -187q-358 0 -278 371l155 729h185l-152 -711q-51 -231 156 -231q188 0 293 170q57 88 90 246l112 526h179l-228 -1071h-170z" />
    <glyph glyph-name="uni01D5" unicode="&#x1d5;" horiz-adv-x="1478" 
d="M748 2005h638l-26 -119h-639zM766 1769h186l-45 -208h-186zM1096 1769h186l-45 -208h-186zM637 135q254 0 379 172q70 94 104 254l193 907h203l-177 -825q-57 -270 -161 -416q-190 -266 -562 -266t-448 266q-43 145 14 416l176 825h203l-192 -907q-35 -160 2 -266
q55 -160 266 -160z" />
    <glyph glyph-name="uni01D6" unicode="&#x1d6;" 
d="M492 1595h638l-24 -118h-639zM489 1366h189l-43 -209h-189zM819 1366h189l-43 -209h-189zM731 158q-150 -187 -377 -187q-358 0 -278 371l155 729h185l-152 -711q-51 -231 156 -231q188 0 293 170q57 88 90 246l112 526h179l-228 -1071h-170z" />
    <glyph glyph-name="uni01D7" unicode="&#x1d7;" horiz-adv-x="1478" 
d="M1384 2120l-327 -289h-137l241 289h223zM762 1747h186l-45 -209h-186zM1092 1747h186l-45 -209h-186zM637 135q254 0 379 172q70 94 104 254l193 907h203l-177 -825q-57 -270 -161 -416q-190 -266 -562 -266t-448 266q-43 145 14 416l176 825h203l-192 -907
q-35 -160 2 -266q55 -160 266 -160z" />
    <glyph glyph-name="uni01D8" unicode="&#x1d8;" 
d="M1102 1751l-328 -289h-137l244 289h221zM469 1370h186l-45 -209h-186zM799 1370h186l-45 -209h-186zM731 158q-150 -187 -377 -187q-358 0 -278 371l155 729h185l-152 -711q-51 -231 156 -231q188 0 293 170q57 88 90 246l112 526h179l-228 -1071h-170z" />
    <glyph glyph-name="uni01D9" unicode="&#x1d9;" horiz-adv-x="1478" 
d="M1112 1815h-190l-142 288h164l94 -192l176 192h164zM735 1743h189l-43 -209h-189zM1065 1743h188l-43 -209h-188zM637 135q254 0 379 172q70 94 104 254l193 907h203l-177 -825q-57 -270 -161 -416q-190 -266 -562 -266t-448 266q-43 145 14 416l176 825h203l-192 -907
q-35 -160 2 -266q55 -160 266 -160z" />
    <glyph glyph-name="uni01DA" unicode="&#x1da;" 
d="M836 1411h-191l-141 291h162l94 -193l176 193h164zM463 1337h188l-43 -209h-188zM795 1337h186l-43 -209h-186zM731 158q-150 -187 -377 -187q-358 0 -278 371l155 729h185l-152 -711q-51 -231 156 -231q188 0 293 170q57 88 90 246l112 526h179l-228 -1071h-170z" />
    <glyph glyph-name="uni01DB" unicode="&#x1db;" horiz-adv-x="1478" 
d="M1083 1780h-137l-205 288h222zM721 1720h186l-43 -207h-186zM1051 1720h186l-43 -207h-186zM637 135q254 0 379 172q70 94 104 254l193 907h203l-177 -825q-57 -270 -161 -416q-190 -266 -562 -266t-448 266q-43 145 14 416l176 825h203l-192 -907q-35 -160 2 -266
q55 -160 266 -160z" />
    <glyph glyph-name="uni01DC" unicode="&#x1dc;" 
d="M834 1407h-138l-207 289h222zM463 1341h188l-45 -206h-188zM795 1341h186l-45 -206h-186zM731 158q-150 -187 -377 -187q-358 0 -278 371l155 729h185l-152 -711q-51 -231 156 -231q188 0 293 170q57 88 90 246l112 526h179l-228 -1071h-170z" />
    <glyph glyph-name="uni01DD" unicode="&#x1dd;" 
d="M457 119q125 0 227 89t137 226h-596q-38 -315 232 -315zM633 938q-225 0 -340 -217h-178q20 57 116 185.5t299 170.5q68 16 150 17q201 0 309.5 -145.5t52.5 -405.5t-230.5 -421t-399.5 -161q-115 0 -249.5 75.5t-125.5 305.5q0 74 33 236h784q31 164 -19.5 262
t-201.5 98z" />
    <glyph glyph-name="uni01DE" unicode="&#x1de;" horiz-adv-x="1366" 
d="M659 1952h641l-24 -117h-641zM692 1761h187l-43 -207h-187zM1022 1761h186l-43 -207h-186zM772 1468h225l222 -1468h-220l-55 440h-582l-251 -440h-203zM913 602l-86 649l-372 -649h458z" />
    <glyph glyph-name="uni01DF" unicode="&#x1df;" 
d="M436 1649h639l-26 -117h-639zM459 1421h186l-43 -207h-186zM788 1421h187l-43 -207h-187zM614 944q-130 0 -204 -76q-43 -41 -70 -125h-168q45 199 185.5 277t316.5 78t278 -73t72 -224l-131 -617q-13 -61 33 -61q34 0 73 4l-28 -131q-71 -19 -129 -19q-92 0 -121 66
q-14 35 -10 98q-70 -72 -183.5 -125t-251.5 -53t-212 91t-44 234t140 224.5t266 99.5l295 37q97 12 119 121q20 92 -38 133t-188 41zM372 117q87 0 183 45q168 72 203 237l30 146q-72 -39 -200 -56l-111 -14q-235 -28 -267 -178q-20 -90 27.5 -135t134.5 -45z" />
    <glyph glyph-name="uni01E0" unicode="&#x1e0;" horiz-adv-x="1366" 
d="M653 1952h639l-24 -117h-639zM848 1759h186l-45 -209h-186zM772 1468h225l222 -1468h-220l-55 440h-582l-251 -440h-203zM913 602l-86 649l-372 -649h458z" />
    <glyph glyph-name="uni01E1" unicode="&#x1e1;" 
d="M446 1655h641l-24 -119h-641zM633 1444h186l-43 -207h-186zM614 944q-130 0 -204 -76q-43 -41 -70 -125h-168q45 199 185.5 277t316.5 78t278 -73t72 -224l-131 -617q-13 -61 33 -61q34 0 73 4l-28 -131q-71 -19 -129 -19q-92 0 -121 66q-14 35 -10 98
q-70 -72 -183.5 -125t-251.5 -53t-212 91t-44 234t140 224.5t266 99.5l295 37q97 12 119 121q20 92 -38 133t-188 41zM372 117q87 0 183 45q168 72 203 237l30 146q-72 -39 -200 -56l-111 -14q-235 -28 -267 -178q-20 -90 27.5 -135t134.5 -45z" />
    <glyph glyph-name="uni01E2" unicode="&#x1e2;" horiz-adv-x="2048" 
d="M1135 1714h639l-25 -119h-639zM801 1468h1317l-37 -174h-797l-96 -450h731l-35 -166h-731l-106 -504h815l-37 -174h-1012l92 436h-540l-256 -436h-215zM889 1298l-420 -694h471l147 694h-198z" />
    <glyph glyph-name="uni01E3" unicode="&#x1e3;" horiz-adv-x="1820" 
d="M752 1348h641l-25 -119h-641zM152 741q90 357 498 357q270 0 335 -162q158 162 379 162q260 0 344 -180q41 -80 39 -184.5t-35 -256.5h-786q-31 -166 26.5 -262t191.5 -96t214 56t127 161h182q-27 -80 -157 -226.5t-394 -146.5q-155 0 -252 78q-88 76 -102 152
q-201 -230 -461 -230q-172 0 -246.5 86t-46.5 223q62 298 398 338l292 39q107 12 127 119q18 86 -28.5 130t-158.5 44t-177 -31q-113 -59 -137 -170h-172zM350 113q144 0 277 102q57 45 84 94q14 31 34 101l29 135q-56 -31 -145 -45l-156 -25q-117 -16 -170 -45
q-90 -45 -108 -136t34.5 -136t120.5 -45zM1328 938q-120 0 -224.5 -80t-145.5 -237h592q31 158 -35.5 237.5t-186.5 79.5z" />
    <glyph glyph-name="uni01E4" unicode="&#x1e4;" horiz-adv-x="1619" 
d="M647 131q199 0 354 117q68 49 115 127h-182l31 141h219q18 49 30 105h-458l35 165h645l-58 -270h193l-31 -141h-192l-78 -375h-129l-8 188q-125 -111 -213 -153q-147 -74 -349 -74q-262 0 -411 168q-162 213 -83 583t319 582t542 213q207 0 342 -80q195 -115 182 -403
h-196q-4 307 -369 307q-205 0 -377 -152.5t-235 -455.5q-57 -262 22.5 -427t339.5 -165z" />
    <glyph glyph-name="uni01E5" unicode="&#x1e5;" horiz-adv-x="1224" 
d="M606 932q-295 0 -387 -428q-39 -180 14.5 -275.5t178.5 -95.5q193 0 311 176q45 74 76 164h-234l29 143h231q17 140 -37 228t-182 88zM289 -453q-174 0 -276.5 77t-80.5 243h183q-2 -72 28 -111q49 -59 181 -59q207 0 301 145q55 86 100 308q-70 -82 -156 -122t-211 -40
q-174 0 -277 122t-45 400t222 429t350 151q127 -1 207 -62q43 -35 82 -102l29 135h166l-97 -445h205l-29 -143h-204l-84 -387q-43 -203 -127 -322q-158 -217 -467 -217z" />
    <glyph glyph-name="uni01E6" unicode="&#x1e6;" horiz-adv-x="1593" 
d="M1106 1599h-191l-143 289h162l94 -192l176 192h164zM696 131q199 0 354.5 115.5t213.5 374.5h-459l35 165h645l-166 -786h-129l-8 188q-125 -111 -213 -153q-147 -74 -348 -74q-262 0 -414 168q-160 213 -81 583t320 582t541 213q207 0 342 -80q195 -115 182 -403h-196
q-4 307 -369 307q-205 0 -377 -152.5t-235 -455.5q-57 -262 22.5 -427t339.5 -165z" />
    <glyph glyph-name="uni01E7" unicode="&#x1e7;" 
d="M748 1231h-191l-141 289h164l92 -193l176 193h164zM616 932q-295 0 -387 -428q-39 -180 14.5 -275.5t176.5 -95.5q195 0 313 176q63 98 92 232q41 199 -20.5 295t-188.5 96zM297 -453q-172 0 -274.5 77t-79.5 243h182q-2 -72 29 -111q47 -59 178 -59q207 0 303 145
q55 86 100 308q-72 -82 -156.5 -122t-209.5 -40q-174 0 -277.5 122t-45.5 400t222 429t350 151q127 -1 205 -62q45 -35 84 -102l29 135h166l-209 -975q-43 -203 -127 -322q-158 -217 -469 -217z" />
    <glyph glyph-name="uni01E8" unicode="&#x1e8;" horiz-adv-x="1366" 
d="M1008 1556h-191l-141 289h162l94 -190l176 190h164zM344 1468h195l-152 -714l868 714h275l-739 -591l444 -877h-258l-359 737l-282 -225l-109 -512h-194z" />
    <glyph glyph-name="uni01E9" unicode="&#x1e9;" horiz-adv-x="1024" 
d="M848 1532h-191l-141 289h164l94 -193l174 193h166zM315 1468h174l-182 -852l561 455h230l-496 -401l291 -670h-229l-220 541l-182 -140l-84 -401h-174z" />
    <glyph glyph-name="uni01EA" unicode="&#x1ea;" horiz-adv-x="1593" 
d="M965 1331q-231 0 -408.5 -155.5t-241.5 -460.5q-53 -246 35 -413t358 -167t428.5 188.5t211.5 440.5t-49.5 409.5t-333.5 157.5zM542.5 -306.5q20.5 -27.5 69.5 -27.5t88 23l-26 -131q-97 -35 -182 -35q-84 0 -123 56t-24 132q15 77 79 133t163 115q-288 20 -419 221
q-126 216 -60 530t259 527q249 273 629 273t513 -250q105 -194 37 -512t-284 -540t-524 -247l-60 -41q-86 -59 -113 -91t-35 -70t12.5 -65.5z" />
    <glyph glyph-name="uni01EB" unicode="&#x1eb;" 
d="M305.5 -302.5q20.5 -27.5 66.5 -27.5t91 23l-29 -131q-35 -14 -61 -23q-55 -12 -107 -12q-96 0 -135 56.5t-23 130.5t78 133q62 58 165 117q-178 17 -263 147q-98 151 -42 411t227 420t389 160t332 -138.5t59 -401.5t-218 -432q-132 -137 -331 -163l-62 -43
q-88 -59 -114.5 -91t-34.5 -70t12.5 -65.5zM645 944q-176 0 -277.5 -126t-138.5 -300t14.5 -287.5t222.5 -113.5t266 135t128 293t6 252q-45 147 -221 147z" />
    <glyph glyph-name="uni01EC" unicode="&#x1ec;" horiz-adv-x="1593" 
d="M696 1753h641l-24 -119h-641zM965 1331q-231 0 -408.5 -155.5t-241.5 -460.5q-53 -246 35 -413t358 -167t428.5 188.5t211.5 440.5t-49.5 409.5t-333.5 157.5zM542.5 -306.5q20.5 -27.5 69.5 -27.5t88 23l-26 -131q-97 -35 -182 -35q-84 0 -123 56t-24 132q15 77 79 133
t163 115q-288 20 -419 221q-126 216 -60 530t259 527q249 273 629 273t513 -250q105 -194 37 -512t-284 -540t-524 -247l-60 -41q-86 -59 -113 -91t-35 -70t12.5 -65.5z" />
    <glyph glyph-name="uni01ED" unicode="&#x1ed;" 
d="M383 1358h641l-25 -119h-641zM305.5 -302.5q20.5 -27.5 66.5 -27.5t91 23l-29 -131q-35 -14 -61 -23q-55 -12 -107 -12q-96 0 -135 56.5t-23 130.5t78 133q62 58 165 117q-178 17 -263 147q-98 151 -42 411t227 420t389 160t332 -138.5t59 -401.5t-218 -432
q-132 -137 -331 -163l-62 -43q-88 -59 -114.5 -91t-34.5 -70t12.5 -65.5zM645 944q-176 0 -277.5 -126t-138.5 -300t14.5 -287.5t222.5 -113.5t266 135t128 293t6 252q-45 147 -221 147z" />
    <glyph glyph-name="uni01EE" unicode="&#x1ee;" horiz-adv-x="1099" 
d="M840 1614h-191l-141 289h164l94 -193l176 193h164zM428 -10q-198 0 -326.5 98t-113.5 311h176q0 -119 80 -187.5t208 -68.5t238.5 50.5t144.5 210.5t2 299t-204 139l-101 -11h-231l651 474h-759l34 163h992l-35 -163l-424 -312q143 -27 223 -147q104 -158 45 -440
q-49 -229 -225.5 -322.5t-374.5 -93.5z" />
    <glyph glyph-name="uni01EF" unicode="&#x1ef;" horiz-adv-x="1001" 
d="M717 1212h-191l-141 289h162l96 -190l174 190h164zM250 -434q-198 0 -279.5 108.5t-66.5 321.5h176q0 -119 32.5 -198t145.5 -79q145 0 251.5 60.5t140.5 221.5t2.5 299t-203.5 138l-99 -10h-233l651 473h-659l34 166h893l-35 -166l-426 -311q145 -27 224 -148
q104 -158 45 -440q-49 -229 -222.5 -332.5t-371.5 -103.5z" />
    <glyph glyph-name="uni01F0" unicode="&#x1f0;" horiz-adv-x="454" 
d="M459 1202h-191l-141 291h162l94 -193l176 193h164zM-178 -432q-25 0 -74 6l33 156q123 4 149.5 21.5t46.5 109.5l256 1206h181l-260 -1227q-25 -117 -74 -174q-84 -98 -258 -98z" />
    <glyph glyph-name="uni01F1" unicode="&#x1f1;" horiz-adv-x="2508" 
d="M1202 170l1141 1128h-834l39 177h1090l-37 -172l-1145 -1123h905l-37 -176h-1157zM868 1468q301 0 424 -215q109 -193 43 -495q-49 -236 -178 -424q-225 -334 -602 -334h-594l311 1468h596zM551 170q100 0 170 20q235 73 356 379q33 82 49 154q57 272 -19.5 423.5
t-318.5 151.5h-352l-239 -1128h354z" />
    <glyph glyph-name="uni01F2" unicode="&#x1f2;" horiz-adv-x="2299" 
d="M1249 141l799 768h-588l35 162h829l-32 -147l-793 -762h651l-32 -162h-897zM895 1468q303 0 424 -215q109 -193 43 -495q-49 -236 -178 -424q-225 -334 -602 -334h-594l311 1468h596zM578 170q102 0 170 20q232 72 358 379q31 82 47 154q57 272 -19.5 423.5t-318.5 151.5
h-352l-240 -1128h355z" />
    <glyph glyph-name="uni01F3" unicode="&#x1f3;" horiz-adv-x="2043" 
d="M985 141l799 768h-588l35 162h829l-32 -147l-793 -762h649l-33 -162h-895zM752 150q-159 -189 -387 -189q-180 0 -278.5 150.5t-47.5 393.5t207.5 414t378.5 171q122 -1 194 -52q41 -31 86 -104l117 541h174l-313 -1475h-162zM455 119q125 0 228 107.5t146 309.5t-19 300
t-191 98t-236 -104t-147 -292t8.5 -303.5t210.5 -115.5z" />
    <glyph glyph-name="uni01F4" unicode="&#x1f4;" horiz-adv-x="1593" 
d="M1286 1886l-328 -289h-139l246 289h221zM696 131q199 0 354.5 115.5t213.5 374.5h-459l35 165h645l-166 -786h-129l-8 188q-125 -111 -213 -153q-147 -74 -348 -74q-262 0 -414 168q-160 213 -81 583t320 582t541 213q207 0 342 -80q195 -115 182 -403h-196
q-4 307 -369 307q-205 0 -377 -152.5t-235 -455.5q-57 -262 22.5 -427t339.5 -165z" />
    <glyph glyph-name="uni01F5" unicode="&#x1f5;" 
d="M993 1495l-329 -289h-138l244 289h223zM616 932q-295 0 -387 -428q-39 -180 14.5 -275.5t176.5 -95.5q195 0 313 176q63 98 92 232q41 199 -20.5 295t-188.5 96zM297 -453q-172 0 -274.5 77t-79.5 243h182q-2 -72 29 -111q47 -59 178 -59q207 0 303 145q55 86 100 308
q-72 -82 -156.5 -122t-209.5 -40q-174 0 -277.5 122t-45.5 400t222 429t350 151q127 -1 205 -62q45 -35 84 -102l29 135h166l-209 -975q-43 -203 -127 -322q-158 -217 -469 -217z" />
    <glyph glyph-name="uni01F7" unicode="&#x1f7;" horiz-adv-x="1366" 
d="M1096 1268q-59 31 -174 30h-396l-172 -809l428 150q143 49 243.5 127t143.5 281q36 162 -73 221zM1024 1468q197 0 293 -110.5t56 -295.5t-179 -343t-383 -248l-492 -149l-67 -322h-201l311 1468h662z" />
    <glyph glyph-name="uni01F8" unicode="&#x1f8;" horiz-adv-x="1478" 
d="M1071 1532h-137l-205 289h221zM344 1468h236l487 -1189l254 1189h190l-311 -1468h-223l-502 1190l-252 -1190h-190z" />
    <glyph glyph-name="uni01F9" unicode="&#x1f9;" 
d="M858 1210h-135l-207 289h223zM772 1096q217 0 264 -160q27 -86 -8 -250l-145 -686h-185l144 676q54 258 -150 258q-64 0 -124 -18t-124 -78t-89 -116t-48 -161l-119 -561h-180l228 1071h172l-33 -151q180 176 397 176z" />
    <glyph glyph-name="uni01FA" unicode="&#x1fa;" horiz-adv-x="1327" 
d="M416 604h495l-98 682h-4zM845 1430q48 0 87 33.5t49 81.5t-15.5 80t-73.5 32t-86 -32t-48 -80t14.5 -81.5t72.5 -33.5zM909 1739q80 0 127 -54.5t28 -141.5t-101 -146l258 -1397h-215l-68 440h-619l-256 -440h-200l848 1397q-55 55 -39 141t86.5 143.5t150.5 57.5z
M1001 1993h209l-258 -217h-131z" />
    <glyph glyph-name="uni01FB" unicode="&#x1fb;" horiz-adv-x="1099" 
d="M741 369l37 178q-56 -36 -162 -49t-246.5 -33.5t-174.5 -179.5q-19 -80 31.5 -118t138.5 -38q160 0 258.5 75.5t117.5 164.5zM623 930q-107 0 -190 -42t-114 -159h-174q90 354 525 354q178 0 273.5 -61t62.5 -229l-117 -545q-12 -61 -11 -90t42 -29q20 0 55 10l-29 -135
q-53 -29 -126 -29q-152 0 -118 164q-175 -164 -413 -164q-237 0 -267 109.5t-13 193.5q31 156 144 223.5t283 96.5q74 14 139.5 21.5t149 28.5t100.5 106q22 103 -36.5 139.5t-165.5 36.5zM751.5 1495q-57.5 0 -99.5 -36t-53 -90t14.5 -91t83 -37t99.5 37t53 91t-14.5 90
t-83 36zM680 1157q-92 0 -142.5 59.5t-30.5 150.5t96.5 151.5t166.5 60.5t140.5 -59.5t29.5 -151.5q-31 -139 -123 -175t-137 -36zM909 1888h224l-318 -258h-129z" />
    <glyph glyph-name="uni01FC" unicode="&#x1fc;" horiz-adv-x="1896" 
d="M1534 1888h223l-330 -293h-131zM985 1298l-493 -708h428l149 708h-84zM911 1462h1096l-35 -164h-719l-98 -464h676l-35 -164h-676l-106 -506h731l-35 -164h-915l90 426h-504l-299 -426h-219z" />
    <glyph glyph-name="uni01FD" unicode="&#x1fd;" horiz-adv-x="1781" 
d="M1223 1499h223l-330 -293h-131zM748 369l36 178q-55 -28 -126.5 -39.5t-118.5 -18t-91 -14.5q-104 -19 -169.5 -60.5t-83.5 -125.5t32 -122t138 -38q160 0 260.5 75.5t122.5 164.5zM1329 930q-141 0 -237.5 -85t-124.5 -214h592q34 206 -63 252.5t-167 46.5zM991 930
q135 153 391 153q118 0 199.5 -48t118.5 -131t37 -193.5t-27 -233.5h-776q-33 -148 27.5 -248t216.5 -100q98 0 181 50t130 155h178q-76 -174 -215 -266.5t-319 -92.5q-291 0 -340 207q-157 -207 -490 -207q-251 0 -281 109.5t-13 193.5q52 256 389 314q138 24 209 34.5
t117 26t71.5 41t36.5 75.5q21 94 -37 127.5t-169 33.5q-110 0 -193 -42t-114 -159h-174q90 354 525 354q277 0 321 -153z" />
    <glyph glyph-name="uni01FE" unicode="&#x1fe;" horiz-adv-x="1556" 
d="M365 274q100 -145 317 -145q253 0 418 180.5t215 421.5q50 219 -19 377zM1257 1182q-97 151 -334 151t-400.5 -176t-215.5 -412q-53 -236 19 -397zM973 1497q294 0 436 -180l201 178l51 -61l-207 -185q123 -214 55 -518q-66 -318 -298.5 -542t-563.5 -224
q-282 0 -432 176l-205 -182l-53 61l211 189q-125 207 -57 525t299.5 540.5t562.5 222.5zM1118 1888h223l-329 -293h-131z" />
    <glyph glyph-name="uni01FF" unicode="&#x1ff;" horiz-adv-x="1175" 
d="M497 129q136 0 252.5 105.5t151.5 273.5t0 264l-614 -551q74 -92 210 -92zM659 930q-141 0 -258 -108.5t-155 -293.5q-29 -136 10 -247l612 553q-68 96 -209 96zM679 1083q228 0 333 -120l147 133l45 -54l-151 -135q88 -140 37 -380q-51 -239 -219 -395.5t-412 -156.5
q-203 0 -314 117l-151 -137l-47 49l157 141q-90 145 -43 383q52 242 221 398.5t397 156.5zM862 1499h223l-329 -293h-131z" />
    <glyph glyph-name="uni0200" unicode="&#x200;" horiz-adv-x="1366" 
d="M1137 1571h-127l-166 291h217zM803 1571h-127l-162 291h213zM772 1468h225l222 -1468h-220l-55 440h-582l-251 -440h-203zM913 602l-86 649l-372 -649h458z" />
    <glyph glyph-name="uni0201" unicode="&#x201;" 
d="M952 1210h-127l-163 291h215zM618 1210h-126l-162 291h213zM614 944q-130 0 -204 -76q-43 -41 -70 -125h-168q45 199 185.5 277t316.5 78t278 -73t72 -224l-131 -617q-13 -61 33 -61q34 0 73 4l-28 -131q-71 -19 -129 -19q-92 0 -121 66q-14 35 -10 98
q-70 -72 -183.5 -125t-251.5 -53t-212 91t-44 234t140 224.5t266 99.5l295 37q97 12 119 121q20 92 -38 133t-188 41zM372 117q87 0 183 45q168 72 203 237l30 146q-72 -39 -200 -56l-111 -14q-235 -28 -267 -178q-20 -90 27.5 -135t134.5 -45z" />
    <glyph glyph-name="uni0202" unicode="&#x202;" horiz-adv-x="1366" 
d="M1098 1511q0 66 -25 99q-43 59 -157 59t-179 -59q-39 -33 -69 -99h-99q97 279 387 279q178 0 230 -121q27 -61 14 -158h-102zM772 1468h225l222 -1468h-220l-55 440h-582l-251 -440h-203zM913 602l-86 649l-372 -649h458z" />
    <glyph glyph-name="uni0203" unicode="&#x203;" 
d="M709 1372q-177 0 -244 -158h-98q51 147 147 213t238 66q178 0 229 -121q29 -61 16 -158h-100q-4 66 -27 99q-45 59 -161 59zM614 944q-130 0 -204 -76q-43 -41 -70 -125h-168q45 199 185.5 277t316.5 78t278 -73t72 -224l-131 -617q-13 -61 33 -61q34 0 73 4l-28 -131
q-71 -19 -129 -19q-92 0 -121 66q-14 35 -10 98q-70 -72 -183.5 -125t-251.5 -53t-212 91t-44 234t140 224.5t266 99.5l295 37q97 12 119 121q20 92 -38 133t-188 41zM372 117q87 0 183 45q168 72 203 237l30 146q-72 -39 -200 -56l-111 -14q-235 -28 -267 -178
q-20 -90 27.5 -135t134.5 -45z" />
    <glyph glyph-name="uni0204" unicode="&#x204;" horiz-adv-x="1366" 
d="M1202 1571h-125l-166 291h215zM870 1571h-127l-163 291h215zM362 1468h1072l-39 -180h-877l-94 -444h811l-37 -170h-811l-104 -500h893l-37 -174h-1088z" />
    <glyph glyph-name="uni0205" unicode="&#x205;" 
d="M969 1210h-127l-166 291h217zM635 1210h-127l-162 291h213zM643 938q-125 0 -228.5 -89t-135.5 -228h593q38 317 -229 317zM462 119q146 0 249 92q59 53 94 125h176q-18 -59 -73.5 -132t-114.5 -118q-153 -125 -365 -125q-211 0 -318.5 146.5t-52.5 405.5t229.5 421
t399.5 162q115 0 250.5 -77.5t126.5 -303.5q0 -76 -35 -238h-786q-29 -162 22.5 -260t197.5 -98z" />
    <glyph glyph-name="uni0206" unicode="&#x206;" horiz-adv-x="1366" 
d="M997 1847q176 0 230 -118q29 -61 16 -158h-102q-4 66 -27 98q-43 59 -162 60q-176 0 -241 -158h-101q51 147 148.5 211.5t238.5 64.5zM362 1468h1072l-39 -180h-877l-94 -444h811l-37 -170h-811l-104 -500h893l-37 -174h-1088z" />
    <glyph glyph-name="uni0207" unicode="&#x207;" 
d="M750 1362q-114 0 -179 -59q-39 -33 -69 -99h-99q53 147 149.5 213t238.5 66q178 0 229 -119q27 -63 14 -160h-100q-2 66 -25 99q-45 59 -159 59zM643 938q-125 0 -228.5 -89t-135.5 -228h593q38 317 -229 317zM462 119q146 0 249 92q59 53 94 125h176q-18 -59 -73.5 -132
t-114.5 -118q-153 -125 -365 -125q-211 0 -318.5 146.5t-52.5 405.5t229.5 421t399.5 162q115 0 250.5 -77.5t126.5 -303.5q0 -76 -35 -238h-786q-29 -162 22.5 -260t197.5 -98z" />
    <glyph glyph-name="uni0208" unicode="&#x208;" horiz-adv-x="569" 
d="M752 1571h-125l-166 291h215zM420 1571h-127l-164 291h215zM389 1468h201l-311 -1468h-201z" />
    <glyph glyph-name="uni0209" unicode="&#x209;" horiz-adv-x="454" 
d="M614 1210h-127l-165 291h217zM281 1210h-127l-162 291h213zM244 1067h182l-225 -1067h-183z" />
    <glyph glyph-name="uni020A" unicode="&#x20a;" horiz-adv-x="569" 
d="M590 1847q274 0 246 -276h-103q-4 66 -26 98q-43 59 -157 59t-181 -59q-39 -35 -68 -98h-98q51 147 147 211.5t240 64.5zM389 1468h201l-311 -1468h-201z" />
    <glyph glyph-name="uni020B" unicode="&#x20b;" horiz-adv-x="454" 
d="M398 1378q-114 0 -181 -57q-39 -35 -70 -98h-98q51 145 148.5 210.5t240.5 65.5q176 0 230 -119q25 -61 14 -157h-102q-2 63 -25 98q-43 57 -157 57zM244 1067h182l-225 -1067h-183z" />
    <glyph glyph-name="uni020C" unicode="&#x20c;" horiz-adv-x="1593" 
d="M1262 1626h-125l-166 291h215zM930 1626h-127l-164 291h215zM965 1331q-231 0 -408.5 -155.5t-241.5 -460.5q-53 -246 35 -413t358 -167t428.5 188.5t211.5 440.5t-49.5 409.5t-333.5 157.5zM664 -43q-352 0 -496 223q-126 216 -60 530t259 527q249 273 629 273t513 -250
q105 -194 37 -512t-278 -535q-252 -256 -604 -256z" />
    <glyph glyph-name="uni020D" unicode="&#x20d;" 
d="M965 1210h-125l-166 291h215zM633 1210h-127l-164 291h215zM408 -39q-221 0 -319.5 149.5t-42.5 410.5t227 421t389 160t332 -138.5t59 -401.5t-218 -432t-427 -169zM645 944q-176 0 -277.5 -126t-138.5 -300t14.5 -287.5t222.5 -113.5t266 135t128 293t6 252
q-45 147 -221 147z" />
    <glyph glyph-name="uni020E" unicode="&#x20e;" horiz-adv-x="1593" 
d="M1083 1888q176 0 230 -119q29 -63 16 -157h-102q-4 63 -27 96q-43 59 -162 59q-172 0 -241 -155h-101q97 276 387 276zM965 1331q-231 0 -408.5 -155.5t-241.5 -460.5q-53 -246 35 -413t358 -167t428.5 188.5t211.5 440.5t-49.5 409.5t-333.5 157.5zM664 -43
q-352 0 -496 223q-126 216 -60 530t259 527q249 273 629 273t513 -250q105 -194 37 -512t-278 -535q-252 -256 -604 -256z" />
    <glyph glyph-name="uni020F" unicode="&#x20f;" 
d="M717 1372q-177 0 -242 -158h-100q51 147 147 213t240 66q176 0 229 -121q27 -61 17 -158h-103q-4 66 -26 99q-43 59 -162 59zM408 -39q-221 0 -319.5 149.5t-42.5 410.5t227 421t389 160t332 -138.5t59 -401.5t-218 -432t-427 -169zM645 944q-176 0 -277.5 -126
t-138.5 -300t14.5 -287.5t222.5 -113.5t266 135t128 293t6 252q-45 147 -221 147z" />
    <glyph glyph-name="uni0210" unicode="&#x210;" horiz-adv-x="1478" 
d="M1206 1577h-125l-166 291h215zM874 1577h-126l-164 291h215zM1049 1468q168 0 266 -49q186 -94 132 -344t-280 -352q78 -37 110 -93.5t9 -185.5l-35 -196q-14 -84 -12 -140t45 -75l-6 -33h-246q-11 34 10 166l39 244q23 145 -65 192q-51 29 -174 29h-453l-133 -631h-199
l312 1468h680zM885 797q139 0 233 55t126 207q51 242 -228 239h-486l-106 -501h461z" />
    <glyph glyph-name="uni0211" unicode="&#x211;" horiz-adv-x="681" 
d="M780 1237h-125l-166 291h218zM449 1237h-127l-164 291h215zM666 905q-135 0 -226.5 -88t-115.5 -201l-129 -616h-181l228 1071h170l-39 -184q33 53 131 131t205 78q14 0 57 -6l-41 -191q-24 6 -59 6z" />
    <glyph glyph-name="uni0212" unicode="&#x212;" horiz-adv-x="1478" 
d="M947 1710q-114 0 -179 -57q-39 -35 -68 -99h-100q51 147 149.5 212t239.5 65q176 0 228 -119q29 -61 16 -158h-103q-2 66 -26 99q-43 57 -157 57zM1049 1468q168 0 266 -49q186 -94 132 -344t-280 -352q78 -37 110 -93.5t9 -185.5l-35 -196q-14 -84 -12 -140t45 -75
l-6 -33h-246q-11 34 10 166l39 244q23 145 -65 192q-51 29 -174 29h-453l-133 -631h-199l312 1468h680zM885 797q139 0 233 55t126 207q51 242 -228 239h-486l-106 -501h461z" />
    <glyph glyph-name="uni0213" unicode="&#x213;" horiz-adv-x="681" 
d="M600 1485q178 0 227 -119q29 -61 17 -158h-103q0 66 -26 99q-43 59 -157 59t-179 -59q-39 -35 -68 -99h-98q92 277 387 277zM666 905q-135 0 -226.5 -88t-115.5 -201l-129 -616h-181l228 1071h170l-39 -184q33 53 131 131t205 78q14 0 57 -6l-41 -191q-24 6 -59 6z" />
    <glyph glyph-name="uni0214" unicode="&#x214;" horiz-adv-x="1478" 
d="M1233 1571h-127l-164 291h215zM899 1571h-127l-162 291h215zM637 135q254 0 379 172q70 94 104 254l193 907h203l-177 -825q-57 -270 -161 -416q-190 -266 -562 -266t-448 266q-43 145 14 416l176 825h203l-192 -907q-35 -160 2 -266q55 -160 266 -160z" />
    <glyph glyph-name="uni0215" unicode="&#x215;" 
d="M967 1210h-127l-166 291h217zM633 1210h-127l-162 291h213zM731 158q-150 -187 -377 -187q-358 0 -278 371l155 729h185l-152 -711q-51 -231 156 -231q188 0 293 170q57 88 90 246l112 526h179l-228 -1071h-170z" />
    <glyph glyph-name="uni0216" unicode="&#x216;" horiz-adv-x="1478" 
d="M1028 1847q274 0 246 -276h-103q-4 66 -26 98q-45 59 -158 59t-180 -59q-39 -35 -68 -98h-98q51 147 147.5 211.5t239.5 64.5zM637 135q254 0 379 172q70 94 104 254l193 907h203l-177 -825q-57 -270 -161 -416q-190 -266 -562 -266t-448 266q-43 145 14 416l176 825h203
l-192 -907q-35 -160 2 -266q55 -160 266 -160z" />
    <glyph glyph-name="uni0217" unicode="&#x217;" 
d="M762 1487q178 0 227 -119q29 -61 17 -158h-103q0 66 -24 99q-45 57 -159 57t-179 -57q-37 -35 -68 -99h-98q92 277 387 277zM731 158q-150 -187 -377 -187q-358 0 -278 371l155 729h185l-152 -711q-51 -231 156 -231q188 0 293 170q57 88 90 246l112 526h179l-228 -1071
h-170z" />
    <glyph glyph-name="uni0218" unicode="&#x218;" horiz-adv-x="1327" 
d="M408 -102h227l-33 -158q-39 -170 -240 -170l15 72q63 15 78 33t20 42h-106zM803 1333q-222 0 -294.5 -89t-86.5 -159t17.5 -111.5t91 -68t140.5 -44t164 -38t259.5 -82.5t117.5 -340q-46 -216 -241.5 -326t-440.5 -110q-244 0 -387 132.5t-90 383.5h185
q-34 -175 69 -263.5t283 -88.5q251 0 331.5 93t96.5 171t-14.5 125t-90 77t-139.5 48.5t-226 51.5t-254 111.5t-71 262.5q47 208 225 318t398 110q369 0 415 -171t25 -292h-184q16 160 -65 229.5t-234 69.5z" />
    <glyph glyph-name="uni0219" unicode="&#x219;" horiz-adv-x="1024" 
d="M258 -102h227l-32 -158q-39 -170 -240 -170l14 72q63 15 78.5 33.5t20.5 41.5h-107zM420 129q263 0 295 158q18 90 -52.5 122.5t-130 46t-167 39t-187 87.5t-49.5 205t166.5 219.5t312.5 76.5t274 -75.5t70 -255.5h-174q16 135 -75 156.5t-132 21.5q-225 0 -256 -135
q-17 -80 57 -112t133 -45.5t119 -27.5q155 -38 233 -102t48 -199q-36 -173 -185.5 -253.5t-336.5 -80.5q-304 0 -346.5 130.5t-26.5 228.5h174q-27 -158 81 -181.5t155 -23.5z" />
    <glyph glyph-name="uni021A" unicode="&#x21a;" horiz-adv-x="1175" 
d="M328 -102h227l-33 -158q-39 -170 -239 -170l14 72q63 15 78 33t20 42h-106zM643 1298h-487l34 164h1170l-35 -164h-487l-275 -1298h-194z" />
    <glyph glyph-name="uni021B" unicode="&#x21b;" horiz-adv-x="645" 
d="M121 -102h227l-33 -158q-39 -170 -239 -170l14 72q63 15 78 33t20 42h-106zM412 154h80l-31 -154h-133q-142 0 -188 45t-15 186l141 674h-180l33 154h180l68 317h174l-68 -317h211l-33 -154h-211l-139 -657q-12 -61 8.5 -77.5t102.5 -16.5z" />
    <glyph glyph-name="uni021C" unicode="&#x21c;" horiz-adv-x="1359" 
d="M592 111q170 0 291 96q111 80 141 225q59 272 -305 273q-27 0 -90 -5l35 162q207 2 301 47q121 49 151 197q27 121 -43.5 189.5t-220.5 68.5t-401 -213l-111 129q303 244 551 244q247 0 357 -120t70 -305t-253 -313q119 -59 152 -145t4 -219q-41 -193 -225 -332
t-440 -139q-255 0 -484 158l164 108q186 -106 356 -106z" />
    <glyph glyph-name="uni021D" unicode="&#x21d;" horiz-adv-x="1359" 
d="M502 -317q170 0 291 96q111 82 141 225q57 272 -307 272q-27 0 -88 -4l34 162q207 4 301 49q121 47 152 197q25 119 -44.5 188.5t-219.5 69.5t-402 -213l-110 129q301 244 549 244q249 0 359 -120t70 -306t-253 -314q119 -57 151 -144t4 -218q-41 -195 -221 -332
q-188 -139 -443 -139t-486 156l165 108q187 -106 357 -106z" />
    <glyph glyph-name="uni021E" unicode="&#x21e;" horiz-adv-x="1478" 
d="M1055 1528h-191l-141 289h162l94 -193l176 193h164zM350 1468h201l-129 -606h764l129 606h201l-312 -1468h-200l145 686h-764l-145 -686h-201z" />
    <glyph glyph-name="uni021F" unicode="&#x21f;" 
d="M891 1536h-191l-141 291h164l94 -193l174 193h166zM693 936q-124 0 -231.5 -77t-154.5 -292l-119 -567h-180l314 1475h180l-117 -549q82 82 137 114q100 57 230 58q233 0 282 -164q27 -88 -6 -248l-145 -686h-187l144 676q25 117 6 172q-29 88 -153 88z" />
    <glyph glyph-name="uni0220" unicode="&#x220;" horiz-adv-x="1478" 
d="M358 1468h201l-14 -69q164 109 401 108q371 0 447 -266q43 -145 -15 -416l-260 -1222h-203l279 1304q33 160 -4 267q-53 160 -264 159q-254 0 -381 -172q-70 -94 -103 -254l-192 -907h-203z" />
    <glyph glyph-name="uni0226" unicode="&#x226;" horiz-adv-x="1366" 
d="M856 1778h186l-43 -207h-186zM772 1468h225l222 -1468h-220l-55 440h-582l-251 -440h-203zM913 602l-86 649l-372 -649h458z" />
    <glyph glyph-name="uni0227" unicode="&#x227;" 
d="M664 1483h188l-43 -209h-188zM614 944q-130 0 -204 -76q-43 -41 -70 -125h-168q45 199 185.5 277t316.5 78t278 -73t72 -224l-131 -617q-13 -61 33 -61q34 0 73 4l-28 -131q-71 -19 -129 -19q-92 0 -121 66q-14 35 -10 98q-70 -72 -183.5 -125t-251.5 -53t-212 91
t-44 234t140 224.5t266 99.5l295 37q97 12 119 121q20 92 -38 133t-188 41zM372 117q87 0 183 45q168 72 203 237l30 146q-72 -39 -200 -56l-111 -14q-235 -28 -267 -178q-20 -90 27.5 -135t134.5 -45z" />
    <glyph glyph-name="uni0228" unicode="&#x228;" horiz-adv-x="1366" 
d="M558 -203q-36 0 -91 -16l-27 41l168 178h-557l311 1468h1072l-39 -180h-877l-94 -444h811l-37 -170h-811l-104 -500h893l-37 -174h-432l-123 -129q32 10 90 10t94 -41.5t20 -115.5t-86.5 -129.5t-172.5 -55.5t-212 43l52 80q92 -30 128 -30q36 -1 68 12q55 20 66 75
q8 31 -14.5 54.5t-58.5 23.5z" />
    <glyph glyph-name="uni0229" unicode="&#x229;" 
d="M643 938q-125 0 -228.5 -89t-135.5 -228h593q38 317 -229 317zM396 -229q-36 0 -93 -17l-27 41l159 166h-17q-201 0 -308.5 146.5t-52.5 405.5t229.5 421t399.5 162q115 0 250.5 -77.5t126.5 -303.5q0 -76 -35 -238h-786q-29 -162 22.5 -260t197.5 -98t249 92
q59 53 94 125h176q-18 -59 -73.5 -132t-114.5 -118q-114 -93 -252 -114l-121 -128q32 10 90 10t94.5 -40.5t20.5 -116.5t-87 -130t-176 -54t-206 43l53 79q71 -30 116 -30q47 1 89 17t52 59t-12 66.5t-58 23.5z" />
    <glyph glyph-name="uni022A" unicode="&#x22a;" horiz-adv-x="1593" 
d="M831 2179h642l-27 -119h-641zM803 1823h186l-45 -207h-186zM1133 1823h186l-45 -207h-187zM965 1331q-231 0 -408.5 -155.5t-241.5 -460.5q-53 -246 35 -413t358 -167t428.5 188.5t211.5 440.5t-49.5 409.5t-333.5 157.5zM664 -43q-352 0 -496 223q-126 216 -60 530
t259 527q249 273 629 273t513 -250q105 -194 37 -512t-278 -535q-252 -256 -604 -256z" />
    <glyph glyph-name="uni022B" unicode="&#x22b;" 
d="M481 1649h641l-26 -117h-641zM487 1411h189l-45 -209h-189zM817 1411h189l-45 -209h-189zM408 -39q-221 0 -319.5 149.5t-42.5 410.5t227 421t389 160t332 -138.5t59 -401.5t-218 -432t-427 -169zM645 944q-176 0 -277.5 -126t-138.5 -300t14.5 -287.5t222.5 -113.5
t266 135t128 293t6 252q-45 147 -221 147z" />
    <glyph glyph-name="uni022C" unicode="&#x22c;" horiz-adv-x="1593" 
d="M764 2019h641l-25 -116h-641zM862 1675q-71 0 -106 -92h-99q31 80 70 129q78 92 191 92q74 0 174 -51q65 -24 107 -24t75 34q14 18 29 58h104q-47 -127 -116.5 -175.5t-141.5 -48.5q-33 0 -111 25l-47 20q-89 33 -129 33zM965 1331q-231 0 -408.5 -155.5t-241.5 -460.5
q-53 -246 35 -413t358 -167t428.5 188.5t211.5 440.5t-49.5 409.5t-333.5 157.5zM664 -43q-352 0 -496 223q-126 216 -60 530t259 527q249 273 629 273t513 -250q105 -194 37 -512t-278 -535q-252 -256 -604 -256z" />
    <glyph glyph-name="uni022D" unicode="&#x22d;" 
d="M457 1638h641l-27 -118h-641zM598 1417q70 0 174 -51q67 -25 94 -25q87 0 117 93h104q-47 -127 -116.5 -175.5t-129.5 -48.5t-120 27l-49 18q-93 33 -129 33q-70 0 -107 -92h-96q80 221 258 221zM408 -39q-221 0 -319.5 149.5t-42.5 410.5t227 421t389 160t332 -138.5
t59 -401.5t-218 -432t-427 -169zM645 944q-176 0 -277.5 -126t-138.5 -300t14.5 -287.5t222.5 -113.5t266 135t128 293t6 252q-45 147 -221 147z" />
    <glyph glyph-name="uni022E" unicode="&#x22e;" horiz-adv-x="1593" 
d="M961 1864h186l-45 -207h-187zM965 1331q-231 0 -408.5 -155.5t-241.5 -460.5q-53 -246 35 -413t358 -167t428.5 188.5t211.5 440.5t-49.5 409.5t-333.5 157.5zM664 -43q-352 0 -496 223q-126 216 -60 530t259 527q249 273 629 273t513 -250q105 -194 37 -512t-278 -535
q-252 -256 -604 -256z" />
    <glyph glyph-name="uni022F" unicode="&#x22f;" 
d="M651 1475h187l-45 -207h-187zM408 -39q-221 0 -319.5 149.5t-42.5 410.5t227 421t389 160t332 -138.5t59 -401.5t-218 -432t-427 -169zM645 944q-176 0 -277.5 -126t-138.5 -300t14.5 -287.5t222.5 -113.5t266 135t128 293t6 252q-45 147 -221 147z" />
    <glyph glyph-name="uni0230" unicode="&#x230;" horiz-adv-x="1593" 
d="M776 2054h639l-26 -119h-639zM954 1853h187l-45 -206h-187zM965 1331q-231 0 -408.5 -155.5t-241.5 -460.5q-53 -246 35 -413t358 -167t428.5 188.5t211.5 440.5t-49.5 409.5t-333.5 157.5zM664 -43q-352 0 -496 223q-126 216 -60 530t259 527q249 273 629 273t513 -250
q105 -194 37 -512t-278 -535q-252 -256 -604 -256z" />
    <glyph glyph-name="uni0231" unicode="&#x231;" 
d="M469 1595h641l-25 -118h-641zM659 1407h189l-45 -209h-189zM408 -39q-221 0 -319.5 149.5t-42.5 410.5t227 421t389 160t332 -138.5t59 -401.5t-218 -432t-427 -169zM645 944q-176 0 -277.5 -126t-138.5 -300t14.5 -287.5t222.5 -113.5t266 135t128 293t6 252
q-45 147 -221 147z" />
    <glyph glyph-name="uni0232" unicode="&#x232;" horiz-adv-x="1366" 
d="M618 1651h642l-25 -117h-641zM231 1468h232l272 -704l572 704h233l-741 -876l-125 -592h-199l125 592z" />
    <glyph glyph-name="uni0233" unicode="&#x233;" horiz-adv-x="1024" 
d="M365 1327h639l-25 -117h-639zM-59 -260q64 -21 119 -21t104 58q10 10 123 192l-162 1102h205l100 -872l475 872h199q-58 -101 -242 -423q-498 -873 -597 -979.5t-255 -106.5q-50 0 -106 12z" />
    <glyph glyph-name="uni0237" unicode="&#x237;" horiz-adv-x="454" 
d="M-133 -252q55 0 82.5 32t44.5 114l248 1165h174l-254 -1194q-29 -141 -111 -206t-198 -65q-47 0 -89 9l33 149q20 -4 33 -4h37z" />
    <glyph glyph-name="uni0238" unicode="&#x238;" horiz-adv-x="1906" 
d="M489 119q125 0 221 99t140 259l24 117q23 158 -34 249q-56 91 -186 91t-236.5 -104t-146.5 -292t8 -303.5t210 -115.5zM1430 938q-132 0 -246 -90q-88 -76 -135 -230l-33 -149q-14 -98 0 -168q33 -176 225 -176q147 0 243.5 116t135.5 296t-9.5 290.5t-180.5 110.5z
M1478 1100q200 0 294 -138.5t38 -399.5t-214 -429t-375 -168q-123 0 -195 60q-41 35 -82 108l-26 -133h-168l28 139q-159 -178 -379 -178q-180 0 -278 150.5t-47 393.5t207.5 414t380.5 171q122 -1 192 -52q43 -31 86 -104l117 541h180l-115 -535q156 160 356 160z" />
    <glyph glyph-name="uni0239" unicode="&#x239;" horiz-adv-x="1847" 
d="M449 121q183 0 292 176q39 61 64 145l41 193q8 82 -6 141q-39 160 -224 160q-117 0 -222 -101.5t-152 -314.5q-29 -137 -9 -231q33 -168 216 -168zM1377 938q-249 0 -359 -334l-41 -194q-17 -289 227 -289q125 0 231.5 105.5t151.5 316.5q27 127 10 219q-33 176 -220 176
zM1212 -37q-138 0 -211 53q-41 31 -83 105l-117 -547h-183l117 549q-129 -158 -356 -158q-170 0 -276.5 134.5t-50.5 400.5t217 431t364 165t276 -164l29 135h8l2 4h170l-31 -143q164 168 355 169q192 1 289.5 -139.5t44.5 -398.5q-76 -350 -291 -500q-135 -96 -273 -96z
" />
    <glyph glyph-name="uni023A" unicode="&#x23a;" horiz-adv-x="1366" 
d="M1098 1669h151l-214 -450l184 -1219h-220l-55 440h-280l-306 -641h-151l305 641h-150l-251 -440h-203l864 1468h225l2 -7zM741 602h172l-37 283zM589 602l254 532l-16 117l-372 -649h134z" />
    <glyph glyph-name="uni023B" unicode="&#x23b;" horiz-adv-x="1478" 
d="M936 1335q-217 1 -383 -152t-231 -466q-55 -258 30 -420q29 -51 72 -86l516 1124h-4zM971 1509q27 0 49 -2l80 172h151l-88 -192q133 -35 211 -125q123 -147 99 -334h-193q-7 232 -197 289l-534 -1165q59 -14 129 -15q349 0 512 404h194q-78 -233 -256 -389
q-215 -190 -512 -191q-80 0 -147 16l-84 -188h-154l107 236q-66 35 -117 92q-186 205 -96 633q70 326 287 532q233 227 559 227z" />
    <glyph glyph-name="uni023C" unicode="&#x23c;" horiz-adv-x="1024" 
d="M621 940q-172 0 -281 -168q-72 -110 -106 -270t12 -269q12 -35 37 -59l403 762q-30 4 -65 4zM434 123q214 0 324 256h176q-76 -213 -217.5 -311.5t-329.5 -98.5q-31 0 -59 4l-92 -174h-152l113 213q-68 39 -111 111q-92 154 -43 383q59 283 230 439.5t382 156.5
q61 0 113 -10l94 178h152l-119 -228q18 -12 37 -28q94 -88 72 -303h-177q6 90 -28 151l-391 -737q12 -2 26 -2z" />
    <glyph glyph-name="uni023D" unicode="&#x23d;" 
d="M0 696l33 154h180l131 618h199l-131 -618h323l-35 -158h-323l-109 -518h746l-37 -174h-944l147 694z" />
    <glyph glyph-name="uni023E" unicode="&#x23e;" horiz-adv-x="1251" 
d="M850 1151l82 143h-51zM1149 1679h151l-118 -211h231l-37 -174h-293l-325 -573l-152 -721h-200l30 147l-203 -358h-151l444 789l154 716h-496l37 174h809z" />
    <glyph glyph-name="uni0241" unicode="&#x241;" 
d="M798 1489q206 0 300 -112.5t55 -289.5q-23 -106 -79 -171.5t-194 -175.5t-180.5 -175t-146.5 -565h-178q109 516 161 604t191 201l96 80q115 84 144 205q20 98 -23 169.5t-178 71.5q-168 0 -258 -123q-49 -70 -84 -198h-178q47 215 196.5 347t355.5 132z" />
    <glyph glyph-name="uni0242" unicode="&#x242;" 
d="M716 1102q206 0 299 -112.5t56 -287.5q-23 -106 -79 -172t-194 -176t-180.5 -174.5t-64.5 -179.5h-178q27 131 79 218t191 202l96 78q116 90 144 207q20 98 -23 169.5t-178 71.5q-168 0 -258 -125q-49 -68 -84 -198h-178q47 217 196.5 348t355.5 131z" />
    <glyph glyph-name="uni0243" unicode="&#x243;" horiz-adv-x="1482" 
d="M891 848q307 0 347 188.5t-67 239.5q-59 27 -190 27h-354l-99 -455h363zM813 170q184 0 285 106q63 66 84 162q54 248 -291 248h-395l-41 -188h215l-31 -144h-215l-39 -184h428zM1098 1468q258 0 334 -153q45 -90 17 -219q-45 -207 -261 -305q102 -43 149 -97
q78 -96 44 -252t-146 -270q-168 -172 -459 -172h-620l73 354h-231l31 144h231l207 970h631z" />
    <glyph glyph-name="uni0244" unicode="&#x244;" horiz-adv-x="1734" 
d="M762 135q254 0 379 172q70 94 104 254l41 195h-751l-41 -195q-35 -160 2 -266q55 -160 266 -160zM740 -39q-372 0 -447 266q-43 145 14 416l25 113h-250l31 141h249l121 571h203l-121 -571h752l121 571h202l-120 -571h233l-31 -141h-233l-25 -113q-57 -270 -161 -416
q-191 -266 -563 -266z" />
    <glyph glyph-name="uni0245" unicode="&#x245;" horiz-adv-x="1366" 
d="M-72 0l848 1468h211l223 -1468h-223l-151 1251l-686 -1251h-222z" />
    <glyph glyph-name="uni0246" unicode="&#x246;" horiz-adv-x="1366" 
d="M283 174h127l227 500h-250zM424 844h291l205 444h-402zM362 1468h639l99 211h151l-96 -211h279l-39 -180h-324l-205 -444h369l-37 -170h-410l-227 -500h615l-37 -174h-658l-96 -211h-154l99 211h-279z" />
    <glyph glyph-name="uni0247" unicode="&#x247;" 
d="M872 621q14 117 -7 175t-56 89l-139 -264h202zM242 477q-35 -193 43 -295l157 295h-200zM643 938q-125 0 -228.5 -89t-135.5 -228h239l168 315q-20 2 -43 2zM467 119q141 0 244 92q59 53 94 125h176q-18 -59 -73.5 -132t-114.5 -118q-153 -125 -375 -125q-49 0 -90 10
l-92 -172h-152l117 221q-53 33 -90 86q-109 146 -54 406t229.5 422t399.5 162q41 0 78 -9l98 183h152l-119 -228v-2q177 -97 168 -325q0 -76 -35 -238h-434l-188 -354q29 -4 61 -4z" />
    <glyph glyph-name="uni0248" unicode="&#x248;" horiz-adv-x="1110" 
d="M346 127q158 0 229 111q45 66 84 251l93 435h-160l31 143h159l86 401h197l-86 -401h151l-30 -143h-152l-102 -486q-39 -186 -117 -288q-141 -188 -428 -189q-166 0 -263 89t-48 319l22 104h187l-23 -104q-55 -242 170 -242z" />
    <glyph glyph-name="uni0249" unicode="&#x249;" horiz-adv-x="454" 
d="M455 1262h-181l45 206h181zM-178 -432q-25 0 -74 6l33 156q123 4 149.5 21.5t46.5 109.5l119 563h-147l31 141h147l106 502h181l-107 -502h178l-30 -141h-179l-122 -584q-25 -117 -74 -174q-84 -98 -258 -98z" />
    <glyph glyph-name="uni024A" unicode="&#x24a;" horiz-adv-x="1761" 
d="M650 135q270 0 419 159t209 372l18 94q47 270 -53 416q-111 156 -342 156t-401.5 -158t-223.5 -410t25.5 -440.5t348.5 -188.5zM1507 -293q2 0 2 -20t-28 -146q-287 0 -348 189q-33 102 6 288l26 125q-229 -186 -538 -186q-362 0 -504 256q-121 217 -53 535t254 512
q240 250 628 249q317 0 463 -198l33 157h197l-297 -1398q-41 -186 -23 -252q25 -111 182 -111z" />
    <glyph glyph-name="uni024B" unicode="&#x24b;" horiz-adv-x="1257" 
d="M425 117q171 0 271 113.5t136 287.5t-13 300t-224 126t-282 -147q-69 -94 -102 -252t5 -293t209 -135zM416 -39q-264 0 -354 169t-34 432t228 401.5t373 138.5t305 -113l16 78h178l-256 -1206q-20 -92 1.5 -109.5t140.5 -21.5l-33 -156q-46 -6 -72 -6q-176 0 -219 98
q-25 57 0 174l45 217q-141 -96 -319 -96z" />
    <glyph glyph-name="uni024C" unicode="&#x24c;" horiz-adv-x="1599" 
d="M1010 797q141 0 234 55t125 207t-71 209q-53 31 -155 30h-486l-106 -501h459zM1174 1468q168 0 268 -49q186 -94 132 -344t-280 -352q78 -37 109 -93.5t10 -185.5l-37 -196q-14 -84 -11 -140t44 -75l-6 -33h-244q-14 31 8 166l39 244q25 145 -65 192q-51 29 -172 29h-453
l-133 -631h-201l133 631h-258l35 166h258l144 671h680z" />
    <glyph glyph-name="uni024D" unicode="&#x24d;" horiz-adv-x="798" 
d="M772 905q-137 0 -228 -88t-116 -201l-25 -118h244l-31 -144h-243l-74 -354h-180l74 354h-216l31 144h215l123 573h172l-39 -184q31 53 129.5 131t204.5 78q14 0 59 -6l-41 -191q-24 6 -59 6z" />
    <glyph glyph-name="uni024E" unicode="&#x24e;" horiz-adv-x="1581" 
d="M840 764l235 291h-350zM125 1055l31 141h293l-115 272h233l105 -272h518l221 272h231l-229 -272h273l-31 -141h-361l-393 -463l-125 -592h-198l124 592l-194 463h-383z" />
    <glyph glyph-name="uni024F" unicode="&#x24f;" horiz-adv-x="1257" 
d="M557 199l250 456h-301zM68 -260q64 -21 120 -21t105 58q10 13 121 192l-99 686h-249l28 142h199l-39 274h203l30 -274h396l151 274h199q-43 -72 -160 -274h211l-29 -142h-260q-16 -27 -103 -178q-409 -710 -503 -812.5t-252 -102.5q-46 0 -106 12z" />
    <glyph glyph-name="uni0250" unicode="&#x250;" 
d="M536 115q130 0 207 75q43 43 70 125h168q-45 -197 -185 -274.5t-316 -77.5t-279 72q-100 72 -70 223l131 619q14 61 -33 61q-46 0 -73 -6l28 133q65 18 127 18q94 0 121 -65q14 -37 10 -100q70 72 185 125t251 53t211 -90.5t45 -232.5t-140.5 -224t-264.5 -103l-297 -34
q-63 -8 -92 -54q-18 -23 -27 -67q-20 -92 36.5 -134t186.5 -42zM782 942q-87 0 -184 -43q-166 -74 -201 -240l-30 -145q64 40 198 55l111 15q102 14 155 41q91 47 111 138t-26.5 135t-133.5 44z" />
    <glyph glyph-name="uni0251" unicode="&#x251;" horiz-adv-x="1202" 
d="M622.5 942q-143.5 0 -250 -99.5t-151.5 -309.5t19.5 -310t208 -100t251 99.5t151.5 309.5t-20.5 310t-208 100zM401 -31q-223 0 -315 158.5t-40 404.5t211 405t379 159t314 -181l33 160h164l-178 -837q-18 -84 -6 -92.5t94 -16.5l-27 -129q-20 -10 -103 -10t-113 41
t-26 123q-164 -185 -387 -185z" />
    <glyph glyph-name="uni0252" unicode="&#x252;" horiz-adv-x="1202" 
d="M565.5 123q143.5 0 251 99.5t151.5 307.5t-20.5 309t-208 101t-251 -99.5t-151.5 -308.5t20.5 -309t208 -100zM789 1096q221 0 313 -160t40 -405t-211 -404.5t-377 -159.5t-314 183l-35 -160h-164l178 835q18 84 7 93.5t-93 17.5l27 129q20 8 102 8t111.5 -41t25.5 -123
q169 187 390 187z" />
    <glyph glyph-name="uni0253" unicode="&#x253;" 
d="M676 938q-131 0 -244 -91t-158 -300q-86 -422 213 -422q145 0 242.5 116t136.5 296t-10 290.5t-180 110.5zM723 1100q199 0 294 -138.5t40 -399.5t-214 -429t-376 -168q-123 0 -195 60q-41 35 -82 112l-28 -137h-166l166 782h-4l96 455q25 119 74 176q84 98 260 98
q24 0 74 -6l-33 -155q-125 -4 -151.5 -21.5t-47.5 -109.5l-59 -277q153 158 352 158z" />
    <glyph glyph-name="uni0254" unicode="&#x254;" horiz-adv-x="1024" 
d="M80 690q147 412 557 412q199 0 291 -153.5t43 -385.5q-59 -281 -231 -438.5t-368 -157.5t-290.5 88t-71.5 303h176q-6 -98 37 -163.5t170 -65.5q172 0 281 168q72 109 106 269t-10.5 270t-189.5 110q-216 0 -324 -256h-176z" />
    <glyph glyph-name="uni0256" unicode="&#x256;" horiz-adv-x="1243" 
d="M455 119q125 0 228 107.5t146 309.5t-19 300t-191 98t-236 -104t-147 -292t8.5 -303.5t210.5 -115.5zM625 1090q123 0 194 -52q41 -31 86 -104l117 541h174l-313 -1475h-4l-31 -139q-20 -92 1 -109.5t140 -21.5l-33 -156q-46 -6 -71 -6q-176 0 -219 98q-27 57 -2 174
l59 279q-150 -158 -344 -158t-292.5 150.5t-47.5 393.5t207.5 414t378.5 171z" />
    <glyph glyph-name="uni0257" unicode="&#x257;" horiz-adv-x="1212" 
d="M455 119q125 0 228 107.5t146 309.5t-19 300t-191 98t-236 -104t-147 -292t8.5 -303.5t210.5 -115.5zM625 1090q123 0 194 -52q39 -29 82 -98l64 295q25 117 73 174q84 98 260 98q28 0 72 -6l-33 -155q-121 -4 -149.5 -21.5t-46.5 -110.5l-258 -1214h-162l31 150
q-159 -189 -387 -189q-180 0 -278.5 150.5t-47.5 393.5t207.5 414t378.5 171z" />
    <glyph glyph-name="uni0258" unicode="&#x258;" 
d="M631 938q-172 0 -277 -129q-53 -72 -90 -188h596q25 139 -39.5 228t-189.5 89zM653 1096q225 0 332 -162t51 -421t-226.5 -405.5t-381.5 -146.5t-313 125q-39 45 -62.5 117.5t-19.5 132.5h178q6 -72 41 -125q66 -92 212 -92t238.5 98t131.5 260h-785q35 162 68 238
q86 227 254 304t282 77z" />
    <glyph glyph-name="uni0259" unicode="&#x259;" horiz-adv-x="1136" 
d="M459 131q142 0 233.5 83t130.5 216h-614q-15 -200 80.5 -249.5t169.5 -49.5zM580 932q-229 0 -306 -203h-174q39 171 171 262.5t286 91.5t241 -39.5t158.5 -127t71.5 -248.5t-44 -286.5t-118.5 -215.5t-174 -139.5t-208.5 -49.5q-448 0 -448 469q0 46 16 138h797
q6 45 6 99q0 115 -83 182t-191 67z" />
    <glyph glyph-name="uni025A" unicode="&#x25a;" horiz-adv-x="1689" 
d="M256 358q43 -294 322 -229q124 33 206 141t80 242zM1386 795q2 -45 -20 -128t-16 -121t39 -48q82 -25 160 53q24 23 40 47q7 -12 19 -20t20 -16t18 -14q10 -7 19 -20q-84 -141 -264 -153q-110 -12 -160 58q-49 70 -18 196q-78 -17 -162 -47q-12 -199 -121 -357
q-135 -190 -367 -250q-115 -29 -227 -5q-204 43 -258 255q-20 68 -29 226l801 202q-14 156 -93 233t-226 39t-230 -151q-47 -63 -63 -137l-180 -45q4 57 41 138t81 136q129 157 343 209q215 53 359 -47t165 -328q102 26 329 95z" />
    <glyph glyph-name="uni025B" unicode="&#x25b;" horiz-adv-x="1067" 
d="M541 637h104l-31 -143h-118q-252 0 -293 -199q-18 -88 47 -131t179 -43q239 0 327 209h170q-33 -152 -181.5 -251t-348.5 -99t-303 83.5t-75 225.5q25 106 103 178t192 102q-82 41 -114.5 99t-8.5 170t148.5 185t290.5 73q231 0 300.5 -111t47.5 -219h-170
q4 178 -209 178q-212 0 -244 -143q-18 -80 27 -122t160 -42z" />
    <glyph glyph-name="uni025C" unicode="&#x25c;" horiz-adv-x="1067" 
d="M201 330q-1 -209 235 -209q112 0 198 43.5t106 141.5t-38.5 143t-171.5 45h-120l30 143h107q217 0 256 164q14 68 -31 105.5t-162 37.5q-206 0 -276 -178h-170q23 109 138.5 219.5t348.5 110.5q166 0 260.5 -73t67.5 -196q-20 -102 -77.5 -159.5t-156.5 -98.5
q98 -31 147.5 -102.5t25.5 -177.5q-29 -141 -170.5 -225t-315.5 -84q-223 0 -328.5 99t-72.5 251h170z" />
    <glyph glyph-name="uni025D" unicode="&#x25d;" horiz-adv-x="1622" 
d="M178 330q4 -209 236 -209q114 0 198 43.5t105 141.5t-37.5 143t-171.5 45h-119l31 143h104q219 0 256 164q29 143 -192 143q-203 0 -277 -178h-170q23 109 139.5 219.5t348.5 110.5q166 0 262 -72q37 -33 55 -72q284 81 428 121q0 -45 -12 -92t-20.5 -89t-4.5 -73t49 -45
t99 19t92 86q9 -13 38 -35.5t38 -34.5q-88 -144 -267 -156q-110 -12 -158 61t-20 193q-58 -11 -137 -37q-78 -26 -113 -36l-2 -7q-20 -102 -77.5 -159.5t-155.5 -98.5q98 -31 147.5 -102.5t24.5 -177.5q-29 -141 -169 -225t-314 -84q-225 0 -331 99t-73 251h170z" />
    <glyph glyph-name="uni025E" unicode="&#x25e;" horiz-adv-x="1021" 
d="M602 940q-172 0 -280 -168q-72 -110 -106 -270t11 -269q20 -55 66 -81q51 -23 82 -26t41 -4t63 -1t137 43.5t105 141.5t-37.5 143t-171.5 45l16 143q219 0 256 164q14 68 -32 104q-39 37 -150 39v-4zM416 -20q-23 0 -41 2q-145 27 -205.5 69.5t-114 145t-10.5 309.5
q56 258 240 479q82 80 223 100l127 11q164 0 258 -73t71 -185t-81 -170t-156 -99q98 -31 147.5 -102.5t24.5 -177.5q-29 -141 -169 -225t-314 -84z" />
    <glyph glyph-name="uni025F" unicode="&#x25f;" horiz-adv-x="569" 
d="M-90 -266q82 0 107.5 43t62.5 217h-178l30 141h181l194 924h178l-194 -924h149l-30 -141h-150l-37 -168q-26 -113 -73 -166q-82 -90 -263 -90q-29 0 -73 4l34 164q58 -4 62 -4z" />
    <glyph glyph-name="uni0260" unicode="&#x260;" horiz-adv-x="1239" 
d="M616 932q-295 0 -387 -428q-39 -180 14.5 -275.5t176.5 -95.5q195 0 313 176q63 98 92 232q41 199 -20.5 295t-188.5 96zM297 -453q-172 0 -274.5 77t-79.5 243h182q-2 -72 29 -111q47 -59 178 -59q207 0 303 145q55 86 100 308q-72 -82 -156.5 -122t-209.5 -40
q-174 0 -277.5 122t-45.5 400t222 429t350 151q127 0 205 -62q39 -31 72 -84l16 70q25 117 74 174q84 98 260 98q28 0 72 -6l-33 -156q-120 -4 -146 -19t-44 -75l-201 -944q-43 -203 -127 -322q-158 -217 -469 -217z" />
    <glyph glyph-name="uni0261" unicode="&#x261;" 
d="M616 932q-295 0 -387 -428q-39 -180 14.5 -275.5t176.5 -95.5q195 0 313 176q63 98 92 232q41 199 -20.5 295t-188.5 96zM297 -453q-172 0 -274.5 77t-79.5 243h182q-2 -72 29 -111q47 -59 178 -59q207 0 303 145q55 86 100 308q-72 -82 -156.5 -122t-209.5 -40
q-174 0 -277.5 122t-45.5 400t222 429t350 151q127 -1 205 -62q45 -35 84 -102l29 135h166l-209 -975q-43 -203 -127 -322q-158 -217 -469 -217z" />
    <glyph glyph-name="uni0265" unicode="&#x265;" 
d="M356 -49q-233 0 -280 162q-25 90 8 247l145 687h185l-144 -674q-25 -119 -6 -174q31 -88 154 -88t230.5 76.5t152.5 291.5l121 568h180l-314 -1473h-180l117 547q-81 -80 -159 -125t-210 -45z" />
    <glyph glyph-name="uni0266" unicode="&#x266;" 
d="M693 936q-124 0 -231.5 -77t-154.5 -292l-119 -567h-180l172 813h-2l96 457q25 117 76 174q86 98 262 98q24 0 70 -6l-33 -156q-123 -4 -150.5 -21.5t-47.5 -109.5l-21 -96h2l-47 -227q82 82 137 114q100 57 230 58q233 0 282 -164q27 -88 -6 -248l-145 -686h-187
l144 676q25 117 6 172q-29 88 -153 88z" />
    <glyph glyph-name="uni0267" unicode="&#x267;" horiz-adv-x="1239" 
d="M885 -432q-176 0 -219 98q-27 57 -2 174l34 160h-2l144 676q25 117 6 172q-29 88 -153 88t-231.5 -77t-154.5 -292l-119 -567h-180l172 813h-2l96 457q25 117 76 174q86 98 262 98q24 0 70 -6l-33 -156q-123 -4 -150.5 -21.5t-47.5 -109.5l-21 -96h2l-47 -227
q82 82 137 114q100 57 230 58q233 0 282 -164q27 -88 -6 -248l-145 -686h-4l-31 -139q-20 -92 1 -109.5t140 -21.5l-33 -156q-46 -6 -71 -6z" />
    <glyph glyph-name="uni0268" unicode="&#x268;" horiz-adv-x="698" 
d="M461 1468h182l-43 -202h-182zM72 760h237l66 307h182l-65 -307h221l-25 -119h-221l-135 -641h-182l135 641h-238z" />
    <glyph glyph-name="uni0269" unicode="&#x269;" horiz-adv-x="514" 
d="M201 -12q-90 0 -129 57t-21 145l189 885h163l-178 -837q-17 -90 30.5 -96.5t74.5 -6.5h41l-29 -135q-10 -4 -71.5 -8t-69.5 -4z" />
    <glyph glyph-name="uni026A" unicode="&#x26a;" horiz-adv-x="577" 
d="M295 1065v2h182v-2h162l-39 -186h-162l-147 -695h162l-39 -184h-502l39 184h158l147 695h-158l39 186h158z" />
    <glyph glyph-name="uni026B" unicode="&#x26b;" horiz-adv-x="755" 
d="M590 838q74 0 106 92h105q-47 -127 -117 -175t-141 -48q-20 0 -49 6l-150 -713h-180l162 770q-21 14 -70 14q-72 0 -109 -92h-98q88 221 260 221q20 0 47 -6l119 561h180l-133 -620q25 -10 68 -10z" />
    <glyph glyph-name="uni026D" unicode="&#x26d;" horiz-adv-x="546" 
d="M197 -432q-176 0 -220 98q-27 57 -2 174l97 457h4l250 1171h180l-311 -1468h-5l-30 -139q-20 -92 1 -109.5t140 -21.5l-33 -156q-47 -6 -71 -6z" />
    <glyph glyph-name="uni026F" unicode="&#x26f;" horiz-adv-x="1705" 
d="M429 164q91 0 182 70.5t126 236.5l133 623h183l-148 -699q-25 -109 -8 -159q25 -74 131 -74t207.5 78.5t144.5 285.5l121 568h180l-227 -1071h-178l33 151q-84 -78 -142 -115q-100 -59 -221 -59t-186 61q-37 37 -58 107q-156 -168 -365 -168q-208 0 -255 156
q-25 84 6 225l152 713h186l-158 -744q-23 -106 23.5 -146t137.5 -40z" />
    <glyph glyph-name="uni0270" unicode="&#x270;" horiz-adv-x="1705" 
d="M429 164q91 0 182 70.5t126 236.5l133 623h183l-148 -699q-25 -109 -8 -159q25 -74 131 -74t207.5 78.5t144.5 285.5l121 568h180l-323 -1520h-178l129 600q-84 -78 -142 -115q-100 -59 -221 -59t-186 61q-37 37 -58 107q-156 -168 -365 -168q-208 0 -255 156
q-25 84 6 225l152 713h186l-158 -744q-23 -106 23.5 -146t137.5 -40z" />
    <glyph glyph-name="uni0271" unicode="&#x271;" horiz-adv-x="1705" 
d="M1353 1096q208 0 255 -158q23 -84 -9 -225l-184 -873q-25 -117 -74 -174q-84 -98 -260 -98q-28 0 -73 6l32 156q123 4 151 21.5t48 109.5l31 139h-6l157 743q23 109 -22 149t-137 40t-184.5 -72t-127.5 -237l-131 -623h-182l147 698q23 111 9 160q-27 76 -133 76
t-207 -80t-146 -287l-119 -567h-180l228 1071h178l-33 -151q82 78 141 114q100 62 221 62t187 -64q37 -37 57 -106q158 170 366 170z" />
    <glyph glyph-name="uni0272" unicode="&#x272;" 
d="M774 1096q215 0 262 -160q27 -86 -8 -250l-145 -686h-185l144 676q54 258 -150 258q-64 0 -124 -18t-124 -78t-89 -116t-48 -161l-119 -561h-4l-34 -160q-25 -117 -74 -174q-84 -98 -258 -98q-24 0 -74 6l33 156q123 4 149.5 21.5t46.5 109.5l256 1206h4l3 4h172l-2 -4h4
l-29 -141q178 170 393 170z" />
    <glyph glyph-name="uni0273" unicode="&#x273;" horiz-adv-x="1234" 
d="M772 1096q217 0 264 -160q27 -86 -8 -250l-145 -686h-4l-31 -139q-20 -92 1 -109.5t140 -21.5l-33 -156q-46 -6 -71 -6q-176 0 -219 98q-27 57 -2 174l178 836q54 258 -150 258q-64 0 -124 -18t-124 -78t-89 -116t-48 -161l-119 -561h-180l228 1071h172l-33 -151
q180 176 397 176z" />
    <glyph glyph-name="uni0274" unicode="&#x274;" horiz-adv-x="1118" 
d="M188 1071h236l356 -792l170 792h189l-228 -1071h-223l-369 791l-167 -791h-191z" />
    <glyph glyph-name="uni0275" unicode="&#x275;" 
d="M221 467q-18 -139 28 -245t217 -106t267 136q70 98 107 215h-619zM645 944q-176 0 -274 -125q-84 -100 -123 -233h620q23 127 -2 211q-45 147 -221 147zM408 -39q-221 0 -319.5 149.5t-42.5 410.5t227 421t389 160t332 -138.5t59 -401.5t-218 -432t-427 -169z" />
    <glyph glyph-name="uni0276" unicode="&#x276;" horiz-adv-x="1933" 
d="M649 942q-135 0 -248.5 -105t-155.5 -307t23.5 -309.5t192.5 -107.5t246 95t170 341q43 197 -25 295t-203 98zM1434 938q-90 0 -179 -53q-135 -82 -194 -269h604q45 322 -231 322zM688 1100q170 0 262 -82q51 -45 90 -129q84 98 198 153.5t239 55.5q250 0 342 -193
q43 -87 39 -181t-35 -247h-793q-25 -131 0 -213q43 -154 243 -154t329 226h180q-80 -176 -229.5 -277.5t-321.5 -101.5q-119 0 -212 47t-151 170q-171 -215 -438 -215q-207 0 -318.5 142.5t-56.5 405.5t224 428t409 165z" />
    <glyph glyph-name="uni0278" unicode="&#x278;" horiz-adv-x="1478" 
d="M727 954q-379 -33 -457 -401q-37 -171 37 -279t250 -114zM524 0q-240 4 -368 147q-135 141 -83 394t236 412t451 161l71 332h185l-72 -332q268 -2 383 -161t62 -421q-57 -244 -247 -386t-433 -146l-91 -418h-184zM741 160q182 6 301 112q117 109 154 281q76 369 -285 401
z" />
    <glyph glyph-name="uni0279" unicode="&#x279;" horiz-adv-x="681" 
d="M111 188q137 0 228 88.5t116 200.5l131 617h180l-227 -1071h-172l39 186q-33 -55 -130.5 -132t-203.5 -77h-14q-15 0 -46 4l41 191q24 -7 58 -7z" />
    <glyph glyph-name="uni027A" unicode="&#x27a;" horiz-adv-x="681" 
d="M111 188q137 0 228 88.5t116 200.5l211 991h180l-307 -1445h-172l39 186q-33 -55 -130.5 -132t-203.5 -77h-14q-15 0 -46 4l41 191q24 -7 58 -7z" />
    <glyph glyph-name="uni027B" unicode="&#x27b;" horiz-adv-x="903" 
d="M111 188q137 0 228 88.5t116 200.5l131 617h180l-262 -1233q-20 -92 1 -109.5t140 -21.5l-33 -156q-46 -6 -71 -6q-176 0 -219 98q-27 57 -3 174l74 350q-35 -50 -125 -120t-196 -70h-14q-15 0 -46 4l41 191q24 -7 58 -7z" />
    <glyph glyph-name="uni027C" unicode="&#x27c;" horiz-adv-x="681" 
d="M666 905q-135 0 -226.5 -88t-115.5 -201l-195 -923h-180l293 1378h170l-39 -184q33 53 131 131t205 78q14 0 57 -6l-41 -191q-24 6 -59 6z" />
    <glyph glyph-name="uni027D" unicode="&#x27d;" horiz-adv-x="681" 
d="M666 905q-135 0 -226.5 -88t-115.5 -201l-129 -616h-5l-30 -139q-20 -92 1 -109.5t140 -21.5l-33 -156q-47 -6 -71 -6q-176 0 -220 98q-27 57 -2 174l97 457h4l166 774h170l-39 -184q33 53 131 131t205 78q14 0 57 -6l-41 -191q-24 6 -59 6z" />
    <glyph glyph-name="uni027E" unicode="&#x27e;" horiz-adv-x="454" 
d="M494 874q-156 27 -184.5 9.5t-47.5 -109.5l-164 -774h-178l168 793q25 117 74 176q84 98 293 67q29 0 71 -6z" />
    <glyph glyph-name="uni027F" unicode="&#x27f;" horiz-adv-x="454" 
d="M137 1030q50 6 74 6q223 31 264 -67q27 -59 2 -176l-168 -793h-180l164 774q18 92 -2.5 109.5t-186.5 -9.5z" />
    <glyph glyph-name="uni0280" unicode="&#x280;" horiz-adv-x="1077" 
d="M731 1071q123 0 195 -37q137 -68 99 -248t-208 -260q53 -53 74.5 -95t11.5 -107l-24 -144q-11 -59 -9 -100t33 -55l-4 -25h-235q-11 38 6 121l30 178q10 78 -55 113q-39 18 -127 18h-219l-90 -430h-201l228 1071h495zM555 580q102 0 170 41t90 147q12 59 -59 100
q-41 23 -115 23h-244l-65 -311h223z" />
    <glyph glyph-name="uni0281" unicode="&#x281;" horiz-adv-x="1077" 
d="M563 639q199 0 238 133l45 178q23 90 45 121h235l-6 -24q-37 -13 -56 -55t-34 -101l-37 -143q-18 -66 -57 -108t-115 -95q133 -81 96 -260q-38 -180 -204 -248q-86 -37 -209 -37h-496l228 1071h200l-92 -432h219zM489 180q74 0 125 23q90 41 103 100q23 106 -27.5 147.5
t-152.5 41.5h-224l-67 -312h243z" />
    <glyph glyph-name="uni0283" unicode="&#x283;" horiz-adv-x="825" 
d="M-63 -258q84 0 143 76q57 76 115 280l237 883q73 262 141 373q117 190 316 190q69 0 141 -26l-49 -162q-76 33 -109 33q-90 0 -143 -91q-51 -92 -113 -317l-176 -682q-96 -365 -210 -542t-318 -177q-64 0 -121 25l49 166q48 -29 97 -29z" />
    <glyph glyph-name="uni0284" unicode="&#x284;" horiz-adv-x="825" 
d="M-63 -258q84 0 134 66t93 192h-221l24 119h232l233 862q74 262 141 373q117 190 316 190q69 0 141 -26l-49 -162q-76 33 -109 33q-90 0 -143 -91q-51 -92 -113 -317l-176 -682q-27 -98 -53 -180h219l-24 -119h-234q-57 -147 -119 -244q-113 -176 -317 -176q-64 0 -121 25
l49 166q48 -29 97 -29z" />
    <glyph glyph-name="uni0285" unicode="&#x285;" horiz-adv-x="872" 
d="M233 983q-41 0 -118 -18l2 90q75 14 149 14q199 0 256 -104q31 -61 17 -205l-52 -486q-12 -112 22 -154t120 -42q39 0 104 14l-4 -90q-31 -4 -61.5 -8t-69.5 -4q-205 0 -262 96q-53 98 -31 297l47 377q16 125 -8 174q-20 49 -111 49z" />
    <glyph glyph-name="uni0287" unicode="&#x287;" horiz-adv-x="569" 
d="M238 1212h-31q-31 0 -51 -2l30 142q53 16 140 16q127 0 158.5 -64.5t9.5 -166.5l-150 -709h143l-30 -147h-144l-63 -299h-182l63 299h-172l31 147h172l147 698q18 86 -71 86z" />
    <glyph glyph-name="uni0288" unicode="&#x288;" horiz-adv-x="569" 
d="M164 -444q-125 0 -156 64.5t-10 166.5l242 1137h-146l33 147h145l64 299h182l-63 -299h170l-33 -147h-170l-240 -1127q-10 -55 23 -74t131 -8l-31 -141q-59 -18 -141 -18z" />
    <glyph glyph-name="uni0289" unicode="&#x289;" horiz-adv-x="1320" 
d="M510 129q294 0 381 416l16 80h-497l-56 -265q-51 -231 156 -231zM821 158q-150 -187 -377 -187q-358 0 -278 371l59 283h-170l31 141h170l66 305h184l-66 -305h498l66 305h180l-66 -305h197l-31 -141h-197l-131 -625h-170z" />
    <glyph glyph-name="uni028A" unicode="&#x28a;" horiz-adv-x="1126" 
d="M438.5 0q-243.5 0 -344 140t-57.5 340t156.5 307.5t212.5 142.5h-273l31 141h409l-30 -141q-287 -153 -346 -430q-35 -164 33.5 -254t239.5 -90t277.5 90t139.5 242q63 287 -160 442l31 141h409l-30 -141h-273q82 -35 150.5 -142.5t29.5 -287.5q-47 -221 -204.5 -360.5
t-401 -139.5z" />
    <glyph glyph-name="uni028C" unicode="&#x28c;" horiz-adv-x="1024" 
d="M670 0l-103 870l-483 -870h-197l629 1069h193l170 -1069h-209z" />
    <glyph glyph-name="uni028D" unicode="&#x28d;" horiz-adv-x="1478" 
d="M1120 0l-28 844l-387 -844h-201l-35 838l-395 -838h-180l536 1069h186l46 -827l385 827h186l84 -1069h-197z" />
    <glyph glyph-name="uni028E" unicode="&#x28e;" horiz-adv-x="1024" 
d="M953 1352q-70 0 -115 -57t-125 -193l164 -1102h-205l-103 872l-473 -872h-198q238 426 526 920q244 410 327 499.5t238 89.5q60 0 107 -14l-35 -164q-67 21 -108 21z" />
    <glyph glyph-name="uni028F" unicode="&#x28f;" horiz-adv-x="1015" 
d="M135 1071h232l135 -516l354 516h234l-517 -639l-90 -432h-198l90 432z" />
    <glyph glyph-name="uni0292" unicode="&#x292;" horiz-adv-x="1024" 
d="M258 -434q-198 0 -280 108.5t-66 321.5h174q0 -119 34 -198t144 -79q147 0 252.5 60.5t139.5 221.5t3.5 299t-202.5 138l-101 -10h-231l651 473h-661l35 166h892l-34 -166l-426 -311q145 -27 223 -148q104 -158 45 -440q-49 -229 -221.5 -332.5t-370.5 -103.5z" />
    <glyph glyph-name="uni0294" unicode="&#x294;" 
d="M798 1489q206 0 300 -112.5t55 -289.5q-23 -106 -79 -171.5t-194 -175.5t-180.5 -175t-146.5 -565h-178q109 516 161 604t191 201l96 80q115 84 144 205q20 98 -23 169.5t-178 71.5q-168 0 -258 -123q-49 -70 -84 -198h-178q47 215 196.5 347t355.5 132z" />
    <glyph glyph-name="uni0295" unicode="&#x295;" 
d="M791 1489q206 0 300.5 -132t47.5 -347h-178q23 129 2 198q-37 123 -205 123q-135 0 -209 -71.5t-92 -155.5q-28 -132 51 -219l63 -80q90 -113 105.5 -201t-92.5 -604h-178q104 500 89.5 564.5t-87.5 158.5q-106 127 -136 192.5t-8 171.5q39 176 180 289t347 113z" />
    <glyph glyph-name="uni0296" unicode="&#x296;" 
d="M482 0q-206 0 -300 131t-49 348h178q-20 -131 0 -198q37 -125 205 -125q135 0 209 71.5t91 156.5t-9 148q-12 37 -43 72l-64 78q-90 115 -105 202t95 605h178q-106 -502 -91 -566.5t105 -174.5t119 -176t7 -173q-37 -174 -178.5 -286.5t-347.5 -112.5z" />
    <glyph glyph-name="uni0297" unicode="&#x297;" horiz-adv-x="1028" 
d="M655 1102q180 0 275.5 -88t70.5 -303h-174q6 100 -38 164.5t-168 64.5q-172 0 -308 -287q-90 -199 -125 -359t-9 -360t173 -200q212 0 322 256h174q-146 -410 -543 -410q-211 0 -295 193t-8 549t258 568t395 212z" />
    <glyph glyph-name="uni0298" unicode="&#x298;" horiz-adv-x="1593" 
d="M741 848h209l-45 -219h-209zM965 1331q-231 0 -408.5 -155.5t-241.5 -460.5q-53 -246 35 -413t358 -167t428.5 188.5t211.5 440.5t-49.5 409.5t-333.5 157.5zM664 -43q-352 0 -496 223q-126 216 -60 530t259 527q249 273 629 273t513 -250q105 -194 37 -512t-278 -535
q-252 -256 -604 -256z" />
    <glyph glyph-name="uni029A" unicode="&#x29a;" horiz-adv-x="1021" 
d="M347 121q52 0 62.5 1t43 4t92.5 26q57 27 104 81q90 109 124 270t9 269q-39 168 -211 168v4q-208 -4 -237 -143q-18 -80 27 -122t159 -42l-45 -143q-251 0 -293 -199q-18 -88 47.5 -131t117.5 -43zM350 -20q-174 0 -277.5 83.5t-74.5 225.5q25 106 102.5 178t192.5 102
q-82 41 -115 99t-9 170q23 112 147 185t288 73l125 -11q131 -20 180 -100q92 -221 37 -479q-43 -207 -141 -309.5t-177 -145.5t-235 -69q-20 -2 -43 -2z" />
    <glyph glyph-name="uni029C" unicode="&#x29c;" horiz-adv-x="1220" 
d="M266 1071h201l-88 -412h483l88 412h201l-227 -1071h-201l106 502h-483l-106 -502h-201z" />
    <glyph glyph-name="uni029E" unicode="&#x29e;" horiz-adv-x="1024" 
d="M807 -397h-172l182 852l-559 -455h-229l493 401l-291 670h232l219 -541l180 140l86 401h172z" />
    <glyph glyph-name="uni029F" unicode="&#x29f;" horiz-adv-x="1007" 
d="M260 1071h199l-191 -897h545l-37 -174h-743z" />
    <glyph glyph-name="uni02A0" unicode="&#x2a0;" horiz-adv-x="1234" 
d="M441 121q183 0 290 176q59 95 90 241t8 238q-37 160 -221 160q-117 0 -222 -101.5t-153 -314.5q-28 -137 -10 -231q35 -168 218 -168zM620 1096q198 0 279 -158l33 152q25 117 74 176q84 98 260 98q29 0 71 -6l-32 -156q-121 -4 -150 -21.5t-47 -109.5h2l-319 -1497h-183
l117 549q-129 -158 -354 -158q-172 0 -278.5 134.5t-50.5 400.5t218 431t360 165z" />
    <glyph glyph-name="uni02A1" unicode="&#x2a1;" 
d="M766 1331q-168 0 -258 -123q-49 -70 -84 -198h-178q47 215 196.5 347t355.5 132t300 -112.5t55 -289.5q-23 -106 -79 -171.5t-194 -175.5t-182 -177q-23 -35 -61 -196h229l-26 -119h-234q-25 -106 -53 -248h-178q29 139 53 248h-229l26 119h234q47 188 76 237
q53 88 192 201l96 80q115 84 144 205q20 98 -23 169.5t-178 71.5z" />
    <glyph glyph-name="uni02A2" unicode="&#x2a2;" 
d="M790 1489q204 0 299 -132t48 -347h-179q25 129 3 198q-37 123 -203 123q-135 0 -210 -71.5t-93 -155.5q-27 -126 51 -219l63 -80q92 -113 107 -201q10 -49 -21 -237h232l-27 -119h-227q-20 -109 -49 -248h-178q29 141 49 248h-234l27 119h229q25 162 19 196
q-14 67 -104 177t-121 175.5t-9 171.5q39 176 181.5 289t346.5 113z" />
    <glyph glyph-name="uni02A3" unicode="&#x2a3;" horiz-adv-x="1906" 
d="M1647 909h-572l-147 -690zM455 119q125 0 228 107.5t146 309.5t-19 300t-191 98t-236 -104t-147 -292t8.5 -303.5t210.5 -115.5zM752 150q-159 -189 -387 -189q-180 0 -278.5 150.5t-47.5 393.5t207.5 414t378.5 171q122 -1 194 -52q41 -31 86 -104l117 541h174l-86 -404
h813l-33 -147l-792 -762h649l-33 -162h-993z" />
    <glyph glyph-name="uni02A4" unicode="&#x2a4;" horiz-adv-x="1910" 
d="M422 119q125 0 228.5 107.5t146.5 309.5t-20.5 300t-191.5 98t-234.5 -104t-146.5 -292t8 -303.5t210 -115.5zM592 1090q123 0 194 -52q41 -31 86 -104l117 541h174l-88 -408h867l-35 -166l-424 -311q143 -27 223 -148q104 -158 45 -440q-49 -229 -222 -332.5
t-371 -103.5t-279.5 108.5t-67.5 321.5h174q2 -119 35 -198t145 -79q145 0 252 60.5t141 221.5t2 299t-204 138l-101 -10h-231l651 473h-635l-190 -901h-162l31 150q-159 -189 -387 -189q-180 0 -278.5 150.5t-47.5 393.5t208 414t378 171z" />
    <glyph glyph-name="uni02A6" unicode="&#x2a6;" horiz-adv-x="1376" 
d="M778 111q100 0 185.5 44t103.5 134q16 70 -39 104q-33 23 -141 51l-137 37q-127 33 -185 76q-100 74 -73 203q20 92 75 164h-145l-148 -699q-12 -55 14 -70t77 -16h20q-31 86 -12 197h172q-10 -90 16 -137q49 -88 217 -88zM969 1100q244 0 319 -144q47 -90 25 -192h-170
q6 59 -21 110q-49 70 -200 70q-102 0 -163 -39t-74 -105t44 -110q37 -25 111 -43l112 -29q184 -47 240 -92q90 -68 59 -213t-162 -249.5t-361 -104.5t-306 109l-8 12l-17 -80q-66 -16 -141 -16q-125 0 -156.5 64.5t-9.5 166.5l150 709h-146l33 147h145l64 299h182l-63 -299
h170l-25 -110q27 23 53 45q131 94 316 94z" />
    <glyph glyph-name="uni02A7" unicode="&#x2a7;" horiz-adv-x="1081" 
d="M274 225q-12 -55 16 -71t122 -15l211 785h-201zM1098 1544q67 0 139 -26l-49 -162q-76 33 -109 33q-90 0 -143 -91q-51 -92 -113 -317l-176 -682q-96 -365 -210 -542t-318 -177q-68 0 -123 25l49 166q48 -29 98 -29q85 0 135 66t91 186q-50 -10 -113 -10
q-125 0 -156.5 64.5t-9.5 166.5l150 709h-146l33 147h145l64 299h182l-63 -299h211q59 193 114 283q117 190 318 190z" />
    <glyph glyph-name="uni02A9" unicode="&#x2a9;" horiz-adv-x="1486" 
d="M1161 1096q217 0 264 -160q27 -86 -8 -250l-180 -846q-25 -117 -76 -174q-84 -98 -260 -98q-25 0 -72 6l33 156q123 4 150.5 21.5t48.5 109.5l31 139h-5l144 676q54 258 -150 258q-63 0 -123 -18t-126 -78q-64 -60 -88.5 -116t-47.5 -161l-118 -561h-181l195 924h-166
l-195 -924h-178l195 924h-148l31 143h148l36 168q27 111 74 164q82 92 262 92q32 0 76 -4l-35 -164l-63 2q-82 0 -107.5 -43t-62.5 -215h164l2 4h172l-33 -151q180 176 397 176z" />
    <glyph glyph-name="uni02AA" unicode="&#x2aa;" horiz-adv-x="1218" 
d="M614 111q100 0 185.5 44t103.5 134q16 70 -39 104q-33 23 -141 51l-137 37q-130 33 -184 74t-70 94l-68 -313h117q-10 -90 16 -137q49 -88 217 -88zM805 1100q244 0 319 -144q45 -90 25 -192h-172q8 59 -21 110q-47 70 -198 70q-102 0 -164 -39t-75 -105t46 -110
q37 -25 111 -43l112 -29q184 -47 240 -92q90 -68 59 -213t-161.5 -249.5t-361.5 -104.5t-306 109q-23 31 -35 67l-28 -135h-181l312 1468h180l-123 -575q41 63 106 113q131 94 316 94z" />
    <glyph glyph-name="uni02AB" unicode="&#x2ab;" horiz-adv-x="1208" 
d="M942 909h-555l-143 -669zM326 1468h180l-84 -397h797l-33 -147l-793 -762h649l-32 -162h-996z" />
    <glyph glyph-name="uni02AC" unicode="&#x2ac;" horiz-adv-x="878" 
d="M315 1468l17 -501l231 501h121l16 -497l238 497h106l-319 -637h-111l-26 494l-230 -494h-110l-49 637h116zM139 637l17 -502l231 502h121l16 -500l238 500h106l-319 -637h-111l-26 494l-230 -494h-110l-49 637h116z" />
    <glyph glyph-name="uni02AD" unicode="&#x2ad;" horiz-adv-x="1361" 
d="M1427 1427l-129 -604h-110l100 477h-921l-101 -477h-110l129 604h1142zM1251 602l-127 -602h-110l100 475h-921l-101 -475h-110l127 602h1142z" />
    <glyph glyph-name="uni02AE" unicode="&#x2ae;" horiz-adv-x="1208" 
d="M281 1329q176 0 219 -96q24 -56 -2 -186h6l-144 -674q-25 -119 -6 -174q31 -88 154 -88t230.5 76.5t152.5 291.5l121 568h180l-313 -1473h-181l117 547q-81 -80 -159 -125t-210 -45q-233 0 -280 162q-25 90 8 247l51 242h-2l92 436q20 92 -1 109.5t-140 21.5l33 156
q33 2 47 3t27 1z" />
    <glyph glyph-name="uni02AF" unicode="&#x2af;" horiz-adv-x="1323" 
d="M446 -49q-233 0 -280 162q-25 90 8 247l51 242h-2l92 436q20 92 -1 109.5t-140 21.5l33 156q33 2 47 3t27 1q176 0 219 -96q24 -56 -2 -186h6l-144 -674q-25 -119 -6 -174q31 -88 154 -88t230.5 76.5t152.5 291.5l121 568h180l-256 -1205h-2q-14 -76 6.5 -92t138.5 -20
l-32 -156q-46 -6 -72 -6q-176 0 -219 98q-27 57 -2 174l59 279q-78 -80 -137 -113q-98 -55 -230 -55z" />
    <glyph glyph-name="uni02B0" unicode="&#x2b0;" horiz-adv-x="569" 
d="M469 1280q180 0 139 -207l-73 -344h-95l72 338q12 59 4 86q-14 45 -76 45t-116 -39t-76 -145l-62 -285h-90l158 737h90l-59 -272q43 41 69 55q49 31 115 31z" />
    <glyph glyph-name="uni02B1" unicode="&#x2b1;" horiz-adv-x="569" 
d="M469 1280q180 0 139 -207l-73 -344h-95l72 338q12 59 4 86q-14 45 -76 45t-116 -39t-76 -145l-62 -285h-90l135 637q12 57 37 86q43 49 131 49q6 0 13.5 -1t21.5 -1l-16 -78q-59 -2 -73.5 -11t-25.5 -54l-34 -162q43 41 69 55q49 31 115 31z" />
    <glyph glyph-name="uni02B2" unicode="&#x2b2;" horiz-adv-x="227" 
d="M4 514h-11q-11 0 -26 2l17 78q61 2 74.5 11t23.5 54l129 605h90l-131 -615q-12 -57 -37 -86q-41 -49 -129 -49zM322 1362h-91l21 102h90z" />
    <glyph glyph-name="uni02B3" unicode="&#x2b3;" horiz-adv-x="342" 
d="M426 1184q-68 0 -113 -44t-57 -102l-66 -309h-90l115 537h84l-20 -92q18 27 67 65.5t100 38.5h8q9 0 23 -2l-20 -96q-16 4 -31 4z" />
    <glyph glyph-name="uni02B4" unicode="&#x2b4;" horiz-adv-x="342" 
d="M127 729q-2 0 -7 1t-22 1l21 96q8 -2 9 -2h22q68 0 113.5 43t58.5 101l65 309h90l-115 -537h-86l21 93q-16 -27 -65.5 -66t-104.5 -39z" />
    <glyph glyph-name="uni02B5" unicode="&#x2b5;" horiz-adv-x="452" 
d="M383 514h-18q-88 0 -111 49q-12 29 0 86l37 176q-17 -25 -63 -61t-101 -35q-2 0 -7 1t-22 1l21 96q8 -2 9 -2h22q68 0 113.5 43t58.5 101l65 309h90l-131 -619q-10 -45 0 -54t70 -11l-17 -78q-14 -2 -16 -2z" />
    <glyph glyph-name="uni02B6" unicode="&#x2b6;" horiz-adv-x="765" 
d="M514 1163q138 0 168 94l33 127q17 61 33 84h165l-4 -16q-27 -10 -41 -45q-12 -23 -22 -66l-25 -102q-14 -45 -42.5 -74.5t-80.5 -68.5q94 -59 67 -186q-26 -128 -142 -175q-63 -27 -152 -26h-352l162 759h143l-66 -305h156zM461 838q53 0 90 16q66 29 74 70
q16 76 -21 105.5t-108 29.5h-160l-47 -221h172z" />
    <glyph glyph-name="uni02B7" unicode="&#x2b7;" horiz-adv-x="739" 
d="M254 1266l12 -422l195 422h100l14 -420l201 420h90l-270 -537h-94l-21 416l-194 -416h-92l-41 537h100z" />
    <glyph glyph-name="uni02B8" unicode="&#x2b8;" horiz-adv-x="512" 
d="M63 598q46 -8 65 -8q20 0 48 28q2 4 26.5 41t35.5 56l-82 551h102l51 -437l238 437h98q-191 -336 -288 -501t-139 -210t-120 -45q-32 0 -53 6z" />
    <glyph glyph-name="uni02B9" unicode="&#x2b9;" horiz-adv-x="342" 
d="M485 1464l-254 -577h-69l213 577h110z" />
    <glyph glyph-name="uni02BA" unicode="&#x2ba;" horiz-adv-x="634" 
d="M735 1464l-254 -577h-69l213 577h110zM485 1464l-254 -577h-69l213 577h110z" />
    <glyph glyph-name="uni02BB" unicode="&#x2bb;" horiz-adv-x="454" 
d="M365 1180h108l-47 -217h-215l43 200q27 119 96.5 212t186.5 108l-19 -94q-57 -8 -97 -61.5t-56 -123.5v-24z" />
    <glyph glyph-name="uni02BC" unicode="&#x2bc;" horiz-adv-x="454" 
d="M420 1251h-109l47 217h213l-43 -200q-27 -127 -98.5 -217t-181.5 -103l20 94q57 8 97.5 61.5t54.5 123.5v24z" />
    <glyph glyph-name="uni02BD" unicode="&#x2bd;" horiz-adv-x="454" 
d="M416 1251l-6 -24q-14 -70 3 -123t68 -62l-20 -94q-104 12 -138 102.5t-8 217.5l43 200h213l-47 -217h-108z" />
    <glyph glyph-name="uni02BE" unicode="&#x2be;" horiz-adv-x="425" 
d="M270 1208l17 82q53 0 98 38t57 89q10 51 -18.5 88t-81.5 37l16 84q86 0 135.5 -61.5t31 -147.5t-93.5 -147.5t-161 -61.5z" />
    <glyph glyph-name="uni02BF" unicode="&#x2bf;" horiz-adv-x="425" 
d="M479 1208q-86 0 -134 61.5t-29.5 147.5t92 147.5t159.5 61.5l-16 -84q-51 0 -96 -37t-57 -88t17 -89t81 -38z" />
    <glyph glyph-name="uni02C0" unicode="&#x2c0;" horiz-adv-x="569" 
d="M494 1475q102 0 149 -56.5t32 -126.5t-45 -103.5t-98 -88.5t-89 -87t-74 -284h-88q55 260 80.5 303t95.5 101l49 38q59 53 69 103q10 49 -11 86t-97 37t-119 -64q-27 -33 -41 -98h-90q23 109 99 174.5t178 65.5z" />
    <glyph glyph-name="uni02C1" unicode="&#x2c1;" horiz-adv-x="569" 
d="M489 1475q102 0 149.5 -66t25.5 -174h-91q10 66 2 98q-20 63 -96 63t-112.5 -36.5t-46.5 -78.5q-10 -43 2 -67t24 -43l33 -38q45 -57 53 -100.5t-47 -303.5h-90q53 252 46 283.5t-52 87.5t-59.5 88.5t-2.5 85.5q18 88 89 144.5t173 56.5z" />
    <glyph glyph-name="uni02C2" unicode="&#x2c2;" horiz-adv-x="598" 
d="M111 1032l630 230l-18 -91l-516 -180l440 -180l-20 -90l-535 229z" />
    <glyph glyph-name="uni02C3" unicode="&#x2c3;" horiz-adv-x="598" 
d="M676 948l-633 -227l20 90l515 180l-439 180l19 91l536 -230z" />
    <glyph glyph-name="uni02C4" unicode="&#x2c4;" horiz-adv-x="598" 
d="M498 1284l104 -586h-90l-78 480l-282 -480h-91l355 586h82z" />
    <glyph glyph-name="uni02C5" unicode="&#x2c5;" horiz-adv-x="598" 
d="M289 698l-103 586h90l78 -477l283 477h90l-354 -586h-84z" />
    <glyph glyph-name="circumflex" unicode="&#x2c6;" horiz-adv-x="454" 
d="M334 1497h176l154 -293h-152l-104 191l-179 -191h-168z" />
    <glyph glyph-name="caron" unicode="&#x2c7;" horiz-adv-x="454" 
d="M467 1204h-176l-158 293h156l104 -190l191 190h159z" />
    <glyph glyph-name="uni02C8" unicode="&#x2c8;" horiz-adv-x="391" 
d="M307 1458h101l-66 -311h-100z" />
    <glyph glyph-name="uni02C9" unicode="&#x2c9;" horiz-adv-x="454" 
d="M51 1397h699l-23 -113h-698z" />
    <glyph glyph-name="uni02CA" unicode="&#x2ca;" horiz-adv-x="681" 
d="M793 1501l-328 -289h-139l245 289h222z" />
    <glyph glyph-name="uni02CB" unicode="&#x2cb;" horiz-adv-x="681" 
d="M596 1212h-137l-207 289h223z" />
    <glyph glyph-name="uni02CC" unicode="&#x2cc;" horiz-adv-x="391" 
d="M-33 -141h101l-66 -312h-100z" />
    <glyph glyph-name="uni02CD" unicode="&#x2cd;" horiz-adv-x="681" 
d="M-156 -201h637l-24 -116h-637z" />
    <glyph glyph-name="uni02CE" unicode="&#x2ce;" horiz-adv-x="681" 
d="M256 -387h-137l-207 289h223z" />
    <glyph glyph-name="uni02CF" unicode="&#x2cf;" horiz-adv-x="681" 
d="M453 -98l-328 -289h-139l245 289h222z" />
    <glyph glyph-name="uni02D0" unicode="&#x2d0;" horiz-adv-x="425" 
d="M113 954h370l-14 -59l-221 -311h-62l-88 311zM276 -16h-370l12 59l221 311h62l88 -311z" />
    <glyph glyph-name="uni02D1" unicode="&#x2d1;" horiz-adv-x="425" 
d="M49 655h371l-14 -59l-222 -313h-61l-88 313z" />
    <glyph glyph-name="uni02D2" unicode="&#x2d2;" horiz-adv-x="425" 
d="M100 408l19 84q53 0 97 36.5t55 88.5t-17.5 89t-81.5 37l16 82q86 0 135 -61.5t31 -147.5t-93 -147t-161 -61z" />
    <glyph glyph-name="uni02D3" unicode="&#x2d3;" horiz-adv-x="425" 
d="M309 408q-86 0 -134 61t-32 147q18 86 93 147.5t161 61.5l-16 -82q-51 0 -96 -36.5t-57 -88.5t18 -89t82 -37z" />
    <glyph glyph-name="uni02D4" unicode="&#x2d4;" horiz-adv-x="598" 
d="M444 0h-522l17 84h219l94 438h84l-94 -438h219z" />
    <glyph glyph-name="uni02D5" unicode="&#x2d5;" horiz-adv-x="598" 
d="M33 522h522l-18 -84h-220l-92 -438h-84l92 438h-219z" />
    <glyph glyph-name="uni02D6" unicode="&#x2d6;" horiz-adv-x="598" 
d="M-33 219l19 84h219l47 219h84l-47 -219h219l-19 -84h-219l-45 -219h-84l45 219h-219z" />
    <glyph glyph-name="uni02D7" unicode="&#x2d7;" horiz-adv-x="681" 
d="M76 532h502l-21 -94h-502z" />
    <glyph glyph-name="breve" unicode="&#x2d8;" horiz-adv-x="454" 
d="M399 1325q96 0 151.5 40t84.5 132h92q-18 -137 -111.5 -211t-229.5 -74t-208 72t-67 213h92q2 -94 51 -133t145 -39z" />
    <glyph glyph-name="dotaccent" unicode="&#x2d9;" horiz-adv-x="454" 
d="M324 1425h182l-43 -213h-182z" />
    <glyph glyph-name="ring" unicode="&#x2da;" horiz-adv-x="454" 
d="M268 1355.5q0 -59.5 40 -99t99.5 -39.5t99.5 39.5t40 99t-40 99.5t-99.5 40t-99.5 -40t-40 -99.5zM176 1356q0 47 18.5 89t50 73.5t73.5 50t89.5 18.5t89.5 -18.5t73.5 -50t50 -73.5t18.5 -89t-18.5 -89t-50 -74t-73.5 -50.5t-89.5 -18.5t-89.5 18.5t-73.5 50.5t-50 74
t-18.5 89z" />
    <glyph glyph-name="ogonek" unicode="&#x2db;" horiz-adv-x="454" 
d="M-53 -283q0 130 258 287h137q-70 -35 -164 -118t-94 -136q0 -76 78 -76t145 50l76 -25q-103 -127 -231 -127q-102 0 -153.5 33t-51.5 112z" />
    <glyph glyph-name="tilde" unicode="&#x2dc;" horiz-adv-x="454" 
d="M47 1223q72 223 201 223q43 0 82 -16.5t78 -33.5t71.5 -32.5t59.5 -11.5q47 0 66.5 24.5t37.5 59.5h105q-30 -99 -78 -161.5t-131 -62.5q-46 0 -121.5 35t-110.5 49.5t-57 10.5q-66 0 -96 -84h-107z" />
    <glyph glyph-name="hungarumlaut" unicode="&#x2dd;" horiz-adv-x="454" 
d="M217 1497h232l-279 -293h-143zM557 1497h231l-278 -293h-143z" />
    <glyph glyph-name="uni02DE" unicode="&#x2de;" horiz-adv-x="847" 
d="M501 549q5 -31 38 -41q54 -16 109 15.5t91 84.5q8 -12 18.5 -20t19.5 -15.5t19.5 -14.5t18.5 -19q-86 -144 -264 -156q-111 -8 -160 61.5t-18 194.5q-60 -13 -174 -51t-191 -49l27 120q123 37 251 73t251 73q2 -45 -11.5 -93t-21.5 -90t-3 -73z" />
    <glyph glyph-name="uni02DF" unicode="&#x2df;" horiz-adv-x="598" 
d="M184 1182l72 59l150 -190l229 190l49 -59l-231 -191l151 -188l-76 -62l-149 191l-229 -191l-46 62l230 188z" />
    <glyph glyph-name="uni02E0" unicode="&#x2e0;" horiz-adv-x="569" 
d="M289 766l-82 354q-6 41 -12 60q-10 14 -31 13t-27 -3l17 74q18 8 62 9t67 -50q6 -18 10 -43l63 -310l242 394h96l-313 -498l-51 -238h-92z" />
    <glyph glyph-name="uni02E1" unicode="&#x2e1;" horiz-adv-x="227" 
d="M254 1464h90l-156 -735h-90z" />
    <glyph glyph-name="uni02E2" unicode="&#x2e2;" horiz-adv-x="512" 
d="M286 784q144 0 160 90q8 35 -16 54q-18 10 -74 24l-67 19q-63 16 -92 37q-51 38 -36 108t80 117t171 47t147 -72q23 -45 10 -98h-84q4 33 -10 57q-25 35 -88 35q-118 0 -131 -72q-8 -35 16 -51t62 -26l55 -15q92 -23 123 -45q43 -35 28 -107t-80.5 -124.5t-181.5 -52.5
t-154 54t-24 134h88q-6 -43 7 -68q25 -45 91 -45z" />
    <glyph glyph-name="uni02E3" unicode="&#x2e3;" horiz-adv-x="512" 
d="M160 1266h116l84 -189l164 189l111 -2l-238 -260l131 -275h-114l-90 203l-172 -203h-115l248 275z" />
    <glyph glyph-name="uni02E4" unicode="&#x2e4;" horiz-adv-x="569" 
d="M489 1475q102 0 149.5 -66t25.5 -174h-91q10 66 2 98q-20 63 -96 63t-112.5 -36.5t-46.5 -78.5q-10 -43 2 -67t24 -43l33 -38q45 -57 53 -100.5t-47 -303.5h-90q53 252 46 283.5t-52 87.5t-59.5 88.5t-2.5 85.5q18 88 89 144.5t173 56.5z" />
    <glyph glyph-name="uni02E5" unicode="&#x2e5;" horiz-adv-x="843" 
d="M489 0l281 1323h-612l30 145h785l-311 -1468h-173z" />
    <glyph glyph-name="uni02E6" unicode="&#x2e6;" horiz-adv-x="843" 
d="M489 0l209 991h-612l33 148h612l70 329h172l-311 -1468h-173z" />
    <glyph glyph-name="uni02E7" unicode="&#x2e7;" horiz-adv-x="843" 
d="M489 0l140 662h-613l31 147h612l142 659h172l-311 -1468h-173z" />
    <glyph glyph-name="uni02E8" unicode="&#x2e8;" horiz-adv-x="843" 
d="M973 1468l-311 -1468h-173l70 330h-612l30 147h613l211 991h172z" />
    <glyph glyph-name="uni02E9" unicode="&#x2e9;" horiz-adv-x="843" 
d="M973 1468l-311 -1468h-785l31 147h612l281 1321h172z" />
    <glyph glyph-name="uni02EA" unicode="&#x2ea;" horiz-adv-x="630" 
d="M164 1071h84l-213 -997h487l-14 -74h-571z" />
    <glyph glyph-name="uni02EB" unicode="&#x2eb;" horiz-adv-x="630" 
d="M164 1071h84l-107 -500h488l-17 -73h-487l-105 -498h-83z" />
    <glyph glyph-name="uni02EC" unicode="&#x2ec;" horiz-adv-x="681" 
d="M217 -387h-190l-142 289h162l94 -193l176 193h164z" />
    <glyph glyph-name="uni02ED" unicode="&#x2ed;" horiz-adv-x="681" 
d="M117 1169h702l-24 -116h-703zM166 1401h702l-24 -119h-703z" />
    <glyph glyph-name="uni02EE" unicode="&#x2ee;" horiz-adv-x="681" 
d="M176 1042q78 14 123 109q27 57 29 100h-109l47 217h213l-43 -200q-25 -119 -93.5 -211t-186.5 -109zM512 1042q78 14 121 109q27 57 31 100h-109l47 217h215l-43 -200q-25 -119 -94.5 -212t-187.5 -108z" />
    <glyph glyph-name="uni02EF" unicode="&#x2ef;" horiz-adv-x="598" 
d="M33 -502l-103 586h90l80 -477l281 477h90l-354 -586h-84z" />
    <glyph glyph-name="uni02F0" unicode="&#x2f0;" horiz-adv-x="598" 
d="M242 84l104 -586h-90l-78 479l-282 -479h-89l353 586h82z" />
    <glyph glyph-name="uni02F1" unicode="&#x2f1;" horiz-adv-x="598" 
d="M-143 -168l630 229l-18 -90l-516 -180l438 -180l-18 -90l-533 229z" />
    <glyph glyph-name="uni02F2" unicode="&#x2f2;" horiz-adv-x="598" 
d="M420 -252l-629 -227l19 90l514 180l-439 180l19 90l534 -229z" />
    <glyph glyph-name="uni02F3" unicode="&#x2f3;" horiz-adv-x="681" 
d="M209 27q86 0 135 -61.5t30.5 -147.5t-93 -147.5t-160.5 -61.5t-133 61.5t-29 147.5t91 147.5t159 61.5zM138 -309q52 0 97.5 36.5t56.5 88.5t-17.5 89.5t-80.5 37.5t-97.5 -37t-56.5 -89t17.5 -89t80.5 -37z" />
    <glyph glyph-name="uni02F4" unicode="&#x2f4;" horiz-adv-x="681" 
d="M465 594h-137l-207 289h223z" />
    <glyph glyph-name="uni02F5" unicode="&#x2f5;" horiz-adv-x="681" 
d="M737 592h-127l-164 291h216zM403 592h-127l-161 291h213z" />
    <glyph glyph-name="uni02F6" unicode="&#x2f6;" horiz-adv-x="681" 
d="M252 883h215l-289 -291h-125zM584 883h215l-285 -291h-129z" />
    <glyph glyph-name="uni02F7" unicode="&#x2f7;" horiz-adv-x="681" 
d="M485.5 62.5q-69.5 -48.5 -127.5 -48.5t-122 27l-50 18q-93 33 -127 33q-75 0 -106 -92h-98q80 221 256 221q69 0 178 -51q63 -25 106 -25q73 0 103 93h106q-49 -127 -118.5 -175.5z" />
    <glyph glyph-name="uni02F8" unicode="&#x2f8;" horiz-adv-x="569" 
d="M238 631h208l-47 -219h-209zM416 1468h209l-47 -217h-209z" />
    <glyph glyph-name="uni02F9" unicode="&#x2f9;" horiz-adv-x="681" 
d="M379 1468h301l-16 -73h-218l-102 -488h-84z" />
    <glyph glyph-name="uni02FA" unicode="&#x2fa;" horiz-adv-x="681" 
d="M561 907h-84l103 488h-218l17 73h301z" />
    <glyph glyph-name="uni02FB" unicode="&#x2fb;" horiz-adv-x="681" 
d="M186 561h84l-104 -487h217l-14 -74h-301z" />
    <glyph glyph-name="uni02FC" unicode="&#x2fc;" horiz-adv-x="681" 
d="M369 0h-301l14 74h217l104 487h84z" />
    <glyph glyph-name="uni02FD" unicode="&#x2fd;" horiz-adv-x="681" 
d="M-68 -16l64 301h74l-45 -217h415l45 217h74l-63 -301h-564z" />
    <glyph glyph-name="uni02FE" unicode="&#x2fe;" horiz-adv-x="681" 
d="M25 68h489l-18 -84h-564l64 301h74z" />
    <glyph glyph-name="uni02FF" unicode="&#x2ff;" horiz-adv-x="1159" 
d="M-55 231l630 230l-36 -172h548l-24 -119h-549l-35 -170l-536 229z" />
    <glyph glyph-name="gravecmb" unicode="&#x300;" horiz-adv-x="0" 
d="M-90 1204l-207 293h207l137 -293h-137z" />
    <glyph glyph-name="acutecmb" unicode="&#x301;" horiz-adv-x="0" 
d="M250 1497l-279 -293h-143l190 293h232z" />
    <glyph glyph-name="circumflexcmb" unicode="&#x302;" horiz-adv-x="0" 
d="M57 1497l154 -293h-152l-104 191l-178 -191h-168l272 293h176z" />
    <glyph glyph-name="tildecmb" unicode="&#x303;" horiz-adv-x="0" 
d="M-406 1223q72 223 201 223q43 0 82 -16.5t78 -33.5t71.5 -32.5t59.5 -11.5q47 0 66.5 24.5t37.5 59.5h105q-31 -101 -78 -162.5t-131 -61.5q-46 0 -121.5 35t-110 49.5t-57.5 10.5q-66 0 -96 -84h-107z" />
    <glyph glyph-name="macroncmb" unicode="&#x304;" horiz-adv-x="0" 
d="M231 1382l-22 -112h-553l25 112h550z" />
    <glyph glyph-name="uni0305" unicode="&#x305;" horiz-adv-x="0" 
d="M-745 1401h702l-25 -119h-702z" />
    <glyph glyph-name="brevecmb" unicode="&#x306;" horiz-adv-x="0" 
d="M-54 1325q96 0 152 40t84 132h92q-18 -137 -111 -211t-229 -74t-208 72t-68 213h92q2 -94 51 -133t145 -39z" />
    <glyph glyph-name="dotaccentcmb" unicode="&#x307;" horiz-adv-x="0" 
d="M53 1425l-43 -213h-182l43 213h182z" />
    <glyph glyph-name="dieresiscmb" unicode="&#x308;" horiz-adv-x="0" 
d="M223 1425l-43 -213h-182l43 213h182zM-111 1425l-43 -213h-182l43 213h182z" />
    <glyph glyph-name="uni0309" unicode="&#x309;" horiz-adv-x="0" 
d="M-384 1620q99 0 136 -80q25 -49 -8.5 -120.5t-144.5 -94.5l-13 -43h-88l15 76q61 6 113 45.5t30 88t-92 48.5q-24 0 -64 -6l13 80q23 2 45 4t58 2z" />
    <glyph glyph-name="ringcmb" unicode="&#x30a;" horiz-adv-x="0" 
d="M-184 1355.5q0 -59.5 40 -99t99 -39.5t99 39.5t40 99t-40 99.5t-99 40t-99 -40t-40 -99.5zM-276 1356q0 47 18 89t50 73.5t74 50t89 18.5t89 -18.5t74 -50t50 -73.5t18 -89t-18 -89t-50 -74t-74 -50.5t-89 -18.5t-89 18.5t-74 50.5t-50 74t-18 89z" />
    <glyph glyph-name="hungarumlautcmb" unicode="&#x30b;" horiz-adv-x="0" 
d="M-4 1497l-279 -293h-143l190 293h232zM336 1497l-279 -293h-143l190 293h232z" />
    <glyph glyph-name="caroncmb" unicode="&#x30c;" horiz-adv-x="0" 
d="M-162 1204l-157 293h155l105 -190l190 190h160l-277 -293h-176z" />
    <glyph glyph-name="uni030D" unicode="&#x30d;" horiz-adv-x="0" 
d="M-432 1458h102l-65 -311h-103z" />
    <glyph glyph-name="uni030E" unicode="&#x30e;" horiz-adv-x="0" 
d="M-328 1458h103l-66 -311h-102zM-537 1458h101l-66 -311h-100z" />
    <glyph glyph-name="uni030F" unicode="&#x30f;" horiz-adv-x="0" 
d="M-94 1210h-125l-166 291h217zM-426 1210h-127l-162 291h213z" />
    <glyph glyph-name="uni0310" unicode="&#x310;" horiz-adv-x="0" 
d="M-428 1675h188l-43 -209h-188zM-446 1223q-176 0 -228 118q-27 63 -16 158h102q4 -63 27 -96q43 -59 162 -60q174 0 243 156h97q-51 -145 -147.5 -210.5t-239.5 -65.5z" />
    <glyph glyph-name="uni0311" unicode="&#x311;" horiz-adv-x="0" 
d="M-360 1499q176 0 229 -119q25 -61 12 -157h-100q-2 63 -25 98q-43 57 -157 57t-179 -57q-39 -35 -69 -98h-101q97 276 390 276z" />
    <glyph glyph-name="uni0312" unicode="&#x312;" horiz-adv-x="0" 
d="M-442 1180h108l-47 -217h-215l43 200q27 119 96.5 212t186.5 108l-19 -94q-57 -8 -97 -61.5t-56 -123.5v-24z" />
    <glyph glyph-name="uni0313" unicode="&#x313;" horiz-adv-x="0" 
d="M-426 1227l2 24h-111l48 217h215l-43 -200q-27 -127 -99.5 -217t-183.5 -103l20 94q57 8 97.5 61.5t54.5 123.5z" />
    <glyph glyph-name="uni0314" unicode="&#x314;" horiz-adv-x="0" 
d="M-428 1251l-8 -24q-14 -70 3 -123t71 -62l-21 -94q-106 12 -140 102.5t-7 217.5l43 200h215l-47 -217h-109z" />
    <glyph glyph-name="uni0315" unicode="&#x315;" horiz-adv-x="0" 
d="M-426 1227l2 24h-111l48 217h215l-43 -200q-27 -127 -99.5 -217t-183.5 -103l20 94q57 8 97.5 61.5t54.5 123.5z" />
    <glyph glyph-name="uni0316" unicode="&#x316;" horiz-adv-x="0" 
d="M-571 -387h-138l-206 289h223z" />
    <glyph glyph-name="uni0317" unicode="&#x317;" horiz-adv-x="0" 
d="M-510 -98l-330 -289h-137l244 289h223z" />
    <glyph glyph-name="uni0318" unicode="&#x318;" horiz-adv-x="0" 
d="M-596 -383h-436l18 86h436l46 217h83l-110 -520h-84z" />
    <glyph glyph-name="uni0319" unicode="&#x319;" horiz-adv-x="0" 
d="M-995 -600h-84l110 520h84l-45 -217h436l-18 -86h-436z" />
    <glyph glyph-name="uni031A" unicode="&#x31a;" horiz-adv-x="0" 
d="M-133 1401l-64 -299h-84l45 215h-436l19 84h520z" />
    <glyph glyph-name="uni031B" unicode="&#x31b;" horiz-adv-x="0" 
d="M-668 1133q25 -59 117 -43q49 4 73 13t30 11t12 8l-21 101l219 84l39 -199l-202 -78q-117 -45 -218.5 -40t-109.5 44z" />
    <glyph glyph-name="uni031C" unicode="&#x31c;" horiz-adv-x="0" 
d="M-670 -391q-86 0 -134 61.5t-29.5 147.5t92 147.5t159.5 61.5l-16 -84q-51 0 -96.5 -37t-57.5 -89t17.5 -89t81.5 -37z" />
    <glyph glyph-name="uni031D" unicode="&#x31d;" horiz-adv-x="0" 
d="M-844 -516l92 436h86l-92 -436h217l-18 -84h-522l18 84h219z" />
    <glyph glyph-name="uni031E" unicode="&#x31e;" horiz-adv-x="0" 
d="M-989 -164l18 84h522l-18 -84h-217l-92 -436h-86l92 436h-219z" />
    <glyph glyph-name="uni031F" unicode="&#x31f;" horiz-adv-x="0" 
d="M-1034 -381l18 84h219l45 219h86l-45 -219h217l-18 -84h-217l-47 -219h-86l47 219h-219z" />
    <glyph glyph-name="uni0320" unicode="&#x320;" horiz-adv-x="0" 
d="M-1055 -201h641l-24 -116h-641z" />
    <glyph glyph-name="uni0321" unicode="&#x321;" horiz-adv-x="0" 
d="M-866 -496q-2 0 -19 2l17 78q61 2 75.5 11.5t24.5 54.5l78 362h90l-80 -370q-12 -59 -39 -88q-41 -49 -129 -50h-18z" />
    <glyph glyph-name="uni0322" unicode="&#x322;" horiz-adv-x="0" 
d="M-726 -496h-19q-88 0 -111 50q-12 29 0 88l80 370h90l-78 -362q-10 -45 1 -54.5t71 -11.5l-17 -78q-16 -2 -17 -2z" />
    <glyph glyph-name="uni0323" unicode="&#x323;" horiz-adv-x="0" 
d="M-819 -156h188l-43 -206h-188z" />
    </font>
</defs>
</svg>
