<?xml version="1.0" standalone="no"?>
<!DOCTYPE svg PUBLIC "-//W3C//DTD SVG 1.1//EN" "http://www.w3.org/Graphics/SVG/1.1/DTD/svg11.dtd" >
<svg xmlns="http://www.w3.org/2000/svg">
<metadata>
Created by FontPrep 20130207 at Wed Aug 27 20:43:55 2014
 By Mark Quirvien
Part of the digitally encoded machine readable outline data for producing the Typefaces provided is copyrighted (c) 2003 - 2006 Linotype GmbH, www.linotype.com. All rights reserved. This software is the property of Linotype GmbH, and may not be reproduced, modified, disclosed or transferred without the express written approval of Linotype GmbH. Copyright (c) 1988, 1990, 1993 Adobe Systems Incorporated. All Rights Reserved. Helvetica is a trademark of Heidelberger Druckmaschinen AG, exclusively licensed through Linotype GmbH, and may be registered in certain jurisdictions. This typeface is original artwork of Linotype Design Studio. The design may be protected in certain jurisdictions.
</metadata>
<defs>
<font id="d7af0fd9278f330eed98b60dddea7bd6" horiz-adv-x='1024' >
  <font-face 
    font-family="HelveticaNeue-Medium"
    font-weight="500"
    font-stretch="normal"
    units-per-em="2048"
    panose-1="2 11 6 4 2 2 2 2 2 4"
    ascent="1638"
    descent="-410"
    x-height="1059"
    cap-height="1462"
    bbox="-1180 -743 4069 2376"
    underline-thickness="102"
    underline-position="-102"
    unicode-range="U+0020-FE48"
  />
<missing-glyph horiz-adv-x="1228" 
d="M1151 1462v-1462h-1049v1462h1049zM1049 102v1264h-844v-1264h844z" />
    <glyph glyph-name="IJ" unicode="IJ" horiz-adv-x="1681" 
d="M156 1462h256v-1462h-256v1462zM1526 471q0 -228 -83 -348q-110 -158 -399 -158q-218 0 -327 127t-109 342v78h256v-76q0 -126 42 -194t159 -68q173 0 197 162q8 53 8 121v1005h256v-991z" />
    <glyph glyph-name="ij" unicode="ij" horiz-adv-x="970" 
d="M129 1059h233v-1059h-233v1059zM129 1462h233v-221h-233v221zM606 -80v1139h234v-1149q0 -158 -70 -244t-233 -86q-61 0 -105 8v185q37 -6 90 -8q53 -1 69 38q15 39 15 117zM606 1462h234v-221h-234v221z" />
    <glyph glyph-name="fi" unicode="fi" 
d="M774 1059h234v-1059h-234v1059zM548 1278q-54 0 -88 -22.5t-34 -88.5v-108h199v-174h-199v-885h-233v885h-175v174h175v88q0 184 79 249.5t202 65.5q124 0 175 -14v-182q-46 12 -101 12zM774 1462h234v-221h-234v221z" />
    <glyph glyph-name="fl" unicode="fl" 
d="M548 1278q-54 0 -88 -22.5t-34 -88.5v-108h199v-174h-199v-885h-233v885h-175v174h175v88q0 184 79 249.5t202 65.5q124 0 175 -14v-182q-46 12 -101 12zM774 1462h234v-1462h-234v1462z" />
    <glyph glyph-name=".notdef" horiz-adv-x="1228" 
d="M1151 1462v-1462h-1049v1462h1049zM1049 102v1264h-844v-1264h844z" />
    <glyph glyph-name=".null" horiz-adv-x="0" 
 />
    <glyph glyph-name="nonmarkingreturn" horiz-adv-x="569" 
 />
    <glyph glyph-name="space" unicode=" " horiz-adv-x="569" 
 />
    <glyph glyph-name="exclam" unicode="!" horiz-adv-x="569" 
d="M158 1462h256v-422l-68 -632h-121l-67 632v422zM147 256h275v-256h-275v256z" />
    <glyph glyph-name="quotedbl" unicode="&#x22;" horiz-adv-x="909" 
d="M170 1462h209v-577h-209v577zM530 1462h209v-577h-209v577z" />
    <glyph glyph-name="numbersign" unicode="#" 
d="M1014 430h-195l-61 -430h-164l59 430h-225l-61 -430h-164l59 430h-192v154h215l37 266h-193v154h213l59 430h166l-61 -430h227l60 430h165l-61 -430h176v-154h-196l-37 -266h174v-154zM485 850l-36 -266h227l37 266h-228z" />
    <glyph glyph-name="dollar" unicode="$" 
d="M870 393q0 148 -102 184.5t-150 49.5v-477q252 18 252 243zM202 1390.5q136 106.5 328 106.5v160h88v-160q196 0 322.5 -102.5t126.5 -296.5h-233q-4 104 -54.5 159.5t-161.5 55.5v-432q235 -64 360.5 -160t125.5 -305q0 -210 -136 -326.5t-350 -124.5v-160h-88v160
q-224 4 -361.5 130t-133.5 349h233q-4 -286 262 -294v495q-211 58 -337.5 152t-126.5 291q0 196 136 302.5zM530 1313q-111 0 -171 -46t-60 -144t62.5 -146.5t168.5 -73.5v410z" />
    <glyph glyph-name="percent" unicode="%" horiz-adv-x="2048" 
d="M1329 1483h156l-793 -1532h-160zM1497 -29q-133 0 -217 113t-84 295q0 280 126 343.5t256 63.5t216 -114t86 -293q0 -282 -125 -345t-258 -63zM1380 379q0 -193 56.5 -234t119 -41t101.5 77t39 163q0 151 -36.5 230t-158 79t-121.5 -274zM469 647q-133 0 -217 113
t-84 295q0 280 126 343.5t256 63.5t216 -114t86 -293q0 -282 -125 -345t-258 -63zM352 1055q0 -193 56.5 -234t119 -41t101.5 77t39 163q0 152 -37 230.5t-158 78.5t-121 -274z" />
    <glyph glyph-name="ampersand" unicode="&#x26;" horiz-adv-x="1327" 
d="M619 1323q-67 0 -111.5 -44t-44.5 -111t32.5 -117t56 -78.5t44.5 -54.5q86 60 129 108.5t43 124.5t-41 124t-108 48zM535 156q154 0 207 70.5t69 92.5l-287 357q-33 -20 -129 -72.5t-96 -207.5q0 -114 66.5 -177t169.5 -63zM66 406q0 253 335 423q-76 96 -111.5 166
t-35.5 152q0 158 103.5 254t255.5 96q153 0 258.5 -93t105.5 -257q0 -227 -264 -371l227 -274q34 100 45 196h205q-22 -210 -115 -358l281 -340h-287l-133 164q-158 -193 -410 -193q-203 0 -331.5 115t-128.5 320z" />
    <glyph glyph-name="quotesingle" unicode="'" horiz-adv-x="569" 
d="M180 1462h209v-577h-209v577z" />
    <glyph glyph-name="parenleft" unicode="(" horiz-adv-x="569" 
d="M334 540.5q0 -503.5 252 -931.5h-191q-144 231 -219.5 449.5t-75.5 494.5q0 490 295 944h191q-252 -453 -252 -956.5z" />
    <glyph glyph-name="parenright" unicode=")" horiz-adv-x="569" 
d="M236 561.5q0 503.5 -252 935.5h190q138 -221 193 -381t78.5 -289t23.5 -276q0 -492 -295 -942h-190q252 449 252 952.5z" />
    <glyph glyph-name="asterisk" unicode="*" horiz-adv-x="757" 
d="M309 1462h140v-245l223 88l49 -134l-234 -77l144 -193l-109 -80l-145 201l-139 -201l-115 80l143 193l-227 77l45 134l225 -88v245z" />
    <glyph glyph-name="plus" unicode="+" horiz-adv-x="1228" 
d="M510 1036h209v-413h411v-209h-411v-414h-209v414h-412v209h412v413z" />
    <glyph glyph-name="comma" unicode="," horiz-adv-x="569" 
d="M141 276h285v-276q-2 -127 -78 -213t-198 -111v125q68 16 101.5 74.5t31.5 124.5h-142v276z" />
    <glyph glyph-name="hyphen" unicode="-" horiz-adv-x="796" 
d="M100 668h596v-222h-596v222z" />
    <glyph glyph-name="period" unicode="." horiz-adv-x="569" 
d="M141 276h285v-276h-285v276z" />
    <glyph glyph-name="slash" unicode="/" horiz-adv-x="720" 
d="M543 1497h223l-588 -1532h-223z" />
    <glyph glyph-name="zero" unicode="0" 
d="M569 166q262 0 262 551t-262 551t-262 -470t92 -551t170 -81zM569.5 1462q153.5 0 251 -70.5t151.5 -180t73.5 -240.5t19.5 -254t-19.5 -254t-73.5 -240.5t-151.5 -180.5t-251 -71t-251 71t-151.5 180.5t-73.5 240.5t-19.5 254t19.5 254t73.5 240.5t151.5 180t251 70.5z
" />
    <glyph glyph-name="one" unicode="1" 
d="M109 1196q252 0 328.5 86t88.5 152h191v-1434h-256v1012h-352v184z" />
    <glyph glyph-name="two" unicode="2" 
d="M1059 0h-979q4 330 315 543q70 51 248.5 164.5t183.5 306.5q0 101 -35.5 152t-82.5 76.5t-120 25.5q-133 0 -189 -97.5t-60 -261.5h-234q0 248 132 400.5t365 152.5t345.5 -135.5t112.5 -304.5q0 -220 -147.5 -345.5t-252 -192t-190 -130.5t-111.5 -145h699v-209z" />
    <glyph glyph-name="three" unicode="3" 
d="M1018 1079q0 -235 -203 -307v-4q123 -25 191.5 -122.5t68.5 -217.5q0 -217 -149 -337t-375 -120t-354 134t-134 366h234q-4 -131 64.5 -218t195.5 -87t206 66.5t79 189.5q0 150 -102.5 199.5t-272.5 44.5v174q215 -8 266 75.5t51 162.5t-62 134.5t-142 55.5
q-134 0 -197 -87.5t-59 -205.5h-234q8 210 135 348.5t323 138.5t333 -100t137 -283z" />
    <glyph glyph-name="four" unicode="4" 
d="M1069 340h-184v-340h-221v340h-615v231l615 863h221v-910h184v-184zM664 524v631h-5l-430 -631h435z" />
    <glyph glyph-name="five" unicode="5" 
d="M356 856q97 109 282 109q89 0 173 -36t171 -133.5t87 -304.5t-127.5 -363.5t-354.5 -156.5t-367 114t-148 323h233q10 -117 80 -179.5t164 -62.5t190.5 46.5t96.5 268.5q0 127 -69 213t-204 86q-183 0 -231 -131h-234l154 785h741v-209h-567l-74 -365z" />
    <glyph glyph-name="six" unicode="6" 
d="M583.5 166q63.5 0 110.5 25.5t79 66.5t47.5 95.5t15.5 111.5t-15.5 110.5t-47.5 93.5t-79 64.5t-110.5 24.5t-111.5 -23.5t-81 -63.5t-49 -93.5t-16 -112.5t16 -112.5t49 -95.5t81 -66.5t111.5 -24.5zM614 1268q-78 0 -124 -23.5t-88.5 -76.5t-64 -147t-34.5 -245l4 -4
q47 86 130 128t184 42q203 0 325.5 -135t122.5 -347q0 -211 -133 -350t-344 -139q-294 0 -408 199.5t-114 523.5q0 514 194.5 641t356.5 127t287.5 -109.5t133.5 -281.5h-233q-8 88 -62.5 142.5t-132.5 54.5z" />
    <glyph glyph-name="seven" unicode="7" 
d="M72 1434h981v-195q-359 -403 -440 -723.5t-95 -515.5h-256q23 326 170 641.5t383 583.5h-743v209z" />
    <glyph glyph-name="eight" unicode="8" 
d="M569.5 156q116.5 0 194.5 69.5t78 192.5t-78 189.5t-194.5 66.5t-194.5 -66.5t-78 -189.5t78 -192.5t194.5 -69.5zM204.5 93.5q-141.5 122.5 -141.5 328.5q0 135 71 227t192 123v4q-98 37 -150.5 114t-52.5 181q0 184 115.5 287.5t330.5 103.5t331 -103.5t116 -287.5
q0 -104 -52.5 -181t-150.5 -114v-4q121 -31 191.5 -122.5t70.5 -211.5t-38 -204t-141.5 -173.5t-326.5 -89.5t-364.5 122.5zM569.5 1278q-94.5 0 -160 -56.5t-65.5 -160.5t63.5 -158.5t162 -54.5t162 54t63.5 158t-65.5 161t-160 57z" />
    <glyph glyph-name="nine" unicode="9" 
d="M366.5 1182.5q-63.5 -85.5 -63.5 -207.5q0 -200 93 -250.5t158 -50.5q126 0 192.5 88.5t66.5 211.5t-67.5 208.5t-191.5 85.5t-187.5 -85.5zM540 166q94 0 149.5 50t86.5 125t42 160t18 156l-5 5q-47 -84 -129 -128.5t-182 -44.5q-200 0 -325 131.5t-125 348.5t130.5 355
t362.5 138q409 0 457.5 -297t48.5 -439q0 -310 -130.5 -532.5t-410.5 -222.5q-170 0 -297 110.5t-135 280.5h234q8 -88 62 -142t148 -54z" />
    <glyph glyph-name="colon" unicode=":" horiz-adv-x="569" 
d="M141 1036h285v-276h-285v276zM141 276h285v-276h-285v276z" />
    <glyph glyph-name="semicolon" unicode=";" horiz-adv-x="569" 
d="M141 276h285v-276q-2 -127 -78 -213t-198 -111v125q68 16 101.5 74.5t31.5 124.5h-142v276zM141 1036h285v-276h-285v276z" />
    <glyph glyph-name="less" unicode="&#x3c;" horiz-adv-x="1228" 
d="M1135 -16l-1041 460v148l1041 461v-209l-766 -326l766 -325v-209z" />
    <glyph glyph-name="equal" unicode="=" horiz-adv-x="1228" 
d="M1130 621h-1032v208h1032v-208zM1130 207h-1032v209h1032v-209z" />
    <glyph glyph-name="greater" unicode="&#x3e;" horiz-adv-x="1228" 
d="M860 518l-766 326v209l1041 -461v-148l-1041 -460v209z" />
    <glyph glyph-name="question" unicode="?" 
d="M100 997q0 228 134 364t342 136t335 -110t127 -296t-73.5 -252.5t-109.5 -97.5q-94 -81 -135.5 -145.5t-41.5 -198.5h-221q0 173 36.5 258t122.5 158q33 29 99.5 83.5t66.5 162.5q0 128 -66.5 186t-133.5 58q-127 0 -187.5 -83t-60.5 -223h-234zM426 256h274v-256h-274
v256z" />
    <glyph glyph-name="at" unicode="@" horiz-adv-x="1638" 
d="M732 442q123 0 205.5 122t82.5 243q0 71 -47.5 125.5t-112.5 54.5q-121 0 -203 -116t-82 -242q0 -82 44.5 -134.5t112.5 -52.5zM850 1141q155 0 229 -148l37 117h144l-148 -539q-18 -56 -18 -98.5t43 -42.5t91 34t109.5 129.5t61.5 278.5q0 224 -158 358t-402 134
q-243 0 -409 -177t-166 -455q0 -279 171.5 -456.5t434.5 -177.5q135 0 256 53.5t205 149.5h144q-98 -160 -260.5 -248t-336.5 -88t-313 58.5t-242.5 163t-163 250t-59.5 311.5t60.5 300t163 234t238.5 157.5t282 57.5t269.5 -44t217.5 -124t150.5 -190.5t56.5 -252.5
t-52 -257t-127 -191t-159 -113.5t-138 -37.5t-89 29.5t-39 89.5h-4q-41 -47 -102.5 -82t-125.5 -35q-129 0 -215 94.5t-86 209.5q0 219 127 383.5t322 164.5z" />
    <glyph glyph-name="A" unicode="A" horiz-adv-x="1366" 
d="M457 582h446l-219 628h-6zM547 1462h272l563 -1462h-274l-137 387h-584l-137 -387h-264z" />
    <glyph glyph-name="B" unicode="B" horiz-adv-x="1441" 
d="M412 209h452q117 0 181.5 60.5t64.5 170.5t-64.5 168t-181.5 58h-452v-457zM1300 1100q0 -223 -208 -312v-4q135 -29 204.5 -128t69.5 -248q0 -286 -198.5 -347t-340.5 -61h-671v1462h710q197 0 315.5 -90t118.5 -272zM412 850h417q92 0 153.5 52t61.5 157t-55 149.5
t-160 44.5h-417v-403z" />
    <glyph glyph-name="C" unicode="C" horiz-adv-x="1478" 
d="M778 1288q-222 0 -333 -163.5t-111 -393.5t111 -393.5t333 -163.5q164 0 260 106.5t113 276.5h250q-16 -262 -186.5 -427t-436.5 -165q-320 0 -510 220.5t-190 544.5t138 484t268 221.5t274 61.5q275 0 445.5 -133.5t195.5 -366.5h-256q-74 291 -365 291z" />
    <glyph glyph-name="D" unicode="D" horiz-adv-x="1478" 
d="M412 209h252q403 0 445 206t42 386t-103.5 316t-383.5 136h-252v-1044zM156 1462h606q325 0 485 -205.5t160 -526t-160.5 -525.5t-484.5 -205h-606v1462z" />
    <glyph glyph-name="E" unicode="E" horiz-adv-x="1290" 
d="M156 1462h1052v-221h-796v-383h737v-209h-737v-428h811v-221h-1067v1462z" />
    <glyph glyph-name="F" unicode="F" horiz-adv-x="1214" 
d="M156 1462h1009v-221h-753v-383h661v-209h-661v-649h-256v1462z" />
    <glyph glyph-name="G" unicode="G" horiz-adv-x="1554" 
d="M1432 0h-164l-39 172q-102 -117 -204.5 -162t-251.5 -45t-278.5 60.5t-268 220.5t-138.5 484t138.5 484t268.5 221.5t271 61.5q271 0 446.5 -130.5t202.5 -369.5h-250q-19 139 -125.5 215t-237.5 76t-215.5 -47t-138 -126t-79 -179t-25.5 -267.5t111 -331t333 -163.5
q193 -4 299.5 102.5t110.5 298.5h-389v195h623v-770z" />
    <glyph glyph-name="H" unicode="H" horiz-adv-x="1478" 
d="M150 1462h256v-581h665v581h256v-1462h-256v659h-665v-659h-256v1462z" />
    <glyph glyph-name="I" unicode="I" horiz-adv-x="569" 
d="M156 1462h256v-1462h-256v1462z" />
    <glyph glyph-name="J" unicode="J" horiz-adv-x="1099" 
d="M944 471q0 -228 -96.5 -367t-384.5 -139q-220 0 -328 127.5t-108 341.5v78h256v-76q0 -125 42 -193.5t158 -68.5q173 0 189 107.5t16 175.5v1005h256v-991z" />
    <glyph glyph-name="K" unicode="K" horiz-adv-x="1402" 
d="M156 1462h256v-665l651 665h315l-583 -583l624 -879h-319l-479 698l-209 -206v-492h-256v1462z" />
    <glyph glyph-name="L" unicode="L" horiz-adv-x="1175" 
d="M156 1462h256v-1241h743v-221h-999v1462z" />
    <glyph glyph-name="M" unicode="M" horiz-adv-x="1820" 
d="M152 1462h360l403 -1145h5l393 1145h356v-1462h-244v1128h-4l-405 -1128h-211l-406 1128h-4v-1128h-243v1462z" />
    <glyph glyph-name="N" unicode="N" horiz-adv-x="1478" 
d="M145 1462h271l667 -1077h4v1077h244v-1462h-270l-666 1075h-6v-1075h-244v1462z" />
    <glyph glyph-name="O" unicode="O" horiz-adv-x="1556" 
d="M778 1497q164 0 294 -61.5t268.5 -222.5t138.5 -483t-190.5 -543.5t-510.5 -221.5t-510 220.5t-190 544.5t138 484t268 221.5t294 61.5zM778.5 1288q-116.5 0 -201.5 -47t-138.5 -126t-79 -179t-25.5 -204.5t25.5 -205t79 -179.5t138.5 -126t201.5 -47t201.5 47t138 126
t79 179.5t26 205t-26 204.5t-79 179t-138 126t-201.5 47z" />
    <glyph glyph-name="P" unicode="P" horiz-adv-x="1366" 
d="M1042 1012q0 241 -251 241h-379v-483h374q100 0 178 57t78 185zM156 1462h645q281 0 389 -136.5t108 -374t-171 -314t-326 -76.5h-389v-561h-256v1462z" />
    <glyph glyph-name="Q" unicode="Q" horiz-adv-x="1556" 
d="M1096 324q127 152 127 393t-110.5 406t-333.5 165t-334 -163.5t-111 -393.5t111 -393.5t333 -163.5q92 0 164 35l-147 129l123 141zM78 730q0 324 138 484t268 221.5t294 61.5t294 -61.5t268.5 -222.5t138.5 -482q0 -251 -76 -380.5t-131 -180.5l188 -164l-125 -139
l-213 186q-154 -88 -331 -88q-333 0 -523 220.5t-190 544.5z" />
    <glyph glyph-name="R" unicode="R" horiz-adv-x="1441" 
d="M831 797q250 0 250 233q0 188 -102 205.5t-152 17.5h-415v-456h419zM1313 385q0 -297 80 -385h-275q-29 47 -34 104.5t-5 133.5q0 188 -60.5 276t-230.5 88h-376v-602h-256v1462h698q242 0 362.5 -104.5t120.5 -287.5t-71.5 -256t-111.5 -91t-58 -25v-4
q140 -17 178.5 -120t38.5 -189z" />
    <glyph glyph-name="S" unicode="S" horiz-adv-x="1327" 
d="M324 487q0 -160 103 -236.5t263 -76.5t237 63.5t77 152.5t-38 129.5t-100 62.5t-165 47.5t-226 58.5t-237.5 106.5t-114.5 264.5q0 215 158 326.5t388 111.5t390 -124.5t160 -342.5h-256q-10 141 -96.5 199.5t-219.5 58.5q-175 0 -221.5 -68t-46.5 -134t48 -110t126 -67
q13 -3 136.5 -36t190 -50t116.5 -33t157 -94.5t107 -271.5q0 -229 -170 -344t-424 -115t-424 131.5t-174 390.5h256z" />
    <glyph glyph-name="T" unicode="T" horiz-adv-x="1214" 
d="M16 1462h1184v-221h-465v-1241h-256v1241h-463v221z" />
    <glyph glyph-name="U" unicode="U" horiz-adv-x="1478" 
d="M139 1462h256v-852q0 -74 7.5 -149.5t41 -136t102 -99.5t193.5 -39t193.5 39t102.5 99.5t41 136.5t7 149v852h256v-936q0 -273 -160.5 -417t-439 -144t-439.5 144t-161 417v936z" />
    <glyph glyph-name="V" unicode="V" horiz-adv-x="1251" 
d="M-10 1462h266l367 -1157h4l374 1157h261l-500 -1462h-285z" />
    <glyph glyph-name="W" unicode="W" horiz-adv-x="1933" 
d="M12 1462h260l265 -1118h4l295 1118h262l286 -1118h5l272 1118h260l-403 -1462h-261l-292 1118h-4l-299 -1118h-265z" />
    <glyph glyph-name="X" unicode="X" horiz-adv-x="1327" 
d="M29 1462h305l332 -516l346 516h286l-483 -704l518 -758h-311l-365 559l-370 -559h-293l518 758z" />
    <glyph glyph-name="Y" unicode="Y" horiz-adv-x="1327" 
d="M793 0h-256v573l-549 889h297l387 -655l381 655h286l-546 -889v-573z" />
    <glyph glyph-name="Z" unicode="Z" horiz-adv-x="1290" 
d="M113 1462h1112v-194l-852 -1047h872v-221h-1198v209l852 1032h-786v221z" />
    <glyph glyph-name="bracketleft" unicode="[" horiz-adv-x="606" 
d="M147 1497h457v-184h-235v-1520h235v-184h-457v1888z" />
    <glyph glyph-name="backslash" unicode="\" horiz-adv-x="720" 
d="M766 -35h-223l-588 1532h223z" />
    <glyph glyph-name="bracketright" unicode="]" horiz-adv-x="606" 
d="M459 -391h-457v184h236v1520h-236v184h457v-1888z" />
    <glyph glyph-name="asciicircum" unicode="^" horiz-adv-x="1228" 
d="M172 686l369 748h147l369 -748h-209l-234 506l-233 -506h-209z" />
    <glyph glyph-name="underscore" unicode="_" horiz-adv-x="1024" 
d="M0 -256v102h1024v-102h-1024z" />
    <glyph glyph-name="grave" unicode="`" horiz-adv-x="493" 
d="M215 1499l186 -293h-170l-290 293h274z" />
    <glyph glyph-name="a" unicode="a" 
d="M366 188.5q67 -32.5 127 -32.5q117 0 200 50.5t83 149.5v174q-53 -35 -130.5 -42t-135.5 -17t-92.5 -21.5t-76.5 -42.5t-42 -109q0 -77 67 -109.5zM1010 236q0 -80 44 -80h25q25 0 43 4v-162q-81 -27 -147 -27q-155 0 -180 129q-70 -68 -171.5 -98.5t-184.5 -30.5
q-163 0 -268 80t-105 230q0 250 166.5 285.5t240.5 43.5q63 12 120.5 17.5t127.5 24.5t70 108q0 143 -223 143q-95 0 -158.5 -41t-71.5 -127h-234q11 187 144.5 269.5t337.5 82.5q283 0 353.5 -111.5t70.5 -195.5v-544z" />
    <glyph glyph-name="b" unicode="b" horiz-adv-x="1251" 
d="M867 792.5q-77 110.5 -220 110.5t-218 -102.5t-75 -272.5q0 -254 113 -313t189 -59t131 32.5t106 108t51 230.5t-77 265.5zM350 145v-145h-221v1462h233v-540h5q76 119 173 142t142 23q240 0 368 -159t128 -397q0 -237 -117.5 -398.5t-339.5 -161.5q-278 0 -367 174h-4z
" />
    <glyph glyph-name="c" unicode="c" 
d="M596 903q-190 0 -240.5 -131.5t-50.5 -225.5q0 -176 69.5 -283t211.5 -107q102 0 168.5 63.5t83.5 177.5h233q-33 -207 -156.5 -316.5t-328.5 -109.5q-241 0 -377.5 152.5t-136.5 399.5t135.5 405.5t386.5 158.5q193 0 327.5 -97.5t149.5 -284.5h-233q-14 98 -79 148
t-163 50z" />
    <glyph glyph-name="d" unicode="d" horiz-adv-x="1251" 
d="M380 262.5q75 -106.5 220 -106.5t220 112t75 275t-79 261.5t-221 98.5t-216 -111.5t-74 -267.5q0 -155 75 -261.5zM895 143q-88 -172 -340 -172q-113 0 -206 44t-185 157.5t-92 374.5q0 260 133.5 400t314.5 140t258.5 -61t104.5 -104h4v540h233v-1462h-221v143h-4z" />
    <glyph glyph-name="e" unicode="e" 
d="M590 156q196 0 258 176h221q-35 -168 -167 -264.5t-312 -96.5q-244 0 -381 152.5t-137 395.5t141 405.5t371 162.5q125 0 224 -52t164.5 -138t95.5 -197.5t15 -230.5h-778q0 -133 73.5 -223t211.5 -90zM583 903q-120 0 -197 -81t-81 -199h545q-13 185 -110 232.5
t-157 47.5z" />
    <glyph glyph-name="f" unicode="f" horiz-adv-x="645" 
d="M548 1278q-54 0 -88 -22.5t-34 -88.5v-108h199v-174h-199v-885h-233v885h-175v174h175v88q0 184 79 249.5t202 65.5q124 0 175 -14v-182q-46 12 -101 12z" />
    <glyph glyph-name="g" unicode="g" horiz-adv-x="1214" 
d="M798 802.5q-70 100.5 -214 100.5q-145 0 -212 -108.5t-67 -255.5t72 -251t212 -104t209.5 107t69.5 259t-70 252.5zM596 -246q272 0 272 271v161h-4q-49 -88 -134.5 -137t-197.5 -49q-224 0 -342 156t-118 390t130.5 387.5t348.5 153.5q100 0 184 -41.5t129 -132.5h4v146
h234v-1004q0 -240 -134 -357.5t-386 -117.5q-296 0 -380.5 119t-92.5 211h233q27 -134 118 -145t136 -11z" />
    <glyph glyph-name="h" unicode="h" horiz-adv-x="1175" 
d="M123 1462h233v-542h4q43 72 128 119.5t190 47.5q174 0 274.5 -90t100.5 -270v-727h-234v666q-4 125 -53 181t-159 56t-180.5 -81t-70.5 -197v-625h-233v1462z" />
    <glyph glyph-name="i" unicode="i" horiz-adv-x="493" 
d="M129 1059h233v-1059h-233v1059zM129 1462h233v-221h-233v221z" />
    <glyph glyph-name="j" unicode="j" horiz-adv-x="493" 
d="M35 -236q63 0 78.5 39t15.5 117v1139h233v-1149q0 -158 -69.5 -244t-233.5 -86q-60 0 -104 8v185q52 -9 80 -9zM129 1462h233v-221h-233v221z" />
    <glyph glyph-name="k" unicode="k" horiz-adv-x="1099" 
d="M129 1462h233v-831l422 428h287l-405 -389l444 -670h-285l-323 514l-140 -135v-379h-233v1462z" />
    <glyph glyph-name="l" unicode="l" horiz-adv-x="493" 
d="M129 1462h233v-1462h-233v1462z" />
    <glyph glyph-name="m" unicode="m" horiz-adv-x="1781" 
d="M123 1059h221v-148h6q62 90 135 133t180 43t190 -43t118 -133q59 82 137 129t195 47q168 0 261 -81.5t93 -274.5v-731h-234v618q0 152 -23.5 198t-62.5 66.5t-106 20.5q-119 0 -172 -73.5t-53 -208.5v-621h-234v680q0 111 -40 167t-140 56t-169 -74t-69 -200v-629h-233
v1059z" />
    <glyph glyph-name="n" unicode="n" horiz-adv-x="1175" 
d="M123 1059h221v-156l4 -4q53 88 139 138t191 50q174 0 274.5 -90t100.5 -270v-727h-234v666q-4 125 -53 181t-159 56t-180.5 -81t-70.5 -197v-625h-233v1059z" />
    <glyph glyph-name="o" unicode="o" horiz-adv-x="1214" 
d="M909 531q0 152 -76.5 262t-223.5 110t-224.5 -110t-77.5 -262t77 -263.5t225 -111.5t224 111.5t76 263.5zM74 530q0 250 143 403.5t391.5 153.5t391.5 -154.5t143 -402.5q0 -249 -143.5 -404t-391 -155t-391 154.5t-143.5 404.5z" />
    <glyph glyph-name="p" unicode="p" horiz-adv-x="1251" 
d="M867 792.5q-77 110.5 -220 110.5t-218 -102.5t-75 -272.5q0 -254 113 -313t189 -59t131 32.5t106 108t51 230.5t-77 265.5zM354 915q92 172 340 172q114 0 206.5 -44t185 -159t92.5 -353q0 -237 -117.5 -398.5t-339.5 -161.5q-172 0 -250 61.5t-104 104.5h-5v-528h-233
v1450h221v-144h4z" />
    <glyph glyph-name="q" unicode="q" horiz-adv-x="1251" 
d="M379 263.5q74 -107.5 222 -107.5q149 0 221.5 103t72.5 273t-75 270.5t-217 100.5t-220 -110.5t-78 -265.5q0 -156 74 -263.5zM1120 -391h-233v528h-4q-112 -166 -344 -166t-349.5 160.5t-117.5 399.5t127.5 397.5t367.5 158.5q102 0 190.5 -39.5t137.5 -132.5h4v144h221
v-1450z" />
    <glyph glyph-name="r" unicode="r" horiz-adv-x="720" 
d="M632 866q-48 0 -100.5 -23.5t-114 -96t-61.5 -242.5v-504h-233v1059h219v-205h4q20 84 111.5 158.5t197.5 74.5q40 0 88 -6v-225q-63 10 -111 10z" />
    <glyph glyph-name="s" unicode="s" horiz-adv-x="1062" 
d="M540 903q-218 0 -218 -108q0 -76 77.5 -103.5t139 -40t125.5 -26.5q157 -34 250.5 -101t93.5 -209q0 -174 -143 -259t-330 -85q-324 0 -395.5 137.5t-73.5 231.5h233q18 -184 240 -184q157 0 197 47t38 92t-32.5 73.5t-79 46t-109.5 30t-126 26.5q-155 33 -247 99.5
t-92 218.5q0 151 131.5 224.5t310.5 73.5q281 0 357 -118.5t86 -206.5h-244q-16 84 -76.5 112.5t-112.5 28.5z" />
    <glyph glyph-name="t" unicode="t" horiz-adv-x="681" 
d="M456 -10q-142 0 -200 61t-63 209v625h-177v174h177v317h233v-317h211v-174h-211v-566q0 -81 20.5 -113t88.5 -32t102 8v-180q-117 -12 -181 -12z" />
    <glyph glyph-name="u" unicode="u" horiz-adv-x="1175" 
d="M1053 0h-230v147h-4q-43 -80 -128 -128t-173 -48q-209 0 -302 103.5t-93 312.5v672h233v-649q0 -139 53.5 -196.5t138.5 -57.5q146 0 208.5 75.5t62.5 212.5v615h234v-1059z" />
    <glyph glyph-name="v" unicode="v" horiz-adv-x="1062" 
d="M18 1059h254l269 -813h4l258 813h241l-378 -1059h-263z" />
    <glyph glyph-name="w" unicode="w" horiz-adv-x="1593" 
d="M27 1059h247l207 -791h4l199 791h236l190 -791h4l215 791h238l-332 -1059h-240l-196 786h-4l-195 -786h-246z" />
    <glyph glyph-name="x" unicode="x" horiz-adv-x="1099" 
d="M408 557l-367 502h283l221 -326l231 326h271l-361 -490l406 -569h-281l-268 391l-260 -391h-275z" />
    <glyph glyph-name="y" unicode="y" horiz-adv-x="1062" 
d="M233 -225q60 0 93.5 37.5t54.5 109.5l27 82l-402 1055h256l277 -791h4l268 791h244l-412 -1116q-29 -72 -56.5 -137.5t-91.5 -145.5t-227 -80q-82 0 -162 12v197q102 -14 127 -14z" />
    <glyph glyph-name="z" unicode="z" horiz-adv-x="1024" 
d="M86 1059h860v-164l-606 -711h637v-184h-932v164l586 710h-545v185z" />
    <glyph glyph-name="braceleft" unicode="{" horiz-adv-x="606" 
d="M-8 645q111 0 151.5 52.5t40.5 97.5v422q0 129 89.5 204.5t172.5 75.5h187v-184h-113q-69 0 -91.5 -40.5t-22.5 -103.5v-399q0 -108 -72.5 -158.5t-140.5 -56.5v-4q131 -11 172 -82.5t41 -144.5v-387q0 -99 37.5 -121.5t76.5 -22.5h113v-184h-187q-83 0 -172.5 75.5
t-89.5 204.5v406q0 88 -65.5 127t-126.5 39v184z" />
    <glyph glyph-name="bar" unicode="|" horiz-adv-x="454" 
d="M123 1610h209v-2048h-209v2048z" />
    <glyph glyph-name="braceright" unicode="}" horiz-adv-x="606" 
d="M86 -207q115 0 115 144v399q0 109 67 155.5t146 59.5v4q-81 6 -147 53.5t-66 173.5v387q0 98 -38 121t-77 23h-113v184h187q84 0 173 -75t89 -205v-406q0 -89 63.5 -127.5t128.5 -38.5v-184q-59 0 -125.5 -35t-66.5 -115v-422q0 -130 -89 -205t-173 -75h-187v184h113z
" />
    <glyph glyph-name="asciitilde" unicode="~" horiz-adv-x="1228" 
d="M397 692q77 0 181 -45t159.5 -69.5t91.5 -24.5t61 13.5t46.5 32.5t40 44t37.5 49l73 -172q-59 -84 -115 -130t-127 -46t-121 19.5t-100 48.5q-122 71 -232 71t-177 -139l-74 172q85 176 256 176z" />
    <glyph glyph-name="uni007F.controlDEL" horiz-adv-x="0" 
 />
    <glyph glyph-name="uni00A0" unicode="&#xa0;" horiz-adv-x="569" 
 />
    <glyph glyph-name="exclamdown" unicode="&#xa1;" horiz-adv-x="569" 
d="M414 -375h-256v418l67 637h121l68 -637v-418zM422 831h-275v256h275v-256z" />
    <glyph glyph-name="cent" unicode="&#xa2;" 
d="M368.5 278.5q59.5 -104.5 180.5 -122.5v747q-126 -11 -183 -125.5t-57 -254.5t59.5 -244.5zM637 -29v-184h-88v184q-215 0 -344 157.5t-129 403.5t133 400.5t340 154.5v185h88v-185q174 0 299 -105t137 -277h-233q-10 88 -65.5 143t-137.5 55v-747q186 32 211 241h233
q-35 -195 -144.5 -310.5t-299.5 -115.5z" />
    <glyph glyph-name="sterling" unicode="&#xa3;" 
d="M1135 80q-137 -115 -303 -115q-74 0 -124.5 11.5t-103.5 19.5q-131 41 -199 41q-140 0 -223 -70l-108 166q140 94 180.5 189.5t40.5 168.5t-43 162h-189v133h130q-97 118 -97 300q0 85 41 163t144.5 163t293.5 85q236 0 374 -126t141 -380h-234q-19 312 -276 312
q-94 0 -161 -61.5t-67 -178.5q0 -72 31 -144.5t63 -132.5h302v-133h-252q32 -61 32 -127q-1 -116 -53.5 -192.5t-152.5 -153.5l4 -4q47 18 92 36.5t104 18.5t126 -24t101.5 -35.5t81.5 -11.5q108 0 199 78z" />
    <glyph glyph-name="currency" unicode="&#xa4;" 
d="M55 725.5q0 185.5 103 284.5l-117 125l117 116l116 -114q51 43 132 68.5t165 25.5t160 -25.5t123 -66.5l119 116l125 -125l-115 -118q96 -100 96 -286.5t-98 -305.5l113 -121l-113 -113l-117 119q-106 -102 -295 -102t-299 100l-114 -119l-115 115l117 125
q-103 116 -103 301.5zM776.5 931.5q-81.5 90.5 -205.5 90.5q-123 0 -209 -89.5t-86 -216.5t85 -215.5t209.5 -88.5t206 90.5t81.5 214.5t-81.5 214.5z" />
    <glyph glyph-name="yen" unicode="&#xa5;" 
d="M453 338h-281v133h281v139h-281v133h201l-383 719h260l319 -655l326 655h254l-385 -719h203v-133h-281v-139h281v-133h-281v-338h-233v338z" />
    <glyph glyph-name="brokenbar" unicode="&#xa6;" horiz-adv-x="454" 
d="M123 330h209v-512h-209v512zM123 1354h209v-512h-209v512z" />
    <glyph glyph-name="section" unicode="&#xa7;" 
d="M874 465q0 45 -28.5 84t-114.5 86l-340 194q-55 -16 -90 -60t-35 -103q0 -96 113 -160l373 -209q122 53 122 168zM879 193q112 -97 112 -259q0 -169 -119 -261.5t-299 -92.5q-181 0 -303.5 112t-126.5 308h222q17 -236 215 -236q178 0 178 166q0 99 -82.5 159t-210.5 125
q-127 65 -273.5 152.5t-146.5 272.5q0 212 221 305q-45 47 -66.5 94t-21.5 121t36 138.5t122 132t255 67.5t285.5 -105.5t116.5 -281.5h-221q-4 86 -54 144.5t-126 58.5t-128 -41.5t-52 -101.5t29.5 -98t76.5 -71.5t108.5 -63.5t173.5 -87.5t204 -143.5t92 -219
q0 -93 -63 -179.5t-154 -114.5z" />
    <glyph glyph-name="dieresis" unicode="&#xa8;" horiz-adv-x="493" 
d="M539 1454v-221h-234v221h234zM-47 1233v221h233v-221h-233z" />
    <glyph glyph-name="copyright" unicode="&#xa9;" horiz-adv-x="1638" 
d="M1571 731q0 -172 -60.5 -313.5t-164 -241.5t-239.5 -155.5t-294 -55.5t-296 58.5t-237.5 161t-155.5 242.5t-56 308t60 309.5t163.5 241.5t241 155.5t287.5 55.5t286.5 -55.5t240 -155.5t164 -241.5t60.5 -313.5zM1238 1187q-169 177 -419 177q-251 0 -419.5 -178
t-168.5 -451t163 -455t419 -182t425 177t169 456t-169 456zM500 433.5q-88 95.5 -88 292.5t117.5 321t312.5 124q141 0 242.5 -78.5t121.5 -230.5h-139q-16 78 -76.5 127t-137.5 49q-134 0 -206 -86.5t-72 -223.5t76 -232t182 -95q105 0 164.5 51.5t69.5 131.5h141
q-23 -141 -123.5 -228.5t-254.5 -87.5q-82 0 -162 35t-168 130.5z" />
    <glyph glyph-name="ordfeminine" unicode="&#xaa;" horiz-adv-x="778" 
d="M326 897q174 0 174 109v90q-31 -16 -78 -23.5t-94 -15.5t-82 -26.5t-35 -63.5t34 -57.5t81 -12.5zM649 764q-53 0 -85 21.5t-42 78.5q-41 -67 -124.5 -83.5t-123.5 -16.5q-96 0 -168.5 50.5t-72.5 139.5q0 144 113.5 170.5t157.5 33.5q96 15 146 28.5t50 48.5
q0 61 -34 77.5t-91 16.5t-97 -17.5t-45 -68.5h-174q11 116 102 167.5t226 51.5q193 0 242 -69.5t49 -120.5v-309q0 -23 6 -36t20 -11t22.5 2t18.5 2v-140q-43 -16 -96 -16z" />
    <glyph glyph-name="guillemotleft" unicode="&#xab;" horiz-adv-x="948" 
d="M102 442v230l318 252v-211l-195 -156l195 -156v-211zM508 442v230l317 252v-211l-194 -156l194 -156v-211z" />
    <glyph glyph-name="logicalnot" unicode="&#xac;" horiz-adv-x="1228" 
d="M922 621h-824v208h1032v-608h-208v400z" />
    <glyph glyph-name="uni00AD" unicode="&#xad;" horiz-adv-x="796" 
d="M100 668h596v-222h-596v222z" />
    <glyph glyph-name="registered" unicode="&#xae;" horiz-adv-x="1638" 
d="M670 293h-140v848h322q154 0 231.5 -57.5t77.5 -179.5t-63.5 -175t-157.5 -63l238 -373h-158l-219 362h-131v-362zM1022 907q0 115 -184 115h-168v-248h155q100 0 148.5 26.5t48.5 106.5zM1571 731q0 -172 -60.5 -313.5t-164 -241.5t-239.5 -155.5t-294 -55.5t-296 58.5
t-237.5 161t-155.5 242.5t-56 308t60 309.5t163.5 241.5t241 155.5t287.5 55.5t286.5 -55.5t240 -155.5t164 -241.5t60.5 -313.5zM1238 1187q-169 177 -419 177q-251 0 -419.5 -178t-168.5 -451t163 -455t419 -182t425 177t169 456t-169 456z" />
    <glyph glyph-name="macron" unicode="&#xaf;" horiz-adv-x="493" 
d="M-47 1278v133h590v-133h-590z" />
    <glyph glyph-name="degree" unicode="&#xb0;" horiz-adv-x="819" 
d="M102 1155.5q0 63.5 25 119.5t65.5 97t97 65.5t120 24.5t120 -24.5t97.5 -65.5t65.5 -97t24.5 -119.5t-24.5 -120t-65.5 -97.5t-97.5 -65.5t-120 -24.5t-120 24.5t-97 65.5t-65.5 97.5t-25 120zM273.5 1019q56.5 -56 136.5 -56t136 56t56 136t-56 136.5t-136 56.5
t-136.5 -56.5t-56.5 -136.5t56.5 -136z" />
    <glyph glyph-name="plusminus" unicode="&#xb1;" horiz-adv-x="1228" 
d="M510 1036h209v-256h411v-209h-411v-256h-209v256h-412v209h412v256zM98 209h1032v-209h-1032v209z" />
    <glyph glyph-name="twosuperior" unicode="&#xb2;" horiz-adv-x="737" 
d="M381 1319q-140 0 -150 -191h-178q0 156 90 245t246 89q220 0 270 -98t50 -158q0 -104 -66 -181t-217 -164t-174 -159h436v-143h-645q2 125 56.5 208t148.5 142q45 31 161.5 99.5t118.5 173.5q2 76 -43 106.5t-104 30.5z" />
    <glyph glyph-name="threesuperior" unicode="&#xb3;" horiz-adv-x="737" 
d="M543 829q0 155 -244 144v119q137 -7 172 40.5t35 79.5q0 54 -44 80.5t-104 26.5q-61 0 -104 -44t-39 -112h-164q6 141 90 220t226 79q204 0 253.5 -86t49.5 -188t-131 -148v-4q78 -14 123 -71.5t45 -134.5q0 -139 -97 -214t-253 -75t-238 84t-86 233h164q-4 -72 41 -123
t124 -51t130 39t51 106z" />
    <glyph glyph-name="acute" unicode="&#xb4;" horiz-adv-x="493" 
d="M276 1499h277l-291 -293h-170z" />
    <glyph glyph-name="mu" unicode="&#xb5;" horiz-adv-x="1175" 
d="M356 -391h-233v1450h233v-649q0 -139 53.5 -196.5t138.5 -57.5q146 0 208.5 75.5t62.5 212.5v615h234v-1059h-230v147h-4q-43 -76 -123.5 -126t-154.5 -50q-122 0 -185 74v-436z" />
    <glyph glyph-name="paragraph" unicode="&#xb6;" horiz-adv-x="1228" 
d="M504 705q-199 0 -320 105.5t-121 266.5q0 385 478 385h530v-1790h-164v1657h-239v-1657h-164v1033z" />
    <glyph glyph-name="periodcentered" unicode="&#xb7;" horiz-adv-x="569" 
d="M131 603q0 46 12.5 72.5t34 48t49 34t73.5 12.5t92 -46t46 -106t-45 -107.5t-108.5 -47.5t-108.5 47t-45 93z" />
    <glyph glyph-name="cedilla" unicode="&#xb8;" horiz-adv-x="493" 
d="M188 -360q125 0 125 84q0 39 -29.5 58t-69.5 19t-75 -20l-45 39l135 180h99l-95 -121l3 -2q24 8 61 8q75 0 127.5 -41.5t52.5 -103.5q0 -104 -76 -150.5t-153 -46.5q-142 0 -230 47l37 82q74 -32 133 -32z" />
    <glyph glyph-name="onesuperior" unicode="&#xb9;" horiz-adv-x="737" 
d="M74 1300q171 0 221.5 52.5t60.5 91.5h144v-885h-178v623h-248v118z" />
    <glyph glyph-name="ordmasculine" unicode="&#xba;" horiz-adv-x="778" 
d="M395 1329q-47 0 -83 -19.5t-58.5 -50t-33.5 -69.5t-11 -101t48 -127t138 -65q132 0 165 109t16 166t-40.5 87.5t-58.5 50t-82 19.5zM760 1112q0 -158 -92.5 -253t-272.5 -95t-272 95t-92 253t92 254t272 96t272.5 -96t92.5 -254z" />
    <glyph glyph-name="guillemotright" unicode="&#xbb;" horiz-adv-x="948" 
d="M440 672v-230l-317 -252v211l194 156l-194 156v211zM846 672v-230l-318 -252v211l195 156l-195 156v211z" />
    <glyph glyph-name="onequarter" unicode="&#xbc;" horiz-adv-x="1708" 
d="M1473 0h-179v199h-399v166l379 512h199v-525h96v-153h-96v-199zM1294 676h-4l-239 -324h243v324zM76 1300q171 0 221.5 52.5t60.5 91.5h144v-885h-178v623h-248v118zM1147 1483h160l-856 -1532h-162z" />
    <glyph glyph-name="onehalf" unicode="&#xbd;" horiz-adv-x="1708" 
d="M1139 1483h159l-856 -1532h-161zM74 1300q171 0 221.5 52.5t60.5 91.5h144v-885h-178v623h-248v118zM1307 770q-139 0 -150 -201h-178q0 160 87 252t249 92q218 0 268.5 -103.5t50.5 -163.5q0 -162 -177 -276q-73 -47 -164.5 -101.5t-114.5 -125.5h436v-143h-645
q0 197 116.5 286t187 129t127 86t56.5 122t-43 111.5t-106 35.5z" />
    <glyph glyph-name="threequarters" unicode="&#xbe;" horiz-adv-x="1708" 
d="M1548 0h-178v199h-399v166l375 512h202v-525h97v-153h-97v-199zM1370 676h-4l-240 -324h244v324zM1260 1483h159l-856 -1532h-162zM670 1188q0 -102 -131 -148v-4q78 -14 123 -71.5t45 -134.5q0 -139 -97 -214t-253 -75t-238 84t-86 233h164q-4 -72 41 -123t124 -51
t130 39t51 97q0 98 -68 127t-176 24v119q135 -7 171 41.5t36 80.5q0 54 -44 80.5t-104 26.5q-61 0 -104 -44t-39 -112h-164q6 141 90 220t226 79q204 0 253.5 -86t49.5 -188z" />
    <glyph glyph-name="questiondown" unicode="&#xbf;" 
d="M1038 80q0 -222 -134 -356t-340 -134t-335 108.5t-129 290.5t73 249t110 98q93 78 135.5 144t42.5 200h221q0 -174 -36.5 -258t-123.5 -158q-33 -29 -99.5 -86.5t-66.5 -158.5q0 -124 66.5 -179t134.5 -55q127 0 187.5 82t60.5 213h233zM705 1087v-256h-275v256h275z" />
    <glyph glyph-name="Agrave" unicode="&#xc0;" horiz-adv-x="1366" 
d="M457 582h446l-219 628h-6zM547 1462h272l563 -1462h-274l-137 387h-584l-137 -387h-264zM625 1896l186 -292h-170l-291 292h275z" />
    <glyph glyph-name="Aacute" unicode="&#xc1;" horiz-adv-x="1366" 
d="M457 582h446l-219 628h-6zM547 1462h272l563 -1462h-274l-137 387h-584l-137 -387h-264zM745 1896h277l-291 -292h-170z" />
    <glyph glyph-name="Acircumflex" unicode="&#xc2;" horiz-adv-x="1366" 
d="M457 582h446l-219 628h-6zM547 1462h272l563 -1462h-274l-137 387h-584l-137 -387h-264zM537 1604h-189l219 292h228l221 -292h-191l-145 184z" />
    <glyph glyph-name="Atilde" unicode="&#xc3;" horiz-adv-x="1366" 
d="M457 582h446l-219 628h-6zM547 1462h272l563 -1462h-274l-137 387h-584l-137 -387h-264zM528 1712q-72 0 -88 -84h-116q14 91 53 140q73 92 149 92t148 -30q71 -30 99 -38q28 -10 56 -10q81 0 103 90h115q-38 -233 -228 -236q-58 0 -128 30t-99 38t-64 8z" />
    <glyph glyph-name="Adieresis" unicode="&#xc4;" horiz-adv-x="1366" 
d="M457 582h446l-219 628h-6zM547 1462h272l563 -1462h-274l-137 387h-584l-137 -387h-264zM975 1851v-221h-234v221h234zM389 1630v221h234v-221h-234z" />
    <glyph glyph-name="Aring" unicode="&#xc5;" horiz-adv-x="1366" 
d="M457 582h446l-219 628h-6zM547 1462h272l563 -1462h-274l-137 387h-584l-137 -387h-264zM529 1596q-62 58 -62 153q0 92 64 154q59 57 149 57t152 -58q61 -58 61 -154t-64 -153t-151 -57t-149 58zM557 1750q0 -54 36 -90t88 -36t87 36t35 90t-35 89t-87 35t-88 -35
t-36 -89z" />
    <glyph glyph-name="AE" unicode="&#xc6;" horiz-adv-x="1972" 
d="M936 569v672h-74l-321 -672h395zM1892 1462v-221h-712v-383h667v-209h-667v-428h725v-221h-969v375h-490l-176 -375h-284l727 1462h1179z" />
    <glyph glyph-name="Ccedilla" unicode="&#xc7;" horiz-adv-x="1478" 
d="M916 -157q53 -40 53 -102q0 -104 -73 -149t-189 -45t-197 43l37 82q33 -10 65.5 -21t67.5 -11q125 0 125 84q0 39 -29.5 58t-69.5 19t-75 -20l-45 39l112 149q-284 27 -452 244.5t-168 528.5t138 471.5t268 222t274 61.5q275 0 445.5 -133.5t195.5 -366.5h-256
q-74 291 -365 291q-222 0 -333 -163.5t-111 -393.5t111 -393.5t333 -163.5q164 0 260 106.5t113 276.5h250q-16 -261 -182 -423.5t-426 -166.5l-66 -86v-4q18 6 77 6t112 -40z" />
    <glyph glyph-name="Egrave" unicode="&#xc8;" horiz-adv-x="1290" 
d="M156 1462h1052v-221h-796v-383h737v-209h-737v-428h811v-221h-1067v1462zM662 1896l186 -292h-170l-291 292h275z" />
    <glyph glyph-name="Eacute" unicode="&#xc9;" horiz-adv-x="1290" 
d="M156 1462h1052v-221h-796v-383h737v-209h-737v-428h811v-221h-1067v1462zM752 1896h276l-291 -292h-170z" />
    <glyph glyph-name="Ecircumflex" unicode="&#xca;" horiz-adv-x="1290" 
d="M156 1462h1052v-221h-796v-383h737v-209h-737v-428h811v-221h-1067v1462zM539 1604h-189l219 292h228l221 -292h-191l-145 184z" />
    <glyph glyph-name="Edieresis" unicode="&#xcb;" horiz-adv-x="1290" 
d="M156 1462h1052v-221h-796v-383h737v-209h-737v-428h811v-221h-1067v1462zM981 1851v-221h-233v221h233zM395 1630v221h234v-221h-234z" />
    <glyph glyph-name="Igrave" unicode="&#xcc;" horiz-adv-x="569" 
d="M156 1462h256v-1462h-256v1462zM225 1896l187 -292h-170l-291 292h274z" />
    <glyph glyph-name="Iacute" unicode="&#xcd;" horiz-adv-x="569" 
d="M156 1462h256v-1462h-256v1462zM342 1896h276l-290 -292h-170z" />
    <glyph glyph-name="Icircumflex" unicode="&#xce;" horiz-adv-x="569" 
d="M156 1462h256v-1462h-256v1462zM139 1604h-188l219 292h227l221 -292h-190l-145 184z" />
    <glyph glyph-name="Idieresis" unicode="&#xcf;" horiz-adv-x="569" 
d="M156 1462h256v-1462h-256v1462zM578 1851v-221h-234v221h234zM-8 1630v221h233v-221h-233z" />
    <glyph glyph-name="Eth" unicode="&#xd0;" horiz-adv-x="1478" 
d="M156 649h-138v209h138v604h606q325 0 485 -205.5t160 -526t-160.5 -525.5t-484.5 -205h-606v649zM412 858h399v-209h-399v-440h252q403 0 445 206t42 386t-103.5 316t-383.5 136h-252v-395z" />
    <glyph glyph-name="Ntilde" unicode="&#xd1;" horiz-adv-x="1478" 
d="M145 1462h271l667 -1077h4v1077h244v-1462h-270l-666 1075h-6v-1075h-244v1462zM1102 1872q-38 -233 -228 -236q-56 0 -127 30t-100 38t-63 8q-74 0 -88 -84h-117q14 91 53 140q73 92 150 92t148 -30q70 -30 98 -38q28 -10 57 -10q80 0 102 90h115z" />
    <glyph glyph-name="Ograve" unicode="&#xd2;" horiz-adv-x="1556" 
d="M778 1497q319 0 510 -222t191 -545q0 -324 -190 -544q-190 -219 -510 -220t-511 219q-190 220 -190 544t186 541q90 104 220 166t294 61zM778 174q224 0 334 165q111 165 111 392t-111 392t-333 165q-223 0 -335 -166t-111 -393t111 -391t334 -164zM662 1896l186 -292
h-170l-291 292h275z" />
    <glyph glyph-name="Oacute" unicode="&#xd3;" horiz-adv-x="1556" 
d="M778 1497q319 0 510 -222t191 -545q0 -324 -190 -544q-190 -219 -510 -220t-511 219q-190 220 -190 544t186 541q90 104 220 166t294 61zM778 174q224 0 334 165q111 165 111 392t-111 392t-333 165q-223 0 -335 -166t-111 -393t111 -391t334 -164zM866 1896h277
l-291 -292h-170z" />
    <glyph glyph-name="Ocircumflex" unicode="&#xd4;" horiz-adv-x="1556" 
d="M778 1497q319 0 510 -222t191 -545q0 -324 -190 -544q-190 -219 -510 -220t-511 219q-190 220 -190 544t186 541q90 104 220 166t294 61zM778 174q224 0 334 165q111 165 111 392t-111 392t-333 165q-223 0 -335 -166t-111 -393t111 -391t334 -164zM639 1604h-188
l219 292h227l221 -292h-190l-146 184z" />
    <glyph glyph-name="Otilde" unicode="&#xd5;" horiz-adv-x="1556" 
d="M778 1497q319 0 510 -222t191 -545q0 -324 -190 -544q-190 -219 -510 -220t-511 219q-190 220 -190 544t186 541q90 104 220 166t294 61zM778 174q224 0 334 165q111 165 111 392t-111 392t-333 165q-223 0 -335 -166t-111 -393t111 -391t334 -164zM1149 1872
q-38 -233 -227 -236q-57 0 -128 30t-100 38t-63 8q-74 0 -88 -84h-117q14 89 53 139q41 49 77 71t79 22q71 0 165 -39t132 -39q80 0 102 90h115z" />
    <glyph glyph-name="Odieresis" unicode="&#xd6;" horiz-adv-x="1556" 
d="M778 1497q319 0 510 -222t191 -545q0 -324 -190 -544q-190 -219 -510 -220t-511 219q-190 220 -190 544t186 541q90 104 220 166t294 61zM778 174q224 0 334 165q111 165 111 392t-111 392t-333 165q-223 0 -335 -166t-111 -393t111 -391t334 -164zM1073 1851v-221h-233
v221h233zM487 1630v221h234v-221h-234z" />
    <glyph glyph-name="multiply" unicode="&#xd7;" horiz-adv-x="1228" 
d="M113 874l176 115l323 -325l328 325l176 -115l-358 -356l358 -356l-176 -115l-328 328l-323 -328l-176 115l356 356z" />
    <glyph glyph-name="Oslash" unicode="&#xd8;" horiz-adv-x="1556" 
d="M445 1124.5q-111 -163.5 -111 -375.5t74 -348l673 758q-112 129 -303 129q-222 0 -333 -163.5zM778 174q224 0 334.5 165t110.5 377t-76 345l-672 -758q120 -129 303 -129zM1313 1247q166 -216 166 -528t-190.5 -533t-510.5 -221q-269 0 -454 168l-156 -174l-86 74
l162 184q-166 212 -166 524t138 472.5t268 222t294 61.5q272 0 455 -166l153 172l89 -73z" />
    <glyph glyph-name="Ugrave" unicode="&#xd9;" horiz-adv-x="1478" 
d="M139 1462h256v-852q0 -74 7 -150q15 -161 144 -235q70 -39 194 -39q220 0 295 139q34 60 41 136t7 149v852h256v-936q0 -270 -164 -421q-156 -140 -434 -140q-279 0 -441 144t-161 417v936zM664 1896l186 -292h-170l-291 292h275z" />
    <glyph glyph-name="Uacute" unicode="&#xda;" horiz-adv-x="1478" 
d="M139 1462h256v-852q0 -74 7 -150q15 -161 144 -235q70 -39 194 -39q220 0 295 139q34 60 41 136t7 149v852h256v-936q0 -270 -164 -421q-156 -140 -434 -140q-279 0 -441 144t-161 417v936zM815 1896h277l-291 -292h-170z" />
    <glyph glyph-name="Ucircumflex" unicode="&#xdb;" horiz-adv-x="1478" 
d="M139 1462h256v-852q0 -74 7 -150q15 -161 144 -235q70 -39 194 -39q220 0 295 139q34 60 41 136t7 149v852h256v-936q0 -270 -164 -421q-156 -140 -434 -140q-279 0 -441 144t-161 417v936zM598 1604h-188l219 292h227l221 -292h-190l-146 184z" />
    <glyph glyph-name="Udieresis" unicode="&#xdc;" horiz-adv-x="1478" 
d="M139 1462h256v-852q0 -74 7 -150q15 -161 144 -235q70 -39 194 -39q220 0 295 139q34 60 41 136t7 149v852h256v-936q0 -270 -164 -421q-156 -140 -434 -140q-279 0 -441 144t-161 417v936zM1030 1851v-221h-233v221h233zM444 1630v221h234v-221h-234z" />
    <glyph glyph-name="Yacute" unicode="&#xdd;" horiz-adv-x="1327" 
d="M793 0h-256v573l-549 889h297l387 -655l381 655h286l-546 -889v-573zM764 1896h276l-290 -292h-170z" />
    <glyph glyph-name="Thorn" unicode="&#xde;" horiz-adv-x="1366" 
d="M156 1462h256v-221h389q281 0 389 -136.5t108 -374t-171 -314t-326 -76.5h-389v-340h-256v1462zM1042 791q0 241 -251 241h-379v-483h374q168 0 212 86t44 156z" />
    <glyph glyph-name="germandbls" unicode="&#xdf;" horiz-adv-x="1175" 
d="M592 156q72 0 127 30.5t91 90.5t36 167t-31 155t-82 77q-77 51 -235 51v154q144 0 202 53q80 63 80 172q0 207 -207 207q-141 0 -176 -92.5t-35 -173.5v-1047h-233v1071q0 194 123.5 310t311.5 116q189 0 319.5 -100t130.5 -269q0 -104 -51.5 -190t-157.5 -119v-4
q124 -16 199 -117t75 -220q0 -229 -126.5 -368t-342.5 -139q-57 0 -114 6v185q24 -6 96 -6z" />
    <glyph glyph-name="agrave" unicode="&#xe0;" 
d="M299 294q0 -74 67 -106t127 -32q179 0 257 107q27 38 26 93v174q-53 -35 -168 -45t-190 -35q-119 -37 -119 -156zM1010 236q0 -80 44 -80h36q14 0 32 4v-162q-81 -27 -147 -27q-155 0 -180 129q-70 -68 -171 -98q-100 -30 -184 -31q-163 0 -270 81q-106 81 -104 229
q0 177 130 256q86 52 277 73q63 12 121 18t101 17q96 26 96 115q0 143 -223 143q-95 0 -158 -41t-72 -127h-234q11 187 159 279q119 73 323 73q282 0 387 -164q37 -58 37 -143v-544zM539 1499l186 -293h-170l-291 293h275z" />
    <glyph glyph-name="aacute" unicode="&#xe1;" 
d="M299 294q0 -74 67 -106t127 -32q179 0 257 107q27 38 26 93v174q-53 -35 -168 -45t-190 -35q-119 -37 -119 -156zM1010 236q0 -80 44 -80h36q14 0 32 4v-162q-81 -27 -147 -27q-155 0 -180 129q-70 -68 -171 -98q-100 -30 -184 -31q-163 0 -270 81q-106 81 -104 229
q0 177 130 256q86 52 277 73q63 12 121 18t101 17q96 26 96 115q0 143 -223 143q-95 0 -158 -41t-72 -127h-234q11 187 159 279q119 73 323 73q282 0 387 -164q37 -58 37 -143v-544zM643 1499h277l-291 -293h-170z" />
    <glyph glyph-name="acircumflex" unicode="&#xe2;" 
d="M299 294q0 -74 67 -106t127 -32q179 0 257 107q27 38 26 93v174q-53 -35 -168 -45t-190 -35q-119 -37 -119 -156zM1010 236q0 -80 44 -80h36q14 0 32 4v-162q-81 -27 -147 -27q-155 0 -180 129q-70 -68 -171 -98q-100 -30 -184 -31q-163 0 -270 81q-106 81 -104 229
q0 177 130 256q86 52 277 73q63 12 121 18t101 17q96 26 96 115q0 143 -223 143q-95 0 -158 -41t-72 -127h-234q11 187 159 279q119 73 323 73q282 0 387 -164q37 -58 37 -143v-544zM438 1206h-188l219 293h227l222 -293h-191l-145 185z" />
    <glyph glyph-name="atilde" unicode="&#xe3;" 
d="M299 294q0 -74 67 -106t127 -32q179 0 257 107q27 38 26 93v174q-53 -35 -168 -45t-190 -35q-119 -37 -119 -156zM1010 236q0 -80 44 -80h36q14 0 32 4v-162q-81 -27 -147 -27q-155 0 -180 129q-70 -68 -171 -98q-100 -30 -184 -31q-163 0 -270 81q-106 81 -104 229
q0 177 130 256q86 52 277 73q63 12 121 18t101 17q96 26 96 115q0 143 -223 143q-95 0 -158 -41t-72 -127h-234q11 187 159 279q119 73 323 73q282 0 387 -164q37 -58 37 -143v-544zM717 1239q-63 -1 -131 29t-97 38t-63 9q-71 0 -88 -84h-117q22 145 129 210q85 51 250 -20
q85 -35 127 -37q82 0 102 91h115q-39 -236 -227 -236z" />
    <glyph glyph-name="adieresis" unicode="&#xe4;" 
d="M299 294q0 -74 67 -106t127 -32q179 0 257 107q27 38 26 93v174q-53 -35 -168 -45t-190 -35q-119 -37 -119 -156zM1010 236q0 -80 44 -80h36q14 0 32 4v-162q-81 -27 -147 -27q-155 0 -180 129q-70 -68 -171 -98q-100 -30 -184 -31q-163 0 -270 81q-106 81 -104 229
q0 177 130 256q86 52 277 73q63 12 121 18t101 17q96 26 96 115q0 143 -223 143q-95 0 -158 -41t-72 -127h-234q11 187 159 279q119 73 323 73q282 0 387 -164q37 -58 37 -143v-544zM870 1454v-221h-233v221h233zM285 1233v221h233v-221h-233z" />
    <glyph glyph-name="aring" unicode="&#xe5;" 
d="M299 294q0 -74 67 -106t127 -32q179 0 257 107q27 38 26 93v174q-53 -35 -168 -45t-190 -35q-119 -37 -119 -156zM1010 236q0 -80 44 -80h36q14 0 32 4v-162q-81 -27 -147 -27q-155 0 -180 129q-70 -68 -171 -98q-100 -30 -184 -31q-163 0 -270 81q-106 81 -104 229
q0 177 130 256q86 52 277 73q63 12 121 18t101 17q96 26 96 115q0 143 -223 143q-95 0 -158 -41t-72 -127h-234q11 187 159 279q119 73 323 73q282 0 387 -164q37 -58 37 -143v-544zM578 1169q-43 -1 -82 15q-131 52 -131 196q0 92 61 152q61 59 151 59q89 0 151 -57
q61 -57 62 -154q1 -96 -64 -154q-64 -57 -148 -57zM579 1505q-52 0 -88 -35t-36 -89q-1 -54 35 -90t88 -36t88 36q34 36 34 90t-34 89q-35 35 -87 35z" />
    <glyph glyph-name="ae" unicode="&#xe6;" horiz-adv-x="1820" 
d="M1269 903q-124 0 -194 -80t-78 -200h535q2 127 -68.5 203.5t-194.5 76.5zM361 187.5q62 -31.5 131 -31.5q129 0 206.5 59t77.5 154v157q-26 -26 -92 -35.5t-109 -13.5t-83 -10t-74.5 -17.5t-76.5 -42.5t-42 -109q0 -79 62 -110.5zM1274 1087q262 0 386 -171.5t105 -446.5
h-768q0 -210 102.5 -261.5t185.5 -51.5t146.5 47t92.5 131h233q-45 -170 -174 -266.5t-305 -96.5q-280 0 -389 195q-70 -104 -187.5 -149.5t-225.5 -45.5q-194 0 -302 79t-108 231q0 250 166.5 285.5t240.5 43.5q63 12 118.5 17.5t121 24.5t65.5 108q0 143 -207 143
q-98 0 -161.5 -41t-71.5 -127h-234q11 187 144.5 269.5t326.5 82.5t262.5 -49t100.5 -94q108 143 336 143z" />
    <glyph glyph-name="ccedilla" unicode="&#xe7;" 
d="M524 -360q125 0 125 84q0 39 -29.5 58t-69.5 19t-75 -20l-45 39l115 153q-211 13 -342 157.5t-131 392.5q0 247 135.5 405.5t386.5 158.5q193 0 327.5 -97.5t149.5 -284.5h-233q-14 98 -79 148t-163 50q-190 0 -240.5 -131.5t-50.5 -225.5q0 -176 69.5 -283t211.5 -107
q102 0 168.5 63.5t83.5 177.5h233q-33 -207 -158 -317q-104 -92 -270 -107l-74 -94l2 -2q23 8 61 8q76 0 128.5 -41.5t52.5 -103.5q0 -104 -76 -150.5t-153 -46.5q-142 0 -230 47l37 82q74 -32 133 -32z" />
    <glyph glyph-name="egrave" unicode="&#xe8;" 
d="M584 1087q125 0 224 -52q200 -105 260 -336q30 -112 15 -230h-778q0 -133 74 -224t211 -89q196 0 258 176h221q-36 -171 -172 -267q-129 -94 -307 -94q-243 0 -381 153q-139 153 -138 394q1 240 142 404q141 165 371 165zM850 623q-13 184 -159 257q-48 24 -108 24
q-61 0 -111 -22q-100 -43 -143 -149q-22 -51 -24 -110h545zM514 1499l186 -293h-170l-290 293h274z" />
    <glyph glyph-name="eacute" unicode="&#xe9;" 
d="M584 1087q125 0 224 -52q200 -105 260 -336q30 -112 15 -230h-778q0 -133 74 -224t211 -89q196 0 258 176h221q-36 -171 -172 -267q-129 -94 -307 -94q-243 0 -381 153q-139 153 -138 394q1 240 142 404q141 165 371 165zM850 623q-13 184 -159 257q-48 24 -108 24
q-61 0 -111 -22q-100 -43 -143 -149q-22 -51 -24 -110h545zM674 1499h276l-291 -293h-170z" />
    <glyph glyph-name="ecircumflex" unicode="&#xea;" 
d="M584 1087q125 0 224 -52q200 -105 260 -336q30 -112 15 -230h-778q0 -133 74 -224t211 -89q196 0 258 176h221q-36 -171 -172 -267q-129 -94 -307 -94q-243 0 -381 153q-139 153 -138 394q1 240 142 404q141 165 371 165zM850 623q-13 184 -159 257q-48 24 -108 24
q-61 0 -111 -22q-100 -43 -143 -149q-22 -51 -24 -110h545zM442 1206h-188l219 293h227l222 -293h-191l-145 185z" />
    <glyph glyph-name="edieresis" unicode="&#xeb;" 
d="M584 1087q125 0 224 -52q200 -105 260 -336q30 -112 15 -230h-778q0 -133 74 -224t211 -89q196 0 258 176h221q-36 -171 -172 -267q-129 -94 -307 -94q-243 0 -381 153q-139 153 -138 394q1 240 142 404q141 165 371 165zM850 623q-13 184 -159 257q-48 24 -108 24
q-61 0 -111 -22q-100 -43 -143 -149q-22 -51 -24 -110h545zM877 1454v-221h-234v221h234zM291 1233v221h233v-221h-233z" />
    <glyph glyph-name="igrave" unicode="&#xec;" horiz-adv-x="493" 
d="M129 0v1059h233v-1059h-233zM180 1499l187 -293h-170l-291 293h274z" />
    <glyph glyph-name="iacute" unicode="&#xed;" horiz-adv-x="493" 
d="M129 0v1059h233v-1059h-233zM313 1499h277l-291 -293h-170z" />
    <glyph glyph-name="icircumflex" unicode="&#xee;" horiz-adv-x="493" 
d="M129 0v1059h233v-1059h-233zM102 1206h-188l219 293h227l222 -293h-191l-145 185z" />
    <glyph glyph-name="idieresis" unicode="&#xef;" horiz-adv-x="493" 
d="M129 0v1059h233v-1059h-233zM541 1454v-221h-234v221h234zM-45 1233v221h233v-221h-233z" />
    <glyph glyph-name="eth" unicode="&#xf0;" horiz-adv-x="1214" 
d="M388 253.5q69 -97.5 202 -97.5t218 102t85 244.5t-70 246t-215 103.5q-146 0 -217.5 -97t-71.5 -250.5t69 -251zM1126 633q0 -461 -200 -561.5t-334 -100.5q-248 0 -377 152t-129 378t127.5 380.5t329.5 154.5q164 0 293 -90h4q-57 131 -222 268l-221 -106l-102 100
l197 95q-134 57 -175 69l156 125q113 -37 213 -102l215 102l100 -100l-192 -92q154 -127 235.5 -300.5t81.5 -371.5z" />
    <glyph glyph-name="ntilde" unicode="&#xf1;" horiz-adv-x="1175" 
d="M123 1059h221v-156l4 -4q53 88 139 138t191 50q174 0 274 -90t101 -270v-727h-234v666q-4 125 -53 181t-159 56t-180 -80q-69 -80 -71 -198v-625h-233v1059zM721 1239q-63 -1 -131 29t-96 38t-64 9q-71 0 -88 -84h-117q22 145 129 210q85 51 250 -20q85 -35 127 -37
q81 0 103 91h114q-39 -236 -227 -236z" />
    <glyph glyph-name="ograve" unicode="&#xf2;" horiz-adv-x="1214" 
d="M909 530q0 246 -166 340q-57 33 -135 33t-135 -33q-162 -94 -166 -340q0 -153 77 -263q77 -111 223 -111t224 110t78 264zM74 529q0 249 144 404q144 156 392 155t390 -155q143 -153 143 -403q0 -249 -144 -404t-391 -155q-127 0 -226 42q-201 85 -272 292
q-36 102 -36 224zM528 1499l187 -293h-170l-291 293h274z" />
    <glyph glyph-name="oacute" unicode="&#xf3;" horiz-adv-x="1214" 
d="M909 530q0 246 -166 340q-57 33 -135 33t-135 -33q-162 -94 -166 -340q0 -153 77 -263q77 -111 223 -111t224 110t78 264zM74 529q0 249 144 404q144 156 392 155t390 -155q143 -153 143 -403q0 -249 -144 -404t-391 -155q-127 0 -226 42q-201 85 -272 292
q-36 102 -36 224zM676 1499h276l-290 -293h-170z" />
    <glyph glyph-name="ocircumflex" unicode="&#xf4;" horiz-adv-x="1214" 
d="M909 530q0 246 -166 340q-57 33 -135 33t-135 -33q-162 -94 -166 -340q0 -153 77 -263q77 -111 223 -111t224 110t78 264zM74 529q0 249 144 404q144 156 392 155t390 -155q143 -153 143 -403q0 -249 -144 -404t-391 -155q-127 0 -226 42q-201 85 -272 292
q-36 102 -36 224zM467 1206h-188l219 293h227l221 -293h-190l-146 185z" />
    <glyph glyph-name="otilde" unicode="&#xf5;" horiz-adv-x="1214" 
d="M909 530q0 246 -166 340q-57 33 -135 33t-135 -33q-162 -94 -166 -340q0 -153 77 -263q77 -111 223 -111t224 110t78 264zM74 529q0 249 144 404q144 156 392 155t390 -155q143 -153 143 -403q0 -249 -144 -404t-391 -155q-127 0 -226 42q-201 85 -272 292
q-36 102 -36 224zM748 1239q-63 -1 -131 29t-97 38t-63 9q-73 0 -88 -84h-117q23 147 129 210q85 51 250 -20q85 -36 127 -37q80 0 102 91h115q-39 -236 -227 -236z" />
    <glyph glyph-name="odieresis" unicode="&#xf6;" horiz-adv-x="1214" 
d="M909 530q0 246 -166 340q-57 33 -135 33t-135 -33q-162 -94 -166 -340q0 -153 77 -263q77 -111 223 -111t224 110t78 264zM74 529q0 249 144 404q144 156 392 155t390 -155q143 -153 143 -403q0 -249 -144 -404t-391 -155q-127 0 -226 42q-201 85 -272 292
q-36 102 -36 224zM905 1454v-221h-233v221h233zM319 1233v221h234v-221h-234z" />
    <glyph glyph-name="divide" unicode="&#xf7;" horiz-adv-x="1228" 
d="M98 414v209h1032v-209h-1032zM601 793q-44 0 -89 44t-45 104t44 103t103.5 43t103.5 -44t44 -88t-12.5 -69.5t-32 -47t-46 -33.5t-70.5 -12zM601 -51q-44 0 -89 44t-45 104t44 103.5t103.5 43.5t103.5 -44t44 -88t-12.5 -70t-32 -47.5t-46 -33.5t-70.5 -12z" />
    <glyph glyph-name="oslash" unicode="&#xf8;" horiz-adv-x="1214" 
d="M406 242q78 -86 214 -86q137 0 213 111.5t76 248.5t-47 225zM199 147q-125 150 -125 391t143 395t373 154q229 0 366 -112l129 141l66 -57l-133 -146q125 -154 125 -393t-143.5 -394t-391.5 -155q-208 0 -346 115l-131 -143l-65 57zM811 817q-78 86 -213 86
q-136 0 -213.5 -110t-77.5 -246t47 -230z" />
    <glyph glyph-name="ugrave" unicode="&#xf9;" horiz-adv-x="1175" 
d="M1053 0h-230v147h-4q-43 -80 -128 -128t-173 -48q-209 -1 -302 103t-93 313v672h233v-649q0 -138 54 -196t138 -58q146 0 209 76q62 76 62 212v615h234v-1059zM506 1499l186 -293h-170l-291 293h275z" />
    <glyph glyph-name="uacute" unicode="&#xfa;" horiz-adv-x="1175" 
d="M1053 0h-230v147h-4q-43 -80 -128 -128t-173 -48q-209 -1 -302 103t-93 313v672h233v-649q0 -138 54 -196t138 -58q146 0 209 76q62 76 62 212v615h234v-1059zM678 1499h276l-290 -293h-170z" />
    <glyph glyph-name="ucircumflex" unicode="&#xfb;" horiz-adv-x="1175" 
d="M1053 0h-230v147h-4q-43 -80 -128 -128t-173 -48q-209 -1 -302 103t-93 313v672h233v-649q0 -138 54 -196t138 -58q146 0 209 76q62 76 62 212v615h234v-1059zM444 1206h-188l219 293h227l222 -293h-191l-145 185z" />
    <glyph glyph-name="udieresis" unicode="&#xfc;" horiz-adv-x="1175" 
d="M1053 0h-230v147h-4q-43 -80 -128 -128t-173 -48q-209 -1 -302 103t-93 313v672h233v-649q0 -138 54 -196t138 -58q146 0 209 76q62 76 62 212v615h234v-1059zM879 1454v-221h-234v221h234zM293 1233v221h233v-221h-233z" />
    <glyph glyph-name="yacute" unicode="&#xfd;" horiz-adv-x="1062" 
d="M233 -225q87 0 125 86q12 27 23 61l27 82l-402 1055h256l277 -791h4l268 791h244l-412 -1116q-29 -72 -57 -138q-28 -65 -67 -115q-88 -109 -251 -110q-82 0 -162 12v197q102 -14 127 -14zM637 1499h276l-290 -293h-170z" />
    <glyph glyph-name="thorn" unicode="&#xfe;" horiz-adv-x="1251" 
d="M129 1462h233v-540h5q76 119 173 142t142 23q240 0 368 -159t128 -397q0 -237 -117.5 -398.5t-339.5 -161.5q-171 0 -249.5 60.5t-104.5 105.5h-5v-528h-233v1853zM867 792.5q-77 110.5 -220 110.5t-218 -102.5t-75 -272.5q0 -254 113 -313t189 -59t131 32.5t106 108
t51 230.5t-77 265.5z" />
    <glyph glyph-name="ydieresis" unicode="&#xff;" horiz-adv-x="1062" 
d="M233 -225q87 0 125 86q12 27 23 61l27 82l-402 1055h256l277 -791h4l268 791h244l-412 -1116q-29 -72 -57 -138q-28 -65 -67 -115q-88 -109 -251 -110q-82 0 -162 12v197q102 -14 127 -14zM836 1454v-221h-234v221h234zM250 1233v221h233v-221h-233z" />
    <glyph glyph-name="Amacron" unicode="&#x100;" horiz-adv-x="1366" 
d="M457 582h446l-219 628h-6zM547 1462h272l563 -1462h-274l-137 387h-584l-137 -387h-264zM387 1675v133h590v-133h-590z" />
    <glyph glyph-name="amacron" unicode="&#x101;" 
d="M299 294q0 -74 67 -106t127 -32q179 0 257 107q27 38 26 93v174q-53 -35 -168 -45t-190 -35q-119 -37 -119 -156zM1010 236q0 -80 44 -80h36q14 0 32 4v-162q-81 -27 -147 -27q-155 0 -180 129q-70 -68 -171 -98q-100 -30 -184 -31q-163 0 -270 81q-106 81 -104 229
q0 177 130 256q86 52 277 73q63 12 121 18t101 17q96 26 96 115q0 143 -223 143q-95 0 -158 -41t-72 -127h-234q11 187 159 279q119 73 323 73q282 0 387 -164q37 -58 37 -143v-544zM281 1278v133h589v-133h-589z" />
    <glyph glyph-name="Abreve" unicode="&#x102;" horiz-adv-x="1366" 
d="M457 582h446l-219 628h-6zM547 1462h272l563 -1462h-274l-137 387h-584l-137 -387h-264zM690 1739q78 0 134 39t73 116h117q-16 -145 -108 -217q-92 -71 -232 -71q-141 0 -225 74t-97 214h119q29 -155 219 -155z" />
    <glyph glyph-name="abreve" unicode="&#x103;" 
d="M299 294q0 -74 67 -106t127 -32q179 0 257 107q27 38 26 93v174q-53 -35 -168 -45t-190 -35q-119 -37 -119 -156zM1010 236q0 -80 44 -80h36q14 0 32 4v-162q-81 -27 -147 -27q-155 0 -180 129q-70 -68 -171 -98q-100 -30 -184 -31q-163 0 -270 81q-106 81 -104 229
q0 177 130 256q86 52 277 73q63 12 121 18t101 17q96 26 96 115q0 143 -223 143q-95 0 -158 -41t-72 -127h-234q11 187 159 279q119 73 323 73q282 0 387 -164q37 -58 37 -143v-544zM582 1341q78 0 134 39t72 117h117q-16 -145 -107 -217q-90 -72 -232 -72t-226 74t-96 215
h118q29 -156 220 -156z" />
    <glyph glyph-name="Aogonek" unicode="&#x104;" horiz-adv-x="1366" 
d="M457 582h446l-219 628h-6zM874 -272q0 133 234 272l-137 387h-584l-137 -387h-264l561 1462h272l563 -1462h-163q-117 -93 -155 -148t-38 -106t24.5 -75.5t55.5 -24.5t55.5 14t50.5 55l84 -18q-32 -119 -108 -136.5t-98 -17.5q-75 0 -145.5 36.5t-70.5 148.5z" />
    <glyph glyph-name="aogonek" unicode="&#x105;" 
d="M366 188.5q67 -32.5 127 -32.5q117 0 200 50.5t83 149.5v174q-53 -35 -130.5 -42t-135.5 -17t-92.5 -21.5t-76.5 -42.5t-42 -109q0 -77 67 -109.5zM791 760q0 143 -223 143q-95 0 -158.5 -41t-71.5 -127h-234q11 187 144.5 269.5t337.5 82.5q283 0 353.5 -111.5
t70.5 -195.5v-544q0 -43 11 -61.5t44 -18.5h25q14 0 32 4v-162q-81 -27 -147 -27h-2q-33 -29 -60 -51q-70 -70 -83 -113t-13 -77t24.5 -59t55.5 -25t55.5 14t51.5 55l83 -18q-32 -119 -108.5 -136.5t-98.5 -17.5q-74 0 -144 36t-70 149q0 133 213 260q-12 6 -23 12
q-47 29 -61 100q-70 -68 -171.5 -98.5t-184.5 -30.5q-163 0 -268 80t-105 230q0 250 166.5 285.5t240.5 43.5q63 12 120.5 17.5t127.5 24.5t70 108z" />
    <glyph glyph-name="Cacute" unicode="&#x106;" horiz-adv-x="1478" 
d="M763 174q180 0 275 107t113 276h250q-16 -267 -187 -427q-171 -165 -436 -165q-319 0 -510 220q-190 220 -190 544t186 541q90 104 220 166t274 61q274 0 445 -134t196 -366h-256q-53 207 -224 270q-60 21 -159 21q-100 0 -184 -47t-138 -126q-107 -157 -104 -384
q0 -104 25 -205q55 -216 217 -305q86 -47 187 -47zM858 1896h277l-291 -292h-170z" />
    <glyph glyph-name="cacute" unicode="&#x107;" 
d="M596 903q-188 0 -262 -189q-29 -74 -29 -168q0 -178 71 -285t210 -105q102 0 169 63t83 178h233q-33 -207 -157 -317t-346 -109q-222 0 -360 153q-139 153 -137 399q1 245 137 405q136 159 386 159q194 0 328 -97t149 -285h-233q-14 98 -79 148t-163 50zM678 1499h276
l-290 -293h-170z" />
    <glyph glyph-name="Ccircumflex" unicode="&#x108;" horiz-adv-x="1478" 
d="M763 174q180 0 275 107t113 276h250q-16 -267 -187 -427q-171 -165 -436 -165q-319 0 -510 220q-190 220 -190 544t186 541q90 104 220 166t274 61q274 0 445 -134t196 -366h-256q-53 207 -224 270q-60 21 -159 21q-100 0 -184 -47t-138 -126q-107 -157 -104 -384
q0 -104 25 -205q55 -216 217 -305q86 -47 187 -47zM637 1604h-188l219 292h227l221 -292h-190l-146 184z" />
    <glyph glyph-name="ccircumflex" unicode="&#x109;" 
d="M596 903q-188 0 -262 -189q-29 -74 -29 -168q0 -178 71 -285t210 -105q102 0 169 63t83 178h233q-33 -207 -157 -317t-346 -109q-222 0 -360 153q-139 153 -137 399q1 245 137 405q136 159 386 159q194 0 328 -97t149 -285h-233q-14 98 -79 148t-163 50zM453 1206h-189
l219 293h228l221 -293h-191l-145 185z" />
    <glyph glyph-name="Cdotaccent" unicode="&#x10a;" horiz-adv-x="1478" 
d="M763 174q180 0 275 107t113 276h250q-16 -267 -187 -427q-171 -165 -436 -165q-319 0 -510 220q-190 220 -190 544t186 541q90 104 220 166t274 61q274 0 445 -134t196 -366h-256q-53 207 -224 270q-60 21 -159 21q-100 0 -184 -47t-138 -126q-107 -157 -104 -384
q0 -104 25 -205q55 -216 217 -305q86 -47 187 -47zM659 1630v221h234v-221h-234z" />
    <glyph glyph-name="cdotaccent" unicode="&#x10b;" 
d="M596 903q-188 0 -262 -189q-29 -74 -29 -168q0 -178 71 -285t210 -105q102 0 169 63t83 178h233q-33 -207 -157 -317t-346 -109q-222 0 -360 153q-139 153 -137 399q1 245 137 405q136 159 386 159q194 0 328 -97t149 -285h-233q-14 98 -79 148t-163 50zM473 1233v221
h234v-221h-234z" />
    <glyph glyph-name="Ccaron" unicode="&#x10c;" horiz-adv-x="1478" 
d="M763 174q180 0 275 107t113 276h250q-16 -267 -187 -427q-171 -165 -436 -165q-319 0 -510 220q-190 220 -190 544t186 541q90 104 220 166t274 61q274 0 445 -134t196 -366h-256q-53 207 -224 270q-60 21 -159 21q-100 0 -184 -47t-138 -126q-107 -157 -104 -384
q0 -104 25 -205q55 -216 217 -305q86 -47 187 -47zM887 1604h-228l-219 292h189l143 -182l146 182h190z" />
    <glyph glyph-name="ccaron" unicode="&#x10d;" 
d="M596 903q-188 0 -262 -189q-29 -74 -29 -168q0 -178 71 -285t210 -105q102 0 169 63t83 178h233q-33 -207 -157 -317t-346 -109q-222 0 -360 153q-139 153 -137 399q1 245 137 405q136 159 386 159q194 0 328 -97t149 -285h-233q-14 98 -79 148t-163 50zM707 1206h-228
l-219 293h189l143 -182l145 182h191z" />
    <glyph glyph-name="Dcaron" unicode="&#x10e;" horiz-adv-x="1478" 
d="M412 209h252q276 0 394 150q93 122 93 373t-93 371q-114 150 -394 150h-252v-1044zM156 1462h606q326 0 491 -214q154 -195 154 -517t-154 -517q-169 -214 -491 -214h-606v1462zM782 1604h-227l-219 292h188l144 -182l145 182h191z" />
    <glyph glyph-name="dcaron" unicode="&#x10f;" horiz-adv-x="1406" 
d="M381 261q76 -107 219 -106q144 1 219 112q76 111 76 275t-79 262t-221 99q-142 0 -223 -122q-67 -100 -67 -256q0 -157 76 -264zM895 143q-88 -172 -340 -172q-113 0 -206 44q-181 85 -247 299q-30 102 -30 234q1 257 135 399t317 141q182 -1 292 -92q40 -32 67 -74h4
v540h233v-1462h-221v143h-4zM1286 1462h256l-166 -293h-155z" />
    <glyph glyph-name="Dcroat" unicode="&#x110;" horiz-adv-x="1478" 
d="M156 649h-138v209h138v604h606q325 0 485 -205.5t160 -526t-160.5 -525.5t-484.5 -205h-606v649zM412 858h399v-209h-399v-440h252q403 0 445 206t42 386t-103.5 316t-383.5 136h-252v-395z" />
    <glyph glyph-name="dcroat" unicode="&#x111;" horiz-adv-x="1269" 
d="M380 262.5q75 -106.5 220 -106.5t220 112t75 275t-79 261.5t-221 98.5t-216 -111.5t-74 -267.5q0 -155 75 -261.5zM895 143q-88 -172 -340 -172q-113 0 -206 44t-185 157.5t-92 374.5q0 260 133.5 400t314.5 140t258.5 -61t104.5 -104h4v274h-314v133h314v133h233v-133
h162v-133h-162v-1196h-221v143h-4z" />
    <glyph glyph-name="Emacron" unicode="&#x112;" horiz-adv-x="1290" 
d="M156 1462h1052v-221h-796v-383h737v-209h-737v-428h811v-221h-1067v1462zM389 1675v133h590v-133h-590z" />
    <glyph glyph-name="emacron" unicode="&#x113;" 
d="M584 1087q125 0 224 -52q200 -105 260 -336q30 -112 15 -230h-778q0 -133 74 -224t211 -89q196 0 258 176h221q-36 -171 -172 -267q-129 -94 -307 -94q-243 0 -381 153q-139 153 -138 394q1 240 142 404q141 165 371 165zM850 623q-13 184 -159 257q-48 24 -108 24
q-61 0 -111 -22q-100 -43 -143 -149q-22 -51 -24 -110h545zM289 1278v133h590v-133h-590z" />
    <glyph glyph-name="Ebreve" unicode="&#x114;" horiz-adv-x="1290" 
d="M156 1462h1052v-221h-796v-383h737v-209h-737v-428h811v-221h-1067v1462zM684 1739q78 0 134 39t73 116h117q-16 -145 -108 -217q-92 -71 -232 -71q-141 0 -226 73q-84 74 -96 215h119q29 -155 219 -155z" />
    <glyph glyph-name="ebreve" unicode="&#x115;" 
d="M584 1087q125 0 224 -52q200 -105 260 -336q30 -112 15 -230h-778q0 -133 74 -224t211 -89q196 0 258 176h221q-36 -171 -172 -267q-129 -94 -307 -94q-243 0 -381 153q-139 153 -138 394q1 240 142 404q141 165 371 165zM850 623q-13 184 -159 257q-48 24 -108 24
q-61 0 -111 -22q-100 -43 -143 -149q-22 -51 -24 -110h545zM588 1341q78 0 134 39t73 117h116q-16 -145 -107 -217q-90 -72 -232 -72t-226 74t-96 215h119q29 -156 219 -156z" />
    <glyph glyph-name="Edotaccent" unicode="&#x116;" horiz-adv-x="1290" 
d="M156 1462h1052v-221h-796v-383h737v-209h-737v-428h811v-221h-1067v1462zM565 1630v221h234v-221h-234z" />
    <glyph glyph-name="edotaccent" unicode="&#x117;" 
d="M584 1087q125 0 224 -52q200 -105 260 -336q30 -112 15 -230h-778q0 -133 74 -224t211 -89q196 0 258 176h221q-36 -171 -172 -267q-129 -94 -307 -94q-243 0 -381 153q-139 153 -138 394q1 240 142 404q141 165 371 165zM850 623q-13 184 -159 257q-48 24 -108 24
q-61 0 -111 -22q-100 -43 -143 -149q-22 -51 -24 -110h545zM471 1233v221h234v-221h-234z" />
    <glyph glyph-name="Eogonek" unicode="&#x118;" horiz-adv-x="1290" 
d="M952 -270q0 -34 24.5 -59t55.5 -25t55.5 14t51.5 55l84 -18q-32 -119 -108.5 -136.5t-98.5 -17.5q-74 0 -144.5 36t-70.5 149q0 53 42 118.5t191 153.5h-878v1462h1052v-221h-796v-383h737v-209h-737v-428h811v-221h-78q-115 -91 -145.5 -135.5t-39 -72.5t-8.5 -62z" />
    <glyph glyph-name="eogonek" unicode="&#x119;" 
d="M583 903q-120 0 -197 -81t-81 -199h545q-13 185 -110 232.5t-157 47.5zM590 156q196 0 258 176h221q-35 -168 -146.5 -249.5t-240.5 -102.5q-93 -78 -128.5 -131.5t-35.5 -103.5t24.5 -74.5t55.5 -24.5t55.5 14t51.5 55l83 -18q-32 -119 -108 -136.5t-98 -17.5
q-74 0 -144.5 36t-70.5 149q0 53 37.5 111.5t148.5 133.5q-215 8 -348 155t-133 391t141 406t371 162q125 0 224 -52t164.5 -138t95.5 -197.5t15 -230.5h-778q0 -133 73.5 -223t211.5 -90z" />
    <glyph glyph-name="Ecaron" unicode="&#x11a;" horiz-adv-x="1290" 
d="M156 1462h1052v-221h-796v-383h737v-209h-737v-428h811v-221h-1067v1462zM793 1604h-228l-219 292h189l143 -182l145 182h191z" />
    <glyph glyph-name="ecaron" unicode="&#x11b;" 
d="M584 1087q125 0 224 -52q200 -105 260 -336q30 -112 15 -230h-778q0 -133 74 -224t211 -89q196 0 258 176h221q-36 -171 -172 -267q-129 -94 -307 -94q-243 0 -381 153q-139 153 -138 394q1 240 142 404q141 165 371 165zM850 623q-13 184 -159 257q-48 24 -108 24
q-61 0 -111 -22q-100 -43 -143 -149q-22 -51 -24 -110h545zM692 1206h-227l-219 293h188l144 -182l145 182h190z" />
    <glyph glyph-name="Gcircumflex" unicode="&#x11c;" horiz-adv-x="1554" 
d="M1432 0h-164l-39 172q-103 -117 -205 -162t-251 -45q-149 1 -279 61q-260 122 -358 408q-48 139 -48 296q0 323 186 540q90 104 220 166t272 61q413 0 580 -283q55 -94 69 -217h-250q-19 137 -125 214t-238 77q-237 0 -347 -165q-111 -165 -111 -392t111 -392t333 -165
q193 -4 299 102t111 299h-389v195h623v-770zM651 1604h-188l219 292h227l221 -292h-190l-145 184z" />
    <glyph glyph-name="gcircumflex" unicode="&#x11d;" horiz-adv-x="1214" 
d="M367 785q-62 -98 -62 -245t72 -251q72 -105 212 -105t209 107q70 107 70 258t-70 252q-70 102 -213 102t-218 -118zM868 913v146h234v-1004q0 -239 -134 -357t-386 -118q-298 0 -420 174q-45 63 -53 156h233q27 -130 168 -151q41 -5 86 -5q274 0 272 271v161h-4
q-49 -88 -134 -137q-86 -49 -198 -49q-223 0 -342 158q-120 158 -119 389q1 232 131 386t352 154q223 0 310 -174h4zM477 1206h-188l219 293h227l221 -293h-190l-145 185z" />
    <glyph glyph-name="Gbreve" unicode="&#x11e;" horiz-adv-x="1554" 
d="M1432 0h-164l-39 172q-103 -117 -205 -162t-251 -45q-149 1 -279 61q-260 122 -358 408q-48 139 -48 296q0 323 186 540q90 104 220 166t272 61q413 0 580 -283q55 -94 69 -217h-250q-19 137 -125 214t-238 77q-237 0 -347 -165q-111 -165 -111 -392t111 -392t333 -165
q193 -4 299 102t111 299h-389v195h623v-770zM586 1894q29 -155 219 -155q78 0 134 39t73 116h116q-16 -145 -107 -217q-91 -71 -233 -71t-225 74q-84 74 -96 214h119z" />
    <glyph glyph-name="gbreve" unicode="&#x11f;" horiz-adv-x="1214" 
d="M367 785q-62 -98 -62 -245t72 -251q72 -105 212 -105t209 107q70 107 70 258t-70 252q-70 102 -213 102t-218 -118zM868 913v146h234v-1004q0 -239 -134 -357t-386 -118q-298 0 -420 174q-45 63 -53 156h233q27 -130 168 -151q41 -5 86 -5q274 0 272 271v161h-4
q-49 -88 -134 -137q-86 -49 -198 -49q-223 0 -342 158q-120 158 -119 389q1 232 131 386t352 154q223 0 310 -174h4zM608 1341q78 0 134 39t73 117h117q-16 -145 -108 -217t-232 -72q-141 0 -225 74t-97 215h119q29 -156 219 -156z" />
    <glyph glyph-name="Gdotaccent" unicode="&#x120;" horiz-adv-x="1554" 
d="M1432 0h-164l-39 172q-103 -117 -205 -162t-251 -45q-149 1 -279 61q-260 122 -358 408q-48 139 -48 296q0 323 186 540q90 104 220 166t272 61q413 0 580 -283q55 -94 69 -217h-250q-19 137 -125 214t-238 77q-237 0 -347 -165q-111 -165 -111 -392t111 -392t333 -165
q193 -4 299 102t111 299h-389v195h623v-770zM674 1630v221h233v-221h-233z" />
    <glyph glyph-name="gdotaccent" unicode="&#x121;" horiz-adv-x="1214" 
d="M367 785q-62 -98 -62 -245t72 -251q72 -105 212 -105t209 107q70 107 70 258t-70 252q-70 102 -213 102t-218 -118zM868 913v146h234v-1004q0 -239 -134 -357t-386 -118q-298 0 -420 174q-45 63 -53 156h233q27 -130 168 -151q41 -5 86 -5q274 0 272 271v161h-4
q-49 -88 -134 -137q-86 -49 -198 -49q-223 0 -342 158q-120 158 -119 389q1 232 131 386t352 154q223 0 310 -174h4zM485 1233v221h234v-221h-234z" />
    <glyph glyph-name="Gcommaaccent" unicode="&#x122;" horiz-adv-x="1554" 
d="M1432 0h-164l-39 172q-103 -117 -205 -162t-251 -45q-149 1 -279 61q-260 122 -358 408q-48 139 -48 296q0 323 186 540q90 104 220 166t272 61q413 0 580 -283q55 -94 69 -217h-250q-19 137 -125 214t-238 77q-237 0 -347 -165q-111 -165 -111 -392t111 -392t333 -165
q193 -4 299 102t111 299h-389v195h623v-770zM655 -102h269v-183q0 -102 -90 -144q-49 -24 -148 -28v78q43 7 65 23t27 51h-123v203z" />
    <glyph glyph-name="gcommaaccent" unicode="&#x123;" horiz-adv-x="1214" 
d="M367 785q-62 -98 -62 -245t72 -251q72 -105 212 -105t209 107q70 107 70 258t-70 252q-70 102 -213 102t-218 -118zM868 913v146h234v-1004q0 -239 -134 -357t-386 -118q-298 0 -420 174q-45 63 -53 156h233q27 -130 168 -151q41 -5 86 -5q274 0 272 271v161h-4
q-49 -88 -134 -137q-86 -49 -198 -49q-223 0 -342 158q-120 158 -119 389q1 232 131 386t352 154q223 0 310 -174h4zM739 1260h-268v182q0 102 90 144q49 24 148 28v-78q-43 -6 -65 -22t-28 -52h123v-202z" />
    <glyph glyph-name="Hcircumflex" unicode="&#x124;" horiz-adv-x="1478" 
d="M150 1462h256v-581h665v581h256v-1462h-256v659h-665v-659h-256v1462zM598 1604h-188l219 292h227l221 -292h-190l-146 184z" />
    <glyph glyph-name="hcircumflex" unicode="&#x125;" horiz-adv-x="1175" 
d="M123 1462h233v-542h4q43 72 128 120t190 47q174 0 274 -90t101 -270v-727h-234v666q-4 125 -53 181t-159 56t-180 -80q-69 -80 -71 -198v-625h-233v1462zM442 1604h-188l219 292h227l222 -292h-191l-145 184z" />
    <glyph glyph-name="Hbar" unicode="&#x126;" horiz-adv-x="1478" 
d="M1071 829v148h-665v-148h665zM150 1462h256v-352h665v352h256v-1462h-256v608h-665v-608h-256v1462z" />
    <glyph glyph-name="hbar" unicode="&#x127;" horiz-adv-x="1196" 
d="M143 1462h234v-133h258v-133h-258v-276h4q43 72 128 119.5t189 47.5q174 0 274.5 -90t100.5 -270v-727h-233v666q-4 125 -53.5 181t-160.5 56t-180 -81t-69 -197v-625h-234v1196h-155v133h155v133z" />
    <glyph glyph-name="Itilde" unicode="&#x128;" horiz-adv-x="569" 
d="M156 1462h256v-1462h-256v1462zM647 1872q-38 -233 -227 -236q-57 0 -128 30q-72 30 -100 38t-63 8q-72 0 -88 -84h-117q14 89 53 139q41 49 77 71t79 22q71 0 165 -39t132 -39q82 0 102 90h115z" />
    <glyph glyph-name="itilde" unicode="&#x129;" horiz-adv-x="493" 
d="M129 0v1059h233v-1059h-233zM383 1239q-63 -1 -131 29t-96 38t-64 9q-71 0 -88 -84h-117q22 145 129 210q85 51 250 -20q85 -35 127 -37q81 0 103 91h114q-39 -236 -227 -236z" />
    <glyph glyph-name="Imacron" unicode="&#x12a;" horiz-adv-x="569" 
d="M156 1462h256v-1462h-256v1462zM-12 1675v133h590v-133h-590z" />
    <glyph glyph-name="imacron" unicode="&#x12b;" horiz-adv-x="493" 
d="M129 0v1059h233v-1059h-233zM-47 1278v133h590v-133h-590z" />
    <glyph glyph-name="Ibreve" unicode="&#x12c;" horiz-adv-x="569" 
d="M156 1462h256v-1462h-256v1462zM291 1698q78 0 134 39t73 116h116q-16 -145 -107 -217t-233 -72t-225 74q-84 74 -96 215h119q29 -155 219 -155z" />
    <glyph glyph-name="ibreve" unicode="&#x12d;" horiz-adv-x="493" 
d="M129 0v1059h233v-1059h-233zM254 1294q78 0 134 39t73 117h117q-16 -145 -108 -217t-232 -72q-141 0 -226 74q-84 74 -96 215h119q29 -156 219 -156z" />
    <glyph glyph-name="Iogonek" unicode="&#x12e;" horiz-adv-x="569" 
d="M102 -272q0 132 211 272h-157v1462h256v-1462q-103 -91 -137.5 -147t-34.5 -107t21.5 -75.5t49.5 -24.5q55 0 97 69l75 -18q-41 -154 -194 -154q-107 0 -147 59.5t-40 125.5z" />
    <glyph glyph-name="iogonek" unicode="&#x12f;" horiz-adv-x="493" 
d="M129 1462h233v-221h-233v221zM49 -272q0 134 211 272h-131v1059h233v-1059h-2q-105 -92 -139.5 -148t-34.5 -107q0 -50 22.5 -74.5t50.5 -24.5q58 0 95 69l76 -18q-26 -119 -96 -136.5t-90 -17.5q-68 0 -131.5 36.5t-63.5 148.5z" />
    <glyph glyph-name="Idotaccent" unicode="&#x130;" horiz-adv-x="569" 
d="M156 1462h256v-1462h-256v1462zM168 1630v221h233v-221h-233z" />
    <glyph glyph-name="dotlessi" unicode="&#x131;" horiz-adv-x="493" 
d="M129 0v1059h233v-1059h-233z" />
    <glyph glyph-name="Jcircumflex" unicode="&#x134;" horiz-adv-x="1099" 
d="M944 471q0 -231 -83 -348q-110 -158 -398 -158q-219 0 -329 128q-109 128 -107 341v78h256v-76q0 -126 42 -194t158 -68q173 0 197 162q8 53 8 121v1005h256v-991zM662 1604h-189l219 292h228l221 -292h-191l-145 184z" />
    <glyph glyph-name="jcircumflex" unicode="&#x135;" horiz-adv-x="493" 
d="M129 -80v1139h233v-1149q0 -158 -70 -244t-233 -86q-60 0 -104 8v185q37 -6 90 -8q53 -1 69 38q15 39 15 117zM102 1206h-188l219 293h227l222 -293h-191l-145 185z" />
    <glyph glyph-name="Kcommaaccent" unicode="&#x136;" horiz-adv-x="1402" 
d="M156 1462h256v-665l651 665h315l-583 -583l624 -879h-319l-479 698l-209 -206v-492h-256v1462zM565 -102h269v-183q0 -102 -91 -144q-49 -24 -147 -28v78q42 7 64 23t28 51h-123v203z" />
    <glyph glyph-name="kcommaaccent" unicode="&#x137;" horiz-adv-x="1099" 
d="M129 1462h233v-831l422 428h287l-405 -389l444 -670h-285l-323 514l-140 -135v-379h-233v1462zM438 -102h269v-183q0 -102 -91 -144q-49 -24 -147 -28v78q43 7 65 23t27 51h-123v203z" />
    <glyph glyph-name="uni0138.kGreenlandic" unicode="&#x138;" horiz-adv-x="1099" 
d="M129 1059h233v-428l422 428h287l-405 -389l444 -670h-285l-323 514l-140 -135v-379h-233v1059z" />
    <glyph glyph-name="Lacute" unicode="&#x139;" horiz-adv-x="1175" 
d="M156 1462h256v-1241h743v-221h-999v1462zM381 1896h276l-290 -292h-170z" />
    <glyph glyph-name="lacute" unicode="&#x13a;" horiz-adv-x="493" 
d="M129 1462h233v-1462h-233v1462zM313 1896h277l-291 -292h-170z" />
    <glyph glyph-name="Lcommaaccent" unicode="&#x13b;" horiz-adv-x="1175" 
d="M156 1462h256v-1241h743v-221h-999v1462zM524 -102h269v-183q0 -102 -91 -144q-49 -24 -147 -28v78q43 7 65 23t27 51h-123v203z" />
    <glyph glyph-name="lcommaaccent" unicode="&#x13c;" horiz-adv-x="493" 
d="M129 1462h233v-1462h-233v1462zM115 -102h268v-183q0 -102 -90 -144q-49 -24 -148 -28v78q43 7 65 23t28 51h-123v203z" />
    <glyph glyph-name="Lcaron" unicode="&#x13d;" horiz-adv-x="1175" 
d="M156 1462h256v-1241h743v-221h-999v1462zM672 1462h256l-166 -293h-156z" />
    <glyph glyph-name="lcaron" unicode="&#x13e;" horiz-adv-x="653" 
d="M129 1462h233v-1462h-233v1462zM494 1462h186v-592h-186v592z" />
    <glyph glyph-name="Ldot" unicode="&#x13f;" horiz-adv-x="1175" 
d="M156 1462h256v-1241h743v-221h-999v1462zM659 842v221h234v-221h-234z" />
    <glyph glyph-name="ldot" unicode="&#x140;" horiz-adv-x="743" 
d="M129 1462h233v-1462h-233v1462zM473 842v221h234v-221h-234z" />
    <glyph glyph-name="Lslash" unicode="&#x141;" horiz-adv-x="1175" 
d="M156 1462h256v-626l409 290v-190l-409 -291v-424h743v-221h-999v465l-156 -111v185l156 110v813z" />
    <glyph glyph-name="lslash" unicode="&#x142;" horiz-adv-x="493" 
d="M129 1462h233v-481l140 111v-148l-140 -110v-834h-233v653l-139 -108v145l139 109v663z" />
    <glyph glyph-name="Nacute" unicode="&#x143;" horiz-adv-x="1478" 
d="M145 1462h271l667 -1077h4v1077h244v-1462h-270l-666 1075h-6v-1075h-244v1462zM817 1896h277l-291 -292h-170z" />
    <glyph glyph-name="nacute" unicode="&#x144;" horiz-adv-x="1175" 
d="M123 1059h221v-156l4 -4q53 88 139 138t191 50q174 0 274 -90t101 -270v-727h-234v666q-4 125 -53 181t-159 56t-180 -80q-69 -80 -71 -198v-625h-233v1059zM655 1499h277l-291 -293h-170z" />
    <glyph glyph-name="Ncommaaccent" unicode="&#x145;" horiz-adv-x="1478" 
d="M145 1462h271l667 -1077h4v1077h244v-1462h-270l-666 1075h-6v-1075h-244v1462zM584 -102h268v-183q0 -102 -90 -144q-49 -24 -148 -28v78q43 7 65 23t28 51h-123v203z" />
    <glyph glyph-name="ncommaaccent" unicode="&#x146;" horiz-adv-x="1175" 
d="M123 1059h221v-156l4 -4q53 88 139 138t191 50q174 0 274 -90t101 -270v-727h-234v666q-4 125 -53 181t-159 56t-180 -80q-69 -80 -71 -198v-625h-233v1059zM451 -102h268v-183q0 -102 -90 -144q-49 -24 -148 -28v78q43 7 65 23t27 51h-122v203z" />
    <glyph glyph-name="Ncaron" unicode="&#x147;" horiz-adv-x="1478" 
d="M145 1462h271l667 -1077h4v1077h244v-1462h-270l-666 1075h-6v-1075h-244v1462zM846 1604h-228l-219 292h189l143 -182l146 182h190z" />
    <glyph glyph-name="ncaron" unicode="&#x148;" horiz-adv-x="1175" 
d="M123 1059h221v-156l4 -4q53 88 139 138t191 50q174 0 274 -90t101 -270v-727h-234v666q-4 125 -53 181t-159 56t-180 -80q-69 -80 -71 -198v-625h-233v1059zM705 1206h-228l-219 293h188l144 -182l145 182h191z" />
    <glyph glyph-name="napostrophe" unicode="&#x149;" horiz-adv-x="1175" 
d="M123 1059h221v-156l4 -4q53 88 139 138t191 50q174 0 274 -90t101 -270v-727h-234v666q-4 125 -53 181t-159 56t-180 -80q-69 -80 -71 -198v-625h-233v1059zM-35 1665h268v-182q0 -165 -237 -172v78q42 6 64 22t28 51h-123v203z" />
    <glyph glyph-name="uni014A.Eng" unicode="&#x14a;" horiz-adv-x="1478" 
d="M998 -236q50 0 69.5 39t19.5 117v43l-692 1112h-6v-1075h-244v1462h271l667 -1077h4v1077h244v-1552q0 -330 -321 -330q-72 0 -113 8v185q51 -9 101 -9z" />
    <glyph glyph-name="uni014B.eng" unicode="&#x14b;" horiz-adv-x="1175" 
d="M750 -420q-59 0 -105 8v185q41 -9 92 -9t66.5 39t15.5 117v746q0 125 -51 181t-161 56t-180.5 -81t-70.5 -197v-625h-233v1059h221v-156l4 -4q53 88 139 138t191 50q174 0 274.5 -90t100.5 -270v-817q0 -158 -70 -244t-233 -86z" />
    <glyph glyph-name="Omacron" unicode="&#x14c;" horiz-adv-x="1556" 
d="M778 1497q319 0 510 -222t191 -545q0 -324 -190 -544q-190 -219 -510 -220t-511 219q-190 220 -190 544t186 541q90 104 220 166t294 61zM778 174q224 0 334 165q111 165 111 392t-111 392t-333 165q-223 0 -335 -166t-111 -393t111 -391t334 -164zM489 1675v133h590
v-133h-590z" />
    <glyph glyph-name="omacron" unicode="&#x14d;" horiz-adv-x="1214" 
d="M909 530q0 246 -166 340q-57 33 -135 33t-135 -33q-162 -94 -166 -340q0 -153 77 -263q77 -111 223 -111t224 110t78 264zM74 529q0 249 144 404q144 156 392 155t390 -155q143 -153 143 -403q0 -249 -144 -404t-391 -155q-127 0 -226 42q-201 85 -272 292
q-36 102 -36 224zM319 1278v133h590v-133h-590z" />
    <glyph glyph-name="Obreve" unicode="&#x14e;" horiz-adv-x="1556" 
d="M778 1497q319 0 510 -222t191 -545q0 -324 -190 -544q-190 -219 -510 -220t-511 219q-190 220 -190 544t186 541q90 104 220 166t294 61zM778 174q224 0 334 165q111 165 111 392t-111 392t-333 165q-223 0 -335 -166t-111 -393t111 -391t334 -164zM563 1894
q29 -155 219 -155q78 0 134 39t73 116h117q-16 -145 -108 -217q-92 -71 -232 -71q-141 0 -225 74t-97 214h119z" />
    <glyph glyph-name="obreve" unicode="&#x14f;" horiz-adv-x="1214" 
d="M909 530q0 246 -166 340q-57 33 -135 33t-135 -33q-162 -94 -166 -340q0 -153 77 -263q77 -111 223 -111t224 110t78 264zM74 529q0 249 144 404q144 156 392 155t390 -155q143 -153 143 -403q0 -249 -144 -404t-391 -155q-127 0 -226 42q-201 85 -272 292
q-36 102 -36 224zM618 1341q78 0 135 39q56 39 72 117h117q-16 -145 -107 -217t-233 -72t-225 74q-84 74 -96 215h118q29 -156 219 -156z" />
    <glyph glyph-name="Ohungarumlaut" unicode="&#x150;" horiz-adv-x="1556" 
d="M778 1497q319 0 510 -222t191 -545q0 -324 -190 -544q-190 -219 -510 -220t-511 219q-190 220 -190 544t186 541q90 104 220 166t294 61zM778 174q224 0 334 165q111 165 111 392t-111 392t-333 165q-223 0 -335 -166t-111 -393t111 -391t334 -164zM668 1896h278
l-295 -292h-168zM1075 1896h279l-295 -292h-168z" />
    <glyph glyph-name="ohungarumlaut" unicode="&#x151;" horiz-adv-x="1214" 
d="M909 530q0 246 -166 340q-57 33 -135 33t-135 -33q-162 -94 -166 -340q0 -153 77 -263q77 -111 223 -111t224 110t78 264zM74 529q0 249 144 404q144 156 392 155t390 -155q143 -153 143 -403q0 -249 -144 -404t-391 -155q-127 0 -226 42q-201 85 -272 292
q-36 102 -36 224zM489 1499h279l-295 -293h-168zM897 1499h279l-295 -293h-168z" />
    <glyph glyph-name="OE" unicode="&#x152;" horiz-adv-x="2238" 
d="M1130 993q0 124 -92 209.5t-258 85.5q-216 0 -328 -165.5t-112 -392.5t111.5 -391.5t328.5 -164.5q159 0 254.5 87t95.5 188v544zM756 -35q-314 0 -493 220t-179 541t185.5 546t502.5 225q111 0 202 -32.5t167 -118.5v116h999v-221h-766v-383h703v-209h-703v-428h780
v-221h-1013v131q-143 -166 -385 -166z" />
    <glyph glyph-name="oe" unicode="&#x153;" horiz-adv-x="1857" 
d="M948 909q112 178 385 178q123 0 299 -93t176 -525h-774q0 -137 71.5 -225t211.5 -88t188.5 67.5t57.5 112.5h233q-43 -180 -171 -272.5t-310 -92.5q-280 0 -379 195q-59 -113 -157.5 -154t-220.5 -41q-232 0 -359 159t-127 399t135.5 399t370.5 159q188 0 265 -63
t105 -115zM1310 903q-125 0 -198.5 -82t-77.5 -198h541q-8 129 -74 204.5t-191 75.5zM305 537q0 -259 95.5 -320t209 -61t175 110.5t61.5 263.5t-66 263t-204.5 110t-204.5 -110t-66 -256z" />
    <glyph glyph-name="Racute" unicode="&#x154;" horiz-adv-x="1441" 
d="M831 797q250 0 250 233q0 188 -158 215q-46 8 -96 8h-415v-456h419zM1313 385q0 -297 80 -385h-275q-29 47 -34 104t-5 134q0 188 -61 277t-230 87h-376v-602h-256v1462h698q242 0 363 -104t121 -287t-103 -288q-41 -42 -81 -60t-58 -25v-4q141 -17 195 -166
q22 -57 22 -143zM770 1896h277l-291 -292h-170z" />
    <glyph glyph-name="racute" unicode="&#x155;" horiz-adv-x="720" 
d="M632 866q-48 0 -100 -24q-109 -49 -153 -183q-23 -68 -23 -155v-504h-233v1059h219v-205h4q20 84 111 159q92 74 198 74q40 0 88 -6v-225q-63 10 -111 10zM352 1499h277l-291 -293h-170z" />
    <glyph glyph-name="Rcommaaccent" unicode="&#x156;" horiz-adv-x="1441" 
d="M831 797q250 0 250 233q0 188 -158 215q-46 8 -96 8h-415v-456h419zM1313 385q0 -297 80 -385h-275q-29 47 -34 104t-5 134q0 188 -61 277t-230 87h-376v-602h-256v1462h698q242 0 363 -104t121 -287t-103 -288q-41 -42 -81 -60t-58 -25v-4q141 -17 195 -166
q22 -57 22 -143zM592 -102h268v-183q0 -103 -90 -144q-49 -24 -147 -28v78q43 7 65 23t27 51h-123v203z" />
    <glyph glyph-name="rcommaaccent" unicode="&#x157;" horiz-adv-x="720" 
d="M632 866q-48 0 -100 -24q-109 -49 -153 -183q-23 -68 -23 -155v-504h-233v1059h219v-205h4q20 84 111 159q92 74 198 74q40 0 88 -6v-225q-63 10 -111 10zM109 -102h268v-183q0 -102 -90 -144q-49 -24 -148 -28v78q43 7 65 23t27 51h-122v203z" />
    <glyph glyph-name="Rcaron" unicode="&#x158;" horiz-adv-x="1441" 
d="M831 797q250 0 250 233q0 188 -158 215q-46 8 -96 8h-415v-456h419zM1313 385q0 -297 80 -385h-275q-29 47 -34 104t-5 134q0 188 -61 277t-230 87h-376v-602h-256v1462h698q242 0 363 -104t121 -287t-103 -288q-41 -42 -81 -60t-58 -25v-4q141 -17 195 -166
q22 -57 22 -143zM801 1604h-228l-219 292h189l143 -182l145 182h191z" />
    <glyph glyph-name="rcaron" unicode="&#x159;" horiz-adv-x="720" 
d="M632 866q-48 0 -100 -24q-109 -49 -153 -183q-23 -68 -23 -155v-504h-233v1059h219v-205h4q20 84 111 159q92 74 198 74q40 0 88 -6v-225q-63 10 -111 10zM545 1206h-228l-219 293h189l143 -182l145 182h191z" />
    <glyph glyph-name="Sacute" unicode="&#x15a;" horiz-adv-x="1327" 
d="M324 487q0 -160 103 -236q103 -77 263 -77t236 63t77 153q1 89 -37 129q-38 41 -100 63t-164 48q-104 26 -227 58t-185 73q-167 108 -167 310t159 314t385 112q227 0 390 -123q162 -123 162 -344h-256q-18 258 -316 258q-172 0 -243 -98q-26 -38 -26 -104t49 -110
q48 -44 126 -67q240 -60 422 -112q137 -44 210 -145t74 -226q2 -230 -182 -354q-160 -107 -413 -107t-414 125q-178 137 -182 397h256zM750 1896h276l-291 -292h-170z" />
    <glyph glyph-name="sacute" unicode="&#x15b;" horiz-adv-x="1062" 
d="M540 903q-218 0 -218 -108q0 -76 107 -114q48 -17 167 -41t188 -47q224 -75 224 -278q0 -174 -155 -266q-127 -76 -318 -78q-322 0 -432 206q-36 69 -37 163h233q10 -102 78 -143t162 -41q157 0 214 66q24 28 21 73q-4 81 -111 120q-48 17 -163 39q-218 43 -315 114
t-97 221q0 151 149 234q116 64 293 64q279 0 393 -175q40 -62 50 -150h-244q-17 84 -77 112t-112 29zM578 1499h276l-291 -293h-170z" />
    <glyph glyph-name="Scircumflex" unicode="&#x15c;" horiz-adv-x="1327" 
d="M324 487q0 -160 103 -236q103 -77 263 -77t236 63t77 153q1 89 -37 129q-38 41 -100 63t-164 48q-104 26 -227 58t-185 73q-167 108 -167 310t159 314t385 112q227 0 390 -123q162 -123 162 -344h-256q-18 258 -316 258q-172 0 -243 -98q-26 -38 -26 -104t49 -110
q48 -44 126 -67q240 -60 422 -112q137 -44 210 -145t74 -226q2 -230 -182 -354q-160 -107 -413 -107t-414 125q-178 137 -182 397h256zM532 1604h-188l219 292h228l221 -292h-191l-145 184z" />
    <glyph glyph-name="scircumflex" unicode="&#x15d;" horiz-adv-x="1062" 
d="M540 903q-218 0 -218 -108q0 -76 107 -114q48 -17 167 -41t188 -47q224 -75 224 -278q0 -174 -155 -266q-127 -76 -318 -78q-322 0 -432 206q-36 69 -37 163h233q10 -102 78 -143t162 -41q157 0 214 66q24 28 21 73q-4 81 -111 120q-48 17 -163 39q-218 43 -315 114
t-97 221q0 151 149 234q116 64 293 64q279 0 393 -175q40 -62 50 -150h-244q-17 84 -77 112t-112 29zM401 1206h-188l219 293h227l222 -293h-191l-145 185z" />
    <glyph glyph-name="Scedilla" unicode="&#x15e;" horiz-adv-x="1327" 
d="M580 -360q125 0 125 84q0 39 -30 58t-70 19t-75 -20l-45 39l111 149q-349 26 -437.5 204.5t-90.5 313.5h256q0 -160 103 -236.5t263 -76.5t237 63.5t77 152.5t-38 129.5t-100 62.5t-165 47.5t-226 58.5t-237.5 106.5t-114.5 264.5q0 215 158 326.5t388 111.5t390 -124.5
t160 -342.5h-256q-10 141 -96.5 199.5t-219.5 58.5q-175 0 -221.5 -68t-46.5 -134t48 -110t126 -67q13 -3 136.5 -36t190 -50t116.5 -33t157 -94.5t107 -271.5q0 -123 -75 -252t-294 -180q-98 -25 -201 -27l-65 -86l2 -2q24 8 61 8q75 0 127.5 -41t52.5 -103
q0 -104 -75.5 -151t-151.5 -47q-142 0 -231 47l36 82q74 -32 134 -32z" />
    <glyph glyph-name="scedilla" unicode="&#x15f;" horiz-adv-x="1062" 
d="M540 903q-218 0 -218 -108q0 -76 77.5 -103.5t139 -40t125.5 -26.5q157 -34 250.5 -101t93.5 -209q0 -174 -135 -254t-304 -88l-71 -94l2 -2q59 20 150 -7t91 -129q0 -104 -75.5 -151t-151.5 -47q-142 0 -231 47l36 82q74 -32 134 -32q125 0 125 84q0 39 -30 58t-70 19
t-75 -20l-45 39l115 153q-277 25 -341 149t-66 218h233q18 -184 240 -184q157 0 197 47t38 92t-32.5 73.5t-79 46t-109.5 30t-126 26.5q-155 33 -247 99.5t-92 218.5q0 151 131.5 224.5t310.5 73.5q281 0 357 -118.5t86 -206.5h-244q-16 84 -76.5 112.5t-112.5 28.5z" />
    <glyph glyph-name="Scaron" unicode="&#x160;" horiz-adv-x="1327" 
d="M324 487q0 -160 103 -236q103 -77 263 -77t236 63t77 153q1 89 -37 129q-38 41 -100 63t-164 48q-104 26 -227 58t-185 73q-167 108 -167 310t159 314t385 112q227 0 390 -123q162 -123 162 -344h-256q-18 258 -316 258q-172 0 -243 -98q-26 -38 -26 -104t49 -110
q48 -44 126 -67q240 -60 422 -112q137 -44 210 -145t74 -226q2 -230 -182 -354q-160 -107 -413 -107t-414 125q-178 137 -182 397h256zM784 1604h-227l-219 292h188l144 -182l145 182h191z" />
    <glyph glyph-name="scaron" unicode="&#x161;" horiz-adv-x="1062" 
d="M540 903q-218 0 -218 -108q0 -76 107 -114q48 -17 167 -41t188 -47q224 -75 224 -278q0 -174 -155 -266q-127 -76 -318 -78q-322 0 -432 206q-36 69 -37 163h233q10 -102 78 -143t162 -41q157 0 214 66q24 28 21 73q-4 81 -111 120q-48 17 -163 39q-218 43 -315 114
t-97 221q0 151 149 234q116 64 293 64q279 0 393 -175q40 -62 50 -150h-244q-17 84 -77 112t-112 29zM653 1206h-227l-219 293h188l144 -182l145 182h190z" />
    <glyph glyph-name="Tcommaaccent" unicode="&#x162;" horiz-adv-x="1214" 
d="M16 1462h1184v-221h-465v-1241h-256v1241h-463v221zM471 -102h268v-183q0 -103 -90 -144q-49 -24 -147 -28v78q42 7 64 23t28 51h-123v203z" />
    <glyph glyph-name="tcommaaccent" unicode="&#x163;" horiz-adv-x="681" 
d="M340 -360q125 0 125 84q0 39 -29.5 58t-69.5 19t-75 -20l-45 39l133 177q-147 26 -165.5 112t-20.5 151v625h-177v174h177v317h233v-317h211v-174h-211v-566q0 -81 20.5 -113t88.5 -32t102 8v-180q-117 -12 -138 -12h-28l-86 -111l2 -2q23 8 61 8q76 0 128.5 -41.5
t52.5 -103.5q0 -104 -95.5 -162.5t-207 -35t-156.5 47.5l37 82q74 -32 133 -32z" />
    <glyph glyph-name="Tcaron" unicode="&#x164;" horiz-adv-x="1214" 
d="M16 1462h1184v-221h-465v-1241h-256v1241h-463v221zM723 1604h-227l-220 292h189l143 -182l146 182h190z" />
    <glyph glyph-name="tcaron" unicode="&#x165;" horiz-adv-x="800" 
d="M680 1462h256l-166 -293h-156zM456 -10q-144 0 -201 61q-58 61 -62 209v625h-177v174h177v317h233v-317h211v-174h-211v-566q0 -80 14 -103q26 -42 95 -42q70 0 102 8v-180q-117 -12 -181 -12z" />
    <glyph glyph-name="Tbar" unicode="&#x166;" horiz-adv-x="1214" 
d="M16 1462h1184v-221h-465v-283h336v-133h-336v-825h-256v825h-325v133h325v283h-463v221z" />
    <glyph glyph-name="tbar" unicode="&#x167;" horiz-adv-x="681" 
d="M456 -10q-142 0 -200 61t-63 209v315h-193v134h193v176h-177v174h177v317h233v-317h211v-174h-211v-176h229v-134h-229v-256q0 -81 20.5 -113t88.5 -32t102 8v-180q-117 -12 -181 -12z" />
    <glyph glyph-name="Utilde" unicode="&#x168;" horiz-adv-x="1478" 
d="M139 1462h256v-852q0 -74 7 -150q15 -161 144 -235q70 -39 194 -39q220 0 295 139q34 60 41 136t7 149v852h256v-936q0 -270 -164 -421q-156 -140 -434 -140q-279 0 -441 144t-161 417v936zM1106 1872q-38 -233 -227 -236q-57 0 -128 30t-100 38t-63 8q-74 0 -88 -84
h-117q14 89 53 139q40 49 76 71t80 22q71 0 165 -39t132 -39q80 0 102 90h115z" />
    <glyph glyph-name="utilde" unicode="&#x169;" horiz-adv-x="1175" 
d="M1053 0h-230v147h-4q-43 -80 -128 -128t-173 -48q-209 -1 -302 103t-93 313v672h233v-649q0 -138 54 -196t138 -58q146 0 209 76q62 76 62 212v615h234v-1059zM725 1239q-63 -1 -131 29t-96 38t-64 9q-71 0 -88 -84h-117q22 145 129 210q85 51 250 -20q85 -35 127 -37
q81 0 103 91h114q-39 -236 -227 -236z" />
    <glyph glyph-name="Umacron" unicode="&#x16a;" horiz-adv-x="1478" 
d="M139 1462h256v-852q0 -74 7 -150q15 -161 144 -235q70 -39 194 -39q220 0 295 139q34 60 41 136t7 149v852h256v-936q0 -270 -164 -421q-156 -140 -434 -140q-279 0 -441 144t-161 417v936zM446 1675v133h590v-133h-590z" />
    <glyph glyph-name="umacron" unicode="&#x16b;" horiz-adv-x="1175" 
d="M1053 0h-230v147h-4q-43 -80 -128 -128t-173 -48q-209 -1 -302 103t-93 313v672h233v-649q0 -138 54 -196t138 -58q146 0 209 76q62 76 62 212v615h234v-1059zM303 1278v133h590v-133h-590z" />
    <glyph glyph-name="Ubreve" unicode="&#x16c;" horiz-adv-x="1478" 
d="M139 1462h256v-852q0 -74 7 -150q15 -161 144 -235q70 -39 194 -39q220 0 295 139q34 60 41 136t7 149v852h256v-936q0 -270 -164 -421q-156 -140 -434 -140q-279 0 -441 144t-161 417v936zM530 1894q29 -155 220 -155q78 0 134 39t72 116h117q-16 -145 -107 -217
q-90 -71 -232 -71t-226 74t-96 214h118z" />
    <glyph glyph-name="ubreve" unicode="&#x16d;" horiz-adv-x="1175" 
d="M1053 0h-230v147h-4q-43 -80 -128 -128t-173 -48q-209 -1 -302 103t-93 313v672h233v-649q0 -138 54 -196t138 -58q146 0 209 76q62 76 62 212v615h234v-1059zM606 1341q78 0 134 39t73 117h117q-16 -145 -108 -217t-232 -72q-141 0 -225 74t-97 215h119
q29 -156 219 -156z" />
    <glyph glyph-name="Uring" unicode="&#x16e;" horiz-adv-x="1478" 
d="M139 1462h256v-852q0 -74 7 -150q15 -161 144 -235q70 -39 194 -39q220 0 295 139q34 60 41 136t7 149v852h256v-936q0 -270 -164 -421q-156 -140 -434 -140q-279 0 -441 144t-161 417v936zM594 1595q-62 57 -63 152q-1 94 61 153q62 60 151 60t151 -58t62 -154t-64 -153
t-150 -57t-148 57zM744 1874q-52 0 -88 -35t-35 -89q-1 -54 35 -90t88 -36t87 36t35 90t-35 89t-87 35z" />
    <glyph glyph-name="uring" unicode="&#x16f;" horiz-adv-x="1175" 
d="M1053 0h-230v147h-4q-43 -80 -128 -128t-173 -48q-209 -1 -302 103t-93 313v672h233v-649q0 -138 54 -196t138 -58q146 0 209 76q62 76 62 212v615h234v-1059zM598 1169q-43 -1 -82 15q-131 52 -131 196q0 93 62 152t151 59t151 -58t62 -154t-64 -153t-149 -57zM475 1381
q0 -54 36 -90t88 -36t87 36t35 90t-35 89t-87 35t-88 -35t-36 -89z" />
    <glyph glyph-name="Uhungarumlaut" unicode="&#x170;" horiz-adv-x="1478" 
d="M139 1462h256v-852q0 -74 7 -150q15 -161 144 -235q70 -39 194 -39q220 0 295 139q34 60 41 136t7 149v852h256v-936q0 -270 -164 -421q-156 -140 -434 -140q-279 0 -441 144t-161 417v936zM635 1896h278l-295 -292h-167zM1042 1896h279l-295 -292h-168z" />
    <glyph glyph-name="uhungarumlaut" unicode="&#x171;" horiz-adv-x="1175" 
d="M1053 0h-230v147h-4q-43 -80 -128 -128t-173 -48q-209 -1 -302 103t-93 313v672h233v-649q0 -138 54 -196t138 -58q146 0 209 76q62 76 62 212v615h234v-1059zM481 1499h279l-295 -293h-168zM889 1499h278l-295 -293h-167z" />
    <glyph glyph-name="Uogonek" unicode="&#x172;" horiz-adv-x="1478" 
d="M139 526v936h256v-852q0 -74 7.5 -149.5t41 -136t102 -99.5t193.5 -39t193.5 39t102.5 99.5t41 136.5t7 149v852h256v-936q0 -273 -150 -407.5t-370 -149.5q-82 -72 -116.5 -122t-34.5 -101t24.5 -75.5t70.5 -24.5t91 69l84 -18q-32 -119 -108 -136.5t-98 -17.5
q-75 0 -145.5 36t-70.5 152q0 115 178 236q-245 9 -400 147.5t-155 411.5z" />
    <glyph glyph-name="uogonek" unicode="&#x173;" horiz-adv-x="1175" 
d="M836.5 -354q43.5 0 85.5 69l79 -18q-26 -118 -100 -136t-95 -18q-70 0 -137 35.5t-67 149.5q0 55 39.5 119.5t181.5 152.5v147h-4q-43 -80 -128 -128t-173 -48q-209 0 -302 103.5t-93 312.5v672h233v-649q0 -139 53.5 -196.5t138.5 -57.5q146 0 208.5 75.5t62.5 212.5
v615h234v-1059h-125q-114 -97 -148.5 -150t-34.5 -104t24 -75.5t67.5 -24.5z" />
    <glyph glyph-name="Wcircumflex" unicode="&#x174;" horiz-adv-x="1933" 
d="M12 1462h260l265 -1118h4l295 1118h262l286 -1118h5l272 1118h260l-403 -1462h-261l-292 1118h-4l-299 -1118h-265zM823 1604h-188l219 292h227l222 -292h-191l-145 184z" />
    <glyph glyph-name="wcircumflex" unicode="&#x175;" horiz-adv-x="1593" 
d="M27 1059h247l207 -791h4l199 791h236l190 -791h4l215 791h238l-332 -1059h-240l-196 786h-4l-195 -786h-246zM664 1206h-189l219 293h228l221 -293h-191l-145 185z" />
    <glyph glyph-name="Ycircumflex" unicode="&#x176;" horiz-adv-x="1327" 
d="M793 0h-256v573l-549 889h297l387 -655l381 655h286l-546 -889v-573zM532 1604h-188l219 292h228l221 -292h-191l-145 184z" />
    <glyph glyph-name="ycircumflex" unicode="&#x177;" horiz-adv-x="1062" 
d="M233 -225q87 0 125 86q12 27 23 61l27 82l-402 1055h256l277 -791h4l268 791h244l-412 -1116q-29 -72 -57 -138q-28 -65 -67 -115q-88 -109 -251 -110q-82 0 -162 12v197q102 -14 127 -14zM395 1206h-188l219 293h227l221 -293h-190l-145 185z" />
    <glyph glyph-name="Ydieresis" unicode="&#x178;" horiz-adv-x="1327" 
d="M793 0h-256v573l-549 889h297l387 -655l381 655h286l-546 -889v-573zM967 1851v-221h-234v221h234zM381 1630v221h233v-221h-233z" />
    <glyph glyph-name="Zacute" unicode="&#x179;" horiz-adv-x="1290" 
d="M113 1462h1112v-194l-852 -1047h872v-221h-1198v209l852 1032h-786v221zM737 1896h277l-291 -292h-170z" />
    <glyph glyph-name="zacute" unicode="&#x17a;" horiz-adv-x="1024" 
d="M86 1059h860v-164l-606 -711h637v-184h-932v164l586 710h-545v185zM604 1499h277l-291 -293h-170z" />
    <glyph glyph-name="Zdotaccent" unicode="&#x17b;" horiz-adv-x="1290" 
d="M113 1462h1112v-194l-852 -1047h872v-221h-1198v209l852 1032h-786v221zM545 1630v221h233v-221h-233z" />
    <glyph glyph-name="zdotaccent" unicode="&#x17c;" horiz-adv-x="1024" 
d="M86 1059h860v-164l-606 -711h637v-184h-932v164l586 710h-545v185zM399 1233v221h234v-221h-234z" />
    <glyph glyph-name="Zcaron" unicode="&#x17d;" horiz-adv-x="1290" 
d="M113 1462h1112v-194l-852 -1047h872v-221h-1198v209l852 1032h-786v221zM774 1604h-227l-219 292h188l143 -182l146 182h190z" />
    <glyph glyph-name="zcaron" unicode="&#x17e;" horiz-adv-x="1024" 
d="M86 1059h860v-164l-606 -711h637v-184h-932v164l586 710h-545v185zM631 1206h-228l-219 293h189l143 -182l146 182h190z" />
    <glyph glyph-name="uni017F.longs" unicode="&#x17f;" horiz-adv-x="645" 
d="M548 1278q-54 0 -88 -22.5t-34 -88.5v-1167h-233v885h-175v174h175v88q0 184 79 249.5t203 65.5q125 0 174 -14v-182q-46 12 -101 12z" />
    <glyph glyph-name="uni018F.Schwa" unicode="&#x18f;" horiz-adv-x="1556" 
d="M1075.5 296.5q110.5 122.5 136.5 309.5h-870q25 -185 136 -308.5t299 -123.5t298.5 122.5zM78 731q0 52 4 96h1135q-34 312 -184 386.5t-255 74.5q-152 0 -248 -75.5t-143 -192.5h-264q72 213 243.5 345t411.5 132q164 0 294 -61.5t268.5 -222.5t138.5 -483
t-190.5 -543.5t-510.5 -221.5t-510 220.5t-190 545.5z" />
    <glyph glyph-name="florin" unicode="&#x192;" 
d="M139 -164q45 0 81 22.5t50 92.5l154 772h-186l30 174h189l65 344q65 256 361 256q56 0 149 -10l-35 -184q-58 10 -84 10q-86 0 -119.5 -35t-50.5 -115l-51 -266h209l-31 -174h-208l-150 -780q-24 -119 -123 -205t-227 -86q-60 0 -162 10l31 184q63 -10 108 -10z" />
    <glyph glyph-name="uni01A0.OHorn" unicode="&#x1a0;" horiz-adv-x="1748" 
d="M778.5 1288q-116.5 0 -201.5 -47t-138.5 -126t-79 -179t-25.5 -204.5t25.5 -205t79 -179.5t138.5 -126t201.5 -47t201.5 47t138 126t79 179.5t26 205t-26 204.5t-79 179t-138 126t-201.5 47zM1452 1061h-18q-8 0 -19 2q63 -156 63 -323t-48 -306t-138 -243.5t-220 -165
t-372 -60.5t-432 220.5t-190 544.5t191 545.5t523 221.5q178 0 321.5 -82t234.5 -219q20 -18 68 -18t151 55l-68 115l176 100l133 -231l-157 -91q-110 -65 -199 -65z" />
    <glyph glyph-name="uni01A1.oHorn" unicode="&#x1a1;" horiz-adv-x="1402" 
d="M909 531q0 152 -76.5 262t-223.5 110t-224.5 -110t-77.5 -262t77 -263.5t225 -111.5t224 111.5t76 263.5zM1143 530q0 -122 -36 -224.5t-104.5 -176.5t-168 -116t-286.5 -42t-330.5 154.5t-143.5 404.5t143 403.5t391 153.5q150 0 261.5 -57t177.5 -160q70 0 174 56
l-68 114l176 101l133 -232l-157 -90q-110 -65 -199 -65q37 -102 37 -224z" />
    <glyph glyph-name="uni01A2.OI" unicode="&#x1a2;" horiz-adv-x="1751" 
d="M895 1253h-74q-403 0 -445 -205.5t-42 -386t104 -316.5t383 -136h74v1044zM1604 -391h-256v1644h-197v-1253h-428q-324 0 -484.5 205t-160.5 525.5t160 526t485 205.5h881v-1853z" />
    <glyph glyph-name="uni01A3.oi" unicode="&#x1a3;" horiz-adv-x="1435" 
d="M309 479.5q0 -128.5 78 -228t287 -99.5h18v755h-18q-299 0 -332 -149.5t-33 -278zM592 0q-259 0 -388.5 148.5t-129.5 380.5t129.5 381t388.5 149h713v-1450h-234v1298h-145v-907h-334z" />
    <glyph glyph-name="uni01AF.UHorn" unicode="&#x1af;" horiz-adv-x="1691" 
d="M1422 1061q-58 0 -83 6v-541q0 -273 -160.5 -417t-439 -144t-439.5 144t-161 417v936h256v-852q0 -74 7.5 -149.5t41 -136t102 -99.5t193.5 -39t193.5 39t102.5 99.5t41 136.5t7 149v852h256v-284q69 0 170 55l-67 115l176 100l133 -231l-158 -91q-113 -65 -171 -65z" />
    <glyph glyph-name="uni01B0.uHorn" unicode="&#x1b0;" horiz-adv-x="1388" 
d="M1106 754q-33 0 -53 4v-758h-230v147h-4q-43 -80 -128 -128t-173 -48q-209 0 -302 103.5t-93 312.5v672h233v-649q0 -139 53.5 -196.5t138.5 -57.5q146 0 208.5 75.5t62.5 212.5v615h234v-189q55 0 153 56l-67 114l176 101l133 -232l-158 -90q-110 -65 -184 -65z" />
    <glyph glyph-name="uni01B5.ZStroke" unicode="&#x1b5;" horiz-adv-x="1290" 
d="M133 840h434l332 401h-786v221h1112v-194l-348 -428h239v-222h-420l-323 -397h872v-221h-1198v209l338 409h-252v222z" />
    <glyph glyph-name="uni01B6.zStroke" unicode="&#x1b6;" horiz-adv-x="1024" 
d="M104 635h328l199 239h-545v185h860v-164l-223 -260h188v-189h-348l-223 -262h637v-184h-932v164l231 282h-172v189z" />
    <glyph glyph-name="clickdental" unicode="&#x1c0;" horiz-adv-x="454" 
d="M123 1610h209v-2048h-209v2048z" />
    <glyph glyph-name="clicklateral" unicode="&#x1c1;" horiz-adv-x="909" 
d="M123 1610h209v-2048h-209v2048zM578 1610h208v-2048h-208v2048z" />
    <glyph glyph-name="clickretroflex" unicode="&#x1c3;" horiz-adv-x="569" 
d="M158 1462h256v-422l-68 -632h-121l-67 632v422zM147 256h275v-256h-275v256z" />
    <glyph glyph-name="DZcaron" unicode="&#x1c4;" horiz-adv-x="2768" 
d="M412 209h252q276 0 394 150q93 122 93 373t-93 371q-114 150 -394 150h-252v-1044zM156 1462h606q326 0 491 -214q154 -195 154 -517t-154 -517q-169 -214 -491 -214h-606v1462zM1591 1462h1112v-194l-852 -1047h873v-221h-1198v209l852 1032h-787v221zM2236 1565h-227
l-219 293h188l144 -183l145 183h191z" />
    <glyph glyph-name="Dzcaron" unicode="&#x1c5;" horiz-adv-x="2502" 
d="M412 209h252q276 0 394 150q93 122 93 373t-93 371q-114 150 -394 150h-252v-1044zM156 1462h606q326 0 491 -214q154 -195 154 -517t-154 -517q-169 -214 -491 -214h-606v1462zM1565 1059h860v-164l-606 -711h637v-184h-932v164l585 710h-544v185zM2101 1161h-227
l-219 293h188l144 -182l145 182h190z" />
    <glyph glyph-name="dzcaron" unicode="&#x1c6;" horiz-adv-x="2275" 
d="M381 261q76 -107 219 -106q144 1 219 112q76 111 76 275t-79 262t-221 99q-142 0 -223 -122q-67 -100 -67 -256q0 -157 76 -264zM895 143q-88 -172 -340 -172q-113 0 -206 44q-181 85 -247 299q-30 102 -30 234q1 257 135 399t317 141q182 -1 292 -92q40 -32 67 -74h4
v540h233v-1462h-221v143h-4zM1337 1059h861v-164l-607 -711h637v-184h-932v164l586 710h-545v185zM1874 1161h-227l-220 293h189l143 -182l146 182h190z" />
    <glyph glyph-name="LJ" unicode="&#x1c7;" horiz-adv-x="2275" 
d="M156 1462h256v-1241h743v-221h-999v1462zM2120 471q0 -228 -83 -348q-110 -158 -399 -158q-218 0 -327 127t-109 342v78h256v-76q0 -126 42 -194t159 -68q175 0 196 162q8 53 9 121v1005h256v-991z" />
    <glyph glyph-name="Lj" unicode="&#x1c8;" horiz-adv-x="1669" 
d="M156 1462h256v-1241h743v-221h-999v1462zM1305 1059h233v-1149q0 -158 -70 -244t-233 -86q-59 0 -105 8v185q36 -6 89 -8q54 -1 70 38q15 39 16 117v1139zM1305 1462h233v-221h-233v221z" />
    <glyph glyph-name="lj" unicode="&#x1c9;" horiz-adv-x="987" 
d="M129 1462h233v-1462h-233v1462zM623 1059h233v-1149q0 -158 -70 -244t-233 -86q-60 0 -104 8v185q36 -6 89 -8q53 -1 69 38q15 39 16 117v1139zM623 1462h233v-221h-233v221z" />
    <glyph glyph-name="NJ" unicode="&#x1ca;" horiz-adv-x="2578" 
d="M145 1462h271l667 -1077h4v1077h244v-1462h-270l-666 1075h-6v-1075h-244v1462zM2423 471q0 -228 -83 -348q-110 -158 -398 -158q-219 0 -328 127t-109 342v78h256v-76q0 -126 42 -194t159 -68q173 0 197 162q8 53 8 121v1005h256v-991z" />
    <glyph glyph-name="Nj" unicode="&#x1cb;" horiz-adv-x="1972" 
d="M145 1462h271l667 -1077h4v1077h244v-1462h-270l-666 1075h-6v-1075h-244v1462zM1608 1059h233v-1149q1 -158 -69 -244t-234 -86q-60 0 -104 8v185q36 -6 89 -8q53 -1 69 38q15 39 16 117v1139zM1608 1462h233v-221h-233v221z" />
    <glyph glyph-name="nj" unicode="&#x1cc;" horiz-adv-x="1669" 
d="M123 1059h221v-156l4 -4q53 88 139 138t191 50q174 0 274 -90t101 -270v-727h-234v666q-4 125 -53 181t-159 56t-180 -80q-69 -80 -71 -198v-625h-233v1059zM1305 1059h233v-1149q0 -158 -70 -244t-233 -86q-59 0 -105 8v185q36 -6 89 -8q54 -1 70 38q15 39 16 117v1139z
M1305 1462h233v-221h-233v221z" />
    <glyph glyph-name="Acaron" unicode="&#x1cd;" horiz-adv-x="1366" 
d="M457 582h446l-219 628h-6zM547 1462h272l563 -1462h-274l-137 387h-584l-137 -387h-264zM797 1565h-228l-219 293h189l143 -183l145 183h191z" />
    <glyph glyph-name="acaron" unicode="&#x1ce;" 
d="M299 294q0 -74 67 -106t127 -32q179 0 257 107q27 38 26 93v174q-53 -35 -168 -45t-190 -35q-119 -37 -119 -156zM1010 236q0 -80 44 -80h36q14 0 32 4v-162q-81 -27 -147 -27q-155 0 -180 129q-70 -68 -171 -98q-100 -30 -184 -31q-163 0 -270 81q-106 81 -104 229
q0 177 130 256q86 52 277 73q63 12 121 18t101 17q96 26 96 115q0 143 -223 143q-95 0 -158 -41t-72 -127h-234q11 187 159 279q119 73 323 73q282 0 387 -164q37 -58 37 -143v-544zM707 1190h-228l-219 293h189l143 -183l145 183h191z" />
    <glyph glyph-name="Icaron" unicode="&#x1cf;" horiz-adv-x="569" 
d="M156 1462h256v-1462h-256v1462zM395 1565h-227l-219 293h188l144 -183l145 183h190z" />
    <glyph glyph-name="icaron" unicode="&#x1d0;" horiz-adv-x="493" 
d="M129 0v1059h233v-1059h-233zM358 1161h-227l-219 293h188l144 -182l145 182h191z" />
    <glyph glyph-name="Ocaron" unicode="&#x1d1;" horiz-adv-x="1556" 
d="M778 1497q319 0 510 -222t191 -545q0 -324 -190 -544q-190 -219 -510 -220t-511 219q-190 220 -190 544t186 541q90 104 220 166t294 61zM778 174q224 0 334 165q111 165 111 392t-111 392t-333 165q-223 0 -335 -166t-111 -393t111 -391t334 -164zM891 1599h-227
l-220 293h189l143 -182l146 182h190z" />
    <glyph glyph-name="ocaron" unicode="&#x1d2;" horiz-adv-x="1214" 
d="M909 530q0 246 -166 340q-57 33 -135 33t-135 -33q-162 -94 -166 -340q0 -153 77 -263q77 -111 223 -111t224 110t78 264zM74 529q0 249 144 404q144 156 392 155t390 -155q143 -153 143 -403q0 -249 -144 -404t-391 -155q-127 0 -226 42q-201 85 -272 292
q-36 102 -36 224zM721 1190h-227l-220 293h189l143 -183l146 183h190z" />
    <glyph glyph-name="Ucaron" unicode="&#x1d3;" horiz-adv-x="1478" 
d="M139 1462h256v-852q0 -74 7 -150q15 -161 144 -235q70 -39 194 -39q220 0 295 139q34 60 41 136t7 149v852h256v-936q0 -270 -164 -421q-156 -140 -434 -140q-279 0 -441 144t-161 417v936zM852 1565h-227l-219 293h188l143 -183l146 183h190z" />
    <glyph glyph-name="ucaron" unicode="&#x1d4;" horiz-adv-x="1175" 
d="M1053 0h-230v147h-4q-43 -80 -128 -128t-173 -48q-209 -1 -302 103t-93 313v672h233v-649q0 -138 54 -196t138 -58q146 0 209 76q62 76 62 212v615h234v-1059zM700 1161h-227l-219 293h188l144 -182l145 182h191z" />
    <glyph glyph-name="Udieresismacron" unicode="&#x1d5;" horiz-adv-x="1478" 
d="M139 1462h256v-852q0 -74 7 -150q15 -161 144 -235q70 -39 194 -39q220 0 295 139q34 60 41 136t7 149v852h256v-936q0 -270 -164 -421q-156 -140 -434 -140q-279 0 -441 144t-161 417v936zM1032 1786v-221h-233v221h233zM446 1565v221h234v-221h-234zM444 1888v133h590
v-133h-590z" />
    <glyph glyph-name="udieresismacron" unicode="&#x1d6;" horiz-adv-x="1175" 
d="M1053 0h-230v147h-4q-43 -80 -128 -128t-173 -48q-209 -1 -302 103t-93 313v672h233v-649q0 -138 54 -196t138 -58q146 0 209 76q62 76 62 212v615h234v-1059zM881 1382v-221h-234v221h234zM295 1161v221h233v-221h-233zM293 1485v133h590v-133h-590z" />
    <glyph glyph-name="Udieresisacute" unicode="&#x1d7;" horiz-adv-x="1478" 
d="M139 1462h256v-852q0 -74 7 -150q15 -161 144 -235q70 -39 194 -39q220 0 295 139q34 60 41 136t7 149v852h256v-936q0 -270 -164 -421q-156 -140 -434 -140q-279 0 -441 144t-161 417v936zM1032 1786v-221h-233v221h233zM446 1565v221h234v-221h-234zM821 2181h277
l-291 -293h-170z" />
    <glyph glyph-name="udieresisacute" unicode="&#x1d8;" horiz-adv-x="1175" 
d="M1053 0h-230v147h-4q-43 -80 -128 -128t-173 -48q-209 -1 -302 103t-93 313v672h233v-649q0 -138 54 -196t138 -58q146 0 209 76q62 76 62 212v615h234v-1059zM881 1382v-221h-234v221h234zM295 1161v221h233v-221h-233zM666 1784h276l-291 -293h-170z" />
    <glyph glyph-name="Udieresiscaron" unicode="&#x1d9;" horiz-adv-x="1478" 
d="M139 1462h256v-852q0 -74 7 -150q15 -161 144 -235q70 -39 194 -39q220 0 295 139q34 60 41 136t7 149v852h256v-936q0 -270 -164 -421q-156 -140 -434 -140q-279 0 -441 144t-161 417v936zM1032 1786v-221h-233v221h233zM446 1565v221h234v-221h-234zM852 1888h-227
l-219 293h188l143 -182l146 182h190z" />
    <glyph glyph-name="udieresiscaron" unicode="&#x1da;" horiz-adv-x="1175" 
d="M1053 0h-230v147h-4q-43 -80 -128 -128t-173 -48q-209 -1 -302 103t-93 313v672h233v-649q0 -138 54 -196t138 -58q146 0 209 76q62 76 62 212v615h234v-1059zM881 1382v-221h-234v221h234zM295 1161v221h233v-221h-233zM700 1485h-227l-219 293h188l144 -183l145 183
h191z" />
    <glyph glyph-name="Udieresisgrave" unicode="&#x1db;" horiz-adv-x="1478" 
d="M139 1462h256v-852q0 -74 7 -150q15 -161 144 -235q70 -39 194 -39q220 0 295 139q34 60 41 136t7 149v852h256v-936q0 -270 -164 -421q-156 -140 -434 -140q-279 0 -441 144t-161 417v936zM1032 1786v-221h-233v221h233zM446 1565v221h234v-221h-234zM662 2181l186 -293
h-170l-291 293h275z" />
    <glyph glyph-name="udieresisgrave" unicode="&#x1dc;" horiz-adv-x="1175" 
d="M1053 0h-230v147h-4q-43 -80 -128 -128t-173 -48q-209 -1 -302 103t-93 313v672h233v-649q0 -138 54 -196t138 -58q146 0 209 76q62 76 62 212v615h234v-1059zM881 1382v-221h-234v221h234zM295 1161v221h233v-221h-233zM535 1778l186 -293h-170l-291 293h275z" />
    <glyph glyph-name="Adieresismacron" unicode="&#x1de;" horiz-adv-x="1366" 
d="M457 582h446l-219 628h-6zM547 1462h272l563 -1462h-274l-137 387h-584l-137 -387h-264zM977 1786v-221h-234v221h234zM391 1565v221h234v-221h-234zM389 1888v133h590v-133h-590z" />
    <glyph glyph-name="adieresismacron" unicode="&#x1df;" 
d="M299 294q0 -74 67 -106t127 -32q179 0 257 107q27 38 26 93v174q-53 -35 -168 -45t-190 -35q-119 -37 -119 -156zM1010 236q0 -80 44 -80h36q14 0 32 4v-162q-81 -27 -147 -27q-155 0 -180 129q-70 -68 -171 -98q-100 -30 -184 -31q-163 0 -270 81q-106 81 -104 229
q0 177 130 256q86 52 277 73q63 12 121 18t101 17q96 26 96 115q0 143 -223 143q-95 0 -158 -41t-72 -127h-234q11 187 159 279q119 73 323 73q282 0 387 -164q37 -58 37 -143v-544zM887 1411v-221h-234v221h234zM301 1190v221h234v-221h-234zM299 1513v134h590v-134h-590z
" />
    <glyph glyph-name="Adotmacron" unicode="&#x1e0;" horiz-adv-x="1366" 
d="M457 582h446l-219 628h-6zM547 1462h272l563 -1462h-274l-137 387h-584l-137 -387h-264zM567 1565v221h234v-221h-234zM389 1888v133h590v-133h-590z" />
    <glyph glyph-name="adotmacron" unicode="&#x1e1;" 
d="M299 294q0 -74 67 -106t127 -32q179 0 257 107q27 38 26 93v174q-53 -35 -168 -45t-190 -35q-119 -37 -119 -156zM1010 236q0 -80 44 -80h36q14 0 32 4v-162q-81 -27 -147 -27q-155 0 -180 129q-70 -68 -171 -98q-100 -30 -184 -31q-163 0 -270 81q-106 81 -104 229
q0 177 130 256q86 52 277 73q63 12 121 18t101 17q96 26 96 115q0 143 -223 143q-95 0 -158 -41t-72 -127h-234q11 187 159 279q119 73 323 73q282 0 387 -164q37 -58 37 -143v-544zM477 1190v221h234v-221h-234zM299 1513v134h590v-134h-590z" />
    <glyph glyph-name="AEmacron" unicode="&#x1e2;" horiz-adv-x="1972" 
d="M936 569v672h-74l-321 -672h395zM1892 1462v-221h-712v-383h667v-209h-667v-428h725v-221h-969v375h-490l-176 -375h-284l727 1462h1179zM977 1589v133h590v-133h-590z" />
    <glyph glyph-name="aemacron" unicode="&#x1e3;" horiz-adv-x="1820" 
d="M1269 903q-123 0 -193 -79q-69 -79 -79 -201h535q2 127 -69 203t-194 77zM299 293q0 -137 213 -137q165 0 241 120q24 39 23 93v157q-33 -33 -168 -46q-134 -12 -190 -30q-119 -37 -119 -157zM476 -29q-194 0 -303 80t-107 230q0 177 130 256q86 52 277 73q63 12 119 18
t96 17q92 27 90 115q0 143 -207 143q-98 0 -161 -41t-72 -127h-234q11 187 159 279q119 73 312 73t291 -69q41 -29 72 -74q110 145 336 143q260 0 385 -171t106 -447h-768q0 -210 152 -287q53 -27 125 -26q189 0 250 178h233q-45 -170 -174 -266t-305 -97q-278 0 -389 195
q-70 -104 -188 -150t-225 -45zM625 1190v133h589v-133h-589z" />
    <glyph glyph-name="Gcaron" unicode="&#x1e6;" horiz-adv-x="1554" 
d="M1432 0h-164l-39 172q-103 -117 -205 -162t-251 -45q-149 1 -279 61q-260 122 -358 408q-48 139 -48 296q0 323 186 540q90 104 220 166t272 61q413 0 580 -283q55 -94 69 -217h-250q-19 137 -125 214t-238 77q-237 0 -347 -165q-111 -165 -111 -392t111 -392t333 -165
q193 -4 299 102t111 299h-389v195h623v-770zM872 1599h-227l-219 293h188l144 -182l145 182h191z" />
    <glyph glyph-name="gcaron" unicode="&#x1e7;" horiz-adv-x="1214" 
d="M367 785q-62 -98 -62 -245t72 -251q72 -105 212 -105t209 107q70 107 70 258t-70 252q-70 102 -213 102t-218 -118zM868 913v146h234v-1004q0 -239 -134 -357t-386 -118q-298 0 -420 174q-45 63 -53 156h233q27 -130 168 -151q41 -5 86 -5q274 0 272 271v161h-4
q-49 -88 -134 -137q-86 -49 -198 -49q-223 0 -342 158q-120 158 -119 389q1 232 131 386t352 154q223 0 310 -174h4zM698 1190h-227l-219 293h188l144 -183l145 183h191z" />
    <glyph glyph-name="Kcaron" unicode="&#x1e8;" horiz-adv-x="1402" 
d="M156 1462h256v-665l651 665h315l-583 -583l624 -879h-319l-479 698l-209 -206v-492h-256v1462zM899 1565h-227l-219 293h188l143 -183l146 183h190z" />
    <glyph glyph-name="kcaron" unicode="&#x1e9;" horiz-adv-x="1099" 
d="M129 1462h233v-831l422 428h287l-405 -389l444 -670h-285l-323 514l-140 -135v-379h-233v1462zM731 1565h-227l-219 293h188l143 -183l146 183h190z" />
    <glyph glyph-name="Oogonek" unicode="&#x1ea;" horiz-adv-x="1556" 
d="M778 1497q319 0 510 -222t191 -545q0 -324 -190 -544q-190 -219 -510 -220t-511 219q-190 220 -190 544t186 541q90 104 220 166t294 61zM778 174q224 0 334 165q111 165 111 392t-111 392t-333 165q-223 0 -335 -166t-111 -393t111 -391t334 -164zM594 -410
q-27 37 -27 97t27 101q60 91 207 177h110q-116 -91 -154 -147t-38 -107q1 -51 25 -76t55 -24q63 0 106 70l84 -19q-40 -148 -215 -154q-122 0 -180 82z" />
    <glyph glyph-name="oogonek" unicode="&#x1eb;" horiz-adv-x="1214" 
d="M909 530q0 246 -166 340q-57 33 -135 33t-135 -33q-162 -94 -166 -340q0 -153 77 -263q77 -111 223 -111t224 110t78 264zM74 529q0 249 144 404q144 156 392 155t390 -155q143 -153 143 -403q0 -249 -144 -404t-391 -155q-127 0 -226 42q-201 85 -272 292
q-36 102 -36 224zM629 -383q63 0 106 70l84 -19q-41 -153 -215 -153q-124 0 -180 82q-27 37 -27 97t27 100q60 91 207 177h110q-116 -91 -154 -147t-38 -107q1 -51 25 -75t55 -25z" />
    <glyph glyph-name="Oogonekmacron" unicode="&#x1ec;" horiz-adv-x="1556" 
d="M778 1497q319 0 510 -222t191 -545q0 -324 -190 -544q-190 -219 -510 -220t-511 219q-190 220 -190 544t186 541q90 104 220 166t294 61zM778 174q224 0 334 165q111 165 111 392t-111 392t-333 165q-223 0 -335 -166t-111 -393t111 -391t334 -164zM594 -410
q-27 37 -27 97t27 101q60 91 207 177h110q-116 -91 -154 -147t-38 -107q1 -51 25 -76t55 -24q63 0 106 70l84 -19q-40 -148 -215 -154q-122 0 -180 82zM483 1599v134h590v-134h-590z" />
    <glyph glyph-name="oogonekmacron" unicode="&#x1ed;" horiz-adv-x="1214" 
d="M909 530q0 246 -166 340q-57 33 -135 33t-135 -33q-162 -94 -166 -340q0 -153 77 -263q77 -111 223 -111t224 110t78 264zM74 529q0 249 144 404q144 156 392 155t390 -155q143 -153 143 -403q0 -249 -144 -404t-391 -155q-127 0 -226 42q-201 85 -272 292
q-36 102 -36 224zM629 -383q63 0 106 70l84 -19q-41 -153 -215 -153q-124 0 -180 82q-27 37 -27 97t27 100q60 91 207 177h110q-116 -91 -154 -147t-38 -107q1 -51 25 -75t55 -25zM313 1190v133h590v-133h-590z" />
    <glyph glyph-name="DZ" unicode="&#x1f1;" horiz-adv-x="2768" 
d="M412 209h252q276 0 394 150q93 122 93 373t-93 371q-114 150 -394 150h-252v-1044zM156 1462h606q326 0 491 -214q154 -195 154 -517t-154 -517q-169 -214 -491 -214h-606v1462zM1591 1462h1112v-194l-852 -1047h873v-221h-1198v209l852 1032h-787v221z" />
    <glyph glyph-name="Dz" unicode="&#x1f2;" horiz-adv-x="2502" 
d="M412 209h252q276 0 394 150q93 122 93 373t-93 371q-114 150 -394 150h-252v-1044zM156 1462h606q326 0 491 -214q154 -195 154 -517t-154 -517q-169 -214 -491 -214h-606v1462zM1565 1059h860v-164l-606 -711h637v-184h-932v164l585 710h-544v185z" />
    <glyph glyph-name="dz" unicode="&#x1f3;" horiz-adv-x="2275" 
d="M381 261q76 -107 219 -106q144 1 219 112q76 111 76 275t-79 262t-221 99q-142 0 -223 -122q-67 -100 -67 -256q0 -157 76 -264zM895 143q-88 -172 -340 -172q-113 0 -206 44q-181 85 -247 299q-30 102 -30 234q1 257 135 399t317 141q182 -1 292 -92q40 -32 67 -74h4
v540h233v-1462h-221v143h-4zM1337 1059h861v-164l-607 -711h637v-184h-932v164l586 710h-545v185z" />
    <glyph glyph-name="Gacute" unicode="&#x1f4;" horiz-adv-x="1554" 
d="M1432 0h-164l-39 172q-103 -117 -205 -162t-251 -45q-149 1 -279 61q-260 122 -358 408q-48 139 -48 296q0 323 186 540q90 104 220 166t272 61q413 0 580 -283q55 -94 69 -217h-250q-19 137 -125 214t-238 77q-237 0 -347 -165q-111 -165 -111 -392t111 -392t333 -165
q193 -4 299 102t111 299h-389v195h623v-770zM872 1892h277l-291 -293h-170z" />
    <glyph glyph-name="gacute" unicode="&#x1f5;" horiz-adv-x="1214" 
d="M367 785q-62 -98 -62 -245t72 -251q72 -105 212 -105t209 107q70 107 70 258t-70 252q-70 102 -213 102t-218 -118zM868 913v146h234v-1004q0 -239 -134 -357t-386 -118q-298 0 -420 174q-45 63 -53 156h233q27 -130 168 -151q41 -5 86 -5q274 0 272 271v161h-4
q-49 -88 -134 -137q-86 -49 -198 -49q-223 0 -342 158q-120 158 -119 389q1 232 131 386t352 154q223 0 310 -174h4zM623 1493h276l-291 -293h-170z" />
    <glyph glyph-name="Ngrave" unicode="&#x1f8;" horiz-adv-x="1478" 
d="M145 1462h271l667 -1077h4v1077h244v-1462h-270l-666 1075h-6v-1075h-244v1462zM713 1851l186 -292h-170l-291 292h275z" />
    <glyph glyph-name="ngrave" unicode="&#x1f9;" horiz-adv-x="1175" 
d="M123 1059h221v-156l4 -4q53 88 139 138t191 50q174 0 274 -90t101 -270v-727h-234v666q-4 125 -53 181t-159 56t-180 -80q-69 -80 -71 -198v-625h-233v1059zM580 1483l186 -293h-170l-291 293h275z" />
    <glyph glyph-name="Aringacute" unicode="&#x1fa;" horiz-adv-x="1366" 
d="M457 582h446l-219 628h-6zM547 1462h272l563 -1462h-274l-137 387h-584l-137 -387h-264zM471 1776q0 94 61 152q61 57 151 58q89 1 151 -57t63 -154q0 -95 -64 -153q-64 -57 -151 -57q-88 0 -149 58q-62 59 -62 153zM561 1777q0 -54 36 -90t88 -36t87 36t35 90t-35 89
t-87 35t-88 -35t-36 -89zM727 2376h277l-291 -293h-170z" />
    <glyph glyph-name="aringacute" unicode="&#x1fb;" 
d="M299 294q0 -74 67 -106t127 -32q179 0 257 107q27 38 26 93v174q-53 -35 -168 -45t-190 -35q-119 -37 -119 -156zM1010 236q0 -80 44 -80h36q14 0 32 4v-162q-81 -27 -147 -27q-155 0 -180 129q-70 -68 -171 -98q-100 -30 -184 -31q-163 0 -270 81q-106 81 -104 229
q0 177 130 256q86 52 277 73q63 12 121 18t101 17q96 26 96 115q0 143 -223 143q-95 0 -158 -41t-72 -127h-234q11 187 159 279q119 73 323 73q282 0 387 -164q37 -58 37 -143v-544zM443 1248q-62 58 -62 152t61 152t151 59t152 -58t62 -154t-64 -152t-151 -57t-149 58z
M471 1402q0 -54 36 -90t88 -36t87 36t35 90t-35 89t-87 35t-88 -35t-36 -89zM666 2013h276l-291 -293h-170z" />
    <glyph glyph-name="AEacute" unicode="&#x1fc;" horiz-adv-x="1972" 
d="M936 569v672h-74l-321 -672h395zM1892 1462v-221h-712v-383h667v-209h-667v-428h725v-221h-969v375h-490l-176 -375h-284l727 1462h1179zM1296 1882h277l-291 -293h-170z" />
    <glyph glyph-name="aeacute" unicode="&#x1fd;" horiz-adv-x="1820" 
d="M1269 903q-123 0 -193 -79q-69 -79 -79 -201h535q2 127 -69 203t-194 77zM299 293q0 -137 213 -137q165 0 241 120q24 39 23 93v157q-33 -33 -168 -46q-134 -12 -190 -30q-119 -37 -119 -157zM476 -29q-194 0 -303 80t-107 230q0 177 130 256q86 52 277 73q63 12 119 18
t96 17q92 27 90 115q0 143 -207 143q-98 0 -161 -41t-72 -127h-234q11 187 159 279q119 73 312 73t291 -69q41 -29 72 -74q110 145 336 143q260 0 385 -171t106 -447h-768q0 -210 152 -287q53 -27 125 -26q189 0 250 178h233q-45 -170 -174 -266t-305 -97q-278 0 -389 195
q-70 -104 -188 -150t-225 -45zM1001 1493h277l-291 -293h-170z" />
    <glyph glyph-name="Oslashacute" unicode="&#x1fe;" horiz-adv-x="1556" 
d="M1081 1159q-112 129 -303 129q-222 0 -334 -166t-111 -377t75 -344zM778 174q224 0 334 165q111 165 111 377t-76 345l-672 -758q120 -129 303 -129zM1313 1247q166 -216 166 -529t-190 -532t-511 -221q-271 0 -454 168l-156 -174l-86 74l162 184q-166 212 -166 524
t186 529q90 104 220 166t294 61q272 0 455 -166l153 172l89 -73zM903 1905h277l-291 -293h-170z" />
    <glyph glyph-name="oslashacute" unicode="&#x1ff;" horiz-adv-x="1214" 
d="M406 242q79 -88 213 -87t212 111t78 248t-47 227zM199 147q-125 150 -125 390t144 396t390 154q211 0 348 -112l129 141l66 -57l-133 -146q125 -154 125 -393t-144 -394t-391 -155q-208 0 -346 115l-131 -143l-65 57zM811 817q-79 88 -214 87q-134 -1 -211 -109t-78 -248
t46 -230zM657 1518h277l-291 -293h-170z" />
    <glyph glyph-name="uni0200.ADoubleGrave" unicode="&#x200;" horiz-adv-x="1366" 
d="M600 1610h-168l-295 293h279zM1008 1610h-168l-295 293h278zM457 582h446l-219 628h-6zM547 1462h272l563 -1462h-274l-137 387h-584l-137 -387h-264z" />
    <glyph glyph-name="uni0201.aDoubleGrave" unicode="&#x201;" 
d="M500 1206h-168l-295 293h278zM907 1206h-168l-295 293h279zM366 188.5q67 -32.5 127 -32.5q117 0 200 50.5t83 149.5v174q-53 -35 -130.5 -42t-135.5 -17t-92.5 -21.5t-76.5 -42.5t-42 -109q0 -77 67 -109.5zM791 760q0 143 -223 143q-95 0 -158.5 -41t-71.5 -127h-234
q11 187 144.5 269.5t337.5 82.5q283 0 353.5 -111.5t70.5 -195.5v-544q0 -43 11 -61.5t44 -18.5h25q14 0 32 4v-162q-81 -27 -147 -27q-155 0 -180 129q-70 -68 -171.5 -98.5t-184.5 -30.5q-163 0 -268 80t-105 230q0 250 166.5 285.5t240.5 43.5q63 12 120.5 17.5
t127.5 24.5t70 108z" />
    <glyph glyph-name="uni0202.AinvertedBreve" unicode="&#x202;" horiz-adv-x="1366" 
d="M692.5 1901q141.5 0 225 -74t96.5 -215h-119q-29 155 -219 155q-78 0 -134.5 -38.5t-72.5 -116.5h-117q16 147 107.5 218t233 71zM457 582h446l-219 628h-6zM547 1462h272l563 -1462h-274l-137 387h-584l-137 -387h-264z" />
    <glyph glyph-name="uni0203.ainvertedBreve" unicode="&#x203;" 
d="M569 1364q-78 0 -134 -39t-73 -117h-116q16 147 107 218t232.5 71t225.5 -73.5t96 -215.5h-119q-29 156 -219 156zM366 188.5q67 -32.5 127 -32.5q117 0 200 50.5t83 149.5v174q-53 -35 -130.5 -42t-135.5 -17t-92.5 -21.5t-76.5 -42.5t-42 -109q0 -77 67 -109.5z
M791 760q0 143 -223 143q-95 0 -158.5 -41t-71.5 -127h-234q11 187 144.5 269.5t337.5 82.5q283 0 353.5 -111.5t70.5 -195.5v-544q0 -43 11 -61.5t44 -18.5h25q14 0 32 4v-162q-81 -27 -147 -27q-155 0 -180 129q-70 -68 -171.5 -98.5t-184.5 -30.5q-163 0 -268 80
t-105 230q0 250 166.5 285.5t240.5 43.5q63 12 120.5 17.5t127.5 24.5t70 108z" />
    <glyph glyph-name="uni0204.EDoubleGrave" unicode="&#x204;" horiz-adv-x="1290" 
d="M610 1610h-168l-295 293h279zM1018 1610h-168l-295 293h279zM156 1462h1052v-221h-796v-383h737v-209h-737v-428h811v-221h-1067v1462z" />
    <glyph glyph-name="uni0205.eDoubleGrave" unicode="&#x205;" 
d="M535 1206h-168l-295 293h278zM942 1206h-168l-295 293h279zM590 156q196 0 258 176h221q-35 -168 -167 -264.5t-312 -96.5q-244 0 -381 152.5t-137 395.5t141 405.5t371 162.5q125 0 224 -52t164.5 -138t95.5 -197.5t15 -230.5h-778q0 -133 73.5 -223t211.5 -90zM583 903
q-120 0 -197 -81t-81 -199h545q-13 185 -110 232.5t-157 47.5z" />
    <glyph glyph-name="uni0206.EinvertedBreve" unicode="&#x206;" horiz-adv-x="1290" 
d="M714.5 1901q141.5 0 225.5 -74t96 -215h-118q-29 155 -220 155q-78 0 -134 -38.5t-72 -116.5h-117q16 147 107 218t232.5 71zM156 1462h1052v-221h-796v-383h737v-209h-737v-428h811v-221h-1067v1462z" />
    <glyph glyph-name="uni0207.einvertedBreve" unicode="&#x207;" 
d="M561 1364q-78 0 -134 -39t-73 -117h-116q16 147 107 218t232.5 71t225.5 -73.5t96 -215.5h-119q-29 156 -219 156zM590 156q196 0 258 176h221q-35 -168 -167 -264.5t-312 -96.5q-244 0 -381 152.5t-137 395.5t141 405.5t371 162.5q125 0 224 -52t164.5 -138t95.5 -197.5
t15 -230.5h-778q0 -133 73.5 -223t211.5 -90zM583 903q-120 0 -197 -81t-81 -199h545q-13 185 -110 232.5t-157 47.5z" />
    <glyph glyph-name="uni0208.IDoubleGrave" unicode="&#x208;" horiz-adv-x="569" 
d="M188 1610h-168l-294 293h278zM596 1610h-168l-295 293h279zM156 1462h256v-1462h-256v1462z" />
    <glyph glyph-name="uni0209.iDoubleGrave" unicode="&#x209;" horiz-adv-x="561" 
d="M240 1206h-168l-295 293h278zM647 1206h-168l-295 293h279zM197 0v1059h233v-1059h-233z" />
    <glyph glyph-name="uni020A.IinvertedBreve" unicode="&#x20a;" horiz-adv-x="569" 
d="M276 1767q-78 0 -134 -38.5t-72 -116.5h-117q16 147 107.5 218t232.5 71t225 -74t96 -215h-118q-29 155 -220 155zM156 1462h256v-1462h-256v1462z" />
    <glyph glyph-name="uni020B.iinvertedBreve" unicode="&#x20b;" horiz-adv-x="575" 
d="M281 1364q-78 0 -134.5 -39t-72.5 -117h-117q16 147 107.5 218t232.5 71t225 -73.5t96 -215.5h-118q-29 156 -219 156zM170 0v1059h233v-1059h-233z" />
    <glyph glyph-name="uni020C.ODoubleGrave" unicode="&#x20c;" horiz-adv-x="1556" 
d="M702 1610h-167l-295 293h278zM1110 1610h-168l-295 293h279zM778 1497q164 0 294 -61.5t268.5 -222.5t138.5 -483t-190.5 -543.5t-510.5 -221.5t-510 220.5t-190 544.5t138 484t268 221.5t294 61.5zM778.5 1288q-116.5 0 -201.5 -47t-138.5 -126t-79 -179t-25.5 -204.5
t25.5 -205t79 -179.5t138.5 -126t201.5 -47t201.5 47t138 126t79 179.5t26 205t-26 204.5t-79 179t-138 126t-201.5 47z" />
    <glyph glyph-name="uni020D.oDoubleGrave" unicode="&#x20d;" horiz-adv-x="1214" 
d="M553 1206h-168l-295 293h279zM961 1206h-168l-295 293h278zM909 531q0 152 -76.5 262t-223.5 110t-224.5 -110t-77.5 -262t77 -263.5t225 -111.5t224 111.5t76 263.5zM74 530q0 250 143 403.5t391.5 153.5t391.5 -154.5t143 -402.5q0 -249 -143.5 -404t-391 -155
t-391 154.5t-143.5 404.5z" />
    <glyph glyph-name="uni020E.OinvertedBreve" unicode="&#x20e;" horiz-adv-x="1556" 
d="M786.5 1901q141.5 0 225.5 -74t96 -215h-119q-29 155 -219 155q-78 0 -134 -38.5t-73 -116.5h-117q16 147 107.5 218t233 71zM778 1497q164 0 294 -61.5t268.5 -222.5t138.5 -483t-190.5 -543.5t-510.5 -221.5t-510 220.5t-190 544.5t138 484t268 221.5t294 61.5z
M778.5 1288q-116.5 0 -201.5 -47t-138.5 -126t-79 -179t-25.5 -204.5t25.5 -205t79 -179.5t138.5 -126t201.5 -47t201.5 47t138 126t79 179.5t26 205t-26 204.5t-79 179t-138 126t-201.5 47z" />
    <glyph glyph-name="uni020F.oinvertedBreve" unicode="&#x20f;" horiz-adv-x="1214" 
d="M600 1364q-78 0 -134 -39t-73 -117h-117q16 147 107.5 218t233 71t225.5 -73.5t96 -215.5h-119q-29 156 -219 156zM909 531q0 152 -76.5 262t-223.5 110t-224.5 -110t-77.5 -262t77 -263.5t225 -111.5t224 111.5t76 263.5zM74 530q0 250 143 403.5t391.5 153.5
t391.5 -154.5t143 -402.5q0 -249 -143.5 -404t-391 -155t-391 154.5t-143.5 404.5z" />
    <glyph glyph-name="uni0210.RDoubleGrave" unicode="&#x210;" horiz-adv-x="1441" 
d="M666 1610h-168l-295 293h278zM1073 1610h-168l-295 293h279zM831 797q250 0 250 233q0 188 -102 205.5t-152 17.5h-415v-456h419zM1313 385q0 -297 80 -385h-275q-29 47 -34 104.5t-5 133.5q0 188 -60.5 276t-230.5 88h-376v-602h-256v1462h698q242 0 362.5 -104.5
t120.5 -287.5t-71.5 -256t-111.5 -91t-58 -25v-4q140 -17 178.5 -120t38.5 -189z" />
    <glyph glyph-name="uni0211.rDoubleGrave" unicode="&#x211;" horiz-adv-x="720" 
d="M367 1206h-168l-295 293h278zM774 1206h-168l-295 293h279zM632 866q-48 0 -100.5 -23.5t-114 -96t-61.5 -242.5v-504h-233v1059h219v-205h4q20 84 111.5 158.5t197.5 74.5q40 0 88 -6v-225q-63 10 -111 10z" />
    <glyph glyph-name="uni0212.RinvertedBreve" unicode="&#x212;" horiz-adv-x="1441" 
d="M708.5 1901q141.5 0 225.5 -74t96 -215h-119q-29 155 -219 155q-78 0 -134 -38.5t-73 -116.5h-116q16 147 107 218t232.5 71zM831 797q250 0 250 233q0 188 -102 205.5t-152 17.5h-415v-456h419zM1313 385q0 -297 80 -385h-275q-29 47 -34 104.5t-5 133.5
q0 188 -60.5 276t-230.5 88h-376v-602h-256v1462h698q242 0 362.5 -104.5t120.5 -287.5t-71.5 -256t-111.5 -91t-58 -25v-4q140 -17 178.5 -120t38.5 -189z" />
    <glyph glyph-name="uni0213.rinvertedBreve" unicode="&#x213;" horiz-adv-x="720" 
d="M418 1364q-78 0 -134.5 -39t-72.5 -117h-117q16 147 107.5 218t232.5 71t225 -73.5t97 -215.5h-119q-29 156 -219 156zM632 866q-48 0 -100.5 -23.5t-114 -96t-61.5 -242.5v-504h-233v1059h219v-205h4q20 84 111.5 158.5t197.5 74.5q40 0 88 -6v-225q-63 10 -111 10z" />
    <glyph glyph-name="uni0214.UDoubleGrave" unicode="&#x214;" horiz-adv-x="1478" 
d="M639 1610h-168l-295 293h279zM1047 1610h-168l-295 293h278zM139 1462h256v-852q0 -74 7.5 -149.5t41 -136t102 -99.5t193.5 -39t193.5 39t102.5 99.5t41 136.5t7 149v852h256v-936q0 -273 -160.5 -417t-439 -144t-439.5 144t-161 417v936z" />
    <glyph glyph-name="uni0215.uDoubleGrave" unicode="&#x215;" horiz-adv-x="1175" 
d="M512 1206h-168l-295 293h279zM920 1206h-168l-295 293h278zM1053 0h-230v147h-4q-43 -80 -128 -128t-173 -48q-209 0 -302 103.5t-93 312.5v672h233v-649q0 -139 53.5 -196.5t138.5 -57.5q146 0 208.5 75.5t62.5 212.5v615h234v-1059z" />
    <glyph glyph-name="uni0216.UinvertedBreve" unicode="&#x216;" horiz-adv-x="1478" 
d="M747.5 1901q141.5 0 225.5 -74t96 -215h-119q-29 155 -219 155q-78 0 -134 -38.5t-73 -116.5h-116q16 147 107 218t232.5 71zM139 1462h256v-852q0 -74 7.5 -149.5t41 -136t102 -99.5t193.5 -39t193.5 39t102.5 99.5t41 136.5t7 149v852h256v-936q0 -273 -160.5 -417
t-439 -144t-439.5 144t-161 417v936z" />
    <glyph glyph-name="uni0217.uinvertedBreve" unicode="&#x217;" horiz-adv-x="1175" 
d="M580 1364q-78 0 -134.5 -39t-72.5 -117h-117q16 147 107.5 218t232.5 71t225 -73.5t97 -215.5h-119q-29 156 -219 156zM1053 0h-230v147h-4q-43 -80 -128 -128t-173 -48q-209 0 -302 103.5t-93 312.5v672h233v-649q0 -139 53.5 -196.5t138.5 -57.5q146 0 208.5 75.5
t62.5 212.5v615h234v-1059z" />
    <glyph glyph-name="Scommaaccent" unicode="&#x218;" horiz-adv-x="1327" 
d="M324 487q0 -160 103 -236q103 -77 263 -77t236 63t77 153q1 89 -37 129q-38 41 -100 63t-164 48q-104 26 -227 58t-185 73q-167 108 -167 310t159 314t385 112q227 0 390 -123q162 -123 162 -344h-256q-18 258 -316 258q-172 0 -243 -98q-26 -38 -26 -104t49 -110
q48 -44 126 -67q240 -60 422 -112q137 -44 210 -145t74 -226q2 -230 -182 -354q-160 -107 -413 -107t-414 125q-178 137 -182 397h256zM528 -102h269v-183q0 -102 -90 -144q-49 -24 -148 -28v78q43 7 65 23t27 51h-123v203z" />
    <glyph glyph-name="scommaaccent" unicode="&#x219;" horiz-adv-x="1062" 
d="M540 903q-218 0 -218 -108q0 -76 107 -114q48 -17 167 -41t188 -47q224 -75 224 -278q0 -174 -155 -266q-127 -76 -318 -78q-322 0 -432 206q-36 69 -37 163h233q10 -102 78 -143t162 -41q157 0 214 66q24 28 21 73q-4 81 -111 120q-48 17 -163 39q-218 43 -315 114
t-97 221q0 151 149 234q116 64 293 64q279 0 393 -175q40 -62 50 -150h-244q-17 84 -77 112t-112 29zM391 -102h268v-183q0 -103 -90 -144q-49 -24 -147 -28v78q42 7 64 23t28 51h-123v203z" />
    <glyph glyph-name="uni021A" unicode="&#x21a;" horiz-adv-x="1214" 
d="M16 1462h1184v-221h-465v-1241h-256v1241h-463v221zM471 -102h268v-183q0 -103 -90 -144q-49 -24 -147 -28v78q42 7 64 23t28 51h-123v203z" />
    <glyph glyph-name="uni021B" unicode="&#x21b;" horiz-adv-x="681" 
d="M456 -10q-144 0 -201 61q-58 61 -62 209v625h-177v174h177v317h233v-317h211v-174h-211v-566q0 -80 14 -103q26 -42 95 -42q70 0 102 8v-180q-117 -12 -181 -12zM285 -102h268v-183q0 -102 -90 -144q-49 -24 -148 -28v78q43 7 65 23t28 51h-123v203z" />
    <glyph glyph-name="Hcaron" unicode="&#x21e;" horiz-adv-x="1478" 
d="M150 1462h256v-581h665v581h256v-1462h-256v659h-665v-659h-256v1462zM850 1565h-227l-220 293h189l143 -183l146 183h190z" />
    <glyph glyph-name="hcaron" unicode="&#x21f;" horiz-adv-x="1175" 
d="M123 1462h233v-542h4q43 72 128 120t190 47q174 0 274 -90t101 -270v-727h-234v666q-4 125 -53 181t-159 56t-180 -80q-69 -80 -71 -198v-625h-233v1462zM700 1565h-227l-219 293h188l144 -183l145 183h191z" />
    <glyph glyph-name="Adotaccent" unicode="&#x226;" horiz-adv-x="1366" 
d="M457 582h446l-219 628h-6zM547 1462h272l563 -1462h-274l-137 387h-584l-137 -387h-264zM567 1565v221h234v-221h-234z" />
    <glyph glyph-name="adotaccent" unicode="&#x227;" 
d="M299 294q0 -74 67 -106t127 -32q179 0 257 107q27 38 26 93v174q-53 -35 -168 -45t-190 -35q-119 -37 -119 -156zM1010 236q0 -80 44 -80h36q14 0 32 4v-162q-81 -27 -147 -27q-155 0 -180 129q-70 -68 -171 -98q-100 -30 -184 -31q-163 0 -270 81q-106 81 -104 229
q0 177 130 256q86 52 277 73q63 12 121 18t101 17q96 26 96 115q0 143 -223 143q-95 0 -158 -41t-72 -127h-234q11 187 159 279q119 73 323 73q282 0 387 -164q37 -58 37 -143v-544zM477 1190v221h234v-221h-234z" />
    <glyph glyph-name="Ecedilla" unicode="&#x228;" horiz-adv-x="1290" 
d="M629 -360q122 0 125 84q0 39 -30 58t-70 19t-74 -20l-45 39l135 180h-514v1462h1052v-221h-796v-383h737v-209h-737v-428h811v-221h-455l-94 -121l2 -2q24 8 81 8t103 -38q56 -43 57 -105q2 -103 -72 -150t-153 -48q-143 -2 -233 46l37 82q74 -32 133 -32z" />
    <glyph glyph-name="ecedilla" unicode="&#x229;" 
d="M524 -389q125 0 125 84q0 39 -29 58q-30 19 -70 19t-75 -20l-45 39l135 180q-225 8 -360 157t-134 390q1 240 142 404q141 165 371 165q125 0 224 -52q200 -105 260 -336q30 -112 15 -230h-778q0 -133 74 -224t211 -89q196 0 258 176h221q-36 -171 -172 -267
q-129 -94 -307 -94h74l-95 -121l2 -2q27 9 63 9q72 0 126 -41t53 -103q0 -147 -159 -187q-44 -11 -95 -11q-119 0 -205 47l37 82q76 -33 133 -33zM850 623q-13 184 -159 257q-48 24 -108 24q-61 0 -111 -22q-100 -43 -143 -149q-22 -51 -24 -110h545z" />
    <glyph glyph-name="Odieresismacron" unicode="&#x22a;" horiz-adv-x="1556" 
d="M778 1497q319 0 510 -222t191 -545q0 -324 -190 -544q-190 -219 -510 -220t-511 219q-190 220 -190 544t186 541q90 104 220 166t294 61zM778 174q224 0 334 165q111 165 111 392t-111 392t-333 165q-223 0 -335 -166t-111 -393t111 -391t334 -164zM1071 1821v-222h-233
v222h233zM485 1599v222h234v-222h-234zM483 1923v133h590v-133h-590z" />
    <glyph glyph-name="odieresismacron" unicode="&#x22b;" horiz-adv-x="1214" 
d="M909 530q0 246 -166 340q-57 33 -135 33t-135 -33q-162 -94 -166 -340q0 -153 77 -263q77 -111 223 -111t224 110t78 264zM74 529q0 249 144 404q144 156 392 155t390 -155q143 -153 143 -403q0 -249 -144 -404t-391 -155q-127 0 -226 42q-201 85 -272 292
q-36 102 -36 224zM901 1411v-221h-233v221h233zM315 1190v221h234v-221h-234zM313 1513v134h590v-134h-590z" />
    <glyph glyph-name="Otildemacron" unicode="&#x22c;" horiz-adv-x="1556" 
d="M778 1497q319 0 510 -222t191 -545q0 -324 -190 -544q-190 -219 -510 -220t-511 219q-190 220 -190 544t186 541q90 104 220 166t294 61zM778 174q224 0 334 165q111 165 111 392t-111 392t-333 165q-223 0 -335 -166t-111 -393t111 -391t334 -164zM1141 1843
q-38 -235 -228 -235q-62 0 -130 30t-97 37q-29 8 -63 8q-74 0 -88 -84h-117q14 91 53 140q73 92 151 92q78 1 148 -29t98 -40t56 -9q80 0 102 90h115zM483 1946v133h590v-133h-590z" />
    <glyph glyph-name="otildemacron" unicode="&#x22d;" horiz-adv-x="1214" 
d="M909 530q0 246 -166 340q-57 33 -135 33t-135 -33q-162 -94 -166 -340q0 -153 77 -263q77 -111 223 -111t224 110t78 264zM74 529q0 249 144 404q144 156 392 155t390 -155q143 -153 143 -403q0 -249 -144 -404t-391 -155q-127 0 -226 42q-201 85 -272 292
q-36 102 -36 224zM971 1434q-38 -233 -228 -236q-62 0 -130 30t-97 38t-63 8q-73 0 -88 -84h-117q14 91 53 140q74 93 151 92q78 -1 169 -39t133 -40q80 0 102 91h115zM313 1536v133h590v-133h-590z" />
    <glyph glyph-name="Odotaccent" unicode="&#x22e;" horiz-adv-x="1556" 
d="M778 1497q319 0 510 -222t191 -545q0 -324 -190 -544q-190 -219 -510 -220t-511 219q-190 220 -190 544t186 541q90 104 220 166t294 61zM778 174q224 0 334 165q111 165 111 392t-111 392t-333 165q-223 0 -335 -166t-111 -393t111 -391t334 -164zM662 1599v222h233
v-222h-233z" />
    <glyph glyph-name="odotaccent" unicode="&#x22f;" horiz-adv-x="1214" 
d="M909 530q0 246 -166 340q-57 33 -135 33t-135 -33q-162 -94 -166 -340q0 -153 77 -263q77 -111 223 -111t224 110t78 264zM74 529q0 249 144 404q144 156 392 155t390 -155q143 -153 143 -403q0 -249 -144 -404t-391 -155q-127 0 -226 42q-201 85 -272 292
q-36 102 -36 224zM492 1190v221h233v-221h-233z" />
    <glyph glyph-name="Odotaccentmacron" unicode="&#x230;" horiz-adv-x="1556" 
d="M778 1497q319 0 510 -222t191 -545q0 -324 -190 -544q-190 -219 -510 -220t-511 219q-190 220 -190 544t186 541q90 104 220 166t294 61zM778 174q224 0 334 165q111 165 111 392t-111 392t-333 165q-223 0 -335 -166t-111 -393t111 -391t334 -164zM662 1599v222h233
v-222h-233zM483 1923v133h590v-133h-590z" />
    <glyph glyph-name="odotaccentmacron" unicode="&#x231;" horiz-adv-x="1214" 
d="M909 530q0 246 -166 340q-57 33 -135 33t-135 -33q-162 -94 -166 -340q0 -153 77 -263q77 -111 223 -111t224 110t78 264zM74 529q0 249 144 404q144 156 392 155t390 -155q143 -153 143 -403q0 -249 -144 -404t-391 -155q-127 0 -226 42q-201 85 -272 292
q-36 102 -36 224zM492 1190v221h233v-221h-233zM313 1513v134h590v-134h-590z" />
    <glyph glyph-name="Ymacron" unicode="&#x232;" horiz-adv-x="1327" 
d="M793 0h-256v573l-549 889h297l387 -655l381 655h286l-546 -889v-573zM369 1565v133h589v-133h-589z" />
    <glyph glyph-name="ymacron" unicode="&#x233;" horiz-adv-x="1062" 
d="M233 -225q87 0 125 86q12 27 23 61l27 82l-402 1055h256l277 -791h4l268 791h244l-412 -1116q-29 -72 -57 -138q-28 -65 -67 -115q-88 -109 -251 -110q-82 0 -162 12v197q102 -14 127 -14zM236 1161v133h589v-133h-589z" />
    <glyph glyph-name="uni0237.dotlessj" unicode="&#x237;" horiz-adv-x="493" 
d="M35 -236q63 0 78.5 39t15.5 117v1139h233v-1149q0 -158 -69.5 -244t-233.5 -86q-60 0 -104 8v185q52 -9 80 -9z" />
    <glyph glyph-name="uni0259.schwa" unicode="&#x259;" 
d="M834 590q0 133 -73.5 223t-211.5 90q-104 0 -165.5 -44t-92.5 -132h-221q35 168 167.5 264t311.5 96q244 0 381 -152.5t137 -394.5t-141.5 -405.5t-370.5 -163.5q-125 0 -224.5 52.5t-202 185t-73.5 381.5h779zM556 156q120 0 196 80t82 200h-545q14 -186 110.5 -233
t156.5 -47z" />
    <glyph glyph-name="commaturnedmod" unicode="&#x2bb;" horiz-adv-x="569" 
d="M289 1161h125v-276h-256v276q0 113 71 190t185 111v-119q-125 -47 -125 -182z" />
    <glyph glyph-name="afii57929" unicode="&#x2bc;" horiz-adv-x="569" 
d="M283 1186h-125v276h256v-276q0 -119 -69 -202t-187 -99v119q74 10 100 62t25 120z" />
    <glyph glyph-name="circumflex" unicode="&#x2c6;" horiz-adv-x="493" 
d="M102 1206h-188l219 293h227l222 -293h-191l-145 185z" />
    <glyph glyph-name="caron" unicode="&#x2c7;" horiz-adv-x="493" 
d="M358 1206h-227l-219 293h188l144 -182l145 182h191z" />
    <glyph glyph-name="uni02C9" unicode="&#x2c9;" horiz-adv-x="493" 
d="M-47 1278v133h590v-133h-590z" />
    <glyph glyph-name="breve" unicode="&#x2d8;" horiz-adv-x="493" 
d="M254 1341q78 0 134 39t73 117h117q-16 -145 -107.5 -217t-233 -72t-225.5 74t-96 215h119q29 -156 219 -156z" />
    <glyph glyph-name="dotaccent" unicode="&#x2d9;" horiz-adv-x="493" 
d="M131 1233v221h234v-221h-234z" />
    <glyph glyph-name="ring" unicode="&#x2da;" horiz-adv-x="493" 
d="M248 1169q-43 0 -82 15.5t-68.5 43t-46 66.5t-16.5 86t17.5 86t47 68t67.5 43t81 14t81 -14t68.5 -43t47 -68t16.5 -86t-16.5 -86t-47 -66.5t-68.5 -43t-81 -15.5zM125 1381q0 -54 36 -90t88 -36t87 36t35 90t-35 89t-87 35t-88 -35t-36 -89z" />
    <glyph glyph-name="ogonek" unicode="&#x2db;" horiz-adv-x="493" 
d="M98 -272q0 133 234 272h110q-115 -91 -153.5 -147t-38.5 -107t24.5 -75.5t71 -24.5t90.5 69l84 -18q-32 -119 -108 -136.5t-98 -17.5q-75 0 -145.5 36.5t-70.5 148.5z" />
    <glyph glyph-name="tilde" unicode="&#x2dc;" horiz-adv-x="493" 
d="M381 1239q-57 -1 -128 29t-99.5 38.5t-63.5 8.5q-72 0 -88 -84h-117q14 89 70 160t135 71t148 -30t96.5 -39t56.5 -9q79 0 103 91h114q-39 -236 -227 -236z" />
    <glyph glyph-name="hungarumlaut" unicode="&#x2dd;" horiz-adv-x="493" 
d="M113 1499h278l-295 -293h-168zM520 1499h279l-295 -293h-168z" />
    <glyph glyph-name="uni02EE" unicode="&#x2ee;" horiz-adv-x="909" 
d="M248 1186h-125v276h256v-276q0 -167 -157 -259q-46 -28 -99 -42v119q125 46 125 182zM530 1186v276h256v-276q0 -167 -156 -259q-46 -28 -100 -42v119q127 46 125 182h-125z" />
    <glyph glyph-name="gravecmb" unicode="&#x300;" horiz-adv-x="493" 
d="M215 1499l186 -293h-170l-290 293h274z" />
    <glyph glyph-name="acutecmb" unicode="&#x301;" horiz-adv-x="493" 
d="M276 1499h277l-291 -293h-170z" />
    <glyph glyph-name="circumflexcmb" unicode="&#x302;" horiz-adv-x="493" 
d="M102 1206h-188l219 293h227l222 -293h-191l-145 185z" />
    <glyph glyph-name="tildecmb" unicode="&#x303;" horiz-adv-x="493" 
d="M381 1239q-63 -1 -131 29t-96 38t-64 9q-71 0 -88 -84h-117q22 145 129 210q85 51 250 -20q85 -35 127 -37q81 0 103 91h114q-39 -236 -227 -236z" />
    <glyph glyph-name="macroncmb" unicode="&#x304;" horiz-adv-x="493" 
d="M-47 1278v133h590v-133h-590z" />
    <glyph glyph-name="brevecmb" unicode="&#x306;" horiz-adv-x="493" 
d="M254 1341q78 0 134 39t73 117h117q-16 -145 -108 -217t-232 -72q-141 0 -226 74q-84 74 -96 215h119q29 -156 219 -156z" />
    <glyph glyph-name="dotaccentcmb" unicode="&#x307;" horiz-adv-x="493" 
d="M131 1233v221h234v-221h-234z" />
    <glyph glyph-name="dieresiscmb" unicode="&#x308;" horiz-adv-x="493" 
d="M539 1454v-221h-234v221h234zM-47 1233v221h233v-221h-233z" />
    <glyph glyph-name="uni0309.hookAboveComb" unicode="&#x309;" horiz-adv-x="2" 
d="M-627 1614q83 0 150 -40.5t67 -129.5q0 -112 -141 -144l-4 -45h-113v88q78 6 103.5 33t25.5 64q0 76 -102 76q-39 0 -72 -9l-4 101q55 6 90 6z" />
    <glyph glyph-name="ringcmb" unicode="&#x30a;" horiz-adv-x="493" 
d="M248 1169q-43 -1 -82 15q-131 52 -131 196q0 92 61 152q61 59 152 59q90 0 150 -57t62 -154q1 -96 -64 -154q-64 -57 -148 -57zM125 1381q0 -54 36 -90t88 -36t87 36t35 90t-35 89t-87 35t-88 -35t-36 -89z" />
    <glyph glyph-name="hungarumlautcmb" unicode="&#x30b;" horiz-adv-x="493" 
d="M113 1499h278l-295 -293h-168zM520 1499h279l-295 -293h-168z" />
    <glyph glyph-name="caroncmb" unicode="&#x30c;" horiz-adv-x="493" 
d="M358 1206h-227l-219 293h188l144 -182l145 182h191z" />
    <glyph glyph-name="uni030F.doubleGraveComb" unicode="&#x30f;" horiz-adv-x="0" 
d="M-717 1206h-168l-295 293h279zM-309 1206h-168l-295 293h278z" />
    <glyph glyph-name="uni0311.breveInvertedComb" unicode="&#x311;" horiz-adv-x="0" 
d="M-573 1364q-78 0 -134.5 -39t-72.5 -117h-117q16 147 107.5 218t232.5 71t225 -73.5t96 -215.5h-118q-29 156 -219 156z" />
    <glyph glyph-name="uni031B.hornComb" unicode="&#x31b;" horiz-adv-x="0" 
d="M-207 907q32 -37 83 -37t155 56l-68 114l176 101l133 -232l-157 -90q-110 -65 -181 -65t-118 26.5t-88 89.5z" />
    <glyph glyph-name="uni0323.dotBelowComb" unicode="&#x323;" horiz-adv-x="0" 
d="M-692 -406v222h233v-222h-233z" />
    <glyph glyph-name="uni0324.diaeresisBelowComb" unicode="&#x324;" horiz-adv-x="0" 
d="M-307 -184v-222h-234v222h234zM-893 -406v222h234v-222h-234z" />
    <glyph glyph-name="uni0325.ringBelowComb" unicode="&#x325;" horiz-adv-x="0" 
d="M-586 -510q-43 0 -82 15.5t-68.5 43t-46 66.5t-16.5 86t17.5 86t47 67.5t67.5 43t81 14.5t81 -14.5t68.5 -43t47 -67.5t16.5 -86t-16.5 -86t-47 -66.5t-68.5 -43t-81 -15.5zM-709 -298q0 -54 36 -90t88 -36t87 36t35 90t-34.5 89t-86.5 35t-88.5 -35t-36.5 -89z" />
    <glyph glyph-name="uni0326.commaBelowComb" unicode="&#x326;" horiz-adv-x="0" 
d="M-612 -139h262l-180 -293h-164z" />
    <glyph glyph-name="cedillacmb" unicode="&#x327;" horiz-adv-x="493" 
d="M188 -360q125 0 125 84q0 39 -29 58q-30 19 -70 19t-75 -20l-45 39l135 180h99l-95 -121l3 -2q24 8 81 8t103 -38q57 -43 57 -106q-1 -62 -23 -97q-63 -97 -225 -101q-121 0 -211 47l37 82q74 -32 133 -32z" />
    <glyph glyph-name="ogonekcmb" unicode="&#x328;" horiz-adv-x="493" 
d="M314 -457q-131 0 -189 82q-27 37 -27 97t27 101q60 91 207 177h110q-116 -91 -154 -147t-38 -107t24 -76t56 -24q62 0 106 69l84 -18q-31 -117 -151 -147q-33 -7 -55 -7z" />
    <glyph glyph-name="uni032D.circumflexBelowComb" unicode="&#x32d;" horiz-adv-x="0" 
d="M-705 -432h-188l219 293h228l221 -293h-191l-145 184z" />
    <glyph glyph-name="uni032E.breveBelowComb" unicode="&#x32e;" horiz-adv-x="0" 
d="M-580 -297q78 0 134.5 39t72.5 117h117q-16 -145 -107.5 -217t-232.5 -72t-225 73.5t-97 215.5h119q29 -156 219 -156z" />
    <glyph glyph-name="uni0330.tildeBelowComb" unicode="&#x330;" horiz-adv-x="0" 
d="M-768 -324q-72 0 -88 -84h-117q14 88 70 160t134 72q79 0 149 -30q69 -30 96.5 -39t56.5 -9q80 0 102 90h115q-38 -235 -227 -235q-63 -1 -131 29t-96.5 38t-63.5 8z" />
    <glyph glyph-name="uni0331.macronBelowComb" unicode="&#x331;" horiz-adv-x="0" 
d="M-913 -360v133h589v-133h-589z" />
    <glyph glyph-name="uni0338.slashComb" unicode="&#x338;" horiz-adv-x="0" 
d="M-162 1483h160l-856 -1532h-162z" />
    <glyph glyph-name="uni0340.graveToneComb" unicode="&#x340;" horiz-adv-x="0" 
d="M-608 1499l186 -293h-170l-291 293h275z" />
    <glyph glyph-name="uni0341.acuteToneComb" unicode="&#x341;" horiz-adv-x="0" 
d="M-557 1499h276l-290 -293h-170z" />
    <glyph glyph-name="uni0344.diaeresisTonosComb" unicode="&#x344;" horiz-adv-x="0" 
d="M-395 1239v221h233v-221h-233zM-659 1499h262l-181 -293h-163zM-991 1239v221h233v-221h-233z" />
    <glyph glyph-name="uni037E.semicolonGreek" unicode="&#x37e;" horiz-adv-x="569" 
d="M141 276h285v-276q-2 -127 -78 -213t-198 -111v125q68 16 101.5 74.5t31.5 124.5h-142v276zM141 1036h285v-276h-285v276z" />
    <glyph glyph-name="uni0384.tonos" unicode="&#x384;" horiz-adv-x="493" 
d="M156 1499h262l-180 -293h-164z" />
    <glyph glyph-name="uni0385.diaeresisTonos" unicode="&#x385;" horiz-adv-x="876" 
d="M618 1239v221h234v-221h-234zM354 1499h262l-180 -293h-164zM23 1239v221h233v-221h-233z" />
    <glyph glyph-name="uni0386.AlphaTonos" unicode="&#x386;" horiz-adv-x="1456" 
d="M547 582h446l-219 628h-6zM637 1462h272l564 -1462h-275l-137 387h-584l-137 -387h-264zM129 1499h262l-180 -293h-164z" />
    <glyph glyph-name="uni0387.anoteleia" unicode="&#x387;" horiz-adv-x="569" 
d="M141 905h285v-276h-285v276z" />
    <glyph glyph-name="uni0388.EpsilonTonos" unicode="&#x388;" horiz-adv-x="1638" 
d="M504 1462h1052v-221h-796v-383h737v-209h-737v-428h811v-221h-1067v1462zM133 1499h262l-180 -293h-164z" />
    <glyph glyph-name="uni0389.EtaTonos" unicode="&#x389;" horiz-adv-x="1826" 
d="M498 1462h256v-581h665v581h256v-1462h-256v659h-665v-659h-256v1462zM133 1499h262l-180 -293h-164z" />
    <glyph glyph-name="uni038A.IotaTonos" unicode="&#x38a;" horiz-adv-x="917" 
d="M504 1462h256v-1462h-256v1462zM133 1499h262l-180 -293h-164z" />
    <glyph glyph-name="uni038C.OmicronTonos" unicode="&#x38c;" horiz-adv-x="1781" 
d="M1003.5 1497q163.5 0 293.5 -61.5t268.5 -221.5t138.5 -484t-191 -544.5t-509.5 -220.5t-509.5 220.5t-191 544.5t138.5 484t268.5 221.5t293.5 61.5zM1003.5 1288q-116.5 0 -201.5 -47t-138.5 -126t-79 -179t-25.5 -204.5t25.5 -205t79 -179.5t138.5 -126t201.5 -47
t201.5 47t138.5 126t79 179.5t25.5 205t-25.5 204.5t-79 179t-138.5 126t-201.5 47zM133 1499h262l-180 -293h-164z" />
    <glyph glyph-name="uni038E.UpsilonTonos" unicode="&#x38e;" horiz-adv-x="1757" 
d="M1223 0h-256v573l-549 889h297l387 -655l381 655h286l-546 -889v-573zM133 1499h262l-180 -293h-164z" />
    <glyph glyph-name="uni038F.OmegaTonos" unicode="&#x38f;" horiz-adv-x="1769" 
d="M1696 846q0 -382 -305 -617v-8h317v-221h-578v225q150 115 225 259.5t75 350.5t-111 330.5t-317.5 124.5t-317.5 -124.5t-111 -330.5t75 -350.5t224 -259.5v-225h-577v221h317v8q-133 100 -219 254.5t-86 336.5t49.5 303.5t139.5 204.5t218 126t369 43t427 -171.5
t186 -479.5zM133 1499h262l-180 -293h-164z" />
    <glyph glyph-name="uni0390.iotaDiaeresisTonos" unicode="&#x390;" horiz-adv-x="667" 
d="M547 1235v180h192v-180h-192zM283 1542h262l-180 -354h-164zM-49 1235v180h192v-180h-192zM203 180v879h233v-828q0 -55 19.5 -65t46.5 -10h14q13 0 33 4v-162q-73 -27 -150 -27q-196 0 -196 209z" />
    <glyph glyph-name="uni0391.Alpha" unicode="&#x391;" horiz-adv-x="1366" 
d="M457 582h446l-219 628h-6zM547 1462h272l563 -1462h-274l-137 387h-584l-137 -387h-264z" />
    <glyph glyph-name="uni0392.Beta" unicode="&#x392;" horiz-adv-x="1441" 
d="M412 209h452q117 0 181.5 60.5t64.5 170.5t-64.5 168t-181.5 58h-452v-457zM1300 1100q0 -223 -208 -312v-4q135 -29 204.5 -128t69.5 -248q0 -286 -198.5 -347t-340.5 -61h-671v1462h710q197 0 315.5 -90t118.5 -272zM412 850h417q92 0 153.5 52t61.5 157t-55 149.5
t-160 44.5h-417v-403z" />
    <glyph glyph-name="uni0393.Gamma" unicode="&#x393;" horiz-adv-x="1214" 
d="M156 1462h1009v-221h-753v-1241h-256v1462z" />
    <glyph glyph-name="uni0394" unicode="&#x394;" horiz-adv-x="1398" 
d="M18 0l557 1458h226l581 -1458h-1364zM684 1204l-369 -1003h758z" />
    <glyph glyph-name="uni0395.Epsilon" unicode="&#x395;" horiz-adv-x="1290" 
d="M156 1462h1052v-221h-796v-383h737v-209h-737v-428h811v-221h-1067v1462z" />
    <glyph glyph-name="uni0396.Zeta" unicode="&#x396;" horiz-adv-x="1290" 
d="M113 1462h1112v-194l-852 -1047h872v-221h-1198v209l852 1032h-786v221z" />
    <glyph glyph-name="uni0397.Eta" unicode="&#x397;" horiz-adv-x="1478" 
d="M150 1462h256v-581h665v581h256v-1462h-256v659h-665v-659h-256v1462z" />
    <glyph glyph-name="uni0398.Theta" unicode="&#x398;" horiz-adv-x="1556" 
d="M479 848h596v-221h-596v221zM778 1497q164 0 294 -61.5t268.5 -222.5t138.5 -483t-190.5 -543.5t-510.5 -221.5t-510 220.5t-190 544.5t138 484t268 221.5t294 61.5zM778.5 1288q-116.5 0 -201.5 -47t-138.5 -126t-79 -179t-25.5 -204.5t25.5 -205t79 -179.5t138.5 -126
t201.5 -47t201.5 47t138 126t79 179.5t26 205t-26 204.5t-79 179t-138 126t-201.5 47z" />
    <glyph glyph-name="uni0399.Iota" unicode="&#x399;" horiz-adv-x="569" 
d="M156 1462h256v-1462h-256v1462z" />
    <glyph glyph-name="uni039A.Kappa" unicode="&#x39a;" horiz-adv-x="1402" 
d="M156 1462h256v-665l651 665h315l-583 -583l624 -879h-319l-479 698l-209 -206v-492h-256v1462z" />
    <glyph glyph-name="uni039B.Lambda" unicode="&#x39b;" horiz-adv-x="1366" 
d="M250 0h-264l561 1462h272l563 -1462h-274l-424 1210h-6z" />
    <glyph glyph-name="uni039C.Mu" unicode="&#x39c;" horiz-adv-x="1820" 
d="M152 1462h360l403 -1145h5l393 1145h356v-1462h-244v1128h-4l-405 -1128h-211l-406 1128h-4v-1128h-243v1462z" />
    <glyph glyph-name="uni039D.Nu" unicode="&#x39d;" horiz-adv-x="1478" 
d="M145 1462h271l667 -1077h4v1077h244v-1462h-270l-666 1075h-6v-1075h-244v1462z" />
    <glyph glyph-name="uni039E.Xi" unicode="&#x39e;" horiz-adv-x="1273" 
d="M152 649v209h970v-209h-970zM92 1241v221h1090v-221h-1090zM78 0v221h1118v-221h-1118z" />
    <glyph glyph-name="uni039F.Omicron" unicode="&#x39f;" horiz-adv-x="1556" 
d="M778 1497q164 0 294 -61.5t268.5 -222.5t138.5 -483t-190.5 -543.5t-510.5 -221.5t-510 220.5t-190 544.5t138 484t268 221.5t294 61.5zM778.5 1288q-116.5 0 -201.5 -47t-138.5 -126t-79 -179t-25.5 -204.5t25.5 -205t79 -179.5t138.5 -126t201.5 -47t201.5 47t138 126
t79 179.5t26 205t-26 204.5t-79 179t-138 126t-201.5 47z" />
    <glyph glyph-name="uni03A0.Pi" unicode="&#x3a0;" horiz-adv-x="1478" 
d="M150 1462h1177v-1462h-256v1241h-665v-1241h-256v1462z" />
    <glyph glyph-name="uni03A1.Rho" unicode="&#x3a1;" horiz-adv-x="1366" 
d="M1042 1012q0 241 -251 241h-379v-483h374q100 0 178 57t78 185zM156 1462h645q281 0 389 -136.5t108 -374t-171 -314t-326 -76.5h-389v-561h-256v1462z" />
    <glyph glyph-name="uni03A3.Sigma" unicode="&#x3a3;" horiz-adv-x="1239" 
d="M1171 221v-221h-1067v211l521 549l-521 518v184h1053v-221h-719l477 -473l-505 -547h761z" />
    <glyph glyph-name="uni03A4.Tau" unicode="&#x3a4;" horiz-adv-x="1214" 
d="M16 1462h1184v-221h-465v-1241h-256v1241h-463v221z" />
    <glyph glyph-name="uni03A5.Upsilon" unicode="&#x3a5;" horiz-adv-x="1327" 
d="M793 0h-256v573l-549 889h297l387 -655l381 655h286l-546 -889v-573z" />
    <glyph glyph-name="uni03A6.Phi" unicode="&#x3a6;" horiz-adv-x="1527" 
d="M311 663.5q0 -247.5 324 -290.5v762q-169 -22 -246.5 -123t-77.5 -348.5zM891 1137v-764q326 43 326 380t-326 384zM206.5 1159.5q143.5 156.5 428.5 179.5v185h256v-185q284 -23 428.5 -180t144.5 -403t-150 -405.5t-423 -182.5v-168h-256v168q-270 23 -421 181
t-151 406t143.5 404.5z" />
    <glyph glyph-name="uni03A7.Chi" unicode="&#x3a7;" horiz-adv-x="1327" 
d="M29 1462h305l332 -516l346 516h286l-483 -704l518 -758h-311l-365 559l-370 -559h-293l518 758z" />
    <glyph glyph-name="uni03A8.Psi" unicode="&#x3a8;" horiz-adv-x="1681" 
d="M139 797v665h256v-643q0 -127 75 -192.5t241 -81.5v917h256v-917q166 16 242.5 81.5t76.5 192.5v643h256v-665q0 -345 -225 -406t-350 -69v-322h-256v322q-412 26 -492 188t-80 287z" />
    <glyph glyph-name="uni03A9" unicode="&#x3a9;" horiz-adv-x="1550" 
d="M872 0v385q157 31 242.5 151t85.5 298t-122.5 309t-313.5 131t-314.5 -132t-123.5 -313q0 -367 323 -444v-385h-555v186h375v97q-182 60 -278.5 205.5t-96.5 342.5q0 141 52.5 260t143.5 204t212 133.5t332 48.5t403.5 -178.5t192.5 -474.5t-140.5 -404.5t-236.5 -136.5
v-97h377v-186h-558z" />
    <glyph glyph-name="uni03AA.IotaDiaeresis" unicode="&#x3aa;" horiz-adv-x="569" 
d="M578 1858v-222h-234v222h234zM-8 1636v222h233v-222h-233zM156 1462h256v-1462h-256v1462z" />
    <glyph glyph-name="uni03AB.UpsilonDiaeresis" unicode="&#x3ab;" horiz-adv-x="1327" 
d="M956 1858v-222h-233v222h233zM371 1636v222h233v-222h-233zM793 0h-256v573l-549 889h297l387 -655l381 655h286l-546 -889v-573z" />
    <glyph glyph-name="uni03AC.alphaTonos" unicode="&#x3ac;" horiz-adv-x="1241" 
d="M530 1499h263l-181 -293h-163zM378.5 270.5q71.5 -114.5 218.5 -114.5q148 0 220 112t72 273q0 247 -106.5 304.5t-185.5 57.5t-136.5 -31.5t-105.5 -106.5t-48 -228q0 -152 71.5 -266.5zM881 156q-90 -181 -326 -181q-235 0 -358 163t-123 394.5t126 393t367 161.5
q98 0 180 -47t127 -122h5v141h233v-828q0 -55 19.5 -65t46.5 -10h14q11 0 33 4v-162q-73 -27 -160 -27q-88 0 -129 47.5t-49 137.5h-6z" />
    <glyph glyph-name="uni03AD.epsilonTonos" unicode="&#x3ad;" horiz-adv-x="1105" 
d="M463 1499h262l-180 -293h-164zM562 905q-102 0 -165 -29.5t-63 -104.5t44 -100.5t120 -25.5h172v-182h-170q-100 0 -146.5 -35t-46.5 -116t69.5 -120.5t179.5 -39.5t157 29.5t69.5 64.5t32.5 88h234q-33 -195 -168.5 -279t-338.5 -84t-337.5 79t-134.5 245
q0 102 59 168.5t145 83.5v4q-78 23 -121.5 80t-43.5 139q0 151 127.5 234t317.5 83q391 0 445 -315h-221q-14 76 -64 104.5t-152 28.5z" />
    <glyph glyph-name="uni03AE.etaTonos" unicode="&#x3ae;" horiz-adv-x="1175" 
d="M498 1499h262l-180 -293h-164zM123 1059h221v-156l4 -4q53 88 139 138t191 50q174 0 274.5 -90t100.5 -270v-1118h-234v1057q0 125 -51 181t-161 56t-180.5 -81t-70.5 -197v-625h-233v1059z" />
    <glyph glyph-name="uni03AF.iotaTonos" unicode="&#x3af;" horiz-adv-x="491" 
d="M156 1499h262l-180 -293h-164zM129 180v879h233v-828q0 -55 19.5 -65t46.5 -10h14q13 0 33 4v-162q-73 -27 -149 -27q-197 0 -197 209z" />
    <glyph glyph-name="uni03B0.upsilonDiaeresisTonos" unicode="&#x3b0;" horiz-adv-x="1177" 
d="M805 1235v180h192v-180h-192zM500 1542h262l-180 -354h-164zM168 1235v180h192v-180h-192zM987 1059q119 -216 119 -491t-139 -436t-377 -161q-373 0 -420 156t-47 260v672h233v-649q0 -139 59.5 -196.5t192.5 -57.5t198.5 115.5t65.5 291.5q0 334 -141 496h256z" />
    <glyph glyph-name="uni03B1.alpha" unicode="&#x3b1;" horiz-adv-x="1241" 
d="M378.5 270.5q71.5 -114.5 218.5 -114.5q148 0 220 112t72 273q0 247 -106.5 304.5t-185.5 57.5t-136.5 -31.5t-105.5 -106.5t-48 -228q0 -152 71.5 -266.5zM881 156q-90 -181 -326 -181q-235 0 -358 163t-123 394.5t126 393t367 161.5q98 0 180 -47t127 -122h5v141h233
v-828q0 -55 19.5 -65t46.5 -10h14q11 0 33 4v-162q-73 -27 -160 -27q-88 0 -129 47.5t-49 137.5h-6z" />
    <glyph glyph-name="uni03B2.beta" unicode="&#x3b2;" horiz-adv-x="1183" 
d="M858 427q0 104 -27.5 157t-91 93t-241.5 50v154q199 0 240.5 81.5t41.5 143.5q0 207 -207 207q-141 0 -176 -92.5t-35 -173.5v-768q86 -123 250 -123q128 0 187 83.5t59 187.5zM362 -391h-233v1462q0 194 123.5 310t311.5 116q189 0 319.5 -100t130.5 -269
q0 -104 -51.5 -190t-157.5 -119v-4q129 -16 208 -115.5t79 -253.5q0 -205 -129 -340t-366 -135q-130 0 -235 72v-434z" />
    <glyph glyph-name="uni03B3.gamma" unicode="&#x3b3;" horiz-adv-x="1069" 
d="M602 -391h-233v285q0 234 -113 587t-244 578h258q76 -128 159 -353.5t116 -412.5h6q132 258 167.5 449.5t49.5 316.5h244q-96 -645 -410 -1112v-338z" />
    <glyph glyph-name="uni03B4.delta" unicode="&#x3b4;" horiz-adv-x="1214" 
d="M908.5 508q4.5 135 -66.5 209q-41 41 -92.5 68.5t-141.5 58.5q-147 -27 -224 -104.5t-77 -223.5t78.5 -253t223.5 -107t220 108.5t79.5 243.5zM426 971q-162 71 -162 235q0 74 65 182.5t328 108.5q86 0 175.5 -22.5t148.5 -51.5v-225q-139 115 -340 115q-66 0 -103.5 -32
t-37.5 -85t23 -81.5t89 -56.5t156 -68t177 -97t142.5 -153.5t55.5 -218.5t-36 -221t-104.5 -173t-168 -115t-286.5 -41t-330.5 151.5t-143.5 389.5q0 173 107.5 298.5t244.5 160.5z" />
    <glyph glyph-name="uni03B5.epsilon" unicode="&#x3b5;" horiz-adv-x="1105" 
d="M562 905q-102 0 -165 -29.5t-63 -104.5t44 -100.5t120 -25.5h172v-182h-170q-100 0 -146.5 -35t-46.5 -116t69.5 -120.5t179.5 -39.5t157 29.5t69.5 64.5t32.5 88h234q-33 -195 -168.5 -279t-338.5 -84t-337.5 79t-134.5 245q0 102 59 168.5t145 83.5v4q-78 23 -121.5 80
t-43.5 139q0 151 127.5 234t317.5 83q391 0 445 -315h-221q-14 76 -64 104.5t-152 28.5z" />
    <glyph glyph-name="uni03B6.zeta" unicode="&#x3b6;" horiz-adv-x="964" 
d="M735 -146q0 66 -23.5 91.5t-88.5 25.5h-45q-225 0 -362.5 157t-137.5 405t133.5 444.5t337.5 300.5h-385v184h782v-170q-355 -133 -498 -314t-135 -441q12 -381 316 -381h63q273 0 273 -260q0 -111 -27 -211h-229q26 103 26 169z" />
    <glyph glyph-name="uni03B7.eta" unicode="&#x3b7;" horiz-adv-x="1175" 
d="M123 1059h221v-156l4 -4q53 88 139 138t191 50q174 0 274.5 -90t100.5 -270v-1118h-234v1057q0 125 -51 181t-161 56t-180.5 -81t-70.5 -197v-625h-233v1059z" />
    <glyph glyph-name="uni03B8.theta" unicode="&#x3b8;" horiz-adv-x="1214" 
d="M905 848q-27 459 -229.5 459t-276 -112t-90.5 -347h596zM608 156q137 0 211 112.5t86 358.5h-596q12 -246 87 -358.5t212 -112.5zM608.5 -29q-278.5 0 -406.5 188.5t-128 569.5t128 571.5t406.5 190.5t406.5 -190.5t128 -571.5t-128 -569.5t-406.5 -188.5z" />
    <glyph glyph-name="uni03B9.iota" unicode="&#x3b9;" horiz-adv-x="491" 
d="M129 180v879h233v-828q0 -55 19.5 -65t46.5 -10h14q13 0 33 4v-162q-73 -27 -149 -27q-197 0 -197 209z" />
    <glyph glyph-name="uni03BA.kappa" unicode="&#x3ba;" horiz-adv-x="1099" 
d="M129 1059h233v-428l422 428h287l-405 -389l444 -670h-285l-323 514l-140 -135v-379h-233v1059z" />
    <glyph glyph-name="uni03BB.lambda" unicode="&#x3bb;" horiz-adv-x="1122" 
d="M237 1303q-59 0 -124 -15v197q81 12 167 12q161 0 231.5 -89.5t137.5 -272.5l342 -934q12 -33 31.5 -39t38.5 -6h14q13 0 33 4v-162q-73 -27 -149 -27q-77 0 -111.5 31t-54.5 90l-238 699h-4l-277 -791h-256l402 1055l-33 100q-23 75 -57 111.5t-93 36.5z" />
    <glyph glyph-name="uni03BC" unicode="&#x3bc;" horiz-adv-x="1175" 
d="M356 -391h-233v1450h233v-649q0 -139 53.5 -196.5t138.5 -57.5q146 0 208.5 75.5t62.5 212.5v615h234v-1059h-230v147h-4q-43 -76 -123.5 -126t-154.5 -50q-122 0 -185 74v-436z" />
    <glyph glyph-name="uni03BD.nu" unicode="&#x3bd;" horiz-adv-x="1067" 
d="M1028 1059q-94 -524 -383 -1059h-242l-385 1059h254l271 -823h4q143 338 184 523t60 300h237z" />
    <glyph glyph-name="uni03BE.xi" unicode="&#x3be;" horiz-adv-x="937" 
d="M709 -137q0 57 -19.5 82.5t-83.5 25.5h-80q-223 0 -335.5 113.5t-112.5 312.5q0 295 274 379v4q-96 31 -160.5 118.5t-64.5 199.5q0 203 131 301t318 98t292 -43v-215q-140 74 -265 74q-126 0 -184.5 -47.5t-58.5 -155.5t61.5 -173t207.5 -65h190v-182h-198
q-172 0 -241 -64.5t-69 -205.5q0 -264 250 -264h86q147 0 219 -59.5t72 -192.5t-25 -219h-231q27 121 27 178z" />
    <glyph glyph-name="uni03BF.omicron" unicode="&#x3bf;" horiz-adv-x="1214" 
d="M909 531q0 152 -76.5 262t-223.5 110t-224.5 -110t-77.5 -262t77 -263.5t225 -111.5t224 111.5t76 263.5zM74 530q0 250 143 403.5t391.5 153.5t391.5 -154.5t143 -402.5q0 -249 -143.5 -404t-391 -155t-391 154.5t-143.5 404.5z" />
    <glyph glyph-name="pi" unicode="&#x3c0;" horiz-adv-x="1271" 
d="M827 252v610h-432v-862h-207v862h-143v197h1151v-197h-162v-579q0 -62 14.5 -91.5t60.5 -29.5t93 20v-155q-88 -41 -163 -41q-131 0 -171.5 66.5t-40.5 199.5z" />
    <glyph glyph-name="uni03C1.rho" unicode="&#x3c1;" horiz-adv-x="1251" 
d="M867 792.5q-77 110.5 -220 110.5t-218 -101.5t-75 -273.5q0 -254 113 -313t189 -59t131 32.5t106 108t51 230.5t-77 265.5zM129 528q0 251 140.5 405t391.5 154t384 -157.5t133 -396.5t-117.5 -400.5t-339.5 -161.5q-172 0 -250 61.5t-104 104.5h-5v-528h-233v919z" />
    <glyph glyph-name="uni03C2.sigma1" unicode="&#x3c2;" 
d="M735 -146q0 66 -23.5 91.5t-88.5 25.5h-45q-234 0 -370 158t-136 400q0 241 135.5 399.5t386.5 158.5q193 0 327.5 -97.5t149.5 -284.5h-233q-14 98 -79 148t-163 50q-191 0 -241 -132.5t-50 -226.5q0 -177 82.5 -282.5t241.5 -105.5h63q273 0 273 -260q0 -111 -27 -211
h-229q26 103 26 169z" />
    <glyph glyph-name="uni03C3.sigma" unicode="&#x3c3;" horiz-adv-x="1249" 
d="M915 530q0 235 -114.5 292t-227 57t-189.5 -99.5t-77 -250.5q0 -150 77 -261.5t225 -111.5t227 111.5t79 262.5zM993 885q137 -127 137 -367t-137.5 -393.5t-384.5 -153.5t-390.5 154t-143.5 402t141 390t393 142h606v-174h-221z" />
    <glyph glyph-name="uni03C4.tau" unicode="&#x3c4;" horiz-adv-x="985" 
d="M381 180v705h-365v174h949v-174h-351v-654q0 -55 19.5 -65t46.5 -10h14q13 0 33 4v-162q-73 -27 -149 -27q-197 0 -197 209z" />
    <glyph glyph-name="uni03C5.upsilon" unicode="&#x3c5;" horiz-adv-x="1177" 
d="M987 1059q119 -216 119 -491t-139 -436t-377 -161q-373 0 -420 156t-47 260v672h233v-649q0 -139 59.5 -196.5t192.5 -57.5t198.5 115.5t65.5 291.5q0 334 -141 496h256z" />
    <glyph glyph-name="uni03C6.phi" unicode="&#x3c6;" horiz-adv-x="1525" 
d="M647 903q-170 0 -255 -108.5t-85 -263.5t84.5 -265t255.5 -110v747zM1136 794.5q-85 108.5 -255 108.5v-747q171 0 255.5 110t84.5 265t-85 263.5zM647 -29q-252 0 -412.5 157.5t-160.5 401.5t160 400.5t413 156.5v277h234v-277q253 0 413 -156.5t160 -400.5
t-160.5 -401.5t-412.5 -157.5v-362h-234v362z" />
    <glyph glyph-name="uni03C7.chi" unicode="&#x3c7;" horiz-adv-x="1140" 
d="M426 371l-375 688h268l246 -488l256 488h256l-368 -670l413 -780h-266l-293 577l-284 -577h-261z" />
    <glyph glyph-name="uni03C8.psi" unicode="&#x3c8;" horiz-adv-x="1464" 
d="M1274 1059q119 -216 119 -490q0 -275 -148 -436.5t-389 -161.5v-362h-233v362q-264 0 -382 102.5t-118 313.5v672h233v-649q0 -141 65.5 -197.5t201.5 -56.5v1208h233v-1208q134 0 218.5 119.5t84.5 287.5q0 328 -141 496h256z" />
    <glyph glyph-name="uni03C9.omega" unicode="&#x3c9;" horiz-adv-x="1630" 
d="M305 563q0 -280 74 -343.5t127 -63.5q100 0 146 56t46 198v415h234v-413q0 -145 48 -200.5t144 -55.5q146 0 173.5 162.5t27.5 244.5q0 328 -141 496h256q119 -216 119 -493t-119 -436t-336 -159q-104 0 -177 40t-112 104q-94 -144 -300 -144t-324.5 158.5t-118.5 422.5
t51 371t67 136h256q-141 -162 -141 -496z" />
    <glyph glyph-name="uni03CA.iotaDiaeresis" unicode="&#x3ca;" horiz-adv-x="491" 
d="M539 1454v-221h-234v221h234zM-47 1233v221h233v-221h-233zM129 180v879h233v-828q0 -55 19.5 -65t46.5 -10h14q13 0 33 4v-162q-73 -27 -149 -27q-197 0 -197 209z" />
    <glyph glyph-name="uni03CB.upsilonDiaeresis" unicode="&#x3cb;" horiz-adv-x="1177" 
d="M881 1454v-221h-234v221h234zM295 1233v221h233v-221h-233zM987 1059q119 -216 119 -491t-139 -436t-377 -161q-373 0 -420 156t-47 260v672h233v-649q0 -139 59.5 -196.5t192.5 -57.5t198.5 115.5t65.5 291.5q0 334 -141 496h256z" />
    <glyph glyph-name="uni03CC.omicronTonos" unicode="&#x3cc;" horiz-adv-x="1214" 
d="M516 1499h262l-180 -293h-164zM909 531q0 152 -76.5 262t-223.5 110t-224.5 -110t-77.5 -262t77 -263.5t225 -111.5t224 111.5t76 263.5zM74 530q0 250 143 403.5t391.5 153.5t391.5 -154.5t143 -402.5q0 -249 -143.5 -404t-391 -155t-391 154.5t-143.5 404.5z" />
    <glyph glyph-name="uni03CD.upsilonTonos" unicode="&#x3cd;" horiz-adv-x="1177" 
d="M498 1499h262l-180 -293h-164zM987 1059q119 -216 119 -491t-139 -436t-377 -161q-373 0 -420 156t-47 260v672h233v-649q0 -139 59.5 -196.5t192.5 -57.5t198.5 115.5t65.5 291.5q0 334 -141 496h256z" />
    <glyph glyph-name="uni03CE.omegaTonos" unicode="&#x3ce;" horiz-adv-x="1630" 
d="M725 1499h262l-180 -293h-164zM305 563q0 -280 74 -343.5t127 -63.5q100 0 146 56t46 198v415h234v-413q0 -145 48 -200.5t144 -55.5q146 0 173.5 162.5t27.5 244.5q0 328 -141 496h256q119 -216 119 -493t-119 -436t-336 -159q-104 0 -177 40t-112 104
q-94 -144 -300 -144t-324.5 158.5t-118.5 422.5t51 371t67 136h256q-141 -162 -141 -496z" />
    <glyph glyph-name="uni0400.EGraveCyrillic" unicode="&#x400;" horiz-adv-x="1290" 
d="M713 1903l186 -293h-170l-291 293h275zM156 1462h1052v-221h-796v-383h737v-209h-737v-428h811v-221h-1067v1462z" />
    <glyph glyph-name="uni0401.IoCyrillic" unicode="&#x401;" horiz-adv-x="1290" 
d="M999 1858v-222h-233v222h233zM414 1636v222h233v-222h-233zM156 1462h1052v-221h-796v-383h737v-209h-737v-428h811v-221h-1067v1462z" />
    <glyph glyph-name="uni0402.DjeCyrillic" unicode="&#x402;" horiz-adv-x="1519" 
d="M950 176q113 0 182.5 69.5t69.5 229.5t-79 224.5t-214 64.5q-86 0 -154.5 -44t-101.5 -97v-623h-256v1241h-381v221h1184v-221h-547v-407q49 53 134 83.5t179 30.5q208 0 350 -115t142 -356t-140.5 -373.5t-363.5 -132.5q-49 0 -94 6v211q39 -12 90 -12z" />
    <glyph glyph-name="uni0403.GjeCyrillic" unicode="&#x403;" horiz-adv-x="1214" 
d="M692 1903h277l-291 -293h-170zM156 1462h1009v-221h-753v-1241h-256v1462z" />
    <glyph glyph-name="uni0404.ECyrillic" unicode="&#x404;" horiz-adv-x="1478" 
d="M950 858v-209h-612q17 -201 128 -338t312 -137q243 0 304 151.5t69 231.5h250q-16 -258 -186 -425t-437 -167q-320 0 -510 220.5t-190 544.5t138 484t268 221.5t274 61.5q275 0 445.5 -135t195.5 -365h-256q-33 129 -119 210t-261 81t-285 -121.5t-136 -308.5h608z" />
    <glyph glyph-name="uni0405.DzeCyrillic" unicode="&#x405;" horiz-adv-x="1327" 
d="M324 487q0 -160 103 -236.5t263 -76.5t237 63.5t77 152.5t-38 129.5t-100 62.5t-165 47.5t-226 58.5t-237.5 106.5t-114.5 264.5q0 215 158 326.5t388 111.5t390 -124.5t160 -342.5h-256q-10 141 -96.5 199.5t-219.5 58.5q-175 0 -221.5 -68t-46.5 -134t48 -110t126 -67
q13 -3 136.5 -36t190 -50t116.5 -33t157 -94.5t107 -271.5q0 -229 -170 -344t-424 -115t-424 131.5t-174 390.5h256z" />
    <glyph glyph-name="uni0406.ICyrillic" unicode="&#x406;" horiz-adv-x="569" 
d="M156 1462h256v-1462h-256v1462z" />
    <glyph glyph-name="uni0407.YiCyrillic" unicode="&#x407;" horiz-adv-x="569" 
d="M578 1858v-222h-234v222h234zM-8 1636v222h233v-222h-233zM156 1462h256v-1462h-256v1462z" />
    <glyph glyph-name="uni0408.JeCyrillic" unicode="&#x408;" horiz-adv-x="1099" 
d="M944 471q0 -228 -96.5 -367t-384.5 -139q-220 0 -328 127.5t-108 341.5v78h256v-76q0 -125 42 -193.5t158 -68.5q173 0 189 107.5t16 175.5v1005h256v-991z" />
    <glyph glyph-name="uni0409.LjeCyrillic" unicode="&#x409;" horiz-adv-x="2287" 
d="M1712 209q252 0 252 242q0 126 -78 183.5t-178 57.5h-375v-483h379zM70 213q91 0 140 76.5t75 232.5q8 68 15 124t16.5 190t9.5 626h1007v-561h389q284 0 391 -136.5t107 -372.5t-171 -314t-327 -78h-645v1241h-512q-4 -135 -5 -239.5t-5.5 -240t-24.5 -251.5
t-42.5 -197.5t-104 -201t-291.5 -119.5q-65 0 -115 8v221q49 -8 93 -8z" />
    <glyph glyph-name="uni040A.NjeCyrillic" unicode="&#x40a;" horiz-adv-x="2281" 
d="M1706 209q252 0 252 242q0 124 -74 166t-182 42h-375v-450h379zM1071 659h-665v-659h-256v1462h256v-581h665v581h256v-581h389q283 0 390.5 -127.5t107.5 -362t-171 -313t-327 -78.5h-645v659z" />
    <glyph glyph-name="uni040B.TsheCyrillic" unicode="&#x40b;" horiz-adv-x="1499" 
d="M1120 526q0 238 -202 238q-96 0 -165 -37t-100 -76v-651h-256v1241h-381v221h1184v-221h-547v-379q115 86 308 86t304 -92t111 -268v-588h-256v526z" />
    <glyph glyph-name="uni040C.KjeCyrillic" unicode="&#x40c;" horiz-adv-x="1402" 
d="M739 1903h277l-291 -293h-170zM156 1462h256v-665l651 665h315l-583 -583l624 -879h-319l-479 698l-209 -206v-492h-256v1462z" />
    <glyph glyph-name="uni040D.IGraveCyrillic" unicode="&#x40d;" horiz-adv-x="1478" 
d="M705 1903l186 -293h-170l-291 293h275zM150 1462h256v-1089l620 1089h301v-1462h-256v1098l-629 -1098h-292v1462z" />
    <glyph glyph-name="uni040E.UshortCyrillic" unicode="&#x40e;" horiz-adv-x="1327" 
d="M670 1745q78 0 134 39t73 117h116q-16 -145 -107 -217t-232.5 -72t-225.5 73.5t-96 215.5h119q29 -156 219 -156zM225 213q78 0 145.5 48t100.5 130l-481 1071h305l334 -817h4l340 817h287l-484 -1073q-94 -211 -224 -304t-296 -93q-65 0 -115 8v221q50 -8 84 -8z" />
    <glyph glyph-name="uni040F.DzheCyrillic" unicode="&#x40f;" horiz-adv-x="1478" 
d="M150 1462h256v-1241h665v1241h256v-1462h-461v-362h-256v362h-460v1462z" />
    <glyph glyph-name="uni0410.ACyrillic" unicode="&#x410;" horiz-adv-x="1366" 
d="M457 582h446l-219 628h-6zM547 1462h272l563 -1462h-274l-137 387h-584l-137 -387h-264z" />
    <glyph glyph-name="uni0411.BeCyrillic" unicode="&#x411;" horiz-adv-x="1366" 
d="M791 209q251 0 251 242q0 126 -77 183.5t-179 57.5h-374v-483h379zM156 1462h1009v-221h-753v-340h389q282 0 389.5 -135.5t107.5 -372.5t-171 -315t-326 -78h-645v1462z" />
    <glyph glyph-name="uni0412.VeCyrillic" unicode="&#x412;" horiz-adv-x="1441" 
d="M412 209h452q117 0 181.5 60.5t64.5 170.5t-64.5 168t-181.5 58h-452v-457zM1300 1100q0 -223 -208 -312v-4q135 -29 204.5 -128t69.5 -248q0 -286 -198.5 -347t-340.5 -61h-671v1462h710q197 0 315.5 -90t118.5 -272zM412 850h417q92 0 153.5 52t61.5 157t-55 149.5
t-160 44.5h-417v-403z" />
    <glyph glyph-name="uni0413.GeCyrillic" unicode="&#x413;" horiz-adv-x="1214" 
d="M156 1462h1009v-221h-753v-1241h-256v1462z" />
    <glyph glyph-name="uni0414.DeCyrillic" unicode="&#x414;" horiz-adv-x="1654" 
d="M1141 221v1020h-512q-4 -135 -6.5 -408.5t-71.5 -521.5q-15 -47 -35 -90h625zM1378 0h-1102v-362h-256v583h164q100 38 127 135.5t36 165.5t16.5 124t16.5 183t9 633h1008v-1241h237v-583h-256v362z" />
    <glyph glyph-name="uni0415.IeCyrillic" unicode="&#x415;" horiz-adv-x="1290" 
d="M156 1462h1052v-221h-796v-383h737v-209h-737v-428h811v-221h-1067v1462z" />
    <glyph glyph-name="uni0416.ZheCyrillic" unicode="&#x416;" horiz-adv-x="2238" 
d="M991 1462h256v-665l651 665h316l-584 -583l625 -879h-320l-479 698l-209 -206v-492h-256v492l-209 206l-479 -698h-319l624 879l-583 583h315l651 -665v665z" />
    <glyph glyph-name="uni0417.ZeCyrillic" unicode="&#x417;" horiz-adv-x="1210" 
d="M608 174q273 0 273 254q0 160 -71 199t-140.5 44t-163.5 3v190q162 -4 238.5 42t76.5 181q0 96 -58 148.5t-140 52.5q-141 0 -200.5 -82t-55.5 -211h-252q8 226 137.5 364t343.5 138q213 0 347 -101t134 -292q0 -239 -215 -316v-4q127 -25 201 -124.5t74 -223.5
q0 -227 -149 -349t-393 -122t-375.5 135.5t-135.5 378.5h252q-4 -141 63.5 -223t208.5 -82z" />
    <glyph glyph-name="uni0418.IiCyrillic" unicode="&#x418;" horiz-adv-x="1478" 
d="M150 1462h256v-1089l620 1089h301v-1462h-256v1098l-629 -1098h-292v1462z" />
    <glyph glyph-name="uni0419.IiShortCyrillic" unicode="&#x419;" horiz-adv-x="1478" 
d="M745 1745q78 0 134.5 39t72.5 117h117q-16 -145 -107.5 -217t-232.5 -72t-225 73.5t-96 215.5h118q29 -156 219 -156zM150 1462h256v-1089l620 1089h301v-1462h-256v1098l-629 -1098h-292v1462z" />
    <glyph glyph-name="uni041A.KaCyrillic" unicode="&#x41a;" horiz-adv-x="1402" 
d="M156 1462h256v-665l651 665h315l-583 -583l624 -879h-319l-479 698l-209 -206v-492h-256v1462z" />
    <glyph glyph-name="uni041B.ElCyrillic" unicode="&#x41b;" horiz-adv-x="1507" 
d="M94 213q91 0 141 79t65 189q15 109 22.5 165t16.5 183t9 633h1008v-1462h-256v1241h-512q-4 -135 -5 -239.5t-12 -384t-129 -452.5t-327 -173q-65 0 -115 8v221q50 -8 94 -8z" />
    <glyph glyph-name="uni041C.EmCyrillic" unicode="&#x41c;" horiz-adv-x="1820" 
d="M152 1462h360l403 -1145h5l393 1145h356v-1462h-244v1128h-4l-405 -1128h-211l-406 1128h-4v-1128h-243v1462z" />
    <glyph glyph-name="uni041D.EnCyrillic" unicode="&#x41d;" horiz-adv-x="1478" 
d="M150 1462h256v-581h665v581h256v-1462h-256v659h-665v-659h-256v1462z" />
    <glyph glyph-name="uni041E.OCyrillic" unicode="&#x41e;" horiz-adv-x="1556" 
d="M778 1497q164 0 294 -61.5t268.5 -222.5t138.5 -483t-190.5 -543.5t-510.5 -221.5t-510 220.5t-190 544.5t138 484t268 221.5t294 61.5zM778.5 1288q-116.5 0 -201.5 -47t-138.5 -126t-79 -179t-25.5 -204.5t25.5 -205t79 -179.5t138.5 -126t201.5 -47t201.5 47t138 126
t79 179.5t26 205t-26 204.5t-79 179t-138 126t-201.5 47z" />
    <glyph glyph-name="uni041F.PeCyrillic" unicode="&#x41f;" horiz-adv-x="1478" 
d="M150 1462h1177v-1462h-256v1241h-665v-1241h-256v1462z" />
    <glyph glyph-name="uni0420.ErCyrillic" unicode="&#x420;" horiz-adv-x="1366" 
d="M1042 1012q0 241 -251 241h-379v-483h374q100 0 178 57t78 185zM156 1462h645q281 0 389 -136.5t108 -374t-171 -314t-326 -76.5h-389v-561h-256v1462z" />
    <glyph glyph-name="uni0421.EsCyrillic" unicode="&#x421;" horiz-adv-x="1478" 
d="M778 1288q-222 0 -333 -163.5t-111 -393.5t111 -393.5t333 -163.5q164 0 260 106.5t113 276.5h250q-16 -262 -186.5 -427t-436.5 -165q-320 0 -510 220.5t-190 544.5t138 484t268 221.5t274 61.5q275 0 445.5 -133.5t195.5 -366.5h-256q-74 291 -365 291z" />
    <glyph glyph-name="uni0422.TeCyrillic" unicode="&#x422;" horiz-adv-x="1214" 
d="M16 1462h1184v-221h-465v-1241h-256v1241h-463v221z" />
    <glyph glyph-name="uni0423.UCyrillic" unicode="&#x423;" horiz-adv-x="1249" 
d="M225 213q78 0 145.5 48t100.5 130l-481 1071h305l334 -817h4l340 817h287l-484 -1073q-94 -211 -224 -304t-296 -93q-65 0 -115 8v221q50 -8 84 -8z" />
    <glyph glyph-name="uni0424.EfCyrillic" unicode="&#x424;" horiz-adv-x="1527" 
d="M311 663.5q0 -247.5 324 -290.5v762q-169 -22 -246.5 -123t-77.5 -348.5zM891 1137v-764q326 43 326 380t-326 384zM206.5 1159.5q143.5 156.5 428.5 179.5v185h256v-185q284 -23 428.5 -180t144.5 -403t-150 -405.5t-423 -182.5v-168h-256v168q-270 23 -421 181
t-151 406t143.5 404.5z" />
    <glyph glyph-name="uni0425.KhaCyrillic" unicode="&#x425;" horiz-adv-x="1327" 
d="M29 1462h305l332 -516l346 516h286l-483 -704l518 -758h-311l-365 559l-370 -559h-293l518 758z" />
    <glyph glyph-name="uni0426.TseCyrillic" unicode="&#x426;" horiz-adv-x="1544" 
d="M150 1462h256v-1241h624v1241h256v-1241h238v-583h-256v362h-1118v1462z" />
    <glyph glyph-name="uni0427.CheCyrillic" unicode="&#x427;" horiz-adv-x="1376" 
d="M969 641q-125 -86 -391 -86q-78 0 -167 22.5t-188.5 93t-99.5 244.5v547h256v-485q0 -125 72.5 -181.5t220.5 -56.5q80 0 168 34.5t129 78.5v610h256v-1462h-256v641z" />
    <glyph glyph-name="uni0428.ShaCyrillic" unicode="&#x428;" horiz-adv-x="2152" 
d="M1204 221h543v1241h256v-1462h-1853v1462h256v-1241h542v1241h256v-1241z" />
    <glyph glyph-name="uni0429.ShchaCyrillic" unicode="&#x429;" horiz-adv-x="2260" 
d="M1204 221h543v1241h256v-1241h238v-583h-256v362h-1835v1462h256v-1241h542v1241h256v-1241z" />
    <glyph glyph-name="uni042A.HardSignCyrillic" unicode="&#x42a;" horiz-adv-x="1527" 
d="M952 209q252 0 252 242q0 126 -78 183.5t-178 57.5h-375v-483h379zM317 1241h-301v221h557v-561h390q283 0 390 -136.5t107 -372.5t-171 -314t-326 -78h-646v1241z" />
    <glyph glyph-name="uni042B.YeriCyrillic" unicode="&#x42b;" horiz-adv-x="1935" 
d="M1522 1462h256v-1462h-256v1462zM156 1462h256v-561h389q282 0 389.5 -135.5t107.5 -372.5t-171 -315t-326 -78h-645v1462zM791 209q251 0 251 242q0 126 -77 183.5t-179 57.5h-374v-483h379z" />
    <glyph glyph-name="uni042C.SoftSignCyrillic" unicode="&#x42c;" horiz-adv-x="1366" 
d="M156 1462h256v-561h389q282 0 389.5 -135.5t107.5 -372.5t-171 -315t-326 -78h-645v1462zM791 209q251 0 251 242q0 126 -77 183.5t-179 57.5h-374v-483h379z" />
    <glyph glyph-name="uni042D.ECyrillic" unicode="&#x42d;" horiz-adv-x="1478" 
d="M720 1497q144 0 274 -61.5t268.5 -221.5t138.5 -484t-191 -544.5t-510 -220.5q-265 0 -435.5 164.5t-186.5 427.5h250q17 -166 112 -274.5t260 -108.5q202 0 313 137t128 338h-613v209h609q-26 187 -137 308.5t-286 121.5q-174 0 -259.5 -81t-118.5 -210h-256
q23 228 194 364t446 136z" />
    <glyph glyph-name="uni042E.IuCyrillic" unicode="&#x42e;" horiz-adv-x="2125" 
d="M1347.5 1288q-116.5 0 -201.5 -47t-138.5 -126t-79 -179t-25.5 -204.5t25.5 -205t79 -179.5t138.5 -126t201.5 -47t201.5 47t138.5 126t79 179.5t25.5 205t-25.5 204.5t-79 179t-138.5 126t-201.5 47zM1356 1497q156 0 286 -61.5t268 -221.5t138 -484t-138 -484
t-269 -220.5t-289 -60.5q-300 0 -488 192.5t-215 491.5h-237v-649h-256v1462h256v-604h243q38 279 225 459t476 180z" />
    <glyph glyph-name="uni042F.IaCyrillic" unicode="&#x42f;" horiz-adv-x="1366" 
d="M575 1253q-251 0 -251 -241q0 -128 78 -185t178 -57h374v483h-379zM395 578q-327 80 -327 432q0 295 170 373.5t327 78.5h645v-1462h-256v561h-278l-385 -561h-307z" />
    <glyph glyph-name="uni0430.aCyrillic" unicode="&#x430;" 
d="M366 188.5q67 -32.5 127 -32.5q117 0 200 50.5t83 149.5v174q-53 -35 -130.5 -42t-135.5 -17t-92.5 -21.5t-76.5 -42.5t-42 -109q0 -77 67 -109.5zM791 760q0 143 -223 143q-95 0 -158.5 -41t-71.5 -127h-234q11 187 144.5 269.5t337.5 82.5q283 0 353.5 -111.5
t70.5 -195.5v-544q0 -43 11 -61.5t44 -18.5h25q14 0 32 4v-162q-81 -27 -147 -27q-155 0 -180 129q-70 -68 -171.5 -98.5t-184.5 -30.5q-163 0 -268 80t-105 230q0 250 166.5 285.5t240.5 43.5q63 12 120.5 17.5t127.5 24.5t70 108z" />
    <glyph glyph-name="uni0431.beCyrillic" unicode="&#x431;" horiz-adv-x="1214" 
d="M909 530q0 237 -111.5 293t-224 56t-189.5 -99.5t-77 -250.5q0 -150 77 -261.5t225 -111.5t224 111.5t76 262.5zM674 1063q206 0 337.5 -146.5t131.5 -391.5t-143.5 -399.5t-395.5 -154.5t-391 170t-139 494q0 256 48 385t87 184q74 111 181.5 163t278.5 59t189.5 29
t22.5 42h219q-8 -157 -82.5 -214t-237.5 -68q-164 -11 -247.5 -37.5t-159 -87t-99.5 -213.5h5q123 186 395 186z" />
    <glyph glyph-name="uni0432.veCyrillic" unicode="&#x432;" horiz-adv-x="1122" 
d="M362 174h277q86 0 131 40t45 111.5t-45 109.5t-131 38h-277v-299zM1001 797q0 -161 -151 -226v-4q98 -20 148.5 -92.5t50.5 -156.5q0 -318 -390 -318h-530v1059h557q143 0 229 -64.5t86 -197.5zM362 627h250q68 0 112 33.5t44 100.5t-40 95.5t-116 28.5h-250v-258z" />
    <glyph glyph-name="uni0433.geCyrillic" unicode="&#x433;" horiz-adv-x="866" 
d="M129 1059h719v-174h-486v-885h-233v1059z" />
    <glyph glyph-name="uni0434.deCyrillic" unicode="&#x434;" horiz-adv-x="1415" 
d="M973 885h-410q0 -396 -17.5 -517.5t-45.5 -193.5h473v711zM236 -322h-216v496h134q31 8 57 31q49 37 65 91t23.5 92t18 128.5t10.5 542.5h878v-885h189v-496h-215v322h-944v-322z" />
    <glyph glyph-name="uni0435.ieCyrillic" unicode="&#x435;" 
d="M590 156q196 0 258 176h221q-35 -168 -167 -264.5t-312 -96.5q-244 0 -381 152.5t-137 395.5t141 405.5t371 162.5q125 0 224 -52t164.5 -138t95.5 -197.5t15 -230.5h-778q0 -133 73.5 -223t211.5 -90zM583 903q-120 0 -197 -81t-81 -199h545q-13 185 -110 232.5
t-157 47.5z" />
    <glyph glyph-name="uni0436.zheCyrillic" unicode="&#x436;" horiz-adv-x="1708" 
d="M737 1059h234v-428l422 428h286l-405 -389l444 -670h-284l-324 514l-139 -135v-379h-234v379l-139 135l-324 -514h-284l444 670l-405 389h286l422 -428v428z" />
    <glyph glyph-name="uni0437.zeCyrillic" unicode="&#x437;" horiz-adv-x="1105" 
d="M549 1087q192 0 320 -83t128 -228q0 -88 -44 -145.5t-122 -79.5v-4q86 -16 145.5 -83t59.5 -163q0 -172 -134 -251t-339 -79q-204 0 -338.5 84t-167.5 279h234q27 -182 256 -182q113 0 182.5 39.5t69.5 120.5t-46 116t-147 35h-170v182h172q76 0 120 25.5t44 100.5
t-63.5 104.5t-164.5 29.5t-151.5 -28.5t-64.5 -104.5h-222q56 315 443 315z" />
    <glyph glyph-name="uni0438.iiCyrillic" unicode="&#x438;" horiz-adv-x="1251" 
d="M129 1059h233v-727h5l464 727h289v-1059h-233v733h-4l-475 -733h-279v1059z" />
    <glyph glyph-name="uni0439.iiShortCyrillic" unicode="&#x439;" horiz-adv-x="1251" 
d="M633 1341q78 0 134 39t73 117h116q-16 -145 -107 -217t-232.5 -72t-225.5 74t-96 215h119q29 -156 219 -156zM129 1059h233v-727h5l464 727h289v-1059h-233v733h-4l-475 -733h-279v1059z" />
    <glyph glyph-name="uni043A.kaCyrillic" unicode="&#x43a;" horiz-adv-x="1099" 
d="M129 1059h233v-428l422 428h287l-405 -389l444 -670h-285l-323 514l-140 -135v-379h-233v1059z" />
    <glyph glyph-name="uni043B.elCyrillic" unicode="&#x43b;" horiz-adv-x="1316" 
d="M89 168q54 0 102.5 37t64.5 91t23.5 92t17.5 124t10 547h879v-1059h-234v885h-407q0 -503 -47 -654q-33 -120 -112 -179.5t-286 -59.5q-66 0 -100 6v176q35 -6 89 -6z" />
    <glyph glyph-name="uni043C.emCyrillic" unicode="&#x43c;" horiz-adv-x="1411" 
d="M129 1059h383l197 -756h4l188 756h381v-1059h-235v797h-3l-217 -797h-243l-217 797h-5v-797h-233v1059z" />
    <glyph glyph-name="uni043D.enCyrillic" unicode="&#x43d;" horiz-adv-x="1251" 
d="M129 1059h233v-438h527v438h233v-1059h-233v446h-527v-446h-233v1059z" />
    <glyph glyph-name="uni043E.oCyrillic" unicode="&#x43e;" horiz-adv-x="1214" 
d="M909 531q0 152 -76.5 262t-223.5 110t-224.5 -110t-77.5 -262t77 -263.5t225 -111.5t224 111.5t76 263.5zM74 530q0 250 143 403.5t391.5 153.5t391.5 -154.5t143 -402.5q0 -249 -143.5 -404t-391 -155t-391 154.5t-143.5 404.5z" />
    <glyph glyph-name="uni043F.peCyrillic" unicode="&#x43f;" horiz-adv-x="1251" 
d="M129 1059h993v-1059h-233v885h-527v-885h-233v1059z" />
    <glyph glyph-name="uni0440.erCyrillic" unicode="&#x440;" horiz-adv-x="1251" 
d="M867 792.5q-77 110.5 -220 110.5t-218 -102.5t-75 -272.5q0 -254 113 -313t189 -59t131 32.5t106 108t51 230.5t-77 265.5zM354 915q92 172 340 172q114 0 206.5 -44t185 -159t92.5 -353q0 -237 -117.5 -398.5t-339.5 -161.5q-172 0 -250 61.5t-104 104.5h-5v-528h-233
v1450h221v-144h4z" />
    <glyph glyph-name="uni0441.esCyrillic" unicode="&#x441;" 
d="M596 903q-190 0 -240.5 -131.5t-50.5 -225.5q0 -176 69.5 -283t211.5 -107q102 0 168.5 63.5t83.5 177.5h233q-33 -207 -156.5 -316.5t-328.5 -109.5q-241 0 -377.5 152.5t-136.5 399.5t135.5 405.5t386.5 158.5q193 0 327.5 -97.5t149.5 -284.5h-233q-14 98 -79 148
t-163 50z" />
    <glyph glyph-name="uni0442.teCyrillic" unicode="&#x442;" horiz-adv-x="985" 
d="M965 885h-351v-885h-233v885h-365v174h949v-174z" />
    <glyph glyph-name="uni0443.uCyrillic" unicode="&#x443;" horiz-adv-x="1062" 
d="M233 -225q60 0 93.5 37.5t54.5 109.5l27 82l-402 1055h256l277 -791h4l268 791h244l-412 -1116q-29 -72 -56.5 -137.5t-91.5 -145.5t-227 -80q-82 0 -162 12v197q102 -14 127 -14z" />
    <glyph glyph-name="uni0444.efCyrillic" unicode="&#x444;" horiz-adv-x="2009" 
d="M380 262.5q75 -106.5 220 -106.5t220 112t75 276t-79 261.5t-221 97.5t-216 -111.5t-74 -267.5q0 -155 75 -261.5zM1628.5 791.5q-73.5 111.5 -216.5 111.5q-142 0 -221 -97t-79 -261t75.5 -276.5t219.5 -112.5q145 0 220 106.5t75 261.5q0 156 -73.5 267.5zM1120 143
v-534h-233v534h-4q-88 -172 -322 -172t-361.5 157.5t-127.5 418.5q0 260 133.5 400t314.5 140t258.5 -61t104.5 -104h4v540h233v-540h4q104 165 353 165q192 0 325 -139.5t133 -400.5t-127.5 -418.5t-361.5 -157.5t-322 172h-4z" />
    <glyph glyph-name="uni0445.khaCyrillic" unicode="&#x445;" horiz-adv-x="1099" 
d="M408 557l-367 502h283l221 -326l231 326h271l-361 -490l406 -569h-281l-268 391l-260 -391h-275z" />
    <glyph glyph-name="uni0446.tseCyrillic" unicode="&#x446;" horiz-adv-x="1331" 
d="M129 1059h233v-885h527v885h233v-885h189v-496h-215v322h-967v1059z" />
    <glyph glyph-name="uni0447.cheCyrillic" unicode="&#x447;" horiz-adv-x="1155" 
d="M562 532q120 0 237 50v477h233v-1059h-233v403q-144 -55 -279 -55q-418 0 -418 361v350h234v-289q0 -125 53 -181.5t173 -56.5z" />
    <glyph glyph-name="uni0448.shaCyrillic" unicode="&#x448;" horiz-adv-x="1826" 
d="M1030 174h432v885h234v-1059h-1567v1059h233v-885h435v885h233v-885z" />
    <glyph glyph-name="uni0449.shchaCyrillic" unicode="&#x449;" horiz-adv-x="1904" 
d="M1669 0h-1540v1059h233v-885h435v885h233v-885h432v885h234v-885h188v-496h-215v322z" />
    <glyph glyph-name="uni044A.hardSignCyrillic" unicode="&#x44a;" horiz-adv-x="1310" 
d="M1010 360.5q0 112.5 -152 112.5h-301v-299h301q61 0 106.5 37t45.5 149.5zM557 1059v-406h311q210 0 292.5 -97.5t82.5 -268.5t-128 -229t-247 -58h-544v885h-304v174h537z" />
    <glyph glyph-name="uni044B.yeriCyrillic" unicode="&#x44b;" horiz-adv-x="1609" 
d="M1245 0v1059h234v-1059h-234zM129 1059h233v-406h312q208 0 291.5 -97.5t83.5 -268t-128 -229t-247 -58.5h-545v1059zM815 360.5q0 112.5 -151 112.5h-302v-299h302q61 0 106 37t45 149.5z" />
    <glyph glyph-name="uni044C.softSignCyrillic" unicode="&#x44c;" horiz-adv-x="1116" 
d="M129 1059h233v-406h312q208 0 291.5 -97.5t83.5 -268t-128 -229t-247 -58.5h-545v1059zM815 360.5q0 112.5 -151 112.5h-302v-299h302q61 0 106 37t45 149.5z" />
    <glyph glyph-name="uni044D.eCyrillic" unicode="&#x44d;" 
d="M564 1087q112 0 209 -44t195.5 -159t98.5 -361t-137 -399t-360 -153q-437 0 -502 426h233q16 -117 82 -179t153 -62t180 49.5t115 261.5h-475v154h471q-22 156 -102.5 219t-180.5 63q-99 0 -164 -50t-79 -148h-233q15 187 149 284.5t347 97.5z" />
    <glyph glyph-name="uni044E.iuCyrillic" unicode="&#x44e;" horiz-adv-x="1667" 
d="M1114.5 156q108.5 0 178 111t69.5 263q0 248 -102.5 310.5t-210.5 62.5t-178 -108t-70 -265q0 -249 102.5 -311.5t211 -62.5zM129 0v1059h233v-422h211q28 203 162 326.5t360 123.5t363 -154.5t137 -402.5q0 -249 -137 -404t-368 -155t-366.5 133.5t-154.5 358.5h-207
v-463h-233z" />
    <glyph glyph-name="uni044F.iaCyrillic" unicode="&#x44f;" horiz-adv-x="1116" 
d="M301 698.5q0 -112.5 152 -112.5h301v299h-301q-61 0 -106.5 -37t-45.5 -149.5zM987 0h-233v412h-230l-250 -412h-284l303 430q-125 32 -175 116t-50 159q0 156 82.5 255t291.5 99h545v-1059z" />
    <glyph glyph-name="uni0450.eGraveCyrillic" unicode="&#x450;" 
d="M569 1499l187 -293h-170l-291 293h274zM590 156q196 0 258 176h221q-35 -168 -167 -264.5t-312 -96.5q-244 0 -381 152.5t-137 395.5t141 405.5t371 162.5q125 0 224 -52t164.5 -138t95.5 -197.5t15 -230.5h-778q0 -133 73.5 -223t211.5 -90zM583 903q-120 0 -197 -81
t-81 -199h545q-13 185 -110 232.5t-157 47.5z" />
    <glyph glyph-name="uni0451.ioCyrillic" unicode="&#x451;" 
d="M862 1454v-221h-233v221h233zM276 1233v221h234v-221h-234zM590 156q196 0 258 176h221q-35 -168 -167 -264.5t-312 -96.5q-244 0 -381 152.5t-137 395.5t141 405.5t371 162.5q125 0 224 -52t164.5 -138t95.5 -197.5t15 -230.5h-778q0 -133 73.5 -223t211.5 -90zM583 903
q-120 0 -197 -81t-81 -199h545q-13 185 -110 232.5t-157 47.5z" />
    <glyph glyph-name="uni0452.djeCyrillic" unicode="&#x452;" horiz-adv-x="1196" 
d="M770 -420q-60 0 -104 8v185q40 -9 91 -9t67 39t16 117v746q0 125 -51.5 181t-162.5 56t-180 -81t-69 -197v-625h-234v1196h-155v133h155v133h234v-133h258v-133h-258v-276h4q43 72 128 119.5t189 47.5q174 0 274.5 -90t100.5 -270v-817q0 -158 -69.5 -244t-233.5 -86z
" />
    <glyph glyph-name="uni0453.gjeCyrillic" unicode="&#x453;" horiz-adv-x="866" 
d="M524 1499h277l-291 -293h-170zM129 1059h719v-174h-486v-885h-233v1059z" />
    <glyph glyph-name="uni0454.ieCyrillic" unicode="&#x454;" 
d="M596 903q-163 0 -217.5 -98t-67.5 -184h471v-154h-475q22 -212 115.5 -261.5t180.5 -49.5t152.5 62.5t82.5 178.5h233q-33 -209 -156.5 -317.5t-328.5 -108.5q-241 0 -377.5 152.5t-136.5 399.5t135.5 405.5t386.5 158.5q193 0 327.5 -97.5t149.5 -284.5h-233
q-14 98 -79 148t-163 50z" />
    <glyph glyph-name="uni0455.dzeCyrillic" unicode="&#x455;" horiz-adv-x="1062" 
d="M540 903q-218 0 -218 -108q0 -76 77.5 -103.5t139 -40t125.5 -26.5q157 -34 250.5 -101t93.5 -209q0 -174 -143 -259t-330 -85q-324 0 -395.5 137.5t-73.5 231.5h233q18 -184 240 -184q157 0 197 47t38 92t-32.5 73.5t-79 46t-109.5 30t-126 26.5q-155 33 -247 99.5
t-92 218.5q0 151 131.5 224.5t310.5 73.5q281 0 357 -118.5t86 -206.5h-244q-16 84 -76.5 112.5t-112.5 28.5z" />
    <glyph glyph-name="uni0456.iCyrillic" unicode="&#x456;" horiz-adv-x="493" 
d="M129 1059h233v-1059h-233v1059zM129 1462h233v-221h-233v221z" />
    <glyph glyph-name="uni0457.yiCyrillic" unicode="&#x457;" horiz-adv-x="546" 
d="M567 1454v-221h-233v221h233zM-18 1233v221h233v-221h-233zM158 0v1059h233v-1059h-233z" />
    <glyph glyph-name="uni0458.jeCyrillic" unicode="&#x458;" horiz-adv-x="493" 
d="M35 -236q63 0 78.5 39t15.5 117v1139h233v-1149q0 -158 -69.5 -244t-233.5 -86q-60 0 -104 8v185q52 -9 80 -9zM129 1462h233v-221h-233v221z" />
    <glyph glyph-name="uni0459.ljeCyrillic" unicode="&#x459;" horiz-adv-x="1939" 
d="M1638 360.5q0 112.5 -151 112.5h-301v-299h301q61 0 106 37t45 149.5zM89 168q54 0 102.5 37t64.5 91t23.5 92t17.5 124t10 547h879v-406h311q208 0 291.5 -97.5t83.5 -268t-128 -229t-247 -58.5h-545v885h-407q0 -503 -47 -654q-33 -120 -112 -179.5t-286 -59.5
q-66 0 -100 6v176q35 -6 89 -6z" />
    <glyph glyph-name="uni045A.njeCyrillic" unicode="&#x45a;" horiz-adv-x="1875" 
d="M1122 174h301q61 0 106.5 34t45.5 116t-45 109.5t-107 27.5h-301v-287zM889 467h-527v-467h-233v1059h233v-418h527v418h233v-418h312q210 0 292 -95t82 -265.5t-128 -225.5t-246 -55h-545v467z" />
    <glyph glyph-name="uni045B.tsheCyrillic" unicode="&#x45b;" horiz-adv-x="1196" 
d="M143 1462h234v-133h258v-133h-258v-276h4q43 72 128 119.5t189 47.5q174 0 274.5 -90t100.5 -270v-727h-233v666q-4 125 -53.5 181t-160.5 56t-180 -81t-69 -197v-625h-234v1196h-155v133h155v133z" />
    <glyph glyph-name="uni045C.kjeCyrillic" unicode="&#x45c;" horiz-adv-x="1099" 
d="M504 1499h276l-291 -293h-170zM129 1059h233v-428l422 428h287l-405 -389l444 -670h-285l-323 514l-140 -135v-379h-233v1059z" />
    <glyph glyph-name="uni045D.iGraveCyrillic" unicode="&#x45d;" horiz-adv-x="1251" 
d="M588 1499l186 -293h-170l-291 293h275zM129 1059h233v-727h5l464 727h289v-1059h-233v733h-4l-475 -733h-279v1059z" />
    <glyph glyph-name="uni045E.uShortCyrillic" unicode="&#x45e;" horiz-adv-x="1062" 
d="M539 1341q78 0 134 39t72 117h117q-16 -145 -107 -217t-232.5 -72t-225.5 74t-96 215h118q29 -156 220 -156zM233 -225q60 0 93.5 37.5t54.5 109.5l27 82l-402 1055h256l277 -791h4l268 791h244l-412 -1116q-29 -72 -56.5 -137.5t-91.5 -145.5t-227 -80q-82 0 -162 12
v197q102 -14 127 -14z" />
    <glyph glyph-name="uni045F.dzheCyrillic" unicode="&#x45f;" horiz-adv-x="1251" 
d="M518 0h-389v1059h233v-885h527v885h233v-1059h-389v-322h-215v322z" />
    <glyph glyph-name="uni0462.SemisoftSignCyrillic" unicode="&#x462;" horiz-adv-x="1527" 
d="M952 209q252 0 252 242q0 126 -78 183.5t-178 57.5h-375v-483h379zM317 1241h-301v221h301v271h256v-271h326v-221h-326v-340h390q283 0 390 -136.5t107 -372.5t-171 -314t-326 -78h-646v1241z" />
    <glyph glyph-name="uni0463.semisoftSignCyrillic" unicode="&#x463;" horiz-adv-x="1310" 
d="M1010 360.5q0 112.5 -152 112.5h-301v-299h301q61 0 106.5 37t45.5 149.5zM324 1059v231h233v-231h311v-174h-311v-232h311q210 0 292.5 -97.5t82.5 -268.5t-128 -229t-247 -58h-544v885h-304v174h304z" />
    <glyph glyph-name="uni046A.YusCyrillic" unicode="&#x46a;" horiz-adv-x="1986" 
d="M991 899l219 352h-436zM1120 0h-256v702h-166q-147 0 -219.5 -46t-72.5 -171v-485h-256v547q0 175 131 267.5t352 92.5h98l-379 555h1280l-379 -555h99q339 0 411 -135t72 -225v-547h-256v485q0 125 -72.5 171t-220.5 46h-166v-702z" />
    <glyph glyph-name="uni046B.yusCyrillic" unicode="&#x46b;" horiz-adv-x="1609" 
d="M803 684l135 201h-268zM918 0h-228v500h-121q-120 0 -153 -22.5t-43.5 -51.5t-10.5 -74v-352h-233v395q0 129 106.5 205t280.5 76h80l-303 383h1022l-303 -383h80q267 0 327 -107.5t60 -173.5v-395h-234v352q0 89 -43 118.5t-164 29.5h-120v-500z" />
    <glyph glyph-name="uni0472.FitaCyrillic" unicode="&#x472;" horiz-adv-x="1556" 
d="M524 897q76 0 140.5 -19.5t178.5 -63.5t160 -44q67 0 120 37t83 84q-25 173 -138.5 285t-289.5 112q-288 0 -357 -183t-83 -278q110 70 186 70zM1014 580q-63 0 -117.5 19t-153.5 63.5t-213 44.5q-53 0 -96 -30t-88 -93q90 -410 432 -410q200 0 315 140t126 348
q-103 -82 -205 -82zM778 1497q164 0 294 -61.5t268.5 -222.5t138.5 -483t-190.5 -543.5t-510.5 -221.5t-510 220.5t-190 544.5t138 484t268 221.5t294 61.5z" />
    <glyph glyph-name="uni0473.fitaCyrillic" unicode="&#x473;" horiz-adv-x="1214" 
d="M313 618q54 50 116 50q61 0 142.5 -35t121.5 -51.5t77 -16.5t67.5 31t55.5 66q-27 100 -96.5 170.5t-188.5 70.5q-184 0 -234 -113.5t-61 -171.5zM438 514q-49 0 -76.5 -28.5t-44.5 -59.5q21 -116 96 -193t202 -77t203 94.5t89 232.5q-66 -71 -145 -71q-45 0 -82 16
t-75 34.5t-78 35t-89 16.5zM74 530q0 250 143 403.5t391.5 153.5t391.5 -154.5t143 -402.5q0 -249 -143.5 -404t-391 -155t-391 154.5t-143.5 404.5z" />
    <glyph glyph-name="uni0474.IzhitsaCyrillic" unicode="&#x474;" horiz-adv-x="1374" 
d="M1305 1241q-52 0 -98 -38t-68 -103l-377 -1100h-285l-487 1462h266l367 -1157h4l258 795q52 157 111 226t127.5 102.5t150.5 33.5t133 -8v-221q-50 8 -102 8z" />
    <glyph glyph-name="uni0475.izhitsaCyrillic" unicode="&#x475;" horiz-adv-x="1155" 
d="M1083 1067q66 0 101 -6v-176q-34 6 -90 6q-109 0 -158 -135l-270 -756h-263l-385 1059h254l269 -813h4l184 581q40 121 109 180.5t245 59.5z" />
    <glyph glyph-name="uni048C.YatCyrillic" unicode="&#x48c;" horiz-adv-x="1527" 
d="M952 209q252 0 252 242q0 126 -78 183.5t-178 57.5h-375v-483h379zM317 1241h-301v221h301v271h256v-271h326v-221h-326v-340h390q283 0 390 -136.5t107 -372.5t-171 -314t-326 -78h-646v1241z" />
    <glyph glyph-name="uni048D.yatCyrillic" unicode="&#x48d;" horiz-adv-x="1310" 
d="M1010 360.5q0 112.5 -152 112.5h-301v-299h301q61 0 106.5 37t45.5 149.5zM324 1059v231h233v-231h311v-174h-311v-232h311q210 0 292.5 -97.5t82.5 -268.5t-128 -229t-247 -58h-544v885h-304v174h304z" />
    <glyph glyph-name="uni0490.GheUpturnCyrillic" unicode="&#x490;" horiz-adv-x="1214" 
d="M156 1462h796v363h256v-584h-796v-1241h-256v1462z" />
    <glyph glyph-name="uni0491.gheUpturnCyrillic" unicode="&#x491;" horiz-adv-x="866" 
d="M645 1380h215v-495h-498v-885h-233v1059h516v321z" />
    <glyph glyph-name="uni0492.GheStrokeCyrillic" unicode="&#x492;" horiz-adv-x="1234" 
d="M432 610v-610h-256v610h-176v189h176v663h1010v-221h-754v-442h262v-189h-262z" />
    <glyph glyph-name="uni0493.gheStrokeCyrillic" unicode="&#x493;" horiz-adv-x="886" 
d="M383 422v-422h-233v422h-150v180h150v457h718v-174h-485v-283h205v-180h-205z" />
    <glyph glyph-name="uni0496.ZheDescenderCyrillic" unicode="&#x496;" horiz-adv-x="2314" 
d="M991 1462h256v-665l651 665h316l-584 -583l467 -658h197v-583h-256v362h-103l-479 698l-209 -206v-492h-256v492l-209 206l-479 -698h-319l624 879l-583 583h315l651 -665v665z" />
    <glyph glyph-name="uni0497.zheDescenderCyrillic" unicode="&#x497;" horiz-adv-x="1816" 
d="M737 1059h234v-428l422 428h286l-405 -389l328 -496h194v-496h-215v322h-147l-324 514l-139 -135v-379h-234v379l-139 135l-324 -514h-284l444 670l-405 389h286l422 -428v428z" />
    <glyph glyph-name="uni0498.ZeDescenderCyrillic" unicode="&#x498;" horiz-adv-x="1210" 
d="M545 -360q125 0 125 84q0 39 -30 58t-71 19t-73 -20l-45 39l108 147q-235 12 -353 145.5t-122 366.5h252q-4 -141 63.5 -223t208.5 -82q273 0 273 254q0 160 -71 199t-140.5 44t-163.5 3v190q162 -4 238.5 42t76.5 181q0 96 -58 148.5t-140 52.5q-141 0 -200.5 -82
t-55.5 -211h-252q8 226 137.5 364t343.5 138q213 0 347 -101t134 -292q0 -239 -215 -316v-4q127 -25 201 -125.5t74 -220.5q0 -217 -133.5 -338t-346.5 -133l-67 -88l2 -2q22 8 60 8q77 0 129.5 -41.5t52.5 -102.5q0 -102 -73.5 -150t-152.5 -48q-145 0 -233 47l37 82
q74 -32 133 -32z" />
    <glyph glyph-name="uni0499.zeDescenderCyrillic" unicode="&#x499;" horiz-adv-x="1105" 
d="M494 -360q124 0 124 84q0 39 -29.5 58t-70.5 19t-74 -20l-45 39l115 153q-195 12 -311.5 96.5t-145.5 264.5h234q27 -182 256 -182q113 0 182.5 39.5t69.5 120.5t-46 116t-147 35h-170v182h172q76 0 120 25.5t44 100.5t-63.5 104.5t-164.5 29.5t-151.5 -28.5
t-64.5 -104.5h-222q56 315 443 315q192 0 320 -83t128 -228q0 -88 -44 -145.5t-122 -79.5v-4q86 -16 145.5 -83t59.5 -161q0 -169 -126 -248.5t-300 -83.5l-71 -92l2 -2q23 8 61 8q75 0 127.5 -41t52.5 -102q0 -104 -73 -151.5t-152 -47.5q-145 0 -233 47l36 82
q74 -32 134 -32z" />
    <glyph glyph-name="uni049A.KaDescenderCyrillic" unicode="&#x49a;" horiz-adv-x="1478" 
d="M156 1462h256v-665l651 665h315l-583 -583l467 -658h196v-583h-256v362h-102l-479 698l-209 -206v-492h-256v1462z" />
    <glyph glyph-name="uni049B.kaDescenderCyrillic" unicode="&#x49b;" horiz-adv-x="1210" 
d="M131 1059h234v-428l421 428h287l-405 -389l327 -496h195v-496h-215v322h-148l-323 514l-139 -135v-379h-234v1059z" />
    <glyph glyph-name="uni049C.KaStrokeCyrillic" unicode="&#x49c;" horiz-adv-x="1587" 
d="M535 1276h157v-416h64l518 602h289l-582 -676l623 -786h-326l-520 672h-66v-432h-157v432h-123v-672h-256v1462h256v-602h123v416z" />
    <glyph glyph-name="uni049D.kaStrokeCyrillic" unicode="&#x49d;" horiz-adv-x="1288" 
d="M129 1059h233v-414h89v258h167v-258h46l331 414h265l-410 -490l448 -569h-292l-355 475h-33v-317h-167v317h-89v-475h-233v1059z" />
    <glyph glyph-name="uni04A0.KaBashkirCyrillic" unicode="&#x4a0;" horiz-adv-x="1556" 
d="M573 0h-256v1241h-301v221h557v-665l652 665h315l-584 -583l625 -879h-319l-480 698l-209 -206v-492z" />
    <glyph glyph-name="uni04A1.kaBashkirCyrillic" unicode="&#x4a1;" horiz-adv-x="1306" 
d="M557 1059v-428l422 428h287l-406 -389l445 -670h-285l-324 514l-139 -135v-379h-233v885h-304v174h537z" />
    <glyph glyph-name="uni04A2.EnDescenderCyrillic" unicode="&#x4a2;" horiz-adv-x="1585" 
d="M150 1462h256v-581h665v581h256v-1241h238v-583h-256v362h-238v659h-665v-659h-256v1462z" />
    <glyph glyph-name="uni04A3.enDescenderCyrillic" unicode="&#x4a3;" horiz-adv-x="1331" 
d="M1096 0h-207v446h-527v-446h-233v1059h233v-438h527v438h233v-885h189v-496h-215v322z" />
    <glyph glyph-name="uni04A4.EnCyrillic_GheCyrillic" unicode="&#x4a4;" horiz-adv-x="1644" 
d="M150 1462h256v-581h665v581h557v-221h-301v-1241h-256v659h-665v-659h-256v1462z" />
    <glyph glyph-name="uni04A5.enCyrillic_gheCyrillic" unicode="&#x4a5;" horiz-adv-x="1441" 
d="M129 1059h233v-438h527v438h536v-174h-303v-885h-233v446h-527v-446h-233v1059z" />
    <glyph glyph-name="uni04AA.EsDescenderCyrillic" unicode="&#x4aa;" horiz-adv-x="1478" 
d="M916 -157q53 -40 53 -102q0 -104 -73 -149t-189 -45t-197 43l37 82q33 -10 65.5 -21t67.5 -11q125 0 125 84q0 39 -29.5 58t-69.5 19t-75 -20l-45 39l112 149q-284 27 -452 244.5t-168 528.5t138 471.5t268 222t274 61.5q275 0 445.5 -133.5t195.5 -366.5h-256
q-74 291 -365 291q-222 0 -333 -163.5t-111 -393.5t111 -393.5t333 -163.5q164 0 260 106.5t113 276.5h250q-16 -261 -182 -423.5t-426 -166.5l-66 -86v-4q18 6 77 6t112 -40z" />
    <glyph glyph-name="uni04AB.esDescenderCyrillic" unicode="&#x4ab;" 
d="M524 -360q125 0 125 84q0 39 -29.5 58t-69.5 19t-75 -20l-45 39l115 153q-211 13 -342 157.5t-131 392.5q0 247 135.5 405.5t386.5 158.5q193 0 327.5 -97.5t149.5 -284.5h-233q-14 98 -79 148t-163 50q-190 0 -240.5 -131.5t-50.5 -225.5q0 -176 69.5 -283t211.5 -107
q102 0 168.5 63.5t83.5 177.5h233q-33 -207 -158 -317q-104 -92 -270 -107l-74 -94l2 -2q23 8 61 8q76 0 128.5 -41.5t52.5 -103.5q0 -104 -76 -150.5t-153 -46.5q-142 0 -230 47l37 82q74 -32 133 -32z" />
    <glyph glyph-name="uni04AE.UStraightCyrillic" unicode="&#x4ae;" horiz-adv-x="1327" 
d="M793 0h-256v573l-549 889h297l387 -655l381 655h286l-546 -889v-573z" />
    <glyph glyph-name="uni04AF.uStraightCyrillic" unicode="&#x4af;" horiz-adv-x="1062" 
d="M651 -391h-233v352l-400 1098h254l269 -813h4l258 813h241l-393 -1098v-352z" />
    <glyph glyph-name="uni04B0.UStrokeCyrillic" unicode="&#x4b0;" horiz-adv-x="1327" 
d="M209 283v163h328v127l-549 889h297l387 -655l381 655h286l-546 -889v-127h317v-163h-317v-283h-256v283h-328z" />
    <glyph glyph-name="uni04B1.uStrokeCyrillic" unicode="&#x4b1;" horiz-adv-x="1062" 
d="M100 -41v174h254l-336 926h254l269 -813h4l258 813h241l-331 -926h266v-174h-328v-350h-233v350h-318z" />
    <glyph glyph-name="uni04B2.HaDescenderCyrillic" unicode="&#x4b2;" horiz-adv-x="1523" 
d="M1503 221v-583h-256v362h-225l-365 559l-370 -559h-293l518 758l-483 704h305l332 -516l346 516h286l-483 -704l367 -537h321z" />
    <glyph glyph-name="uni04B3.haDescenderCyrillic" unicode="&#x4b3;" horiz-adv-x="1212" 
d="M1192 174v-496h-215v322h-166l-268 391l-260 -391h-275l400 557l-367 502h283l221 -326l231 326h271l-361 -490l281 -395h225z" />
    <glyph glyph-name="uni04B6.CheDescenderCyrillic" unicode="&#x4b6;" horiz-adv-x="1482" 
d="M969 641q-125 -86 -391 -86q-78 0 -167 22.5t-188.5 93t-99.5 244.5v547h256v-485q0 -125 72.5 -181.5t220.5 -56.5q80 0 168 34.5t129 78.5v610h256v-1241h237v-583h-256v362h-237v641z" />
    <glyph glyph-name="uni04B7.cheDescenderCyrillic" unicode="&#x4b7;" horiz-adv-x="1241" 
d="M562 532q120 0 237 50v477h233v-885h189v-496h-215v322h-207v403q-144 -55 -279 -55q-418 0 -418 361v350h234v-289q0 -125 53 -181.5t173 -56.5z" />
    <glyph glyph-name="uni04B8.CheStrokeCyrillic" unicode="&#x4b8;" horiz-adv-x="1376" 
d="M754 123h-158v432q-214 0 -343.5 94t-129.5 266v547h256v-485q0 -109 53 -165t164 -69v416h158v-411q70 16 130 45.5t85 58.5v610h256v-1462h-256v641q-64 -53 -215 -76v-442z" />
    <glyph glyph-name="uni04B9.cheStrokeCyrillic" unicode="&#x4b9;" horiz-adv-x="1155" 
d="M799 1059h233v-1059h-233v403q-63 -26 -148 -43v-292h-168v280q-381 16 -381 361v350h234v-289q0 -102 35 -157.5t112 -71.5v272h168v-272q99 18 148 41v477z" />
    <glyph glyph-name="uni04BA.ShhaCyrillic" unicode="&#x4ba;" horiz-adv-x="1376" 
d="M408 821q116 86 390 86q78 0 167.5 -22.5t188.5 -92.5t99 -245v-547h-256v485q0 125 -72.5 181.5t-219.5 56.5q-79 0 -172.5 -35.5t-124.5 -77.5v-610h-256v1462h256v-641z" />
    <glyph glyph-name="uni04BB.shhaCyrillic" unicode="&#x4bb;" horiz-adv-x="1175" 
d="M123 1462h233v-542h4q43 72 128 119.5t190 47.5q174 0 274.5 -90t100.5 -270v-727h-234v666q-4 125 -53 181t-159 56t-180.5 -81t-70.5 -197v-625h-233v1462z" />
    <glyph glyph-name="palochkacyrillic" unicode="&#x4c0;" horiz-adv-x="569" 
d="M156 1462h256v-1462h-256v1462z" />
    <glyph glyph-name="uni04C1.ZheBreveCyrillic" unicode="&#x4c1;" horiz-adv-x="2238" 
d="M1126 1745q78 0 134.5 39t72.5 117h117q-16 -145 -107.5 -217t-232.5 -72t-225 73.5t-97 215.5h119q29 -156 219 -156zM991 1462h256v-665l651 665h316l-584 -583l625 -879h-320l-479 698l-209 -206v-492h-256v492l-209 206l-479 -698h-319l624 879l-583 583h315
l651 -665v665z" />
    <glyph glyph-name="uni04C2.zheBreveCyrillic" unicode="&#x4c2;" horiz-adv-x="1708" 
d="M860 1341q78 0 134.5 39t72.5 117h117q-16 -145 -107.5 -217t-233 -72t-225 74t-96.5 215h119q29 -156 219 -156zM737 1059h234v-428l422 428h286l-405 -389l444 -670h-284l-324 514l-139 -135v-379h-234v379l-139 135l-324 -514h-284l444 670l-405 389h286l422 -428v428
z" />
    <glyph glyph-name="uni04D0.ABreveCyrillic" unicode="&#x4d0;" horiz-adv-x="1366" 
d="M690 1745q78 0 134.5 39t72.5 117h117q-16 -145 -107.5 -217t-233 -72t-225 73.5t-96.5 215.5h119q29 -156 219 -156zM457 582h446l-219 628h-6zM547 1462h272l563 -1462h-274l-137 387h-584l-137 -387h-264z" />
    <glyph glyph-name="uni04D1.aBreveCyrillic" unicode="&#x4d1;" 
d="M575 1341q78 0 134.5 39t72.5 117h117q-16 -145 -107.5 -217t-232.5 -72t-225 74t-96 215h118q29 -156 219 -156zM366 188.5q67 -32.5 127 -32.5q117 0 200 50.5t83 149.5v174q-53 -35 -130.5 -42t-135.5 -17t-92.5 -21.5t-76.5 -42.5t-42 -109q0 -77 67 -109.5zM791 760
q0 143 -223 143q-95 0 -158.5 -41t-71.5 -127h-234q11 187 144.5 269.5t337.5 82.5q283 0 353.5 -111.5t70.5 -195.5v-544q0 -43 11 -61.5t44 -18.5h25q14 0 32 4v-162q-81 -27 -147 -27q-155 0 -180 129q-70 -68 -171.5 -98.5t-184.5 -30.5q-163 0 -268 80t-105 230
q0 250 166.5 285.5t240.5 43.5q63 12 120.5 17.5t127.5 24.5t70 108z" />
    <glyph glyph-name="uni04D2.ADiaeresisCyrillic" unicode="&#x4d2;" horiz-adv-x="1366" 
d="M975 1858v-222h-234v222h234zM389 1636v222h234v-222h-234zM457 582h446l-219 628h-6zM547 1462h272l563 -1462h-274l-137 387h-584l-137 -387h-264z" />
    <glyph glyph-name="uni04D3.aDiaeresisCyrillic" unicode="&#x4d3;" 
d="M852 1454v-221h-234v221h234zM266 1233v221h234v-221h-234zM366 188.5q67 -32.5 127 -32.5q117 0 200 50.5t83 149.5v174q-53 -35 -130.5 -42t-135.5 -17t-92.5 -21.5t-76.5 -42.5t-42 -109q0 -77 67 -109.5zM791 760q0 143 -223 143q-95 0 -158.5 -41t-71.5 -127h-234
q11 187 144.5 269.5t337.5 82.5q283 0 353.5 -111.5t70.5 -195.5v-544q0 -43 11 -61.5t44 -18.5h25q14 0 32 4v-162q-81 -27 -147 -27q-155 0 -180 129q-70 -68 -171.5 -98.5t-184.5 -30.5q-163 0 -268 80t-105 230q0 250 166.5 285.5t240.5 43.5q63 12 120.5 17.5
t127.5 24.5t70 108z" />
    <glyph glyph-name="Aiecyrillic" unicode="&#x4d4;" horiz-adv-x="1972" 
d="M936 569v672h-74l-321 -672h395zM1892 1462v-221h-712v-383h667v-209h-667v-428h725v-221h-969v375h-490l-176 -375h-284l727 1462h1179z" />
    <glyph glyph-name="aiecyrillic" unicode="&#x4d5;" horiz-adv-x="1820" 
d="M1269 903q-123 0 -193 -79q-69 -79 -79 -201h535q2 127 -69 203t-194 77zM299 293q0 -137 213 -137q165 0 241 120q24 39 23 93v157q-33 -33 -168 -46q-134 -12 -190 -30q-119 -37 -119 -157zM476 -29q-194 0 -303 80t-107 230q0 177 130 256q86 52 277 73q63 12 119 18
t96 17q92 27 90 115q0 143 -207 143q-98 0 -161 -41t-72 -127h-234q11 187 159 279q119 73 312 73t291 -69q41 -29 72 -74q110 145 336 143q260 0 385 -171t106 -447h-768q0 -210 152 -287q53 -27 125 -26q189 0 250 178h233q-45 -170 -174 -266t-305 -97q-278 0 -389 195
q-70 -104 -188 -150t-225 -45z" />
    <glyph glyph-name="uni04D6.IeBreveCyrillic" unicode="&#x4d6;" horiz-adv-x="1290" 
d="M713 1745q78 0 134 39t73 117h116q-16 -145 -107 -217t-232.5 -72t-225.5 73.5t-96 215.5h119q29 -156 219 -156zM156 1462h1052v-221h-796v-383h737v-209h-737v-428h811v-221h-1067v1462z" />
    <glyph glyph-name="uni04D7.ieBreveCyrillic" unicode="&#x4d7;" 
d="M575 1341q78 0 134.5 39t72.5 117h117q-16 -145 -107.5 -217t-232.5 -72t-225 74t-96 215h118q29 -156 219 -156zM590 156q196 0 258 176h221q-35 -168 -167 -264.5t-312 -96.5q-244 0 -381 152.5t-137 395.5t141 405.5t371 162.5q125 0 224 -52t164.5 -138t95.5 -197.5
t15 -230.5h-778q0 -133 73.5 -223t211.5 -90zM583 903q-120 0 -197 -81t-81 -199h545q-13 185 -110 232.5t-157 47.5z" />
    <glyph glyph-name="uni04D8.SchwaCyrillic" unicode="&#x4d8;" horiz-adv-x="1556" 
d="M1075.5 296.5q110.5 122.5 136.5 309.5h-870q25 -185 136 -308.5t299 -123.5t298.5 122.5zM78 731q0 52 4 96h1135q-34 312 -184 386.5t-255 74.5q-152 0 -248 -75.5t-143 -192.5h-264q72 213 243.5 345t411.5 132q164 0 294 -61.5t268.5 -222.5t138.5 -483
t-190.5 -543.5t-510.5 -221.5t-510 220.5t-190 545.5z" />
    <glyph glyph-name="uni04D9.schwaCyrillic" unicode="&#x4d9;" 
d="M834 590q0 133 -73.5 223t-211.5 90q-104 0 -165.5 -44t-92.5 -132h-221q35 168 167.5 264t311.5 96q244 0 381 -152.5t137 -394.5t-141.5 -405.5t-370.5 -163.5q-125 0 -224.5 52.5t-202 185t-73.5 381.5h779zM556 156q120 0 196 80t82 200h-545q14 -186 110.5 -233
t156.5 -47z" />
    <glyph glyph-name="uni04DC.ZheDiaeresisCyrillic" unicode="&#x4dc;" horiz-adv-x="2238" 
d="M1411 1858v-222h-233v222h233zM825 1636v222h234v-222h-234zM991 1462h256v-665l651 665h316l-584 -583l625 -879h-320l-479 698l-209 -206v-492h-256v492l-209 206l-479 -698h-319l624 879l-583 583h315l651 -665v665z" />
    <glyph glyph-name="uni04DD.ZzheDiaeresisCyrillic" unicode="&#x4dd;" horiz-adv-x="1708" 
d="M1147 1454v-221h-234v221h234zM561 1233v221h234v-221h-234zM737 1059h234v-428l422 428h286l-405 -389l444 -670h-284l-324 514l-139 -135v-379h-234v379l-139 135l-324 -514h-284l444 670l-405 389h286l422 -428v428z" />
    <glyph glyph-name="uni04DE.ZeDiaeresisCyrillic" unicode="&#x4de;" horiz-adv-x="1210" 
d="M897 1858v-222h-233v222h233zM311 1636v222h234v-222h-234zM608 174q273 0 273 254q0 160 -71 199t-140.5 44t-163.5 3v190q162 -4 238.5 42t76.5 181q0 96 -58 148.5t-140 52.5q-141 0 -200.5 -82t-55.5 -211h-252q8 226 137.5 364t343.5 138q213 0 347 -101t134 -292
q0 -239 -215 -316v-4q127 -25 201 -124.5t74 -223.5q0 -227 -149 -349t-393 -122t-375.5 135.5t-135.5 378.5h252q-4 -141 63.5 -223t208.5 -82z" />
    <glyph glyph-name="uni04DF.zeDiaeresisCyrillic" unicode="&#x4df;" horiz-adv-x="1105" 
d="M846 1454v-221h-234v221h234zM260 1233v221h234v-221h-234zM549 1087q192 0 320 -83t128 -228q0 -88 -44 -145.5t-122 -79.5v-4q86 -16 145.5 -83t59.5 -163q0 -172 -134 -251t-339 -79q-204 0 -338.5 84t-167.5 279h234q27 -182 256 -182q113 0 182.5 39.5t69.5 120.5
t-46 116t-147 35h-170v182h172q76 0 120 25.5t44 100.5t-63.5 104.5t-164.5 29.5t-151.5 -28.5t-64.5 -104.5h-222q56 315 443 315z" />
    <glyph glyph-name="uni04E2.IMacronCyrillic" unicode="&#x4e2;" horiz-adv-x="1478" 
d="M444 1681v134h590v-134h-590zM150 1462h256v-1089l620 1089h301v-1462h-256v1098l-629 -1098h-292v1462z" />
    <glyph glyph-name="uni04E3.iMacronCyrillic" unicode="&#x4e3;" horiz-adv-x="1251" 
d="M330 1278v133h590v-133h-590zM129 1059h233v-727h5l464 727h289v-1059h-233v733h-4l-475 -733h-279v1059z" />
    </font>
</defs>
</svg>
